<?xml version="1.0" encoding="utf-8"?>
<!-- Generator: Adobe Illustrator 27.5.0, SVG Export Plug-In . SVG Version: 6.00 Build 0)  -->
<svg version="1.1" xmlns="http://www.w3.org/2000/svg" xmlns:xlink="http://www.w3.org/1999/xlink" x="0px" y="0px"
	 viewBox="0 0 500 500" style="enable-background:new 0 0 500 500;" xml:space="preserve">
<g id="OBJECTS">
	<path style="fill:#F0F7FF;" d="M83.314,248.541c-18.269-37.956-22.604-83.26-7.869-122.723
		c14.734-39.463,49.548-71.792,90.922-79.707c41.373-7.915,87.582,10.976,108.4,47.596c7.701,13.547,11.898,28.794,18.777,42.776
		c6.879,13.982,17.457,27.364,32.378,31.856c21.668,6.523,44.108-7.434,66.734-7.757c26.276-0.375,50.61,19.223,59.149,44.076
		c8.54,24.852,2.586,53.334-12.263,75.015c-14.849,21.681-37.732,36.986-62.313,46.277c-30.774,11.632-64.11,12.438-96.388,15.639
		c-33.862,3.359-68.383,0.045-100.963-9.789c-21.173-6.39-41.892-15.728-59.012-29.94
		C104.846,288.564,92.308,267.226,83.314,248.541z"/>
	<g>
		<g>
			<g>
				<g>
					<path style="fill:#CBE3F8;" d="M425.392,244.804c-0.116-2.079-1.896-3.67-3.974-3.554c-2.079,0.116-3.67,1.896-3.554,3.975
						c0.116,2.079,1.896,3.67,3.974,3.554C423.917,248.663,425.509,246.883,425.392,244.804z"/>
					<path style="fill:#CBE3F8;" d="M420.275,261.158l4.496-0.251l0.408-4.814c1.036-0.331,2.004-0.804,2.887-1.393l4.02,2.687
						l3.002-3.357l-3.118-3.695c0.486-0.943,0.849-1.958,1.062-3.024l4.739-0.942l-0.251-4.496l-4.814-0.408
						c-0.331-1.036-0.804-2.004-1.393-2.887l2.687-4.02l-3.357-3.002l-3.695,3.118c-0.943-0.486-1.958-0.849-3.024-1.062
						l-0.942-4.739l-4.497,0.251l-0.408,4.814c-1.035,0.331-2.004,0.804-2.887,1.393l-4.02-2.687L408.168,236l3.118,3.695
						c-0.486,0.943-0.849,1.958-1.062,3.024l-4.739,0.942l0.251,4.497l4.814,0.408c0.331,1.036,0.804,2.004,1.393,2.887l-2.687,4.02
						l3.357,3.002l3.695-3.118c0.943,0.486,1.958,0.848,3.024,1.062L420.275,261.158z M415.461,245.359
						c-0.19-3.406,2.416-6.321,5.822-6.511c3.406-0.19,6.321,2.416,6.511,5.822c0.19,3.406-2.416,6.321-5.822,6.511
						C418.567,251.372,415.652,248.765,415.461,245.359z"/>
				</g>
				<g>
					<path style="fill:#CBE3F8;" d="M451.578,214.849c3.056-2.176,3.769-6.418,1.592-9.474c-2.176-3.056-6.418-3.769-9.474-1.592
						c-3.056,2.176-3.769,6.418-1.592,9.474C444.281,216.313,448.522,217.025,451.578,214.849z"/>
					<path style="fill:#CBE3F8;" d="M421.739,222.78l4.707,6.609l7.728-4.008c1.501,1.259,3.153,2.279,4.898,3.059l-0.227,8.709
						l8.002,1.345l2.632-8.305c1.905-0.166,3.799-0.59,5.629-1.29l5.993,6.314l6.609-4.707l-4.008-7.728
						c1.259-1.501,2.28-3.153,3.059-4.898l8.709,0.227l1.345-8.002l-8.305-2.632c-0.166-1.905-0.59-3.8-1.29-5.629l6.314-5.993
						l-4.708-6.61l-7.728,4.008c-1.501-1.259-3.153-2.279-4.898-3.059l0.227-8.709l-8.002-1.345l-2.632,8.305
						c-1.905,0.166-3.8,0.59-5.629,1.29l-5.993-6.314l-6.609,4.708l4.008,7.728c-1.259,1.501-2.279,3.153-3.059,4.898l-8.709-0.228
						l-1.345,8.002l8.305,2.632c0.166,1.904,0.59,3.799,1.29,5.629L421.739,222.78z M441.182,200.251
						c5.006-3.566,11.955-2.398,15.521,2.609c3.566,5.006,2.398,11.955-2.609,15.521c-5.006,3.566-11.955,2.398-15.521-2.609
						C435.007,210.766,436.175,203.817,441.182,200.251z"/>
				</g>
			</g>
		</g>
		<g>
			<rect x="62.491" y="142.162" style="fill:#CBE3F8;" width="14.082" height="29.672"/>
			<rect x="79.842" y="128.332" style="fill:#CBE3F8;" width="14.082" height="43.503"/>
			<rect x="97.193" y="115.256" style="fill:#CBE3F8;" width="14.082" height="56.579"/>
			<path style="fill:#CBE3F8;" d="M64.671,131.981c13.241-7.359,25.438-16.625,36.059-27.429c3.044-3.097,5.953-6.323,8.731-9.66
				c1.611-1.935-1.161-4.737-2.786-2.786c-9.53,11.447-20.661,21.536-33.053,29.806c-3.553,2.372-7.205,4.591-10.94,6.667
				C60.466,129.811,62.45,133.215,64.671,131.981z"/>
		</g>
		<g>
			<path style="fill:#CBE3F8;" d="M321.79,87.258c-13.929,0-25.22,11.292-25.22,25.22s11.292,25.22,25.22,25.22
				c13.929,0,25.22-11.291,25.22-25.22S335.719,87.258,321.79,87.258z M321.79,128.631c-8.921,0-16.153-7.232-16.153-16.153
				s7.232-16.153,16.153-16.153c8.921,0,16.153,7.232,16.153,16.153S330.711,128.631,321.79,128.631z"/>
			<path style="fill:#CBE3F8;" d="M321.79,97.929c-8.035,0-14.549,6.514-14.549,14.549s6.514,14.549,14.549,14.549
				c8.036,0,14.549-6.514,14.549-14.549S329.826,97.929,321.79,97.929z M321.79,120.322c-4.332,0-7.844-3.512-7.844-7.843
				c0-4.332,3.512-7.844,7.844-7.844c4.332,0,7.844,3.512,7.844,7.844C329.634,116.81,326.122,120.322,321.79,120.322z"/>
			<path style="fill:#CBE3F8;" d="M321.79,106.762c-3.157,0-5.717,2.559-5.717,5.717c0,3.157,2.559,5.717,5.717,5.717
				c3.157,0,5.717-2.559,5.717-5.717C327.507,109.321,324.947,106.762,321.79,106.762z"/>
		</g>
	</g>
	<g>
		<g>
			<path style="fill:none;stroke:#FFFFFF;stroke-miterlimit:10;" d="M87.109,234.105c-0.57-0.823-1.129-1.654-1.675-2.494"/>
			<path style="fill:none;stroke:#FFFFFF;stroke-miterlimit:10;stroke-dasharray:5.9696,5.9696;" d="M82.323,226.516
				c-13.057-22.829-17.604-50.727-10.179-75.903c8.271-28.042,32.191-51.559,60.951-56.819c28.759-5.261,60.735,9.559,73.146,36.03
				c5.556,11.85,7.072,26.264,1.041,37.879c-7.454,14.357-25.813,21.379-41.476,17.338c-15.664-4.041-27.886-17.825-31.898-33.496
				c-4.012-15.671-0.409-32.733,7.915-46.604c8.323-13.871,21.047-24.732,35.118-32.712c20.214-11.464,43.847-17.336,66.961-14.927
				c23.113,2.409,45.531,13.424,60.295,31.37c13.495,16.402,20.075,38.617,16.737,59.514"/>
			<path style="fill:none;stroke:#FFFFFF;stroke-miterlimit:10;" d="M320.397,151.119c-0.202,0.978-0.426,1.953-0.672,2.924"/>
		</g>
	</g>
	<g>
		<path style="fill:#245472;" d="M396.079,123.804l-289.639,9.524c-7.886,0.259-14.927,6.701-15.914,14.558L66.25,341.135
			c-1.011,8.045,4.692,14.566,12.736,14.566h284.518c7.935,0,15.207-6.351,16.358-14.284l29.397-202.774
			C410.468,130.301,404.453,123.528,396.079,123.804z"/>
		<g>
			<path style="fill:#FFB652;" d="M123.183,236.338c-10.696-26.185-41.503-38.323-67.901-26.259
				c-23.383,10.686-35.084,37.4-26.859,61.361c5.252,15.3,17.168,26.234,31.345,30.986c9.144,3.065,16.51,9.823,20.118,18.657
				l0.37,0.905l40.042-16.145l-0.368-0.902c-3.638-8.908-2.96-18.896,1.446-27.516C127.708,265.031,128.824,250.15,123.183,236.338z
				"/>
			<g>
				<path style="fill:#FFFFFF;" d="M89.053,310.74c-0.659,0.266-1.407-0.044-1.671-0.692l-13.135-32.157l-11.93,4.81
					c-0.659,0.266-1.407-0.045-1.671-0.692l-8.859-21.688c-0.264-0.647,0.055-1.388,0.713-1.653l13.122-5.291
					c0.658-0.266,1.407,0.045,1.671,0.692l8.38,20.516l7.33-2.956c0.659-0.266,1.407,0.045,1.671,0.692
					c0.264,0.647-0.055,1.388-0.713,1.653l-7.33,2.956l13.135,32.157C90.031,309.734,89.712,310.475,89.053,310.74z M62.552,279.876
					l10.738-4.33l-7.901-19.343l-10.738,4.33L62.552,279.876z"/>
				<path style="fill:#FFFFFF;" d="M106.098,303.868c-0.659,0.265-1.407-0.045-1.671-0.692l-13.135-32.157l-7.33,2.956
					c-0.659,0.266-1.407-0.044-1.671-0.692c-0.264-0.647,0.055-1.388,0.713-1.653l7.33-2.956l-8.38-20.516
					c-0.264-0.647,0.055-1.388,0.713-1.653l13.122-5.291c0.658-0.265,1.407,0.045,1.671,0.692l8.859,21.688
					c0.264,0.647-0.055,1.388-0.713,1.653l-11.93,4.81l13.135,32.157C107.076,302.862,106.757,303.602,106.098,303.868z
					 M92.719,267.712l10.738-4.33l-7.901-19.343l-10.738,4.33L92.719,267.712z"/>
			</g>
			<path style="fill:#619AC9;" d="M83.799,330.855l2.412,5.906c1.478,3.618,5.657,5.348,9.335,3.865l26.858-10.829
				c3.678-1.483,5.462-5.618,3.984-9.236l-2.412-5.906L83.799,330.855z"/>
			<path style="fill:#8BB7E4;" d="M118.213,299.245l-41.09,16.568c-1.429,0.576-2.122,2.182-1.548,3.588l5.965,14.603
				c0.574,1.405,2.198,2.078,3.627,1.501l41.09-16.568c1.429-0.576,2.122-2.182,1.548-3.588l-5.965-14.603
				C121.265,299.341,119.642,298.668,118.213,299.245z"/>
			<path style="fill:#619AC9;" d="M119.824,296.968l-45.453,18.327c-1.121,0.452-1.664,1.712-1.214,2.814
				c0.45,1.102,1.724,1.629,2.844,1.178l45.453-18.327c1.121-0.452,1.664-1.712,1.214-2.814
				C122.218,297.043,120.944,296.516,119.824,296.968z"/>
			
				<ellipse transform="matrix(0.4036 -0.9149 0.9149 0.4036 -196.9888 190.9232)" style="fill:#FFFFFF;" cx="47.948" cy="246.557" rx="26.097" ry="15.57"/>
		</g>
		<path style="fill:#3A739B;" d="M395.612,123.804l-287.668,9.524c-7.832,0.259-13.541,6.701-12.902,14.558l15.707,193.249
			c0.654,8.045,7.705,14.566,15.75,14.566h284.518c7.935,0,13.893-6.351,13.402-14.284l-12.556-202.774
			C411.345,130.301,403.929,123.528,395.612,123.804z"/>
		<g>
			<path style="fill:#FFFFFF;" d="M407.173,289.008c-2.248,10.534-6.408,19.257-12.301,26.38
				c-3.433,4.149-7.448,7.739-12.022,10.825c-12.816,8.7-29.981,13.397-50.681,14.94c-40.728,3.053-188.444,0-188.444,0
				c-25.889-57.861-31.212-155.7-23.976-192.626l275.995-9.137C382.045,190.016,407.173,289.008,407.173,289.008z"/>
			<g>
				<g>
					<g>
						<path style="fill:#CBE3F8;" d="M274.612,197.162c0.673,10.119,1.676,20.215,2.968,30.278
							c10.002-0.268,20.005-0.536,30.007-0.805c0.133-0.004,0.266-0.007,0.399-0.011c-0.052-0.391-0.112-0.78-0.163-1.171
							c-1.332-10.21-2.328-20.457-3.027-30.722c-10.087,0.351-20.174,0.701-30.261,1.052
							C274.564,196.243,274.582,196.703,274.612,197.162z"/>
					</g>
					<g>
						<path style="fill:#FF847B;" d="M273.465,232.022c-10.03,0.269-20.06,0.538-30.091,0.807c-0.345,0.009-0.689,0.018-1.034,0.028
							c1.398,10.018,3.119,19.995,5.124,29.922c10.334-0.277,20.668-0.554,31.002-0.831
							C276.503,252.02,274.838,242.04,273.465,232.022z"/>
					</g>
					<g>
						<path style="fill:#CBE3F8;" d="M238.658,197.03c0.003,0.044,0.005,0.088,0.007,0.132c0.695,10.441,1.74,20.858,3.093,31.238
							c10.369-0.278,20.737-0.556,31.106-0.834c-1.346-10.509-2.348-21.055-3.023-31.62c-8.813,0.306-17.626,0.613-26.439,0.919
							C241.821,196.92,240.24,196.975,238.658,197.03z"/>
					</g>
					<g>
						<path style="fill:#CBE3F8;" d="M283.215,261.82c8.918-0.239,17.836-0.478,26.754-0.717c1.256-0.034,2.511-0.067,3.767-0.101
							c-2.011-9.924-3.709-19.904-5.128-29.922c-10.149,0.272-20.298,0.544-30.447,0.816
							C279.539,241.914,281.23,251.893,283.215,261.82z"/>
					</g>
					<g>
						<path style="fill:#CBE3F8;" d="M342.216,193.431c0.01,0.152,0.016,0.305,0.026,0.457c0.706,10.607,1.773,21.189,3.158,31.733
							c9.602-0.258,19.203-0.515,28.805-0.772c-0.074-0.552-0.159-1.104-0.231-1.656c-1.334-10.223-2.331-20.483-3.03-30.761
							c-4.255,0.148-8.511,0.296-12.766,0.444C352.857,193.061,347.536,193.246,342.216,193.431z"/>
					</g>
					<g>
						<path style="fill:#CBE3F8;" d="M211.272,229.218c8.587-0.23,17.175-0.461,25.762-0.691
							c-1.355-10.413-2.361-20.864-3.057-31.334c-8.612,0.299-17.223,0.599-25.835,0.898
							C208.855,208.495,209.907,218.875,211.272,229.218z"/>
					</g>
					<g>
						<path style="fill:#CBE3F8;" d="M374.826,229.304c-5.548,0.149-11.097,0.298-16.645,0.446
							c-4.064,0.109-8.128,0.218-12.191,0.327c1.408,10.018,3.137,19.995,5.152,29.921c9.614-0.258,19.229-0.516,28.843-0.773
							C377.963,249.302,376.255,239.322,374.826,229.304z"/>
					</g>
					<g>
						<path style="fill:#CBE3F8;" d="M321.813,294.793c-2.677-9.715-5.05-19.502-7.136-29.344
							c-10.184,0.273-20.368,0.546-30.552,0.819c0.141,0.671,0.269,1.345,0.412,2.016c1.959,9.165,4.185,18.278,6.656,27.33
							c6.819-0.183,13.638-0.366,20.458-0.548C315.037,294.974,318.425,294.884,321.813,294.793z"/>
					</g>
					<g>
						<path style="fill:#CBE3F8;" d="M341.297,230.203c-9.33,0.25-18.659,0.5-27.989,0.75c1.426,10.018,3.167,19.995,5.201,29.92
							c9.289-0.249,18.579-0.498,27.868-0.747C344.384,250.201,342.699,240.221,341.297,230.203z"/>
					</g>
					<g>
						<path style="fill:#CBE3F8;" d="M255.513,296.57c10.285-0.276,20.57-0.552,30.854-0.827
							c-2.627-9.719-4.966-19.505-7.004-29.348c-10.33,0.277-20.66,0.554-30.991,0.831c0.074,0.352,0.141,0.706,0.216,1.058
							C250.618,277.773,252.936,287.204,255.513,296.57z"/>
					</g>
					<g>
						<path style="fill:#CBE3F8;" d="M287.572,300.183c-10.272,0.275-20.543,0.551-30.815,0.826
							c2.702,9.483,5.67,18.897,8.926,28.223c10.263-0.174,20.631-0.383,30.778-0.61
							C293.218,319.223,290.251,309.74,287.572,300.183z"/>
					</g>
					<g>
						<path style="fill:#FF847B;" d="M323.065,299.231c-10.21,0.274-20.419,0.547-30.629,0.821
							c2.704,9.562,5.678,19.054,8.945,28.457c10.702-0.247,21.08-0.511,30.742-0.773
							C328.82,318.318,325.801,308.812,323.065,299.231z"/>
					</g>
					<g>
						<path style="fill:#CBE3F8;" d="M355.623,298.358c-9.239,0.248-18.478,0.496-27.718,0.743
							c2.759,9.58,5.809,19.084,9.133,28.502c10.318-0.285,19.685-0.562,27.561-0.803
							C361.324,317.402,358.333,307.917,355.623,298.358z"/>
					</g>
					<g>
						<path style="fill:#CBE3F8;" d="M251.903,301.139c-1.489,0.04-2.978,0.08-4.467,0.12c-7.015,0.188-14.029,0.376-21.044,0.564
							c2.68,9.344,5.625,18.619,8.842,27.81c8.251-0.073,16.822-0.183,25.517-0.321
							C257.524,320.003,254.577,310.606,251.903,301.139z"/>
					</g>
					<g>
						<path style="fill:#619AC9;" d="M203.158,193.791c-0.537-9.016-0.831-18.044-0.88-27.075l-28.996,0.889
							c0.04,9.07,0.345,18.137,0.879,27.194c6.208-0.216,12.415-0.432,18.623-0.647C196.242,194.031,199.7,193.911,203.158,193.791z
							"/>
					</g>
					<g>
						<path style="fill:#CBE3F8;" d="M237.652,232.982c-8.595,0.23-17.189,0.461-25.784,0.691
							c1.415,10.018,3.148,19.995,5.17,29.921c8.556-0.229,17.112-0.459,25.668-0.688C240.722,252.98,239.044,243,237.652,232.982z"
							/>
					</g>
					<g>
						<path style="fill:#CBE3F8;" d="M312.702,226.498c9.324-0.25,18.649-0.5,27.973-0.75c-0.013-0.098-0.028-0.196-0.041-0.295
							c-1.382-10.587-2.402-21.214-3.103-31.86c-9.35,0.325-18.7,0.65-28.05,0.975C310.207,205.242,311.29,215.889,312.702,226.498z
							"/>
					</g>
					<g>
						<path style="fill:#CBE3F8;" d="M183.244,264.5c3.973-0.107,7.946-0.213,11.919-0.32c5.703-0.153,11.405-0.306,17.108-0.459
							c-2-9.925-3.69-19.905-5.098-29.923c-9.691,0.26-19.383,0.52-29.074,0.779C179.504,244.597,181.231,254.574,183.244,264.5z"/>
					</g>
					<g>
						<path style="fill:#CBE3F8;" d="M221.547,301.953c-9.661,0.259-19.322,0.518-28.982,0.777
							c2.586,9.049,5.419,18.034,8.509,26.941c8.82,0.083,18.709,0.076,29.213,0.002
							C227.103,320.512,224.194,311.267,221.547,301.953z"/>
					</g>
					<g>
						<path style="fill:#CBE3F8;" d="M380.929,263.672c-6.789,0.182-13.578,0.364-20.367,0.546
							c-2.837,0.076-5.675,0.152-8.512,0.228c0.04,0.188,0.075,0.376,0.115,0.563c2.064,9.656,4.43,19.251,7.062,28.78
							c9.622-0.258,19.243-0.516,28.865-0.774C385.406,283.301,383.025,273.514,380.929,263.672z"/>
					</g>
					<g>
						<path style="fill:#619AC9;" d="M341.156,162.457c0.03,8.842,0.31,17.681,0.809,26.51c9.561-0.332,19.121-0.664,28.682-0.997
							c-0.519-8.788-0.801-17.588-0.856-26.391L341.156,162.457z"/>
					</g>
					<g>
						<path style="fill:#CBE3F8;" d="M319.424,265.321c2.111,9.846,4.536,19.628,7.238,29.342
							c9.242-0.248,18.485-0.496,27.727-0.743c-2.658-9.716-5.018-19.503-7.086-29.346
							C338.009,264.823,328.716,265.072,319.424,265.321z"/>
					</g>
					<g>
						<path style="fill:#CBE3F8;" d="M243.621,267.354c-8.558,0.229-17.116,0.459-25.674,0.688c0.017,0.081,0.032,0.161,0.049,0.242
							c2.087,9.764,4.484,19.466,7.152,29.101c8.51-0.228,17.02-0.456,25.531-0.684
							C248.031,286.983,245.679,277.196,243.621,267.354z"/>
					</g>
					<g>
						<path style="fill:#619AC9;" d="M169.444,194.962c-0.537-9.062-0.828-18.137-0.872-27.213l-25.795,0.791
							c-0.111,9.191,0.037,18.334,0.403,27.335C151.935,195.571,160.689,195.267,169.444,194.962z"/>
					</g>
					<g>
						<path style="fill:#CBE3F8;" d="M394.872,315.388c-3.433,4.149-7.448,7.739-12.022,10.825
							c-3.388,0.123-7.906,0.268-13.341,0.436c-3.299-9.394-6.307-18.866-9.036-28.416c0.593-0.022,1.174-0.034,1.767-0.056
							c9.036-0.235,18.083-0.481,27.119-0.727C391.081,303.467,392.915,309.45,394.872,315.388z"/>
					</g>
					<g>
						<path style="fill:#CBE3F8;" d="M187.715,302.86c-9.482,0.254-18.965,0.508-28.447,0.763
							c3.315,11.104,6.824,19.694,10.218,24.935c6.012,0.562,15.263,0.893,26.612,1.054
							C193.053,320.767,190.26,311.846,187.715,302.86z"/>
					</g>
					<g>
						<path style="fill:#619AC9;" d="M237.58,165.633c0.029,8.983,0.314,17.963,0.827,26.933
							c10.386-0.361,20.773-0.722,31.159-1.083c-0.491-8.928-0.745-17.867-0.758-26.807L237.58,165.633z"/>
					</g>
					<g>
						<path style="fill:#619AC9;" d="M274.284,191.319c10.072-0.35,20.144-0.7,30.216-1.05c-0.525-8.878-0.81-17.769-0.862-26.661
							l-30.106,0.923C273.541,173.464,273.796,182.396,274.284,191.319z"/>
					</g>
					<g>
						<path style="fill:#619AC9;" d="M309.218,190.105c9.341-0.325,18.682-0.649,28.023-0.974
							c-0.502-8.834-0.77-17.681-0.803-26.529l-28.096,0.862C308.389,172.349,308.695,181.232,309.218,190.105z"/>
					</g>
					<g>
						<path style="fill:#619AC9;" d="M207.874,193.627c8.602-0.299,17.205-0.598,25.807-0.897
							c-0.516-8.975-0.788-17.963-0.821-26.952l-25.877,0.794C207.028,175.595,207.339,184.617,207.874,193.627z"/>
					</g>
					<g>
						<path style="fill:#CBE3F8;" d="M192.781,229.713c4.59-0.123,9.18-0.246,13.771-0.369c-0.027-0.206-0.059-0.411-0.086-0.617
							c-1.322-10.128-2.312-20.292-3.011-30.474c-9.676,0.336-19.352,0.673-29.028,1.009c0.702,10.315,1.741,20.605,3.085,30.86
							C182.601,229.986,187.691,229.85,192.781,229.713z"/>
					</g>
					<g>
						<path style="fill:#CBE3F8;" d="M179.403,269.075c-9.36,0.251-18.719,0.502-28.079,0.753
							c2.015,10.861,4.277,20.757,6.665,29.357c9.498-0.255,18.996-0.509,28.494-0.764
							C183.827,288.704,181.469,278.918,179.403,269.075z"/>
					</g>
					<g>
						<path style="fill:#CBE3F8;" d="M178.482,264.628c-1.991-9.925-3.674-19.906-5.074-29.923c-9.06,0.243-18.12,0.486-27.18,0.729
							c1.195,10.51,2.649,20.557,4.293,29.944C159.841,265.128,169.161,264.878,178.482,264.628z"/>
					</g>
					<g>
						<path style="fill:#FF847B;" d="M145.74,230.975c9.016-0.242,18.031-0.483,27.046-0.725c-0.007-0.056-0.016-0.112-0.023-0.169
							c-1.33-10.188-2.324-20.413-3.023-30.656c-8.786,0.305-17.573,0.611-26.359,0.916
							C143.894,210.825,144.699,221.088,145.74,230.975z"/>
					</g>
					<g>
						<path style="fill:#FF847B;" d="M220.306,297.514c-2.665-9.716-5.03-19.503-7.105-29.345
							c-9.683,0.26-19.365,0.519-29.048,0.779c0.049,0.23,0.092,0.46,0.141,0.689c2.055,9.613,4.409,19.166,7.027,28.654
							c1.841-0.049,3.682-0.099,5.522-0.148C204.664,297.934,212.485,297.724,220.306,297.514z"/>
					</g>
				</g>
			</g>
			<path style="fill:#A1C5EB;" d="M407.169,289.002c-24.365,7.995-58.247-4.378-58.247-4.378
				c5.901,28.346-4.568,51.204-16.751,56.533C372.5,339.405,403.648,320.885,407.169,289.002z"/>
		</g>
		<path style="fill:#162A45;" d="M115.317,133.084l4.998-0.238c0,0-0.714-7.709,2.855-8.137c3.569-0.428,6.139,21.842,2.284,25.768
			c-0.785,2.641,5.778,3.583,7.424,0.571s2.444-34.242-9.708-34.263C112.963,116.767,115.317,133.084,115.317,133.084z"/>
		<path style="fill:#162A45;" d="M147.866,132.132l4.998-0.238c0,0-0.714-7.709,2.855-8.137c3.569-0.428,6.139,21.842,2.284,25.768
			c-0.785,2.641,5.778,3.582,7.424,0.571c1.646-3.011,2.444-34.242-9.708-34.263C145.512,115.815,147.866,132.132,147.866,132.132z"
			/>
		<path style="fill:#162A45;" d="M180.309,131.002l4.998-0.238c0,0-0.714-7.709,2.855-8.137c3.569-0.428,6.139,21.842,2.284,25.768
			c-0.785,2.641,5.778,3.582,7.424,0.571c1.646-3.011,2.444-34.242-9.708-34.263C177.955,114.685,180.309,131.002,180.309,131.002z"
			/>
		<path style="fill:#162A45;" d="M212.751,129.872l4.998-0.238c0,0-0.714-7.709,2.855-8.137c3.569-0.428,6.139,21.842,2.284,25.768
			c-0.785,2.641,5.778,3.582,7.424,0.571c1.646-3.011,2.444-34.242-9.708-34.263C210.397,113.555,212.751,129.872,212.751,129.872z"
			/>
		<path style="fill:#162A45;" d="M245.086,128.777l4.998-0.238c0,0-0.714-7.709,2.855-8.137c3.569-0.428,6.139,21.842,2.284,25.768
			c-0.785,2.641,5.777,3.582,7.424,0.571c1.646-3.011,2.444-34.242-9.708-34.263C242.732,112.461,245.086,128.777,245.086,128.777z"
			/>
		<path style="fill:#162A45;" d="M277.743,127.754l4.998-0.238c0,0-0.714-7.709,2.855-8.137c3.569-0.428,6.139,21.842,2.284,25.768
			c-0.785,2.641,5.778,3.582,7.424,0.571c1.646-3.011,2.444-34.242-9.708-34.263C275.389,111.438,277.743,127.754,277.743,127.754z"
			/>
		<path style="fill:#162A45;" d="M309.436,126.731l4.998-0.238c0,0-0.714-7.709,2.855-8.137c3.569-0.428,6.139,21.842,2.284,25.768
			c-0.785,2.641,5.778,3.582,7.424,0.571s2.444-34.242-9.708-34.263C307.082,110.414,309.436,126.731,309.436,126.731z"/>
		<path style="fill:#162A45;" d="M341.771,125.601l4.998-0.238c0,0-0.714-7.709,2.855-8.137c3.569-0.428,6.139,21.842,2.284,25.768
			c-0.785,2.641,5.777,3.582,7.424,0.571c1.646-3.011,2.444-34.242-9.708-34.263C339.417,109.284,341.771,125.601,341.771,125.601z"
			/>
		<path style="fill:#162A45;" d="M373.214,124.613l4.998-0.238c0,0-0.714-7.709,2.855-8.137c3.569-0.428,6.139,21.842,2.284,25.768
			c-0.785,2.641,5.778,3.582,7.424,0.571s2.444-34.242-9.708-34.263C370.861,108.297,373.214,124.613,373.214,124.613z"/>
		<g>
			<path style="fill:#162A45;" d="M275.547,235.9c-5.834-6.536-15.378-8.192-23.466-5.371c-2.701,0.942-1.539,5.265,1.189,4.313
				c5.666-1.976,12.179-1.584,17.017,2.224c4.348,3.423,6.611,9.016,5.16,14.446c-1.603,6.001-7.238,9.228-13.176,9.573
				c-5.948,0.346-13.251-1.096-16.686-6.472c-3.394-5.312-2.291-12.569,2.831-16.406c0.965-0.723,1.462-1.933,0.802-3.06
				c-0.556-0.951-2.088-1.531-3.06-0.802c-5.992,4.49-8.743,12.404-5.93,19.52c3.076,7.779,10.707,11.116,18.627,11.666
				c7.69,0.535,16.216-2.335,19.733-9.712C281.776,249.132,280.439,241.38,275.547,235.9z"/>
			<path style="fill:#162A45;" d="M273.172,217.685c-8.893,9.842-16.438,20.845-22.403,32.687c-4.425-3.607-8.85-7.213-13.276-10.82
				c-0.936-0.762-2.248-0.915-3.163,0c-0.788,0.788-0.941,2.396,0,3.163l15.604,12.717c1.02,0.831,2.832,0.963,3.513-0.453
				c5.969-12.406,13.657-23.916,22.888-34.132C278.261,218.717,275.107,215.544,273.172,217.685z"/>
		</g>
		<g>
			<path style="fill:#162A45;" d="M169.872,211.59c-5.834-6.536-15.378-8.192-23.466-5.371c-2.701,0.942-1.539,5.265,1.189,4.313
				c5.666-1.976,12.179-1.585,17.017,2.224c4.348,3.423,6.611,9.016,5.16,14.446c-1.604,6.001-7.238,9.228-13.176,9.573
				c-5.948,0.346-13.251-1.096-16.686-6.472c-3.394-5.312-2.291-12.569,2.831-16.406c0.965-0.723,1.462-1.933,0.802-3.06
				c-0.556-0.951-2.088-1.531-3.06-0.802c-5.992,4.49-8.743,12.404-5.93,19.52c3.076,7.779,10.707,11.116,18.627,11.666
				c7.69,0.535,16.216-2.335,19.733-9.712C176.101,224.823,174.764,217.07,169.872,211.59z"/>
			<path style="fill:#162A45;" d="M167.497,193.375c-8.893,9.842-16.438,20.845-22.403,32.687c-4.425-3.607-8.85-7.213-13.276-10.82
				c-0.936-0.762-2.248-0.915-3.163,0c-0.787,0.788-0.941,2.396,0,3.163l15.604,12.717c1.02,0.831,2.832,0.963,3.513-0.453
				c5.969-12.406,13.657-23.916,22.888-34.133C172.586,194.407,169.432,191.234,167.497,193.375z"/>
		</g>
		<g>
			<path style="fill:#162A45;" d="M221.706,268.076c-5.834-6.536-15.378-8.192-23.465-5.371c-2.701,0.942-1.539,5.265,1.189,4.313
				c5.666-1.976,12.179-1.585,17.017,2.224c4.348,3.423,6.611,9.016,5.16,14.446c-1.603,6.001-7.238,9.228-13.176,9.573
				c-5.948,0.346-13.25-1.096-16.686-6.472c-3.394-5.312-2.291-12.569,2.831-16.406c0.965-0.723,1.461-1.933,0.802-3.06
				c-0.556-0.951-2.088-1.531-3.06-0.802c-5.992,4.49-8.743,12.404-5.93,19.519c3.076,7.779,10.706,11.116,18.627,11.666
				c7.69,0.535,16.216-2.335,19.733-9.712C227.935,281.309,226.598,273.557,221.706,268.076z"/>
			<path style="fill:#162A45;" d="M219.331,249.862c-8.893,9.842-16.438,20.845-22.403,32.687c-4.425-3.607-8.85-7.213-13.276-10.82
				c-0.936-0.762-2.248-0.915-3.163,0c-0.787,0.788-0.941,2.396,0,3.163l15.604,12.717c1.02,0.831,2.832,0.963,3.513-0.453
				c5.969-12.406,13.657-23.916,22.888-34.132C224.42,250.893,221.266,247.72,219.331,249.862z"/>
		</g>
	</g>
	<g>
		<path style="fill:#162A45;" d="M103.037,348.343v56.486c0,1.458-1.182,2.64-2.64,2.64h-7.828c-1.458,0-2.64-1.182-2.64-2.64
			v-56.486c0-1.458,1.182-2.64,2.64-2.64h7.828C101.855,345.703,103.037,346.885,103.037,348.343z"/>
		<path style="fill:#8BB7E4;" d="M104.063,342.511l31.457,0.873l0.167,0.004l31.563,0.88l5.528,0.154l40.153,1.115
			c1.34,0.031,2.421,1.449,2.421,3.188v55.72c0,1.739-1.081,3.161-2.421,3.188l-40.153,1.115l-5.528,0.154l-31.563,0.88
			l-0.167,0.003l-31.457,0.873c-1.378,0.031-2.506-1.405-2.506-3.188v-61.766C101.556,343.916,102.685,342.48,104.063,342.511z"/>
		<polygon style="fill:#162A45;" points="63.691,370.259 63.691,382.912 54.868,382.912 52.256,370.259 		"/>
		<path style="fill:#8BB7E4;" d="M78.763,356.517l-1.617,6.215c-0.593,2.28-2.482,3.99-4.809,4.355l-8.747,1.372v8.126v8.126
			l8.747,1.372c2.327,0.365,4.216,2.076,4.809,4.355l1.617,6.215c0.69,2.653,2.784,4.712,5.448,5.359l5.717,1.388v-26.816V349.77
			l-5.717,1.388C81.547,351.804,79.454,353.863,78.763,356.517z"/>
		<polygon style="fill:#162A45;" points="135.687,343.388 167.25,344.267 172.778,344.421 172.778,408.747 167.25,408.901 
			135.687,409.78 		"/>
	</g>
	<g>
		<path style="fill:#EA5C4C;" d="M221.458,351.547h-39.979v-13.418h39.979V351.547z M183.616,349.409h35.704v-9.142h-35.704V349.409
			z"/>
		<path style="fill:#EA5C4C;" d="M257.598,347.66h-112.26c-2.758,0-5.002,2.234-5.002,5.002v68.855c0,2.768,2.245,5.013,5.002,5.013
			h112.26c2.758,0,5.002-2.245,5.002-5.013v-68.855C262.6,349.894,260.355,347.66,257.598,347.66z"/>
		<path style="fill:#FF847B;" d="M262.6,352.662v37.292l-61.127,10.368l-61.138-10.368v-37.292c0-2.768,2.245-5.002,5.002-5.002
			h112.26C260.355,347.66,262.6,349.894,262.6,352.662z"/>
		<rect x="224.373" y="390.687" style="fill:#FFB652;" width="10.225" height="10.225"/>
		<rect x="168.338" y="390.687" style="fill:#FFB652;" width="10.225" height="10.225"/>
		<rect x="185.003" y="335.741" style="fill:#A83027;" width="32.929" height="6.913"/>
	</g>
	<g>
		<g>
			<path style="fill:#3A739B;" d="M449.158,351.682c0.637-5.374-1.054-10.985-4.556-15.111c-2.624-3.092-6.292-5.528-7.604-9.365
				c-2.823-8.253,6.911-16.674,4.76-25.128c-0.877-3.444-3.598-6.096-6.423-8.253c-2.825-2.156-5.923-4.06-8.126-6.849
				c-4.286-5.427-4.45-13.237-8.623-18.752c-4.278-5.655-12.715-7.679-19.093-4.582c-6.379,3.097-10.006,10.978-8.208,17.837
				c0.75,2.862,2.335,5.66,1.895,8.587c-0.47,3.125-3.087,5.397-4.902,7.984c-2.83,4.033-3.793,9.322-2.567,14.093
				c1.226,4.772,4.62,8.941,9.043,11.11c3.682,1.805,8.535,2.793,9.879,6.668c1,2.882-0.54,5.941-1.506,8.836
				c-3.183,9.538,0.492,20.942,8.644,26.828c5.209,3.761,11.982,5.073,18.272,3.971c5.009-0.878,11.005-3.298,14.388-7.235
				C446.997,359.331,448.693,355.6,449.158,351.682z"/>
			<path style="fill:#245472;" d="M403.204,268.738c3.314,5.412,6.396,10.964,9.234,16.64c2.836,5.671,5.43,11.464,7.77,17.357
				c2.342,5.898,4.435,11.895,6.269,17.97c1.826,6.046,3.396,12.169,4.704,18.348c1.319,6.231,2.373,12.52,3.146,18.842
				c0.095,0.773,0.185,1.546,0.271,2.319c0.057,0.507,0.859,0.513,0.802,0c-0.707-6.312-1.679-12.594-2.922-18.823
				c-1.247-6.252-2.763-12.451-4.54-18.574c-1.777-6.123-3.815-12.17-6.107-18.12c-2.283-5.926-4.815-11.756-7.59-17.468
				c-2.786-5.734-5.819-11.349-9.09-16.821c-0.415-0.694-0.833-1.385-1.255-2.074C403.627,267.894,402.933,268.297,403.204,268.738
				L403.204,268.738z"/>
			<path style="fill:#245472;" d="M396.647,307.728c8.6-0.109,17.143,2.629,24.139,7.621c1.966,1.402,3.795,2.988,5.473,4.725
				c0.359,0.372,0.926-0.196,0.567-0.567c-6.064-6.277-14.165-10.512-22.762-11.991c-2.449-0.421-4.932-0.621-7.416-0.59
				C396.132,306.932,396.13,307.734,396.647,307.728L396.647,307.728z"/>
			<path style="fill:#245472;" d="M414.874,273.351c-0.414,4.809-0.828,9.619-1.242,14.428c-0.044,0.514,0.758,0.511,0.802,0
				c0.414-4.809,0.828-9.619,1.242-14.428C415.72,272.837,414.918,272.84,414.874,273.351L414.874,273.351z"/>
		</g>
		<g>
			<path style="fill:#619AC9;" d="M419.699,354.925c-0.202-4.487,1.537-9.028,4.685-12.232c2.359-2.401,5.542-4.194,6.861-7.291
				c2.836-6.66-4.712-14.22-2.419-21.086c0.934-2.797,3.347-4.828,5.815-6.442c2.469-1.614,5.148-3.002,7.14-5.177
				c3.876-4.233,4.484-10.687,8.272-14.999c3.883-4.421,10.988-5.587,16.081-2.638c5.092,2.949,7.617,9.692,5.714,15.261
				c-0.794,2.324-2.275,4.544-2.088,6.992c0.2,2.615,2.228,4.654,3.574,6.905c2.098,3.509,2.576,7.945,1.272,11.82
				s-4.365,7.121-8.157,8.649c-3.157,1.272-7.233,1.796-8.58,4.921c-1.002,2.325,0.087,4.951,0.712,7.404
				c2.057,8.087-1.674,17.304-8.778,21.682c-4.539,2.798-10.225,3.474-15.364,2.181c-4.092-1.03-8.909-3.396-11.471-6.859
				C421.025,361.387,419.847,358.197,419.699,354.925z"/>
			<path style="fill:#245472;" d="M460.436,289.101c-6.002,8.636-11.163,17.85-15.402,27.475
				c-4.217,9.576-7.536,19.545-9.874,29.744c-1.314,5.733-2.315,11.536-3.007,17.376c-0.061,0.511,0.742,0.507,0.802,0
				c1.227-10.349,3.46-20.576,6.633-30.502c3.174-9.929,7.289-19.553,12.281-28.704c2.814-5.158,5.906-10.161,9.259-14.985
				C461.423,289.081,460.728,288.68,460.436,289.101L460.436,289.101z"/>
			<path style="fill:#245472;" d="M463.395,316.901c-6.736,2.364-13.108,5.738-18.832,10.006c-1.614,1.204-3.177,2.475-4.684,3.81
				c-0.387,0.343,0.182,0.908,0.567,0.567c5.249-4.649,11.194-8.495,17.585-11.382c1.825-0.824,3.687-1.564,5.577-2.228
				C464.092,317.504,463.883,316.729,463.395,316.901L463.395,316.901z"/>
			<path style="fill:#245472;" d="M451.284,292.688c0.379,3.678,0.28,7.393-0.319,11.043c-0.083,0.505,0.69,0.722,0.773,0.213
				c0.611-3.723,0.735-7.503,0.348-11.256C452.033,292.18,451.231,292.174,451.284,292.688L451.284,292.688z"/>
		</g>
		<polygon style="fill:#8BB7E4;" points="451.763,420.785 411.635,420.785 403.492,362.199 459.907,362.199 		"/>
	</g>
	<g>
		<g>
			<g>
				<g>
					<path style="fill:#3A739B;" d="M351.9,457.707l-0.049,0.349c-0.048,0.518-0.106,1.016-0.196,1.556
						c-0.101,0.445-0.181,0.932-0.272,1.43l-53.32,0.523c0,0-0.09-0.549-0.098-1.415c0.017-0.444,0.043-0.962,0.133-1.566
						c0.02-0.106,0.03-0.233,0.071-0.35c0.552-3.007,2.699-7.172,9.968-8.575c0.348-0.088,0.717-0.134,1.118-0.19l0.032-0.001
						c0.57-0.09,1.14-0.149,1.753-0.207c0.201-0.012,0.401-0.036,0.602-0.048c14.573-1.285,20.983-6.241,20.983-6.241
						s8.471,1.608,16.382-0.161c0,0,0.945,1.534,1.796,4.21c0.131,0.453,0.273,0.938,0.405,1.454c0.033,0.095,0.055,0.2,0.087,0.316
						c0.055,0.201,0.099,0.432,0.144,0.665c0.011,0.063,0.033,0.148,0.034,0.211c0.001,0.053,0.032,0.074,0.033,0.116
						c0.222,1.097,0.393,2.301,0.469,3.599C352.05,454.736,352.054,456.184,351.9,457.707z"/>
					<path style="fill:#FFFFFF;" d="M327.335,443.456c0.18-0.169,0.417-0.295,0.671-0.286c0.269,0.009,0.466,0.109,0.677,0.272
						c0.349,0.271,0.702,0.536,1.051,0.809c0.498,0.391,1.033,0.73,1.555,1.088c0.208,0.143,0.372,0.316,0.444,0.565
						c0.065,0.228,0.04,0.531-0.089,0.735c-0.257,0.408-0.86,0.656-1.3,0.355c-1.021-0.699-2.018-1.432-2.994-2.192
						c-0.18-0.14-0.283-0.454-0.286-0.671C327.061,443.899,327.162,443.619,327.335,443.456z"/>
					<path style="fill:#FFFFFF;" d="M323.578,445.191c0.354-0.331,0.997-0.414,1.348-0.013c0.706,0.805,1.491,1.535,2.342,2.185
						c0.136,0.1,0.273,0.201,0.412,0.297c0.208,0.144,0.372,0.314,0.443,0.565c0.065,0.228,0.04,0.531-0.089,0.735
						c-0.256,0.405-0.862,0.658-1.3,0.355c-1.154-0.799-2.216-1.72-3.142-2.777c-0.169-0.193-0.283-0.407-0.286-0.671
						C323.303,445.634,323.404,445.354,323.578,445.191z"/>
					<path style="fill:#FFFFFF;" d="M320.12,446.457c0.18-0.169,0.417-0.295,0.671-0.286c0.234,0.008,0.524,0.08,0.677,0.272
						l2.189,2.758c0.164,0.207,0.283,0.395,0.286,0.671c0.002,0.234-0.099,0.514-0.273,0.677c-0.18,0.168-0.417,0.295-0.671,0.286
						c-0.234-0.008-0.524-0.08-0.677-0.273l-2.189-2.758c-0.164-0.207-0.283-0.395-0.286-0.671
						C319.845,446.899,319.946,446.619,320.12,446.457z"/>
					<path style="fill:#FFFFFF;" d="M316.281,447.392c0.625-0.338,1.487,0.011,1.463,0.987c0.322,0.528,0.558,0.916,0.88,1.444
						c0.743,0.273,0.721,1.329,0.105,1.662c-0.624,0.338-1.485-0.01-1.463-0.983c-0.322-0.53-0.559-0.92-0.882-1.449
						C315.642,448.78,315.665,447.726,316.281,447.392z"/>
					<path style="fill:#263D5E;" d="M351.857,458.064c-0.057,0.504-0.113,1.017-0.211,1.542c-0.088,0.463-0.165,0.946-0.273,1.44
						l-53.307,0.523c0,0-0.098-0.543-0.107-1.416c0.016-0.452,0.042-0.975,0.139-1.561L351.857,458.064z"/>
				</g>
				<g>
					<path style="fill:#3A739B;" d="M384.51,457.707l0.049,0.349c0.048,0.518,0.106,1.016,0.196,1.556
						c0.102,0.445,0.181,0.932,0.272,1.43l53.319,0.523c0,0,0.09-0.549,0.098-1.415c-0.017-0.444-0.044-0.962-0.133-1.566
						c-0.02-0.106-0.029-0.233-0.071-0.35c-0.552-3.007-2.699-7.172-9.968-8.575c-0.348-0.088-0.717-0.134-1.118-0.19l-0.032-0.001
						c-0.57-0.09-1.14-0.149-1.753-0.207c-0.201-0.012-0.401-0.036-0.602-0.048c-14.574-1.285-20.983-6.241-20.983-6.241
						s-8.471,1.608-16.382-0.161c0,0-0.945,1.534-1.796,4.21c-0.131,0.453-0.273,0.938-0.405,1.454
						c-0.032,0.095-0.055,0.2-0.088,0.316c-0.055,0.201-0.099,0.432-0.144,0.665c-0.011,0.063-0.033,0.148-0.034,0.211
						c-0.001,0.053-0.032,0.074-0.033,0.116c-0.222,1.097-0.392,2.301-0.469,3.599C384.359,454.736,384.356,456.184,384.51,457.707z
						"/>
					<path style="fill:#FFFFFF;" d="M409.075,443.456c-0.18-0.169-0.417-0.295-0.671-0.286c-0.269,0.009-0.466,0.109-0.676,0.272
						c-0.349,0.271-0.703,0.536-1.051,0.809c-0.498,0.391-1.033,0.73-1.555,1.088c-0.208,0.143-0.372,0.316-0.443,0.565
						c-0.065,0.228-0.04,0.531,0.089,0.735c0.257,0.408,0.86,0.656,1.3,0.355c1.021-0.699,2.018-1.432,2.994-2.192
						c0.18-0.14,0.283-0.454,0.286-0.671C409.349,443.899,409.248,443.619,409.075,443.456z"/>
					<path style="fill:#FFFFFF;" d="M412.832,445.191c-0.353-0.331-0.997-0.414-1.348-0.013c-0.705,0.805-1.491,1.535-2.341,2.185
						c-0.136,0.1-0.273,0.201-0.412,0.297c-0.208,0.144-0.372,0.314-0.444,0.565c-0.065,0.228-0.04,0.531,0.089,0.735
						c0.256,0.405,0.862,0.658,1.3,0.355c1.154-0.799,2.216-1.72,3.142-2.777c0.169-0.193,0.284-0.407,0.286-0.671
						C413.107,445.634,413.006,445.354,412.832,445.191z"/>
					<path style="fill:#FFFFFF;" d="M416.29,446.457c-0.18-0.169-0.417-0.295-0.671-0.286c-0.234,0.008-0.524,0.08-0.677,0.272
						l-2.189,2.758c-0.164,0.207-0.283,0.395-0.286,0.671c-0.002,0.234,0.099,0.514,0.273,0.677c0.18,0.168,0.417,0.295,0.671,0.286
						c0.234-0.008,0.524-0.08,0.677-0.273l2.189-2.758c0.165-0.207,0.283-0.395,0.286-0.671
						C416.565,446.899,416.464,446.619,416.29,446.457z"/>
					<path style="fill:#FFFFFF;" d="M420.129,447.392c-0.625-0.338-1.487,0.011-1.463,0.987c-0.322,0.528-0.558,0.916-0.88,1.444
						c-0.743,0.273-0.721,1.329-0.105,1.662c0.624,0.338,1.485-0.01,1.463-0.983c0.322-0.53,0.56-0.92,0.882-1.449
						C420.768,448.78,420.745,447.726,420.129,447.392z"/>
					<path style="fill:#263D5E;" d="M384.552,458.064c0.057,0.504,0.113,1.017,0.211,1.542c0.088,0.463,0.165,0.946,0.273,1.44
						l53.307,0.523c0,0,0.098-0.543,0.106-1.416c-0.016-0.452-0.042-0.975-0.139-1.561L384.552,458.064z"/>
				</g>
				<path style="fill:#FFB9A3;" d="M417.5,251.833c0.844,81.334-13.714,191.139-13.714,191.139
					c-7.432,1.896-16.382-0.161-16.382-0.161c-6.416-141.654-12.301-190.978-12.301-190.978H417.5z"/>
				<path style="fill:#FFB9A3;" d="M339.554,252.561c0,0-20.068,76.649-20.368,86.72c-0.3,10.071,13.438,103.69,13.438,103.69
					s11.494,2.663,16.382-0.161l1.531-102.571l28.412-87.679H339.554z"/>
				<path style="fill:#162A45;" d="M409.314,429.072c-0.02,0.158-0.029,0.315-0.039,0.463c-0.305,3.27-0.473,5.062-0.473,5.062
					c-1.684,0.364-3.565,0.601-5.505,0.739c-0.158,0.01-0.315,0.03-0.473,0.03c-8.687,0.551-18.437-0.768-18.437-0.768
					s-0.089-1.842-0.246-5.003c0-0.148-0.01-0.305-0.02-0.463c-0.896-18.89-3.743-80.613-2.728-87.212l-6.293-71.936l-23.765,70.735
					c2.039,4.993,1.113,69.908,0.778,89.33c0.01,0.158,0,0.315,0,0.473c-0.049,3.152-0.089,4.984-0.089,4.984
					c-1.31,0.227-2.59,0.414-3.841,0.571c-0.158,0.01-0.315,0.029-0.463,0.049c-12.666,1.467-21.993-0.62-21.993-0.62
					s-0.167-1.921-0.463-5.23c-0.01-0.157-0.02-0.315-0.039-0.473c-1.734-19.796-7.357-84.691-7.062-90.876
					c0.364-7.318,21.392-86.365,21.392-86.365l77.944-0.729C419.951,306.147,411.51,404.765,409.314,429.072z"/>
				<g>
					<path style="fill:#245472;" d="M374.009,253.692c0.525,4.737,1.05,9.475,1.574,14.212c0.033,0.298-0.433,0.295-0.466,0
						c-0.525-4.737-1.05-9.475-1.574-14.212C373.51,253.394,373.977,253.396,374.009,253.692L374.009,253.692z"/>
					<path style="fill:#245472;" d="M371.822,254.768c-0.195,2.656,0.789,5.321,2.674,7.204c0.212,0.212-0.117,0.542-0.329,0.329
						c-1.966-1.963-3.015-4.76-2.811-7.533C371.378,254.471,371.844,254.469,371.822,254.768L371.822,254.768z"/>
					<path style="fill:#245472;" d="M373.868,261.749c-4.215,11.1-8.431,22.209-12.646,33.309
						c-2.098,5.535-4.196,11.06-6.293,16.585c-2.019,5.328-4.097,10.647-5.821,16.083c-1.724,5.456-3.053,11.021-3.624,16.723
						c-0.591,5.781-0.542,11.602-0.355,17.403c0.394,11.829,0.965,23.657,1.448,35.486c0.453,11.041,0.916,22.071,1.369,33.112
						c0.01,0.158,0.02,0.305,0.02,0.463c0.03,0.68,0.059,1.369,0.089,2.048c0.039,1.044,0.089,2.078,0.128,3.112
						c-0.158,0.01-0.315,0.029-0.463,0.049c-0.069-1.724-0.148-3.447-0.217-5.171c0-0.158-0.01-0.315-0.02-0.473
						c-0.394-9.642-0.798-19.294-1.192-28.936c-0.492-11.858-0.985-23.726-1.467-35.584c-0.236-5.811-0.443-11.632-0.128-17.433
						c0.305-5.634,1.211-11.178,2.689-16.625c1.497-5.456,3.447-10.765,5.447-16.054c2.108-5.545,4.215-11.09,6.323-16.645
						c4.235-11.159,8.47-22.318,12.715-33.477c0.512-1.369,1.034-2.738,1.556-4.107
						C373.533,261.345,373.976,261.463,373.868,261.749z"/>
					<path style="fill:#245472;" d="M352.112,430.047c0.01,0.158,0,0.315,0,0.473c-1.379,0.167-2.758,0.296-4.146,0.394
						c-0.158,0.02-0.305,0.029-0.463,0.039c-1.615,0.118-3.24,0.197-4.865,0.246c-3.979,0.108-7.958,0-11.927-0.335
						c-1.822-0.158-3.634-0.345-5.447-0.591c-0.01-0.157-0.02-0.315-0.039-0.473c3.545,0.483,7.121,0.778,10.696,0.906
						c3.861,0.138,7.721,0.059,11.563-0.227c0.069,0,0.138,0,0.207-0.01c0.089-0.01,0.167-0.01,0.256-0.02
						C349.334,430.352,350.723,430.214,352.112,430.047z"/>
					<path style="fill:#245472;" d="M409.314,429.072c-0.02,0.158-0.029,0.315-0.039,0.463c-1.724,0.227-3.457,0.404-5.19,0.522
						c-0.168,0.02-0.335,0.03-0.492,0.039c-1.083,0.079-2.157,0.138-3.24,0.177c-4.166,0.158-8.352,0.059-12.508-0.295
						c-1.241-0.108-2.472-0.236-3.703-0.384c0-0.148-0.01-0.305-0.02-0.463c3.063,0.374,6.126,0.601,9.199,0.699
						c3.447,0.108,6.904,0.039,10.341-0.207c0.167-0.01,0.325-0.02,0.483-0.03c0.483-0.039,0.975-0.079,1.458-0.118
						C406.842,429.367,408.073,429.229,409.314,429.072z"/>
					<path style="fill:#245472;" d="M406.965,254.959c0.188,4.167,2.634,7.977,6.348,9.874c1.02,0.521,2.112,0.885,3.238,1.091
						c0.294,0.054,0.17,0.503-0.124,0.449c-4.218-0.774-7.767-3.785-9.221-7.817c-0.417-1.156-0.652-2.371-0.707-3.598
						C406.486,254.66,406.952,254.66,406.965,254.959L406.965,254.959z"/>
					<path style="fill:#245472;" d="M413.589,332.759c-1.123,22.15-2.945,44.261-5.476,66.293
						c-1.182,10.203-2.492,20.377-3.969,30.541c-0.02,0.158-0.039,0.305-0.059,0.463c-0.256,1.763-0.522,3.516-0.788,5.279
						c-0.158,0.01-0.315,0.03-0.473,0.03c0.266-1.753,0.522-3.516,0.768-5.269c0.039-0.158,0.059-0.315,0.069-0.473
						c2.895-19.924,5.21-39.927,6.943-59.99c1.901-22.101,3.102-44.251,3.595-66.431c0.276-12.429,0.335-24.868,0.167-37.298
						c-0.01-0.296,0.463-0.296,0.463,0C415.125,288.193,414.711,310.491,413.589,332.759z"/>
				</g>
			</g>
			<g>
				<g>
					<path style="fill:#FFB9A3;" d="M271.693,199.42c0,0,15.322,5.01,29.503,9.612c6.546,2.118,12.847,4.151,17.289,5.564
						c14.068,4.475,23.018,1.277,27.817-9.11c4.794-10.391,7.992-19.745,7.992-19.745l5.442-43.608
						c-14.477,6.287-33.898,57.118-33.898,57.118l-22.506-4.395l-27.366-5.348L271.693,199.42z"/>
					<path style="fill:#EA5C4C;" d="M301.196,209.921c6.546,2.118,12.828,4.161,17.27,5.575
						c14.068,4.475,23.037,0.378,27.836-10.009c4.794-10.391,7.992-19.745,7.992-19.745l5.442-43.608
						c-14.477,6.287-34.407,55.829-34.407,55.829l-21.31-4.016C302.944,198.609,301.544,205.15,301.196,209.921z"/>
					<path style="fill:#FF847B;" d="M313.816,193.153c0.404,0.447-4.41,20.039-5.177,20.221c-0.767,0.182-9.082-1.809-9.431-2.508
						c-0.349-0.699,3.695-18.454,4.273-18.624C304.059,192.072,313.345,192.633,313.816,193.153z"/>
					<g>
						<g>
							<path style="fill:#FFB9A3;" d="M277.465,191.157c-1.635-0.884-3.513-11.31-5.758-11.109
								c-2.054,0.184-2.329,4.725-0.964,6.627c-2.684-1.22-11.657-9.051-13.023-6.977c-1.01,1.534,6.396,6.659,6.396,6.659
								s-9.238-5.007-10.19-2.798c-0.952,2.209,9.051,6.152,9.051,6.152s-8.682-2.843-9.144-0.957
								c-0.454,1.855,8.789,4.064,8.789,4.064s-7.532-0.652-7.715,0.419c-0.183,1.071,4.315,2.536,8.037,2.641
								c4.848,4.251,10.588,3.772,10.588,3.772L277.465,191.157z"/>
						</g>
					</g>
				</g>
				<g>
					<g>
						<g>
							<g>
								<g>
									<path style="fill:#EA5C4C;" d="M339.554,252.561c19.974,6.484,78.469,0.752,78.789,0.6c0,0-12.476-100.907-13.543-111.43
										l-15.472-4.011l-14.738-0.006l-14.854,4.419L339.554,252.561z"/>
								</g>
							</g>
						</g>
					</g>
				</g>
				<g>
					<g>
						<path style="fill:#FFB9A3;" d="M422.071,234.586c-1.125-0.213-1.948,1.015-3.816,0.828s-4.516-2.058-5.962-1.812
							c-1.446,0.246-11.322,4.585-10.195,6.705c0.67,1.261,6.009-1.402,6.148-1.326c0.139,0.075-6.176,4.128-5.066,5.763
							c1.11,1.634,7.741-3.957,7.903-3.82c0.161,0.137-4.641,4.896-3.271,6.157c1.37,1.261,5.561-3.825,5.751-3.764
							c0.19,0.061-2.137,5.076-1.015,5.758c1.122,0.681,4.233-5.326,4.518-5.234c0.285,0.092,2.435,2.093,4.717,2.278
							c2.282,0.185,6.058-3.02,5.889-4.791C427.501,239.555,423.535,234.863,422.071,234.586z"/>
					</g>
				</g>
				<path style="fill:#FFB9A3;" d="M407.684,168.598l32.292,27.094l-4.959,9.922l-14.711,29.432l7.081,7.386
					c0,0,12.608-16.167,21.093-27.366c3.428-4.527,6.184-8.236,7.161-9.743c3.836-5.912,4.475-13.908-2.08-22.38
					c-6.555-8.471-26.535-31.888-48.76-41.214L407.684,168.598z"/>
				<path style="fill:#EA5C4C;" d="M407.524,170.478l30.851,25.177l-4.576,9.291l14.68,10.12c3.428-4.527,6.184-8.236,7.161-9.743
					c3.836-5.912,4.475-13.908-2.08-22.38c-6.555-8.471-26.535-31.888-48.76-41.214L407.524,170.478z"/>
				<path style="fill:#FF847B;" d="M436.017,198.592c0.566-0.206,16.904,11.629,16.784,12.409c-0.12,0.779-5.095,7.733-5.875,7.793
					c-0.779,0.06-15.705-10.37-15.645-10.97C431.342,207.224,435.358,198.832,436.017,198.592z"/>
				<g>
					<path style="fill:#A83027;" d="M408.309,171.12c-2.125-2.02-4.25-4.041-6.375-6.061c-0.218-0.207,0.112-0.536,0.329-0.329
						c2.125,2.02,4.25,4.041,6.375,6.061C408.856,170.998,408.527,171.327,408.309,171.12L408.309,171.12z"/>
					<path style="fill:#A83027;" d="M401.013,165.788c1.097,0.288,2.194,0.576,3.291,0.864c0.29,0.076,0.167,0.526-0.124,0.449
						c-1.097-0.288-2.194-0.576-3.291-0.864C400.599,166.161,400.722,165.711,401.013,165.788L401.013,165.788z"/>
					<path style="fill:#A83027;" d="M359.344,145.395c-1.464,5.125-2.77,10.294-3.91,15.5c-1.141,5.206-2.118,10.448-2.93,15.715
						c-0.459,2.979-0.864,5.966-1.217,8.959c-0.035,0.294-0.501,0.298-0.466,0c0.624-5.295,1.411-10.57,2.364-15.816
						c0.96-5.281,2.086-10.532,3.377-15.742c0.725-2.927,1.504-5.841,2.332-8.741C358.977,144.983,359.427,145.105,359.344,145.395
						L359.344,145.395z"/>
					<path style="fill:#A83027;" d="M381.473,148.479c-0.4,5.264-0.589,10.544-0.56,15.823c0.008,1.5,0.034,3,0.077,4.499
						c0.009,0.3-0.457,0.3-0.466,0c-0.15-5.277-0.087-10.56,0.193-15.831c0.079-1.498,0.177-2.995,0.291-4.49
						C381.029,148.182,381.496,148.18,381.473,148.479L381.473,148.479z"/>
					<path style="fill:#A83027;" d="M374.15,166.922c-4.609-0.758-9.332-0.81-13.957-0.151c-0.293,0.042-0.42-0.407-0.124-0.449
						c4.715-0.672,9.505-0.622,14.204,0.151C374.569,166.521,374.444,166.97,374.15,166.922L374.15,166.922z"/>
					<g>
						<g>
							<path style="fill:#A83027;" d="M360.008,167.018c0.638,0,0.639-0.992,0-0.992
								C359.369,166.025,359.368,167.018,360.008,167.018L360.008,167.018z"/>
						</g>
					</g>
					<path style="fill:#A83027;" d="M374.501,166.804c-0.208,3.121-0.416,6.241-0.623,9.362c-0.09,1.352-0.077,2.812-0.704,4.049
						c-0.54,1.066-1.546,1.836-2.633,2.286c-1.257,0.521-2.656,0.664-4.007,0.681c-1.209,0.015-2.453-0.112-3.589-0.547
						c-1.131-0.433-2.087-1.17-2.75-2.188c-0.714-1.097-1.045-2.396-1.164-3.687c-0.155-1.681-0.006-3.398,0.137-5.076
						c0.145-1.707,0.359-3.407,0.635-5.098c0.048-0.295,0.497-0.17,0.449,0.124c-0.463,2.833-0.802,5.733-0.813,8.607
						c-0.01,2.492,0.584,5.262,2.951,6.555c1.023,0.559,2.201,0.777,3.355,0.831c1.253,0.059,2.559-0.018,3.773-0.346
						c1.149-0.31,2.274-0.916,2.971-1.909c0.778-1.11,0.803-2.511,0.89-3.814c0.218-3.277,0.436-6.553,0.654-9.83
						C374.055,166.506,374.521,166.504,374.501,166.804L374.501,166.804z"/>
					<path style="fill:#A83027;" d="M373.121,169.511c-4.189-0.555-8.433-0.614-12.636-0.177c-0.298,0.031-0.296-0.435,0-0.466
						c4.202-0.437,8.447-0.377,12.636,0.177C373.414,169.084,373.418,169.55,373.121,169.511L373.121,169.511z"/>
				</g>
			</g>
			<g>
				<g>
					<path style="fill:#2B1B10;" d="M369.217,73.322c15.112-1.334,21.827,4.943,24.499,8.696c-0.012-0.155-0.018-0.31-0.009-0.465
						c0.036-0.625,0.315-1.271,0.855-1.585c0.612-0.356,1.451-0.187,1.946,0.318c0.495,0.506,0.658,1.283,0.503,1.974
						c-0.155,0.691-0.597,1.294-1.146,1.74c1.423-0.433,2.97-0.451,4.402-0.051c0.445,0.124,0.891,0.295,1.237,0.602
						c0.346,0.307,0.578,0.774,0.504,1.23c-0.067,0.411-0.371,0.754-0.734,0.958c-0.363,0.204-0.78,0.287-1.193,0.341
						c-0.6,0.079-1.207,0.097-1.811,0.067c0.64,0.742,1.197,1.554,1.653,2.41c1.062,1.991,1.637,4.19,1.953,6.402
						c1.251,8.742-1.629,17.946-7.701,24.609c-2.486,2.728-7.417,2.154-11.165,1.604c-5.085-0.746-10.181-1.837-14.762-4.068
						c-4.581-2.231-8.642-5.71-10.668-10.214c-2.024-4.499-1.871-9.637-1.231-14.493c-1.157-0.456-2.208-1.121-3.365-1.578
						C349.719,81.964,360.212,74.117,369.217,73.322z"/>
					<path style="fill:#FFB9A3;" d="M395.126,115.472c0,0-5.445,11.711-5.39,27.219c-3.137,7.071-12.642,6.14-15.058-0.132
						c0.045-5.897-1.025-8.647-2.925-10.652c-0.158-0.168-0.314-0.315-0.479-0.476c-0.112-0.114-0.224-0.214-0.35-0.321
						c-0.223-0.2-0.481-0.384-0.726-0.59c-0.347-0.264-0.708-0.527-1.084-0.797l-0.007,0c-1.48-1.058-3.211-2.174-5.142-3.844
						c-2.814-2.415-4.935-5.759-5.832-11.024c-0.018-0.063-0.028-0.126-0.039-0.196c-0.018-0.077-0.03-0.154-0.041-0.231
						c-0.022-0.14-0.036-0.267-0.05-0.401c-0.018-0.063-0.021-0.119-0.031-0.175c-0.692-5.156-0.319-12.061,1.557-21.61
						c1.95-9.9,25.914-13.941,32.621-1.401C394.911,96.018,395.126,115.472,395.126,115.472z"/>
					<path style="fill:#2B1B10;" d="M359.063,89.766c0.966,2.119,3.279,3.245,5.474,4.027c5.122,1.823,10.583,2.688,16.017,2.537
						c-0.273-0.962-0.546-1.924-0.819-2.887c2.286,2.952,6.01,4.735,9.743,4.665c-1.624,5.509,0.495,11.92,5.082,15.377
						c2.236-2.383,3.019-5.919,2.9-9.184c-0.119-3.266-1.133-6.428-2.251-9.499c-1.269-3.483-2.771-7.038-5.531-9.512
						c-3.698-3.314-8.978-4.104-13.938-4.341c-3.488-0.167-7.086-0.114-10.322,1.198C362.181,83.458,359.47,86.298,359.063,89.766z"
						/>
					<g>
						<g>
							<path style="fill:#C16B5B;" d="M369.345,111.987c-0.349-0.169-0.72-0.267-1.108-0.283c-0.346-0.014-0.727,0.04-1.01,0.254
								c-0.304,0.23-0.452,0.581-0.474,0.955c-0.022,0.358,0.103,0.708,0.242,1.031c0.075,0.174,0.246,0.317,0.448,0.249
								c0.167-0.056,0.33-0.262,0.249-0.449c-0.102-0.236-0.214-0.493-0.216-0.755c-0.001-0.134,0.031-0.271,0.109-0.381
								c-0.004,0.007-0.009,0.014-0.013,0.021c0.071-0.117,0.212-0.162,0.338-0.187c0.01-0.002,0.02-0.004,0.034-0.006
								c0.027-0.001,0.055-0.005,0.082-0.007c0.072-0.005,0.145-0.005,0.217-0.002c0.037,0.001,0.074,0.004,0.111,0.007
								c0.019,0.001,0.021,0.001,0.027,0.001c0.006,0.001,0.007,0.001,0.023,0.004c0.227,0.036,0.421,0.124,0.636,0.196
								c0.162,0.054,0.358,0.002,0.44-0.156C369.565,112.317,369.527,112.075,369.345,111.987z"/>
							<path style="fill:#2B1B10;" d="M361.136,103.045c1.883-1.071,4.191-1.218,6.156-0.253c0.481,0.236,0.758,0.861,0.499,1.36
								c-0.335,0.648-0.961,0.661-1.555,0.407c-0.529-0.226-1.097-0.36-1.671-0.393c0.001-0.031,0.051,0.022,0.02,0.021
								c-0.735-0.025-1.458,0.14-2.121,0.455c-0.039,0.019-0.078,0.038-0.141,0.07c-0.464,0.258-1.096,0.255-1.419-0.237
								C360.626,104.052,360.639,103.327,361.136,103.045z"/>
							<path style="fill:#2B1B10;" d="M373.49,102.868c2.001-0.829,4.31-0.69,6.14,0.511c0.448,0.294,0.645,0.948,0.327,1.412
								c-0.308,0.449-0.932,0.642-1.412,0.327c-0.184-0.121-0.374-0.225-0.568-0.329c-0.019-0.009-0.016-0.008-0.027-0.013
								c-0.035-0.015-0.07-0.03-0.105-0.044c-0.076-0.031-0.153-0.06-0.23-0.087c-0.207-0.073-0.418-0.133-0.631-0.18
								c-0.054-0.012-0.397-0.108-0.133-0.03c-0.088-0.026-0.194-0.025-0.286-0.034c-0.204-0.019-0.41-0.027-0.616-0.024
								c-0.11,0.002-0.219,0.01-0.328,0.015c-0.012,0.001-0.016,0-0.024,0.001c-0.016,0.003-0.037,0.006-0.07,0.011
								c-0.203,0.029-0.404,0.07-0.603,0.122c-0.106,0.028-0.211,0.059-0.315,0.094c-0.041,0.014-0.082,0.029-0.123,0.043
								c-0.008,0.003-0.004,0.002-0.013,0.006c-0.003,0.001-0.006,0.001-0.009,0.002c-0.003,0.001-0.006,0.002-0.009,0.003
								c0.004-0.002,0.003-0.001,0.006-0.002c-0.492,0.199-1.119,0.118-1.379-0.411C372.859,103.804,372.961,103.087,373.49,102.868
								z"/>
							<path style="fill:#C16B5B;" d="M373.132,116.875c-1.283,1.02-2.928,1.512-4.56,1.397c-0.451-0.032-0.474,0.67-0.024,0.702
								c1.822,0.129,3.636-0.451,5.063-1.586C373.966,117.106,373.484,116.595,373.132,116.875z"/>
							<g>
								<g>
									<path d="M377.633,109.731c0.05,0.914-0.65,1.695-1.564,1.745c-0.914,0.05-1.695-0.65-1.745-1.564
										c-0.05-0.914,0.65-1.695,1.564-1.745C376.802,108.117,377.584,108.817,377.633,109.731z"/>
									<path style="fill:#FFFFFF;" d="M375.853,109.298c0.014,0.266-0.19,0.494-0.456,0.509c-0.266,0.015-0.494-0.19-0.509-0.456
										c-0.015-0.266,0.189-0.494,0.456-0.509C375.61,108.827,375.838,109.031,375.853,109.298z"/>
								</g>
								<g>
									<path d="M365.538,109.655c0.05,0.914-0.65,1.695-1.564,1.745c-0.914,0.05-1.695-0.65-1.745-1.564
										c-0.05-0.914,0.65-1.695,1.564-1.745C364.707,108.04,365.488,108.741,365.538,109.655z"/>
									<path style="fill:#FFFFFF;" d="M363.757,109.221c0.015,0.266-0.19,0.494-0.456,0.509c-0.266,0.015-0.494-0.19-0.509-0.456
										c-0.014-0.266,0.19-0.494,0.456-0.509C363.515,108.751,363.742,108.955,363.757,109.221z"/>
								</g>
							</g>
						</g>
					</g>
					<g>
						<path style="fill:#FFB9A3;" d="M400.366,115.961c-2.074,2.428-5.318,3.062-7.245,1.416c-1.927-1.646-1.808-4.949,0.266-7.377
							c2.074-2.428,5.318-3.062,7.245-1.416C402.558,110.23,402.439,113.533,400.366,115.961z"/>
						<path style="fill:#C16B5B;" d="M399.281,109.769c-0.868-0.469-2.032-0.459-3.111,0.032c-0.538,0.243-0.929,0.543-1.198,0.914
							c-0.355,0.492-0.458,1.113-0.268,1.619c0.169,0.455,0.528,0.753,0.845,1.016c0.229,0.19,0.446,0.37,0.568,0.583
							c0.186,0.327,0.135,0.784-0.122,1.061c-0.255,0.276-0.706,0.362-1.047,0.201c-0.201-0.095-0.439-0.009-0.534,0.191
							c-0.094,0.2-0.009,0.439,0.191,0.534c0.219,0.104,0.458,0.155,0.697,0.157c0.476,0.004,0.955-0.185,1.282-0.539
							c0.492-0.532,0.588-1.374,0.229-2.003c-0.193-0.339-0.491-0.585-0.752-0.802c-0.263-0.218-0.511-0.424-0.606-0.679
							c-0.096-0.255-0.03-0.596,0.168-0.869c0.079-0.11,0.188-0.209,0.307-0.304c0.398,0,0.895,0.127,1.145,0.405
							c0.281,0.313,0.411,0.764,0.339,1.178c-0.038,0.218,0.108,0.425,0.326,0.464c0.022,0.004,0.043,0.006,0.066,0.006
							c0.193,0.002,0.364-0.136,0.398-0.332c0.116-0.659-0.083-1.351-0.531-1.851c-0.167-0.185-0.377-0.312-0.597-0.415
							c0.665-0.173,1.319-0.132,1.825,0.141c0.624,0.337,1.09,1.197,0.761,1.891c-0.094,0.201-0.009,0.439,0.191,0.534
							c0.2,0.094,0.438,0.009,0.534-0.191C400.864,111.698,400.358,110.352,399.281,109.769z"/>
					</g>
				</g>
			</g>
			<g>
				<polygon style="fill:#FFFFFF;" points="394.438,139.042 390.048,135.969 381.225,147.636 390.305,153.24 				"/>
				<polygon style="fill:#FFFFFF;" points="374.001,135.969 381.225,147.636 372.989,152.695 370.643,138.887 				"/>
			</g>
		</g>
		<g>
			
				<rect x="249.411" y="189.386" transform="matrix(-1 -1.224647e-16 1.224647e-16 -1 554.9308 650.6246)" style="fill:#8BB7E4;" width="56.108" height="271.853"/>
			<g>
				<path style="fill:#619AC9;" d="M303.779,450.24c-6.845,0.068-13.689,0.136-20.534,0.205c-6.806,0.068-13.611,0.136-20.417,0.203
					c-3.833,0.038-7.666,0.076-11.499,0.115c-0.3,0.003-0.3-0.463,0-0.466c6.845-0.068,13.689-0.136,20.534-0.205
					c6.805-0.068,13.611-0.136,20.417-0.204c3.833-0.038,7.666-0.076,11.499-0.115C304.079,449.771,304.079,450.237,303.779,450.24
					L303.779,450.24z"/>
				<path style="fill:#619AC9;" d="M303.779,199.425c-6.845,0.068-13.689,0.136-20.534,0.205
					c-6.806,0.068-13.611,0.136-20.417,0.203c-3.833,0.038-7.666,0.076-11.499,0.115c-0.3,0.003-0.3-0.463,0-0.466
					c6.845-0.068,13.689-0.136,20.534-0.205c6.805-0.068,13.611-0.136,20.417-0.203c3.833-0.038,7.666-0.076,11.499-0.115
					C304.079,198.956,304.079,199.422,303.779,199.425L303.779,199.425z"/>
				<path style="fill:#619AC9;" d="M302.096,450.987c0.04,3.141,0.08,6.283,0.12,9.424c0.004,0.3-0.462,0.3-0.466,0
					c-0.04-3.141-0.08-6.283-0.12-9.424C301.626,450.687,302.092,450.687,302.096,450.987L302.096,450.987z"/>
				<path style="fill:#619AC9;" d="M293.943,450.987c0.04,3.141,0.08,6.283,0.12,9.424c0.004,0.3-0.462,0.3-0.466,0
					c-0.04-3.141-0.08-6.283-0.12-9.424C293.473,450.687,293.939,450.687,293.943,450.987L293.943,450.987z"/>
				<path style="fill:#619AC9;" d="M285.791,450.987c0.04,3.141,0.08,6.283,0.12,9.424c0.004,0.3-0.462,0.3-0.466,0
					c-0.04-3.141-0.08-6.283-0.12-9.424C285.321,450.687,285.787,450.687,285.791,450.987L285.791,450.987z"/>
				<path style="fill:#619AC9;" d="M277.638,450.987c0.04,3.141,0.08,6.283,0.12,9.424c0.004,0.3-0.462,0.3-0.466,0
					c-0.04-3.141-0.08-6.283-0.12-9.424C277.169,450.687,277.635,450.687,277.638,450.987L277.638,450.987z"/>
				<path style="fill:#619AC9;" d="M269.486,450.987c0.04,3.141,0.08,6.283,0.12,9.424c0.004,0.3-0.462,0.3-0.466,0
					c-0.04-3.141-0.08-6.283-0.12-9.424C269.016,450.687,269.482,450.687,269.486,450.987L269.486,450.987z"/>
				<path style="fill:#619AC9;" d="M261.333,450.987c0.04,3.141,0.08,6.283,0.12,9.424c0.004,0.3-0.462,0.3-0.466,0
					c-0.04-3.141-0.08-6.283-0.12-9.424C260.864,450.687,261.33,450.687,261.333,450.987L261.333,450.987z"/>
				<path style="fill:#619AC9;" d="M253.181,450.987c0.04,3.141,0.08,6.283,0.12,9.424c0.004,0.3-0.462,0.3-0.466,0
					c-0.04-3.141-0.08-6.283-0.12-9.424C252.711,450.687,253.177,450.687,253.181,450.987L253.181,450.987z"/>
			</g>
			
				<rect x="253.128" y="178.563" transform="matrix(-1 -1.224647e-16 1.224647e-16 -1 554.9308 367.9487)" style="fill:#3A739B;" width="48.675" height="10.823"/>
			<polygon style="fill:#8BB7E4;" points="267.754,175.113 267.754,165.915 287.176,165.915 287.176,175.113 294.609,175.113 
				294.609,178.563 287.176,178.563 267.754,178.563 260.321,178.563 260.321,175.113 			"/>
			<polygon style="fill:#162A45;" points="270.632,165.915 284.299,165.915 284.299,154.417 270.632,156.799 			"/>
			
				<rect x="263.079" y="239.955" transform="matrix(-1 -1.224647e-16 1.224647e-16 -1 554.8108 643.265)" style="fill:#619AC9;" width="28.653" height="163.356"/>
			
				<rect x="249.411" y="215.932" transform="matrix(-1 -1.224647e-16 1.224647e-16 -1 554.8108 445.1687)" style="fill:#619AC9;" width="55.988" height="13.305"/>
			
				<rect x="249.411" y="421.051" transform="matrix(-1 -1.224647e-16 1.224647e-16 -1 554.8108 855.4066)" style="fill:#619AC9;" width="55.988" height="13.305"/>
		</g>
	</g>
</g>
</svg>
