<?xml version="1.0" encoding="utf-8"?>
<!-- Generator: Adobe Illustrator 27.5.0, SVG Export Plug-In . SVG Version: 6.00 Build 0)  -->
<svg version="1.1" xmlns="http://www.w3.org/2000/svg" xmlns:xlink="http://www.w3.org/1999/xlink" x="0px" y="0px"
	 viewBox="0 0 500 500" style="enable-background:new 0 0 500 500;" xml:space="preserve">

<g id="OBJECTS">
	<g>
		<g>
			<g>
				<path style="fill:#C1E3F4;" d="M260.892,136.103c0,0-21.644,1.271-52.774-8.431c-31.131-9.701-88.692,13.842-96.453,71.403
					c-7.761,57.561-29.093,35.678-40.745,94.812c-8.539,43.332,5.133,153.459,163.848,153.459
					c153.777,0,186.029-42.698,199.72-100.628c8.436-35.694,5.974-97.331-31.784-151.137
					C371.344,150.895,366.484,103.095,260.892,136.103z"/>
				<g>
					<path style="fill:#83B5C9;" d="M155.198,381.297l5.975-29.956c-6.798-10.671-17.005-19.612-32.254-23.79l-1.138,12.162
						l-2.317-13.007c-0.455-0.098-0.915-0.193-1.379-0.283l-0.578,30.928l-4.71-31.755c-8.319-0.994-17.868-0.755-28.824,1.045
						l5.258,15.328l-9.393-14.586c-9.988,1.937-21.09,5.124-33.432,9.791c-1.719,0.65-2.755,2.408-2.492,4.227
						c0.29,2.006,0.756,4.899,1.453,8.429l18.455,7.828l-16.95-0.898c2.214,9.353,5.75,21.134,11.243,32.607l16.201,0.628
						l-14.062,3.628c0.172,0.327,0.346,0.653,0.522,0.979l41.625-0.157l-37.388,7.34c7.268,11.257,16.883,21.104,29.551,26.506
						l31.359-12.467c0,0-14.046,8.559-24.367,14.895c14.282,3.88,31.984,2.4,53.893-7.83c7.974-3.724,12.986-11.81,12.842-20.61
						c-0.19-11.643-1.932-28.605-9.109-43.672L155.198,381.297z"/>
					<path style="fill:#A6DCED;" d="M147.028,336.124c-2.982-2.167-6.282-4.083-9.935-5.688
						c-2.283,13.774-8.523,49.863-10.868,47.627c-2.894-2.76-15.209-47.11-15.209-47.11l3.115,31.161l-11.307-36.925
						c-1.461,0.084-2.951,0.201-4.471,0.349c4.512,15.064,12.308,41.955,10.107,40.819c-2.387-1.233-21.229-26.585-29.294-37.531
						c-1.565,0.372-3.156,0.774-4.772,1.205c5.264,8.098,14.25,22.438,12.955,24.04c-1.459,1.803-18.284-14.13-24.854-20.476
						c-3.266,1.081-6.627,2.272-10.086,3.58c-1.719,0.65-2.755,2.408-2.492,4.227c0.193,1.336,0.465,3.067,0.83,5.115
						c7.173,2.283,20.955,7.052,23.238,10.661c2.119,3.349-11.088,4.593-19.731,5.046c0.128,0.475,0.259,0.956,0.393,1.44
						c10.978,1.802,29.993,5.178,28.522,6.72c-1.351,1.416-15.655,2.779-25.338,3.549c0.963,2.793,2.03,5.644,3.211,8.51
						l43.135-1.026l-22.049,3.353c0,0,31.899,5.065,34.563,12.156c2.001,5.326-24.111,12.635-37.232,15.943
						c0.058,0.064,0.116,0.127,0.174,0.191l28.316-5.943L83.71,417.182c2.225,2.07,4.59,3.988,7.102,5.719
						c13.306-6.268,41.477-19.368,43.516-18.91c2.676,0.602,7.93,4.636,8.837,7.776c0.907,3.14-15.793,14.518-15.793,14.518
						s20.699-11.14,24.274-7.732c1.542,1.47,1.409,4.822,0.761,8.159c2.932-1.106,5.947-2.378,9.045-3.825
						c7.974-3.724,12.986-11.81,12.842-20.61c-0.043-2.63-0.166-5.533-0.412-8.623c-8.604,1.457-17.977,2.804-19.663,2.089
						c-3.24-1.375-3.861-20.152-3.861-20.152s-3.414,13.125-4.651,12.035c-1.236-1.089,3.284-31.736,3.284-31.736
						s-7.59,23.64-9.853,23.286C137.305,378.893,144.294,347.927,147.028,336.124z"/>
					<path style="fill:#497689;" d="M55.164,340.878c1.221,0.656,2.427,1.336,3.64,2.003c1.208,0.676,2.415,1.354,3.617,2.039
						c2.407,1.366,4.802,2.752,7.193,4.144c4.779,2.788,9.527,5.624,14.257,8.487c9.456,5.735,18.834,11.591,28.145,17.552
						c9.312,5.96,18.555,12.027,27.72,18.216c4.58,3.099,9.142,6.225,13.673,9.399c2.264,1.59,4.525,3.185,6.772,4.801
						c1.125,0.805,2.246,1.618,3.365,2.433c1.114,0.824,2.235,1.635,3.342,2.47c-1.222-0.655-2.427-1.335-3.641-2.002
						c-1.208-0.676-2.415-1.353-3.618-2.039c-2.408-1.365-4.802-2.751-7.194-4.142c-4.779-2.787-9.527-5.623-14.258-8.487
						c-9.456-5.735-18.834-11.591-28.143-17.556c-9.309-5.964-18.552-12.032-27.717-18.22c-4.579-3.099-9.142-6.225-13.674-9.399
						c-2.264-1.589-4.525-3.184-6.773-4.799c-1.125-0.805-2.246-1.618-3.366-2.432C57.393,342.523,56.271,341.713,55.164,340.878z"
						/>
					<g>
						<path style="fill:#83B5C9;" d="M206.041,181.599c-10.61-6.458-18.382,18.031-26.621,11.043
							c-8.239-6.988,6.121-34.555-4.804-41.555c-10.925-6.999-11.448,23.936-19.357,20.301
							c-7.864-3.615-16.153-46.571-38.367-37.666c-22.242,14.246,10.41,44.516,8.863,53.031c-1.556,8.564-27.202-8.744-27.731,4.22
							c-0.529,12.964,30.29,17.004,31.292,27.761c1.001,10.757-23.519,3.084-24.311,15.48c-0.792,12.396,29.491,21.65,29.491,21.65
							c24.248,5.382,40.24-4.303,42.856-6.041c2.923-1.146,20.027-8.696,29.521-31.648
							C206.871,218.174,216.651,188.057,206.041,181.599z"/>
						<path style="fill:#94CEE0;" d="M184.689,231.803c0.728-9.013,4.95-23.682,4.95-23.682s-14.28,10.431-20.704,4.089
							c-6.424-6.341,1.874-34.573,0.395-38.531c-1.479-3.958-14.147,8.209-18.424,3.909c-4.278-4.301-14.501-17.024-14.306-24.528
							c0.082-3.14,0.797-7.148,1.132-10.962c-2.467-3.354-5.23-6.173-8.376-7.868c-0.758,3.089-1.23,6.69-3.525,6.928
							c-3.053,0.316-2.353-5.596-3.91-8.619c-1.593,0.099-3.267,0.478-5.029,1.184c-0.699,0.448-1.344,0.912-1.938,1.39
							c0.608,3.622,4.895,8.251,1.917,9.658c-1.539,0.727-4.768,0.902-7.73,1.326c-0.244,4.107,0.971,8.519,2.845,12.896
							c6.477,4.693,17.941,13.302,19.991,16.869c2.887,5.024,6.824,12.253-1.278,16.038c-8.102,3.785-11.957,7.475-6.937,10.87
							c5.02,3.395,20.181,2.87,26.024,12.252c5.842,9.382-17.083,15.28-13.775,19.315c3.309,4.035,23.935,11.404,29.734,11.332
							c4.1-0.05,5.303,4.626,1.302,8.946c5.615-1.85,9.185-4.048,10.303-4.792c1.638-0.642,7.729-3.296,14.438-9.543
							C188.73,238.523,184.262,237.09,184.689,231.803z"/>
						<path style="fill:#4A7689;" d="M119.138,138.036c5.226,8.469,10.143,17.099,14.968,25.777
							c4.812,8.685,9.502,17.433,14.088,26.235c4.587,8.802,9.065,17.66,13.422,26.582c4.345,8.928,8.595,17.905,12.533,27.044
							c-5.23-8.467-10.148-17.096-14.972-25.774c-4.811-8.685-9.502-17.433-14.083-26.237c-4.582-8.804-9.061-17.662-13.417-26.584
							C127.331,156.15,123.08,147.173,119.138,138.036z"/>
						<path style="fill:#4A7689;" d="M113.984,194.614c0.836,0.083,1.662,0.186,2.493,0.278l2.479,0.309
							c1.653,0.205,3.295,0.434,4.936,0.663c3.281,0.464,6.544,0.966,9.797,1.488c1.624,0.267,3.25,0.529,4.868,0.809l2.429,0.415
							l2.423,0.428c3.23,0.572,6.447,1.171,9.657,1.785l-1.945,0.979c0.745-1.537,1.509-3.07,2.262-4.605l2.299-4.597
							c1.553-3.061,3.113-6.12,4.721-9.169c1.603-3.05,3.231-6.095,4.903-9.131c0.84-1.517,1.68-3.034,2.545-4.546l1.299-2.268
							c0.445-0.753,0.879-1.509,1.334-2.26c-0.295,0.785-0.612,1.564-0.917,2.347l-0.952,2.34c-0.636,1.559-1.297,3.114-1.958,4.668
							c-1.33,3.107-2.704,6.205-4.103,9.297c-1.394,3.094-2.836,6.177-4.285,9.26l-2.204,4.617c-0.747,1.536-1.484,3.075-2.24,4.609
							l-0.61,1.239l-1.335-0.26c-3.205-0.625-6.403-1.265-9.588-1.932l-2.388-0.501l-2.382-0.514c-1.59-0.34-3.171-0.698-4.754-1.05
							c-3.161-0.717-6.313-1.455-9.447-2.23c-1.566-0.39-3.131-0.781-4.686-1.195l-2.332-0.62
							C115.529,195.048,114.752,194.84,113.984,194.614z"/>
						<path style="fill:#4A7689;" d="M129.536,234.181c3.28-0.407,6.545-0.729,9.806-1.03c3.26-0.297,6.514-0.559,9.765-0.8
							c3.249-0.232,6.495-0.452,9.736-0.638l2.431-0.141l2.428-0.128c1.619-0.089,3.236-0.164,4.853-0.238l-1.365,0.676
							c2.293-2.748,4.615-5.48,6.951-8.205c2.342-2.722,4.698-5.436,7.09-8.131c2.387-2.697,4.8-5.381,7.251-8.045l1.844-1.995
							l1.861-1.985c1.243-1.322,2.505-2.634,3.786-3.937c-1.023,1.44-2.065,2.87-3.126,4.289l-1.595,2.128l-1.612,2.118
							c-2.157,2.82-4.353,5.62-6.573,8.407c-2.217,2.789-4.468,5.559-6.734,8.321c-2.272,2.759-4.559,5.51-6.874,8.246l-0.543,0.642
							l-0.821,0.034c-1.616,0.067-3.231,0.133-4.844,0.185l-2.42,0.084l-2.418,0.07c-3.224,0.097-6.442,0.159-9.658,0.209
							c-3.214,0.042-6.425,0.061-9.629,0.047C135.92,234.346,132.72,234.306,129.536,234.181z"/>
						<path style="fill:#4A7689;" d="M116.515,151.129c0.787,0.395,1.546,0.815,2.296,1.244c0.752,0.428,1.488,0.87,2.221,1.314
							c1.461,0.894,2.887,1.822,4.291,2.77c1.408,0.944,2.777,1.924,4.141,2.91l2.019,1.503c0.663,0.511,1.335,1.012,1.99,1.53
							l-2.588,1.392c-0.136-1.568-0.255-3.14-0.341-4.721l-0.064-1.185l-0.049-1.189c-0.037-0.792-0.051-1.589-0.072-2.384
							c-0.028-1.594-0.032-3.194,0.007-4.805c0.045-1.612,0.112-3.229,0.284-4.872c0.458,1.49,0.811,3.006,1.141,4.527
							c0.325,1.522,0.607,3.055,0.864,4.594c0.121,0.771,0.25,1.541,0.356,2.315l0.166,1.161l0.15,1.165
							c0.199,1.553,0.366,3.113,0.516,4.678l0.347,3.627l-2.935-2.235c-0.666-0.507-1.314-1.031-1.973-1.546l-1.943-1.573
							c-1.278-1.066-2.55-2.136-3.784-3.243c-1.238-1.103-2.454-2.226-3.634-3.382c-0.588-0.581-1.172-1.164-1.741-1.762
							C117.61,152.365,117.048,151.76,116.515,151.129z"/>
					</g>
					<g>
						<path style="fill:#83B5C9;" d="M421.694,418.886c0.378-13.116-26.33-7.785-24.215-18.979
							c2.115-11.194,35.134-12.004,35.845-25.688c0.711-13.684-28.132,1.648-28.939-7.526c-0.803-9.122,34.501-38.75,14.582-54.746
							c-24.867-13.29-35.628,32.387-44.306,35.309c-8.728,2.939-6.248-29.632-18.498-23.494
							c-12.251,6.138,0.246,36.712-9.161,43.137c-9.407,6.426-15.232-20.179-27.096-14.574s-4.465,38.347-4.465,38.347
							c7.798,25.181,25.162,35.022,28.144,36.553c2.598,2.118,18.576,14.079,44.77,11.126
							C388.354,438.351,421.316,432.001,421.694,418.886z"/>
						<path style="fill:#94CEE0;" d="M364.089,424.801c8.706-3.935,24.477-7.529,24.477-7.529s-17.152-7.876-14.678-17.061
							c2.473-9.185,32.914-15.942,35.79-19.334c2.876-3.392-15.03-8.889-13.31-15.044c1.719-6.155,8.085-22.117,15.118-25.772
							c2.943-1.53,7.021-2.918,10.719-4.557c1.799-3.996,2.947-7.993,2.856-11.77c-3.252,0.879-6.826,2.283-8.254,0.281
							c-1.899-2.663,3.929-5.037,5.901-8.023c-0.931-1.423-2.162-2.778-3.742-4.046c-0.782-0.418-1.55-0.777-2.305-1.082
							c-3.025,2.414-5.042,8.746-7.91,6.71c-1.482-1.052-3.343-3.949-5.295-6.472c-3.921,1.874-7.356,5.254-10.411,9.224
							c-0.924,8.391-2.837,23.396-5.052,27.116c-3.12,5.24-7.723,12.576-15.483,7.017c-7.761-5.559-13.199-7.239-13.69-0.859
							c-0.491,6.38,7.976,20.135,2.388,30.336c-5.588,10.2-23.106-7.99-25.09-2.867c-1.984,5.123,2.072,27.97,5.191,33.297
							c2.206,3.767-1.48,7.27-7.576,5.777c4.665,4.248,8.575,6.426,9.85,7.081c1.456,1.187,7.114,5.464,16.415,8.476
							C360.01,431.975,358.982,427.109,364.089,424.801z"/>
						<path style="fill:#4A7689;" d="M416.165,316.229c-5.069,9.164-10.449,18.124-15.923,27.023
							c-5.487,8.891-11.096,17.701-16.81,26.443c-5.713,8.742-11.536,17.413-17.48,26.004c-5.957,8.583-12.009,17.104-18.376,25.419
							c5.065-9.166,10.444-18.127,15.919-27.026c5.487-8.891,11.096-17.701,16.814-26.44c5.717-8.74,11.54-17.411,17.485-26.002
							C403.751,333.069,409.803,324.547,416.165,316.229z"/>
						<path style="fill:#4A7689;" d="M361.203,340.387c0.363,0.815,0.704,1.632,1.056,2.449l1.02,2.451
							c0.681,1.634,1.334,3.27,1.987,4.905c1.299,3.272,2.554,6.547,3.785,9.823c0.608,1.639,1.223,3.277,1.816,4.916l0.895,2.459
							l0.88,2.46c1.173,3.28,2.313,6.562,3.436,9.845l-1.928-1.299c1.811-0.097,3.629-0.174,5.444-0.262l5.456-0.224
							c3.644-0.128,7.291-0.249,10.953-0.321c3.661-0.077,7.33-0.128,11.014-0.133c1.843,0.001,3.686,0.003,5.538,0.03l2.778,0.042
							c0.93,0.027,1.856,0.041,2.79,0.079c-0.88,0.128-1.767,0.234-2.65,0.351l-2.662,0.315c-1.775,0.209-3.558,0.393-5.342,0.576
							c-3.569,0.358-7.153,0.672-10.746,0.958c-3.591,0.292-7.198,0.534-10.807,0.771l-5.424,0.322
							c-1.812,0.094-3.621,0.199-5.436,0.284l-1.466,0.069l-0.462-1.368c-1.11-3.284-2.203-6.569-3.264-9.856l-0.795-2.465
							l-0.779-2.466c-0.523-1.644-1.025-3.289-1.534-4.934c-1.002-3.291-1.981-6.583-2.915-9.879
							c-0.464-1.648-0.928-3.296-1.363-4.945l-0.655-2.474C361.616,342.038,361.398,341.213,361.203,340.387z"/>
						<path style="fill:#4A7689;" d="M332.852,375c2.103,2.826,4.12,5.681,6.114,8.544c1.991,2.864,3.947,5.74,5.88,8.623
							c1.925,2.886,3.838,5.777,5.715,8.679l1.41,2.176l1.396,2.181c0.935,1.453,1.855,2.91,2.775,4.367l-1.343-0.917
							c3.745,0.716,7.491,1.467,11.237,2.234c3.746,0.774,7.494,1.567,11.242,2.401c3.748,0.829,7.497,1.689,11.247,2.594
							l2.813,0.686l2.814,0.707c1.876,0.474,3.752,0.971,5.629,1.49c-1.868-0.21-3.737-0.443-5.607-0.698l-2.804-0.388l-2.805-0.408
							c-3.74-0.554-7.482-1.153-11.224-1.782c-3.742-0.625-7.486-1.291-11.23-1.975c-3.744-0.691-7.489-1.4-11.235-2.142
							l-0.879-0.174l-0.464-0.743c-0.912-1.46-1.824-2.921-2.721-4.386l-1.352-2.196l-1.338-2.201
							c-1.787-2.933-3.539-5.878-5.278-8.827c-1.731-2.952-3.44-5.912-5.113-8.883C336.061,380.99,334.413,378.01,332.852,375z"/>
						<path style="fill:#4A7689;" d="M402.692,320.497c0.05,0.93,0.062,1.847,0.06,2.76c0.001,0.914-0.02,1.821-0.044,2.726
							c-0.056,1.809-0.163,3.602-0.299,5.385c-0.13,1.785-0.315,3.553-0.506,5.318l-0.324,2.636
							c-0.123,0.874-0.232,1.752-0.366,2.623l-2.648-1.682c1.377-0.927,2.766-1.841,4.18-2.729l1.061-0.665l1.073-0.653
							c0.712-0.439,1.441-0.859,2.164-1.286c1.458-0.841,2.933-1.663,4.441-2.45c1.512-0.783,3.041-1.548,4.649-2.228
							c-1.135,1.186-2.349,2.287-3.58,3.37c-1.235,1.079-2.502,2.123-3.787,3.148c-0.648,0.506-1.291,1.019-1.951,1.513
							l-0.985,0.747l-0.996,0.734c-1.329,0.978-2.682,1.931-4.049,2.869l-3.167,2.175l0.519-3.857
							c0.118-0.875,0.26-1.743,0.389-2.615l0.43-2.602c0.311-1.727,0.63-3.451,1.002-5.158c0.367-1.709,0.763-3.408,1.21-5.091
							c0.227-0.84,0.458-1.679,0.71-2.511C402.127,322.142,402.39,321.313,402.692,320.497z"/>
					</g>
					<g>
						<path style="fill:#83B5C9;" d="M354.511,225.492l23.268,13.261c10.759-2.702,21.022-8.72,28.718-20.25l-9.803-4.313
							l11.462,1.672c0.208-0.352,0.414-0.708,0.617-1.069l-25.571-9.04l27.722,4.869c3.129-6.646,5.573-14.656,7.107-24.269
							l-14.207,0.132l14.735-3.778c1.153-8.845,1.573-18.964,1.106-30.523c-0.065-1.61-1.241-2.959-2.827-3.243
							c-1.75-0.313-4.285-0.727-7.415-1.123l-11.62,13.188l5.438-13.853c-8.394-0.746-19.174-1.065-30.239,0.33l-5.005,13.304
							l0.873-12.703c-0.319,0.053-0.639,0.107-0.959,0.163l-11.389,34.674l4.24-33.136c-11.377,2.931-22.23,8.206-30.23,17.25
							l1.694,29.54c0,0-3.234-14.055-5.648-24.394c-7.18,10.809-10.848,25.945-8.4,47.003c0.891,7.665,6.232,14.072,13.592,16.387
							c9.739,3.064,24.333,6.309,38.854,4.507L354.511,225.492z"/>
						<path style="fill:#A6DCED;" d="M394.354,231.196c2.628-1.881,5.135-4.097,7.482-6.692
							c-10.827-5.711-39.125-20.89-36.616-22.222c3.097-1.644,43.402,0.384,43.402,0.384l-26.786-6.032l33.849,0.812
							c0.334-1.239,0.65-2.511,0.947-3.817c-13.781-0.415-38.31-1.371-36.756-2.887c1.686-1.645,27.993-10.305,39.331-13.985
							c0.124-1.405,0.23-2.84,0.318-4.304c-8.194,2.138-22.611,5.646-23.585,4.125c-1.097-1.713,16.815-11.301,23.913-15.011
							c0.005-3.017-0.056-6.142-0.187-9.382c-0.065-1.61-1.241-2.959-2.827-3.243c-1.165-0.209-2.68-0.462-4.485-0.725
							c-3.884,5.336-11.666,15.482-15.3,16.383c-3.372,0.836-0.752-10.496,1.263-17.811c-0.431-0.025-0.867-0.049-1.307-0.071
							c-4.537,8.634-12.608,23.52-13.484,21.869c-0.805-1.516,2.02-13.793,4.06-22.063c-2.59,0.028-5.257,0.127-7.968,0.316
							l-11.084,36.17l3.312-19.271c0,0-13.041,25.137-19.678,25.391c-4.985,0.191-3.839-23.556-2.96-35.387
							c-0.069,0.031-0.138,0.061-0.207,0.092l-2.892,25.202l-1.668-22.951c-2.337,1.278-4.588,2.715-6.724,4.326
							c1.532,12.804,4.635,39.867,3.689,41.436c-1.241,2.06-6.052,5.314-8.915,5.2c-2.863-0.115-7.707-17.157-7.707-17.157
							s3.54,20.303-0.285,22.334c-1.65,0.876-4.402-0.162-6.999-1.625c0.109,2.746,0.333,5.605,0.679,8.584
							c0.891,7.665,6.232,14.072,13.592,16.387c2.2,0.692,4.649,1.393,7.288,2.044c1.169-7.561,2.642-15.732,3.704-16.937
							c2.04-2.315,17.834,2.365,17.834,2.365s-9.974-6.473-8.726-7.2c1.248-0.727,25.494,11.515,25.494,11.515
							s-17.567-12.857-16.646-14.642C361.464,211.271,385.291,225.656,394.354,231.196z"/>
						<path style="fill:#497689;" d="M415.821,153.454c-0.884,0.834-1.783,1.649-2.674,2.474c-0.897,0.818-1.795,1.634-2.698,2.445
							c-1.803,1.625-3.618,3.233-5.438,4.837c-3.642,3.204-7.315,6.369-11.006,9.513c-7.388,6.28-14.856,12.461-22.391,18.558
							c-7.535,6.098-15.141,12.108-22.826,18.02c-3.845,2.953-7.709,5.883-11.604,8.775c-1.949,1.443-3.902,2.883-5.868,4.305
							c-0.981,0.713-1.968,1.421-2.955,2.126c-0.993,0.698-1.979,1.407-2.98,2.096c0.883-0.835,1.782-1.65,2.673-2.475
							c0.897-0.818,1.794-1.635,2.697-2.446c1.802-1.625,3.618-3.234,5.437-4.838c3.642-3.205,7.315-6.37,11.006-9.513
							c7.388-6.279,14.855-12.461,22.394-18.555c7.538-6.094,15.144-12.105,22.829-18.017c3.846-2.952,7.709-5.883,11.604-8.775
							c1.949-1.444,3.901-2.884,5.867-4.307c0.981-0.714,1.967-1.421,2.955-2.127C413.836,154.853,414.821,154.144,415.821,153.454z
							"/>
					</g>
				</g>
				<g>
					<path style="fill:#83B5C9;" d="M315.526,326.377c0,0,70.186-75.044,126.363-84.954
						C441.889,241.423,333.642,307.874,315.526,326.377z"/>
					<path style="fill:#83B5C9;" d="M284.834,171.255c0,0,24.522-40.083,63.815-47.782L284.834,171.255z"/>
					<path style="fill:#83B5C9;" d="M280.427,164.654c0.512-4.343,15.217-34.563,15.217-34.563s-16.119,7.033-14.705,30.219"/>
					<path style="fill:#83B5C9;" d="M145.768,329.808c0,0-29.757-49.038-90.604-61.982
						C55.164,267.826,131.724,314.465,145.768,329.808z"/>
					<path style="fill:#83B5C9;" d="M145.768,310.593c0,0-11.035-30.164-45.302-53.385L145.768,310.593z"/>
					<path style="fill:#83B5C9;" d="M362.136,299.94c0,0,49.569-14.273,77.309-10.684
						C439.445,289.256,400.961,270.831,362.136,299.94z"/>
				</g>
			</g>
			<g>
				<path style="fill:#EEEDF9;" d="M363.073,458.786H147.58c-8.635,0-15.635-7-15.635-15.635V212.024h246.762v231.128
					C378.707,451.787,371.708,458.786,363.073,458.786z"/>
				<g>
					<rect x="145.768" y="267.105" style="fill:#CAC8E8;" width="24.272" height="24.272"/>
					<rect x="178.131" y="267.105" style="fill:#CAC8E8;" width="24.272" height="24.272"/>
					<rect x="210.494" y="267.105" style="fill:#CAC8E8;" width="24.272" height="24.272"/>
					<rect x="242.858" y="267.105" style="fill:#CAC8E8;" width="24.272" height="24.272"/>
					<rect x="275.221" y="267.105" style="fill:#CAC8E8;" width="24.272" height="24.272"/>
					<rect x="307.584" y="267.105" style="fill:#CAC8E8;" width="24.272" height="24.272"/>
					<rect x="339.947" y="267.105" style="fill:#CAC8E8;" width="24.272" height="24.272"/>
				</g>
				<rect x="145.768" y="298.456" style="fill:#CAC8E8;" width="24.272" height="24.272"/>
				<rect x="178.131" y="298.456" style="fill:#CAC8E8;" width="24.272" height="24.272"/>
				<rect x="210.494" y="298.456" style="fill:#CAC8E8;" width="24.272" height="24.272"/>
				<rect x="242.858" y="298.456" style="fill:#D13B5F;" width="24.272" height="24.272"/>
				<rect x="275.221" y="298.456" style="fill:#CAC8E8;" width="24.272" height="24.272"/>
				<rect x="307.584" y="298.456" style="fill:#CAC8E8;" width="24.272" height="24.272"/>
				<rect x="339.947" y="298.456" style="fill:#CAC8E8;" width="24.272" height="24.272"/>
				<g>
					<rect x="145.768" y="329.808" style="fill:#CAC8E8;" width="24.272" height="24.272"/>
					<rect x="178.131" y="329.808" style="fill:#CAC8E8;" width="24.272" height="24.272"/>
					<rect x="210.494" y="329.808" style="fill:#CAC8E8;" width="24.272" height="24.272"/>
					<rect x="242.858" y="329.808" style="fill:#CAC8E8;" width="24.272" height="24.272"/>
					<rect x="275.221" y="329.808" style="fill:#CAC8E8;" width="24.272" height="24.272"/>
					<rect x="307.584" y="329.808" style="fill:#CAC8E8;" width="24.272" height="24.272"/>
					<rect x="339.947" y="329.808" style="fill:#CAC8E8;" width="24.272" height="24.272"/>
				</g>
				<rect x="145.768" y="361.16" style="fill:#CAC8E8;" width="24.272" height="24.272"/>
				<rect x="178.131" y="361.16" style="fill:#CAC8E8;" width="24.272" height="24.272"/>
				<rect x="210.494" y="361.16" style="fill:#CAC8E8;" width="24.272" height="24.272"/>
				<rect x="242.858" y="361.16" style="fill:#CAC8E8;" width="24.272" height="24.272"/>
				<rect x="275.221" y="361.16" style="fill:#CAC8E8;" width="24.272" height="24.272"/>
				<rect x="307.584" y="361.16" style="fill:#CAC8E8;" width="24.272" height="24.272"/>
				<rect x="339.947" y="361.16" style="fill:#CAC8E8;" width="24.272" height="24.272"/>
				<g>
					<rect x="145.768" y="392.512" style="fill:#CAC8E8;" width="24.272" height="24.272"/>
					<rect x="178.131" y="392.512" style="fill:#CAC8E8;" width="24.272" height="24.272"/>
					<rect x="210.494" y="392.512" style="fill:#CAC8E8;" width="24.272" height="24.272"/>
					<rect x="242.858" y="392.512" style="fill:#CAC8E8;" width="24.272" height="24.272"/>
					<rect x="275.221" y="392.512" style="fill:#CAC8E8;" width="24.272" height="24.272"/>
					<rect x="307.584" y="392.512" style="fill:#CAC8E8;" width="24.272" height="24.272"/>
					<rect x="339.947" y="392.512" style="fill:#CAC8E8;" width="24.272" height="24.272"/>
				</g>
				<g>
					<rect x="145.768" y="423.073" style="fill:#CAC8E8;" width="24.272" height="24.272"/>
					<rect x="178.131" y="423.073" style="fill:#CAC8E8;" width="24.272" height="24.272"/>
					<rect x="210.494" y="423.073" style="fill:#CAC8E8;" width="24.272" height="24.272"/>
					<rect x="242.858" y="423.073" style="fill:#CAC8E8;" width="24.272" height="24.272"/>
					<rect x="275.221" y="423.073" style="fill:#CAC8E8;" width="24.272" height="24.272"/>
					<rect x="307.584" y="423.073" style="fill:#CAC8E8;" width="24.272" height="24.272"/>
					<rect x="339.947" y="423.073" style="fill:#CAC8E8;" width="24.272" height="24.272"/>
				</g>
				<path style="fill:#D03B5E;" d="M355.807,262.744H154.18c-4.646,0-8.412-3.766-8.412-8.412l0,0c0-4.646,3.766-8.412,8.412-8.412
					h201.627c4.646,0,8.412,3.766,8.412,8.412l0,0C364.22,258.978,360.453,262.744,355.807,262.744z"/>
				<g>
					
						<text transform="matrix(1 0 0 1 151.0825 257.2075)" style="fill:#FFFFFF; font-family:'Poppins-Medium'; font-size:8.1979px;">SUN</text>
					
						<text transform="matrix(1 0 0 1 181.6767 257.2075)" style="fill:#FFFFFF; font-family:'Poppins-Medium'; font-size:8.1979px;">MON</text>
					
						<text transform="matrix(1 0 0 1 216.3662 257.2075)" style="fill:#FFFFFF; font-family:'Poppins-Medium'; font-size:8.1979px;">TUE</text>
					
						<text transform="matrix(1 0 0 1 245.9365 257.2075)" style="fill:#FFFFFF; font-family:'Poppins-Medium'; font-size:8.1979px;">WED</text>
					<text transform="matrix(1 0 0 1 278.834 257.2075)" style="fill:#FFFFFF; font-family:'Poppins-Medium'; font-size:8.1979px;">THU</text>
					
						<text transform="matrix(1 0 0 1 314.5479 257.2075)" style="fill:#FFFFFF; font-family:'Poppins-Medium'; font-size:8.1979px;">FRI</text>
					
						<text transform="matrix(1 0 0 1 344.1182 257.2075)" style="fill:#FFFFFF; font-family:'Poppins-Medium'; font-size:8.1979px;">SAT</text>
				</g>
				<path style="fill:#D13B5F;" d="M130.357,217.48h250.924c1.675,0,3.033-1.358,3.033-3.033v-12.595
					c0-1.675-1.358-3.033-3.033-3.033H130.357c-1.675,0-3.033,1.358-3.033,3.033v12.595
					C127.324,216.122,128.682,217.48,130.357,217.48z"/>
				
					<text transform="matrix(1 0 0 1 223.0254 239.2348)" style="fill:#44434F; font-family:'Poppins-SemiBold'; font-size:16.6359px;">August</text>
				<g>
					
						<text transform="matrix(1 0 0 1 349.875 284.2436)" style="fill:#343838; font-family:'Poppins-Medium'; font-size:11.7731px;">1</text>
					
						<text transform="matrix(1 0 0 1 154.6655 315.2114)" style="fill:#343838; font-family:'Poppins-Medium'; font-size:11.7731px;">2</text>
					
						<text transform="matrix(1 0 0 1 186.7954 315.2114)" style="fill:#343838; font-family:'Poppins-Medium'; font-size:11.7731px;">3</text>
					
						<text transform="matrix(1 0 0 1 219.1152 315.2114)" style="fill:#343838; font-family:'Poppins-Medium'; font-size:11.7731px;">4</text>
					
						<text transform="matrix(1 0 0 1 251.4346 315.2114)" style="fill:#FFFFFF; font-family:'Poppins-Medium'; font-size:11.7731px;">5</text>
					
						<text transform="matrix(1 0 0 1 285.0342 315.2114)" style="fill:#343838; font-family:'Poppins-Medium'; font-size:11.7731px;">6</text>
					
						<text transform="matrix(1 0 0 1 317.6094 315.2114)" style="fill:#343838; font-family:'Poppins-Medium'; font-size:11.7731px;">7</text>
					
						<text transform="matrix(1 0 0 1 348.6494 315.2114)" style="fill:#343838; font-family:'Poppins-Medium'; font-size:11.7731px;">8</text>
					
						<text transform="matrix(1 0 0 1 155.4336 346.7182)" style="fill:#343838; font-family:'Poppins-Medium'; font-size:11.7731px;">9</text>
					
						<text transform="matrix(1 0 0 1 184.748 346.7182)" style="fill:#343838; font-family:'Poppins-Medium'; font-size:11.7731px;">10</text>
					
						<text transform="matrix(1 0 0 1 218.3476 346.7182)" style="fill:#343838; font-family:'Poppins-Medium'; font-size:11.7731px;">11</text>
					
						<text transform="matrix(1 0 0 1 250.9228 346.7182)" style="fill:#343838; font-family:'Poppins-Medium'; font-size:11.7731px;">12</text>
					
						<text transform="matrix(1 0 0 1 282.7305 346.7182)" style="fill:#343838; font-family:'Poppins-Medium'; font-size:11.7731px;">13</text>
					
						<text transform="matrix(1 0 0 1 315.3066 346.7182)" style="fill:#343838; font-family:'Poppins-Medium'; font-size:11.7731px;">14</text>
					
						<text transform="matrix(1 0 0 1 348.1377 346.7182)" style="fill:#343838; font-family:'Poppins-Medium'; font-size:11.7731px;">15</text>
					
						<text transform="matrix(1 0 0 1 153.6416 378.9936)" style="fill:#343838; font-family:'Poppins-Medium'; font-size:11.7731px;">16</text>
					
						<text transform="matrix(1 0 0 1 185.5156 378.9936)" style="fill:#343838; font-family:'Poppins-Medium'; font-size:11.7731px;">17</text>
					
						<text transform="matrix(1 0 0 1 217.3237 378.9936)" style="fill:#343838; font-family:'Poppins-Medium'; font-size:11.7731px;">18</text>
					
						<text transform="matrix(1 0 0 1 250.1553 378.9936)" style="fill:#343838; font-family:'Poppins-Medium'; font-size:11.7731px;">19</text>
					
						<text transform="matrix(1 0 0 1 280.4277 378.9936)" style="fill:#343838; font-family:'Poppins-Medium'; font-size:11.7731px;">20</text>
					
						<text transform="matrix(1 0 0 1 313.0029 378.9936)" style="fill:#343838; font-family:'Poppins-Medium'; font-size:11.7731px;">21</text>
					
						<text transform="matrix(1 0 0 1 345.834 378.9936)" style="fill:#343838; font-family:'Poppins-Medium'; font-size:11.7731px;">22</text>
					
						<text transform="matrix(1 0 0 1 151.3384 409.9887)" style="fill:#343838; font-family:'Poppins-Medium'; font-size:11.7731px;">23</text>
					
						<text transform="matrix(1 0 0 1 183.9805 409.9887)" style="fill:#343838; font-family:'Poppins-Medium'; font-size:11.7731px;">24</text>
					
						<text transform="matrix(1 0 0 1 151.3384 439.3901)" style="fill:#343838; font-family:'Poppins-Medium'; font-size:11.7731px;">30</text>
					
						<text transform="matrix(1 0 0 1 183.9805 439.3901)" style="fill:#343838; font-family:'Poppins-Medium'; font-size:11.7731px;">31</text>
					
						<text transform="matrix(1 0 0 1 217.0674 409.9887)" style="fill:#343838; font-family:'Poppins-Medium'; font-size:11.7731px;">25</text>
					
						<text transform="matrix(1 0 0 1 249.1313 409.9887)" style="fill:#343838; font-family:'Poppins-Medium'; font-size:11.7731px;">26</text>
					
						<text transform="matrix(1 0 0 1 280.9395 409.9887)" style="fill:#343838; font-family:'Poppins-Medium'; font-size:11.7731px;">27</text>
					
						<text transform="matrix(1 0 0 1 313.5146 409.9887)" style="fill:#343838; font-family:'Poppins-Medium'; font-size:11.7731px;">28</text>
					
						<text transform="matrix(1 0 0 1 346.3457 409.9887)" style="fill:#343838; font-family:'Poppins-Medium'; font-size:11.7731px;">29</text>
					<rect x="349.357" y="372.251" style="fill:none;" width="8.732" height="0"/>
				</g>
				<path style="fill:#FFFFFF;" d="M150.826,191.477L150.826,191.477c-2.44,0-4.418,1.978-4.418,4.418v3.89
					c0,2.44,1.978,4.418,4.418,4.418l0,0c2.44,0,4.418-1.978,4.418-4.418v-3.89C155.244,193.455,153.266,191.477,150.826,191.477z"
					/>
				<path style="fill:#FFFFFF;" d="M364.22,192.456L364.22,192.456c-2.44,0-4.418,1.978-4.418,4.418v3.891
					c0,2.44,1.978,4.418,4.418,4.418l0,0c2.44,0,4.418-1.978,4.418-4.418v-3.891C368.638,194.434,366.66,192.456,364.22,192.456z"/>
			</g>
			<g>
				<path style="fill:#60BABA;" d="M249.069,159.686c0,0-25.365,13.849-33.551,39.134h105.871c0,0-3.268-35.704-41.927-44.047
					L249.069,159.686z"/>
				<path style="fill:#CC8464;" d="M241.809,138.309l10.224,19.201l-5.112,3.753c0,0,8.353,12.704,19.824,9.462
					c11.47-3.242,12.717-15.952,12.717-15.952l-5.985-1.752l0.748-18.951L241.809,138.309z"/>
				<path style="fill:#EDAC88;" d="M294.091,99.436c-0.469-10.777-7.783-9.12-7.783-9.12c-1.538-0.704-3.539-0.362-5.679,0.562
					c-0.233-4.058-0.614-7.706-1.192-10.479c0,0-3.638-26.377-40.747-18.373c-12.999,2.804-17.598,13.238-19.042,22.468
					c-0.803,5.132-0.667,10.347,0.317,15.42l-5.191,1.133c0,0-5.257,1.67-4.788,9.869c0.434,7.593,10.512,16.592,18.698,14.345
					c2.665,6.522,5.41,12.275,7.459,14.258c5.639,5.457,18.271,11.642,25.143,11.824c6.872,0.182,17.059-18.373,18.151-21.829
					c0.368-1.166,0.798-5.644,1.102-11.567C286.719,117.384,294.525,109.418,294.091,99.436z"/>
				<path style="fill:#754232;" d="M250.712,41.008c-25.378,1.788-28.784,13.029-28.784,13.029s-0.766-6.898-2.803-5.621
					c-2.037,1.277,0,9.708,0,9.708s-7.671-1.788-8.693,0c-1.022,1.788,5.365,2.388,5.365,2.388
					c-5.11,5.198-8.175,13.963-7.92,20.605c0.255,6.643,6.898,19.927,6.898,19.927c4.623-1.051,8.12,8.338,9.215,11.703
					c0.199,0.611,0.897,0.897,1.469,0.604l0.795-0.408c0.453-0.232,0.673-0.756,0.52-1.241c-1.05-3.341-4.88-15.644-5.1-18.067
					c-0.156-1.713,1.871-8.549,3.478-13.628c0.479,0.22,0.972,0.414,1.48,0.58c7.173,2.353,18.881,5.78,20.743,3.763
					c2.716-2.942-9.278-5.693-9.278-5.693s23.887,4.329,37.674,2.193c0.383,2.42,2.57,26.422,2.57,26.422
					c0.027,0.488,0.48,0.838,0.959,0.741l1.289-0.262c0.173-0.035,0.293-0.192,0.284-0.368c-0.726-15.297,5.438-17.069,5.438-17.069
					C292.158,61.204,276.089,39.22,250.712,41.008z"/>
				<path style="fill:#BA6B56;" d="M256.924,50.171c0,0,17.723,2.215,21.657,27.017c0,0-11.383-21.148-40.983-18.222
					c0,0,21.649,0.129,36.608,17.552c0.51,0.594,1.076,1.139,1.711,1.597c1.569,1.13,4.291,2.555,5.168-0.351
					C282.342,73.593,281.242,53.25,256.924,50.171z"/>
				<path style="fill:#ECAB88;" d="M276.128,280.282c-8.333,17.382-25.393,10.25-15.292,5.626
					c10.101-4.624,12.105-10.948,17.193-16.652c5.088-5.704,8.242-7.752,8.242-7.752l31.797-42.082l-9.567-12.171l14.729-15.774
					c0,0,17.582,23.045,15.836,28.953c-1.745,5.908-44.611,47.396-44.611,47.396c3.089,10.947-3.523,14.521-3.523,14.521
					c1.555,2.692,0.545,6.455-4.477,8.502c-5.022,2.047-6.324,0.29-6.324,0.29c-2.534,1.545-4.185-0.501-4.185-0.501
					c-4.414,0.318-4.491-4.583-4.491-4.583"/>
				<path style="fill:#60BABA;" d="M310.101,172.254l18.933,21.16c1.368,1.529,1.456,3.817,0.2,5.44
					c-2.979,3.849-9.27,10.404-19.073,13.028c-1.861,0.498-3.823-0.345-4.774-2.021l-14.555-25.644c0,0-8.833-17.458-2.683-22.994
					c1.629-1.466,5.11-0.507,8.575,1.081C301.828,164.642,306.358,168.07,310.101,172.254z"/>
				<g>
					<path style="fill:#F4F4F4;" d="M328.169,40.908c-17.871,0.171-32.433,14.802-32.524,32.674
						c-0.049,9.55,3.98,18.159,10.445,24.191l-3.695,11.461c-0.386,1.197,1.047,2.145,1.998,1.321l8.878-7.69
						c4.681,2.452,10.025,3.811,15.694,3.731c17.761-0.25,32.209-14.773,32.372-32.535C361.505,55.672,346.56,40.732,328.169,40.908
						z"/>
					<path style="fill:#A5ACAD;" d="M303.581,112.24c-0.5,0-1.002-0.146-1.448-0.441c-0.991-0.656-1.412-1.856-1.048-2.987
						l3.431-10.642c-6.569-6.456-10.294-15.369-10.247-24.595c0.095-18.592,15.296-33.863,33.886-34.042l0.013,1.375l-0.013-1.375
						c9.273-0.093,17.978,3.469,24.529,10.017c6.551,6.548,10.112,15.258,10.027,24.524c-0.082,8.952-3.629,17.401-9.987,23.791
						c-6.358,6.391-14.79,9.979-23.741,10.105c-5.369,0.072-10.715-1.119-15.511-3.463l-8.18,7.086
						C304.798,112.022,304.192,112.24,303.581,112.24z M328.493,42.281c-0.104,0-0.207,0-0.311,0.001
						c-17.096,0.164-31.075,14.207-31.162,31.306c-0.044,8.754,3.603,17.202,10.008,23.178l0.639,0.596l-3.819,11.845l9.231-7.996
						l0.83,0.435c4.604,2.412,9.796,3.65,15.037,3.574c16.947-0.239,30.861-14.223,31.016-31.172
						c0.078-8.522-3.196-16.532-9.221-22.554C344.789,45.546,336.899,42.281,328.493,42.281z"/>
				</g>
				<path style="fill:#44281D;" d="M222.163,78.431c1.482,0.785,3.064,1.343,4.642,1.878c1.582,0.529,3.188,0.98,4.804,1.387
					c3.224,0.847,6.516,1.383,9.757,2.129c0.813,0.159,1.626,0.303,2.438,0.421c0.809,0.113,1.624,0.207,2.4,0.216
					c0.192,0.001,0.384-0.001,0.562-0.017c0.179-0.013,0.352-0.038,0.48-0.074c0.037-0.008,0.062-0.018,0.086-0.027
					c0.03-0.008,0.044-0.018,0.057-0.024c0.023-0.007,0.01-0.01,0.017-0.008c0.002,0.001-0.012,0.006-0.015,0.012
					c-0.004,0.006-0.008,0.013-0.021,0.026c-0.034,0.046-0.063,0.15-0.056,0.18c0.008,0.042,0.002,0.016-0.012-0.018
					c-0.038-0.08-0.13-0.211-0.241-0.335c-0.115-0.127-0.246-0.255-0.386-0.382c-0.283-0.252-0.598-0.495-0.922-0.729
					c-1.31-0.934-2.758-1.749-4.22-2.515c-1.467-0.764-2.968-1.471-4.489-2.126l-6.062-2.608l6.499,1.183
					c3.689,0.671,7.431,1.212,11.168,1.665c3.741,0.448,7.493,0.79,11.249,1.003c3.756,0.223,7.519,0.269,11.261,0.097
					c0.935-0.047,1.873-0.075,2.801-0.182l1.395-0.133c0.465-0.044,0.931-0.081,1.389-0.163l1.38-0.213l0.69-0.106l0.345-0.053
					c0.053-0.009,0.125-0.018,0.162-0.027c0.036-0.01,0.074-0.015,0.109-0.027c0.286-0.084,0.539-0.272,0.702-0.521
					c0.082-0.124,0.141-0.261,0.175-0.405c0.015-0.074,0.025-0.142,0.031-0.224l0.016-0.344c0.04-0.918,0.031-1.842-0.019-2.762
					c-0.046-0.921-0.141-1.839-0.279-2.75c-0.126-0.913-0.326-1.813-0.538-2.707c-0.238-0.887-0.495-1.771-0.824-2.627
					c-0.641-1.718-1.473-3.362-2.499-4.875c-1.025-1.513-2.244-2.892-3.619-4.098c-1.374-1.206-2.897-2.248-4.522-3.104
					c-1.586-0.933-3.285-1.686-5.028-2.339c-3.512-1.25-7.229-2.008-10.992-2.412c3.784,0.005,7.599,0.399,11.317,1.383
					c0.235,0.053,0.464,0.124,0.693,0.197l0.689,0.215l0.69,0.216c0.232,0.069,0.453,0.167,0.68,0.249
					c0.45,0.175,0.906,0.339,1.354,0.525c0.442,0.2,0.883,0.403,1.32,0.615c1.697,0.946,3.323,2.038,4.789,3.329
					c1.467,1.287,2.773,2.764,3.868,4.381c1.097,1.617,1.984,3.37,2.664,5.194c0.348,0.91,0.621,1.844,0.872,2.782
					c0.225,0.944,0.434,1.893,0.567,2.854c0.145,0.958,0.245,1.923,0.293,2.891c0.052,0.967,0.062,1.937,0.02,2.908l-0.017,0.364
					c-0.01,0.154-0.032,0.32-0.067,0.477c-0.074,0.317-0.204,0.62-0.383,0.891c-0.356,0.543-0.908,0.952-1.529,1.135
					c-0.077,0.025-0.156,0.04-0.235,0.059c-0.079,0.018-0.124,0.021-0.188,0.032l-0.356,0.055l-0.712,0.11l-1.423,0.22
					c-0.474,0.085-0.95,0.123-1.426,0.168l-1.428,0.136c-0.952,0.109-1.905,0.138-2.858,0.186
					c-3.811,0.174-7.622,0.127-11.415-0.098c-3.794-0.215-7.577-0.56-11.346-1.012c-3.771-0.458-7.517-0.998-11.27-1.681
					l0.437-1.426c1.555,0.669,3.086,1.391,4.59,2.174c1.503,0.789,2.984,1.618,4.403,2.629c0.354,0.256,0.704,0.525,1.046,0.83
					c0.171,0.155,0.34,0.318,0.506,0.502c0.165,0.19,0.331,0.393,0.477,0.691c0.069,0.157,0.141,0.331,0.154,0.583
					c0.011,0.115-0.008,0.262-0.041,0.394c-0.042,0.139-0.102,0.269-0.183,0.376c-0.039,0.06-0.08,0.103-0.123,0.145
					c-0.042,0.041-0.089,0.088-0.13,0.118c-0.081,0.059-0.174,0.125-0.249,0.158c-0.08,0.041-0.16,0.078-0.23,0.101
					c-0.074,0.028-0.147,0.053-0.213,0.068c-0.275,0.075-0.52,0.104-0.758,0.123c-0.24,0.021-0.467,0.023-0.693,0.022
					c-0.9-0.011-1.752-0.113-2.601-0.231c-0.846-0.123-1.682-0.271-2.513-0.434c-3.327-0.567-6.566-1.557-9.755-2.652
					c-1.595-0.547-3.166-1.167-4.708-1.846c-0.772-0.337-1.53-0.706-2.278-1.092C223.593,79.315,222.854,78.909,222.163,78.431z"/>
				<path style="fill:#BA6B56;" d="M250.712,41.008c-25.378,1.788-28.784,13.029-28.784,13.029s-0.766-6.898-2.803-5.621
					c-2.037,1.277,0,9.708,0,9.708s-7.671-1.788-8.693,0c-1.022,1.788,5.365,2.388,5.365,2.388
					c-5.11,5.198-8.175,13.963-7.92,20.605c0.255,6.643,6.898,19.927,6.898,19.927c0.801-0.182,1.569-0.05,2.296,0.309
					c-3.33-12.378-6.072-30.771,5.094-37.991c0,0-7.374-1.705,0.808-2.85c0,0,0.761-7.045,3.045-7.425c2.283-0.381,0,5.518,0,5.518
					s17.287-21.85,51.557-7.735C271.092,43.977,261.789,40.228,250.712,41.008z"/>
				<path style="fill:#734132;" d="M228.419,95.809l14.332-0.801c0.795-0.045,1.134-1.034,0.531-1.554
					c-1.522-1.309-4.39-2.983-8.892-2.647c-4.73,0.353-6.315,2.417-6.847,3.799C227.312,95.206,227.776,95.845,228.419,95.809z"/>
				<path style="fill:#734132;" d="M271.835,88.748l-13.413,5.113c-0.744,0.284-1.458-0.482-1.118-1.202
					c0.856-1.816,2.792-4.514,7.039-6.044c4.463-1.606,6.752-0.369,7.801,0.677C272.6,87.746,272.436,88.518,271.835,88.748z"/>
				<g>
					<path style="fill:#FFFFFF;" d="M233.645,111.081c-1.601-0.073-2.841-1.445-2.728-3.043c0.182-2.571,1.351-6.109,6.117-7.472
						c4.884-1.396,7.886,3.26,9.457,6.983c0.823,1.948-0.649,4.089-2.761,3.993L233.645,111.081z"/>
					<g>
						<path style="fill:#FFFFFF;" d="M230.917,108.038c0,0,0.056-6.334,6.117-7.472c6.062-1.137,8.798,4.461,9.689,7.472"/>
						<path style="fill:#44281D;" d="M230.917,108.038c-0.201-1.016-0.134-2.082,0.113-3.123c0.253-1.04,0.738-2.064,1.467-2.938
							c0.724-0.875,1.694-1.573,2.749-2.01c0.525-0.234,1.075-0.37,1.623-0.498c0.551-0.102,1.114-0.171,1.689-0.176
							c0.574,0.007,1.154,0.057,1.724,0.185c0.566,0.137,1.122,0.329,1.64,0.589c1.04,0.519,1.916,1.282,2.601,2.138
							c0.688,0.859,1.193,1.814,1.559,2.798c0.359,0.986,0.592,2.005,0.644,3.035c-0.522-0.887-1.042-1.734-1.62-2.517
							c-0.576-0.781-1.191-1.506-1.875-2.108c-0.683-0.6-1.414-1.095-2.2-1.406c-0.782-0.317-1.609-0.471-2.463-0.463
							c-0.851,0.004-1.751,0.148-2.563,0.414c-0.407,0.135-0.804,0.3-1.177,0.508c-0.371,0.211-0.729,0.453-1.061,0.737
							c-0.669,0.563-1.24,1.288-1.71,2.112C231.583,106.14,231.203,107.053,230.917,108.038z"/>
					</g>
					<path style="fill:#844D28;" d="M238.973,103.477c-2.427,0-4.395,1.968-4.395,4.395c0,1.351,0.611,2.558,1.57,3.364l5.33,0.243
						c1.141-0.794,1.889-2.113,1.889-3.608C243.367,105.444,241.4,103.477,238.973,103.477z"/>
					<path style="fill:#4C2920;" d="M240.891,107.866c0,1.05-0.851,1.9-1.9,1.9c-1.05,0-1.9-0.851-1.9-1.9
						c0-1.049,0.851-1.9,1.9-1.9C240.04,105.965,240.891,106.816,240.891,107.866z"/>
					<path style="fill:#FFFFFF;" d="M233.846,106.256c0.466,0.175,5.145,1.609,5.145,1.609l-3.63-3.764L233.846,106.256z"/>
				</g>
				<g>
					<path style="fill:#FFFFFF;" d="M272.88,103.162c1.452-0.677,2.077-2.418,1.364-3.852c-1.147-2.309-3.574-5.135-8.5-4.581
						c-5.048,0.567-6.051,6.016-6.088,10.056c-0.019,2.115,2.156,3.535,4.073,2.642L272.88,103.162z"/>
					<g>
						<path style="fill:#FFFFFF;" d="M274.244,99.31c0,0-2.462-5.836-8.5-4.581c-6.038,1.255-6.438,7.473-6.117,10.597"/>
						<path style="fill:#44281D;" d="M274.244,99.31c-0.64-0.801-1.339-1.501-2.089-2.085c-0.748-0.583-1.552-1.036-2.385-1.302
							c-0.415-0.136-0.838-0.224-1.261-0.278c-0.424-0.051-0.854-0.052-1.282-0.022c-0.853,0.063-1.739,0.272-2.528,0.592
							c-0.793,0.318-1.499,0.775-2.101,1.366c-0.608,0.587-1.096,1.323-1.499,2.138c-0.403,0.817-0.696,1.722-0.931,2.663
							c-0.237,0.944-0.396,1.925-0.541,2.944c-0.344-0.972-0.517-2.003-0.56-3.052c-0.036-1.049,0.067-2.124,0.377-3.18
							c0.307-1.052,0.827-2.09,1.591-2.966c0.38-0.438,0.821-0.826,1.292-1.169c0.478-0.335,0.996-0.603,1.524-0.827
							c0.534-0.215,1.081-0.365,1.629-0.48c0.555-0.09,1.115-0.174,1.69-0.157c1.142,0.002,2.304,0.279,3.307,0.812
							c1.006,0.53,1.844,1.293,2.474,2.158C273.576,97.333,274.043,98.294,274.244,99.31z"/>
					</g>
					<path style="fill:#844D28;" d="M265.058,98.158c2.244-0.924,4.813,0.147,5.737,2.392c0.514,1.249,0.409,2.598-0.171,3.709
						l-4.837,2.254c-1.357-0.3-2.551-1.235-3.12-2.617C261.743,101.65,262.814,99.081,265.058,98.158z"/>
					<path style="fill:#4C2920;" d="M264.955,102.947c0.399,0.97,1.51,1.433,2.481,1.034c0.971-0.399,1.434-1.51,1.034-2.481
						c-0.399-0.971-1.51-1.434-2.481-1.034C265.018,100.865,264.555,101.976,264.955,102.947z"/>
					<path style="fill:#FFFFFF;" d="M262.082,99.271c0.42,0.267,4.382,3.139,4.382,3.139l-5.191-0.632L262.082,99.271z"/>
				</g>
				<path style="fill:#89513B;" d="M249.131,97.404c0.572,2.992,0.956,5.987,1.297,8.981c0.344,2.993,0.609,5.989,0.896,8.968
					c0.152,1.485,0.285,2.98,0.499,4.418c0.055,0.357,0.111,0.712,0.186,1.037c0.036,0.158,0.079,0.32,0.119,0.424
					c0.016,0.065,0.092,0.197,0.169,0.305c0.31,0.442,0.837,0.789,1.444,1.008c1.23,0.432,2.709,0.395,4.056-0.033
					c0.676-0.217,1.328-0.535,1.922-0.957c0.591-0.425,1.118-0.96,1.553-1.582c-0.525,1.434-1.705,2.649-3.14,3.357
					c-1.435,0.706-3.123,1.007-4.803,0.606c-0.832-0.205-1.686-0.624-2.322-1.368c-0.155-0.188-0.298-0.368-0.432-0.649
					c-0.114-0.241-0.179-0.441-0.245-0.646c-0.124-0.402-0.22-0.786-0.303-1.17c-0.161-0.767-0.294-1.522-0.4-2.28
					c-0.111-0.757-0.205-1.512-0.283-2.268c-0.319-3.022-0.488-6.042-0.532-9.067c-0.024-1.512-0.016-3.025,0.031-4.539
					c0.024-0.757,0.055-1.514,0.103-2.272l0.077-1.136C249.059,98.162,249.087,97.783,249.131,97.404z"/>
				<path style="fill:#89513B;" d="M215.518,110.438c0.976-0.726,2.401-0.821,3.633-0.348c1.24,0.482,2.225,1.468,2.845,2.541
					c0.648,1.076,0.991,2.252,1.161,3.419c0.156,1.172,0.145,2.349-0.132,3.515c-0.557-1.063-0.954-2.105-1.386-3.102
					c-0.425-0.995-0.847-1.956-1.361-2.809c-0.503-0.864-1.094-1.604-1.85-2.173C217.67,110.921,216.705,110.537,215.518,110.438z"
					/>
				<path style="fill:#89513B;" d="M287.511,98.764c-0.326,0.464-0.567,0.918-0.77,1.376c-0.211,0.449-0.352,0.916-0.488,1.365
					c-0.254,0.911-0.355,1.843-0.396,2.795c-0.046,0.473-0.011,0.96-0.022,1.449c0.004,0.491,0.05,0.988,0.047,1.496
					c0.047,0.505,0.061,1.022,0.076,1.552c0.035,0.526,0.057,1.064,0.014,1.64c-0.367-0.427-0.67-0.893-0.959-1.37
					c-0.263-0.486-0.47-1.001-0.675-1.52c-0.085-0.265-0.155-0.536-0.222-0.808c-0.034-0.136-0.07-0.272-0.098-0.41l-0.045-0.206
					l-0.028-0.211c-0.035-0.282-0.058-0.565-0.086-0.849c-0.033-0.282-0.001-0.574,0.002-0.861c0.05-1.147,0.34-2.33,0.965-3.343
					c0.324-0.497,0.688-0.965,1.151-1.33C286.428,99.166,286.945,98.864,287.511,98.764z"/>
				<path style="fill:#472C30;" d="M250.639,129.859c3.837-1.094,10.774-3.612,16.94-8.718c1.367-1.132,3.428-0.204,3.517,1.568
					c0.196,3.906-0.98,9.657-8.531,12.884c-6.534,2.793-10.688,0.191-12.9-2.188C248.567,132.225,249.087,130.302,250.639,129.859z"
					/>
				<path style="fill:#E53861;" d="M260.636,129.351c-2.551,2.544-3.689,5.251-4.176,7.424c1.746,0.123,3.774-0.184,6.107-1.182
					c6.035-2.579,7.997-6.771,8.441-10.344C268.145,125.322,263.926,126.07,260.636,129.351z"/>
				<path style="fill:#FFFFFF;" d="M268.197,120.785c-0.214,0.081-0.423,0.196-0.617,0.356c-5.813,4.813-12.309,7.326-16.249,8.515
					c2.221,0.629,5.868,0.933,9.943-1.677C265.732,125.124,267.508,122.326,268.197,120.785z"/>
				<path style="fill:#89513B;" d="M254.281,139.103c0.93,0.404,1.839,0.716,2.754,0.936c0.913,0.221,1.828,0.336,2.741,0.33
					c0.457,0.004,0.914-0.032,1.369-0.093c0.457-0.053,0.911-0.151,1.368-0.261c0.913-0.227,1.82-0.557,2.776-0.912
					c-0.657,0.781-1.502,1.396-2.446,1.838c-0.473,0.217-0.972,0.391-1.488,0.502c-0.256,0.065-0.52,0.093-0.781,0.133
					c-0.264,0.021-0.528,0.044-0.793,0.042c-1.061,0.006-2.117-0.225-3.067-0.655c-0.475-0.215-0.926-0.476-1.337-0.786
					C254.969,139.863,254.58,139.522,254.281,139.103z"/>
				<path style="fill:#89513B;" d="M258.423,99.271c-0.28-0.695-0.303-1.472-0.157-2.215c0.148-0.744,0.483-1.473,0.986-2.068
					c0.115-0.158,0.261-0.287,0.399-0.424c0.143-0.131,0.279-0.27,0.443-0.373c0.16-0.109,0.317-0.219,0.479-0.32
					c0.17-0.087,0.344-0.165,0.517-0.242c0.086-0.039,0.174-0.074,0.26-0.11c0.09-0.029,0.181-0.053,0.272-0.076
					c0.182-0.047,0.364-0.089,0.544-0.126c0.181-0.036,0.371-0.036,0.555-0.042c0.186-0.004,0.369-0.005,0.553,0.012
					c-0.299,0.239-0.602,0.41-0.887,0.604c-0.139,0.103-0.277,0.202-0.415,0.296l-0.206,0.138c-0.063,0.054-0.126,0.108-0.19,0.158
					c-0.126,0.103-0.254,0.201-0.381,0.297c-0.113,0.114-0.231,0.218-0.346,0.324c-0.123,0.098-0.224,0.218-0.327,0.333
					c-0.105,0.113-0.222,0.217-0.308,0.346c-0.401,0.471-0.732,1-1.021,1.581C258.903,97.945,258.663,98.57,258.423,99.271z"/>
				<path style="fill:#89513B;" d="M235.536,97.826c0.916-0.64,2.002-1.015,3.131-1.175c1.128-0.152,2.334-0.055,3.442,0.391
					c0.55,0.226,1.069,0.533,1.53,0.906c0.466,0.369,0.85,0.824,1.18,1.298c0.641,0.967,1.021,2.057,1.118,3.164
					c-0.591-0.941-1.186-1.817-1.886-2.55c-0.699-0.733-1.51-1.291-2.41-1.66c-0.903-0.365-1.895-0.534-2.922-0.572
					C237.689,97.591,236.632,97.671,235.536,97.826z"/>
				<path style="fill:#255656;" d="M289.115,180.357c2.778,4.147,5.36,8.4,7.882,12.686c2.514,4.29,4.951,8.622,7.321,12.99
					l0.883,1.641l0.441,0.821c0.036,0.065,0.076,0.144,0.108,0.198l0.097,0.16c0.063,0.108,0.126,0.215,0.204,0.312
					c0.564,0.822,1.428,1.423,2.391,1.712c0.962,0.295,2.026,0.265,2.983-0.107c0.062-0.024,0.116-0.038,0.186-0.069l0.208-0.09
					l0.417-0.181l0.829-0.379c0.552-0.257,1.1-0.523,1.643-0.801c4.359-2.219,8.453-5.008,12.473-7.961
					c-3.398,3.653-7.277,6.903-11.617,9.509c-0.544,0.323-1.095,0.636-1.652,0.94c-0.279,0.151-0.563,0.294-0.845,0.441
					l-0.428,0.212l-0.214,0.106c-0.071,0.035-0.164,0.072-0.245,0.107c-1.333,0.606-2.891,0.707-4.317,0.328
					c-1.429-0.374-2.735-1.254-3.613-2.461c-0.118-0.145-0.214-0.304-0.31-0.464l-0.145-0.239c-0.048-0.079-0.077-0.139-0.117-0.21
					l-0.447-0.818l-0.894-1.635c-2.368-4.369-4.669-8.775-6.893-13.222C293.231,189.432,291.074,184.948,289.115,180.357z"/>
				<path style="fill:#255656;" d="M244.216,163.533c0.29,0.423,0.593,0.834,0.911,1.233c0.313,0.402,0.636,0.795,0.971,1.177
					c0.667,0.765,1.36,1.503,2.097,2.189c0.727,0.696,1.49,1.35,2.29,1.947c0.797,0.601,1.62,1.16,2.48,1.648
					c1.722,0.971,3.556,1.713,5.464,2.119c1.904,0.413,3.869,0.5,5.811,0.29c0.974-0.101,1.931-0.285,2.897-0.518
					c0.971-0.232,1.927-0.51,2.868-0.823c1.877-0.639,3.69-1.458,5.319-2.555c1.617-1.103,3.053-2.495,4.052-4.2
					c0.509-0.845,0.898-1.767,1.171-2.731c0.136-0.482,0.239-0.976,0.306-1.477c0.071-0.501,0.106-1.01,0.085-1.522
					c0.224,1.005,0.214,2.061,0.074,3.096c-0.141,1.038-0.455,2.056-0.889,3.024c-0.889,1.931-2.32,3.607-4.006,4.899
					c-1.68,1.313-3.591,2.281-5.56,3.016c-0.985,0.371-1.99,0.674-3.002,0.94c-1.015,0.269-2.071,0.469-3.129,0.588
					c-2.121,0.232-4.296,0.108-6.375-0.404c-2.077-0.518-4.054-1.396-5.809-2.572c-0.879-0.585-1.719-1.223-2.496-1.926
					s-1.505-1.454-2.183-2.242c-0.668-0.797-1.296-1.624-1.859-2.491C245.145,165.371,244.626,164.476,244.216,163.533z"/>
				<polygon style="fill:#255656;" points="240.923,198.819 241.809,181.122 238.84,198.819 				"/>
				<path style="fill:#89513B;" d="M318.068,219.422c-2.526,3.783-5.11,7.522-7.698,11.258c-0.325,0.466-0.641,0.938-0.981,1.393
					c-0.342,0.453-0.7,0.894-1.046,1.343l-2.067,2.706l-4.129,5.415l-16.517,21.661l-0.021,0.028l-0.023,0.025
					c-3.084,3.352-6.177,6.693-9.286,10.022c-1.556,1.663-3.116,3.323-4.688,4.975c-0.787,0.825-1.577,1.648-2.378,2.465
					c-0.406,0.407-0.8,0.816-1.224,1.22l-0.314,0.304c-0.11,0.105-0.233,0.212-0.352,0.312c-0.24,0.199-0.484,0.381-0.73,0.554
					c-0.987,0.684-2,1.236-2.997,1.791c-0.996,0.551-1.986,1.09-2.898,1.69c-0.454,0.3-0.888,0.617-1.26,0.959
					c-0.369,0.34-0.676,0.719-0.798,1.066c-0.119,0.343-0.08,0.641,0.13,1.008c0.105,0.183,0.248,0.347,0.4,0.501
					c0.16,0.148,0.339,0.281,0.538,0.393c0.802,0.444,1.848,0.574,2.872,0.454l0.385-0.058c0.128-0.025,0.257-0.044,0.387-0.062
					c0.13-0.021,0.26-0.039,0.392-0.056l0.393-0.072c0.524-0.107,1.045-0.257,1.561-0.438c1.03-0.368,2.03-0.867,2.991-1.448
					c0.952-0.595,1.876-1.259,2.746-2.001c-1.438,1.77-3.167,3.377-5.271,4.497c-0.525,0.278-1.072,0.528-1.642,0.737l-0.432,0.148
					c-0.147,0.044-0.294,0.086-0.442,0.126c-0.299,0.071-0.607,0.108-0.916,0.132c-0.618,0.048-1.25,0.062-1.887-0.036
					c-0.634-0.096-1.277-0.281-1.873-0.616c-0.297-0.168-0.579-0.374-0.835-0.614c-0.25-0.248-0.48-0.519-0.66-0.83
					c-0.18-0.313-0.333-0.677-0.381-1.082c-0.055-0.403,0.004-0.823,0.133-1.186c0.27-0.73,0.737-1.234,1.194-1.666
					c0.466-0.428,0.957-0.781,1.451-1.109c0.991-0.651,2.004-1.199,2.998-1.751c0.992-0.55,1.979-1.092,2.863-1.707
					c0.22-0.154,0.432-0.313,0.63-0.477c0.099-0.084,0.191-0.163,0.287-0.254l0.299-0.29c0.4-0.38,0.796-0.791,1.193-1.19
					c0.792-0.809,1.578-1.627,2.362-2.449c1.567-1.646,3.124-3.303,4.678-4.964c3.105-3.325,6.198-6.664,9.278-10.012l-0.044,0.053
					l16.517-21.661l4.129-5.415l2.063-2.709c0.342-0.453,0.672-0.915,1.018-1.364c0.348-0.448,0.72-0.878,1.083-1.315
					C312.167,226.34,315.089,222.859,318.068,219.422z"/>
				<path style="fill:#89513B;" d="M271.689,283.562c-0.041,0.415-0.063,0.828-0.063,1.24c-0.005,0.412,0.011,0.822,0.052,1.226
					c0.073,0.807,0.245,1.603,0.579,2.288c0.33,0.686,0.843,1.223,1.49,1.488c0.644,0.274,1.397,0.306,2.149,0.218l0.563,0.269
					c0.001-0.002,0.033,0.036,0.054,0.058l0.077,0.076c0.054,0.05,0.11,0.1,0.17,0.146c0.118,0.093,0.246,0.173,0.378,0.238
					c0.265,0.132,0.549,0.2,0.84,0.217c0.292,0.013,0.594-0.031,0.896-0.128c0.303-0.09,0.605-0.229,0.899-0.4l0.83,0.076
					c-0.019-0.016,0.001,0,0.008,0.003l0.034,0.021c0.025,0.015,0.052,0.031,0.082,0.047c0.058,0.032,0.122,0.062,0.188,0.09
					c0.131,0.058,0.273,0.107,0.418,0.15c0.294,0.08,0.605,0.13,0.924,0.147c0.639,0.038,1.306-0.035,1.965-0.189
					c1.325-0.299,2.619-0.892,3.862-1.58l0.463-0.264c0.129-0.069,0.266-0.169,0.401-0.268c0.268-0.204,0.53-0.425,0.772-0.665
					c0.484-0.48,0.903-1.025,1.2-1.634c0.293-0.608,0.476-1.283,0.458-1.983c0.005-0.35-0.038-0.706-0.12-1.056
					c-0.069-0.355-0.196-0.698-0.323-1.046c0.431,0.598,0.774,1.291,0.913,2.056c0.141,0.761,0.083,1.578-0.168,2.332
					c-0.246,0.757-0.659,1.451-1.16,2.057c-0.251,0.305-0.522,0.591-0.82,0.855c-0.15,0.131-0.3,0.262-0.484,0.386l-0.47,0.32
					c-1.268,0.822-2.643,1.54-4.18,1.928c-0.765,0.194-1.574,0.295-2.401,0.249c-0.413-0.027-0.831-0.095-1.244-0.213
					c-0.207-0.062-0.412-0.135-0.616-0.228c-0.102-0.047-0.202-0.098-0.304-0.157c-0.051-0.028-0.102-0.061-0.154-0.095
					l-0.081-0.055c-0.031-0.023-0.048-0.034-0.103-0.079l0.83,0.076c-0.379,0.207-0.788,0.384-1.229,0.503
					c-0.44,0.118-0.916,0.169-1.395,0.124c-0.479-0.046-0.952-0.2-1.364-0.442c-0.206-0.121-0.398-0.261-0.574-0.419
					c-0.088-0.079-0.172-0.162-0.251-0.251c-0.04-0.045-0.079-0.091-0.117-0.139c-0.041-0.052-0.07-0.089-0.125-0.17l0.562,0.269
					c-0.449,0.022-0.907,0.008-1.367-0.066c-0.458-0.078-0.918-0.219-1.343-0.446c-0.423-0.228-0.804-0.543-1.098-0.914
					c-0.298-0.369-0.509-0.789-0.658-1.213c-0.29-0.856-0.344-1.731-0.302-2.578C271.286,285.189,271.432,284.357,271.689,283.562z"
					/>
				<path style="fill:#89513B;" d="M294.456,267.826c0.674,1.761,0.896,3.678,0.862,5.583c-0.07,1.906-0.463,3.825-1.225,5.603
					c-0.379,0.889-0.85,1.74-1.404,2.531c-0.539,0.799-1.16,1.532-1.853,2.2c-0.688,0.671-1.456,1.261-2.282,1.746
					c-0.418,0.235-0.847,0.449-1.296,0.612c-0.447,0.162-0.909,0.297-1.38,0.331c0.219-0.085,0.43-0.181,0.632-0.294
					c0.204-0.107,0.404-0.221,0.595-0.348c0.194-0.121,0.38-0.255,0.567-0.384c0.179-0.142,0.366-0.27,0.535-0.423
					c0.704-0.572,1.33-1.226,1.913-1.912c0.295-0.34,0.561-0.705,0.836-1.061c0.249-0.376,0.531-0.731,0.746-1.123l0.349-0.572
					c0.057-0.096,0.12-0.188,0.172-0.287l0.148-0.301c0.195-0.401,0.423-0.786,0.575-1.208c0.704-1.641,1.151-3.392,1.397-5.188
					C294.566,271.532,294.619,269.692,294.456,267.826z"/>
				<path style="fill:#89513B;" d="M276.443,291.139c-0.592-0.491-1.031-1.114-1.385-1.78c-0.346-0.671-0.599-1.401-0.708-2.171
					c-0.114-0.766-0.073-1.582,0.179-2.342c0.132-0.378,0.316-0.737,0.551-1.053c0.243-0.312,0.534-0.578,0.867-0.769
					c-0.125,0.367-0.238,0.701-0.314,1.037c-0.072,0.337-0.119,0.664-0.143,0.99c-0.041,0.654,0.002,1.301,0.097,1.961
					c0.091,0.658,0.234,1.324,0.388,2.005C276.13,289.699,276.3,290.39,276.443,291.139z"/>
				<path style="fill:#89513B;" d="M280.427,283.562c-0.496,0.524-0.873,1.097-1.048,1.713c-0.183,0.612-0.19,1.249-0.101,1.88
					c0.094,0.632,0.275,1.261,0.514,1.876c0.116,0.309,0.252,0.611,0.392,0.913c0.142,0.294,0.301,0.607,0.453,0.867l-0.091-0.109
					c-0.015-0.013,0.011,0.011,0.022,0.019l0.048,0.038c0.034,0.026,0.072,0.053,0.111,0.079c0.079,0.052,0.165,0.1,0.255,0.145
					c0.181,0.086,0.374,0.166,0.578,0.225c0.407,0.12,0.848,0.184,1.301,0.202c0.454,0.022,0.92-0.008,1.394-0.053
					c0.472-0.055,0.951-0.132,1.439-0.218c-0.408,0.281-0.846,0.523-1.312,0.709c-0.464,0.195-0.957,0.334-1.47,0.415
					c-0.513,0.074-1.049,0.088-1.588-0.004c-0.269-0.047-0.539-0.115-0.803-0.219c-0.132-0.053-0.263-0.112-0.393-0.183
					c-0.065-0.036-0.13-0.072-0.195-0.116c-0.032-0.021-0.065-0.044-0.099-0.069c-0.038-0.029-0.059-0.043-0.119-0.096l-0.045-0.041
					l-0.045-0.068c-0.223-0.335-0.396-0.645-0.562-0.982c-0.167-0.332-0.308-0.676-0.435-1.027
					c-0.245-0.704-0.416-1.451-0.429-2.223c-0.014-0.767,0.138-1.573,0.538-2.247C279.137,284.313,279.752,283.813,280.427,283.562z
					"/>
				<path style="fill:#629B6B;" d="M321.648,89.607c-0.23,0-0.461-0.02-0.692-0.06c-1.168-0.205-2.186-0.919-2.777-1.947
					l-7.085-12.333c-1.1-1.915-0.439-4.36,1.476-5.461c1.915-1.1,4.361-0.439,5.461,1.476l4.696,8.175l18.389-15.548
					c1.687-1.426,4.211-1.215,5.637,0.472c1.427,1.687,1.215,4.211-0.472,5.637l-22.051,18.645
					C323.503,89.277,322.586,89.607,321.648,89.607z"/>
				<path style="fill:#ECAB88;" d="M225.792,198.92c0,0,0.888-1.31-0.809-5.513c-1.696-4.203-3.904-5.483-6.458-4.977
					c0,0-1.952-2.184-3.795-2.184c-1.843,0-3.261,1.276-3.261,1.276s-1.147-1.793-3.348-1.757c-1.725,0.028-4.065,1.19-4.065,1.19
					s-3.222,0-4.569,1.489c-1.347,1.489-3.332,6.168-2.127,11.841c1.205,5.672,4.751,7.161,6.169,5.46c0,0,1.418,2.836,3.829,2.623
					c2.411-0.213,2.978-1.772,2.978-1.772s1.347,1.843,3.191,1.489c1.843-0.354,2.481-2.411,2.481-2.411s1.415,1.773,3.402,0.709
					c1.987-1.064,1.845-7.303,1.845-7.303"/>
				<path style="fill:#89513B;" d="M220.769,193.941c0.237,1.386,0.419,2.784,0.525,4.191c0.108,1.407,0.156,2.823,0.055,4.247
					c-0.052,0.712-0.137,1.426-0.31,2.139c-0.087,0.356-0.195,0.712-0.349,1.06c-0.155,0.347-0.349,0.693-0.634,0.997
					c-0.279,0.304-0.673,0.557-1.111,0.648c-0.436,0.096-0.872,0.043-1.258-0.066c-0.775-0.23-1.407-0.65-1.994-1.091l0.782-0.214
					c-0.129,0.341-0.27,0.623-0.441,0.917c-0.17,0.289-0.362,0.57-0.589,0.833c-0.226,0.263-0.487,0.51-0.795,0.716
					c-0.307,0.206-0.666,0.367-1.053,0.44c-0.386,0.074-0.79,0.058-1.157-0.033c-0.37-0.088-0.708-0.238-1.013-0.416
					c-0.613-0.358-1.108-0.817-1.557-1.296l0.96-0.04c-0.141,0.184-0.259,0.314-0.397,0.46c-0.135,0.14-0.277,0.273-0.424,0.401
					c-0.296,0.254-0.618,0.485-0.974,0.678c-0.7,0.388-1.58,0.612-2.442,0.471c-0.864-0.132-1.613-0.58-2.197-1.102
					c-0.594-0.525-1.058-1.132-1.467-1.754l1.079,0.14c-0.065,0.058-0.093,0.08-0.136,0.113c-0.04,0.031-0.078,0.057-0.117,0.085
					c-0.078,0.052-0.156,0.101-0.237,0.145c-0.161,0.088-0.328,0.164-0.503,0.223c-0.348,0.116-0.723,0.174-1.092,0.156
					c-0.746-0.03-1.418-0.335-1.956-0.714c-0.538-0.387-0.977-0.846-1.359-1.326c-0.383-0.486-0.703-0.976-1.002-1.514
					c-0.592-1.073-0.971-2.236-1.193-3.409c-0.116-0.587-0.185-1.179-0.22-1.771c-0.036-0.592-0.046-1.184-0.018-1.773
					c0.049-1.179,0.213-2.349,0.488-3.496c0.274-1.147,0.662-2.272,1.209-3.346c0.277-0.539,0.594-1.051,0.997-1.551l0.075-0.094
					c0.058-0.067,0.076-0.082,0.112-0.118c0.063-0.062,0.125-0.118,0.187-0.173c0.125-0.109,0.252-0.208,0.382-0.303
					c0.261-0.188,0.535-0.353,0.82-0.496c1.138-0.579,2.456-0.765,3.688-0.6l-0.44,0.104c0.346-0.216,0.656-0.372,0.996-0.529
					c0.335-0.153,0.678-0.289,1.03-0.404c0.704-0.229,1.451-0.372,2.221-0.374c0.767,0.005,1.568,0.164,2.266,0.548
					c0.707,0.368,1.27,0.945,1.702,1.563l-0.808-0.084c0.166-0.145,0.303-0.244,0.459-0.354c0.152-0.106,0.309-0.203,0.47-0.295
					c0.321-0.182,0.658-0.34,1.011-0.46c0.703-0.244,1.479-0.343,2.233-0.23c0.377,0.053,0.745,0.16,1.088,0.313
					c0.345,0.148,0.668,0.338,0.961,0.559c0.59,0.439,1.082,0.973,1.491,1.549l-0.455-0.105c0.167-0.075,0.287-0.105,0.43-0.139
					c0.138-0.032,0.276-0.05,0.414-0.064c0.276-0.023,0.553-0.011,0.821,0.035c0.537,0.09,1.044,0.297,1.486,0.579
					c0.892,0.566,1.56,1.367,2.106,2.21c1.081,1.706,1.729,3.605,2.248,5.51c-0.331-0.933-0.694-1.853-1.118-2.741
					c-0.419-0.889-0.897-1.751-1.469-2.537c-0.577-0.775-1.249-1.493-2.062-1.948c-0.403-0.229-0.841-0.377-1.282-0.428
					c-0.221-0.026-0.443-0.024-0.658,0.006c-0.107,0.017-0.214,0.036-0.316,0.066c-0.097,0.026-0.214,0.07-0.271,0.1l-0.261,0.137
					l-0.194-0.242c-0.408-0.508-0.867-0.967-1.386-1.315c-0.257-0.177-0.532-0.321-0.816-0.427c-0.283-0.111-0.577-0.182-0.875-0.21
					c-0.595-0.061-1.202,0.041-1.772,0.267c-0.285,0.113-0.562,0.253-0.826,0.414c-0.132,0.082-0.261,0.167-0.385,0.26
					c-0.119,0.088-0.253,0.196-0.34,0.278l-0.435,0.411l-0.373-0.495c-0.373-0.494-0.818-0.916-1.348-1.168
					c-0.522-0.266-1.119-0.367-1.725-0.353c-0.609,0.019-1.228,0.161-1.829,0.369c-0.301,0.105-0.598,0.229-0.887,0.368
					c-0.283,0.136-0.585,0.301-0.821,0.454l-0.2,0.131l-0.24-0.027c-1.01-0.113-2.027,0.059-2.902,0.524
					c-0.218,0.115-0.428,0.247-0.623,0.393c-0.097,0.073-0.191,0.15-0.278,0.229c-0.043,0.039-0.085,0.079-0.122,0.117
					c-0.014,0.014-0.046,0.048-0.033,0.036l-0.055,0.073c-0.3,0.386-0.573,0.846-0.811,1.313c-0.474,0.945-0.825,1.975-1.069,3.028
					c-0.246,1.054-0.39,2.135-0.428,3.217c-0.039,1.081,0.033,2.163,0.226,3.211c0.191,1.049,0.519,2.065,1.015,2.977
					c0.504,0.916,1.149,1.81,1.909,2.365c0.381,0.271,0.786,0.441,1.177,0.458c0.196,0.012,0.389-0.019,0.578-0.078
					c0.094-0.029,0.186-0.069,0.274-0.115c0.044-0.023,0.086-0.048,0.126-0.073l0.055-0.038c0.014-0.009,0.041-0.032,0.029-0.02
					l1.079,0.14c0.349,0.556,0.74,1.078,1.193,1.493c0.449,0.418,0.959,0.716,1.49,0.807c0.529,0.096,1.09-0.019,1.619-0.296
					c0.265-0.137,0.52-0.311,0.76-0.509c0.12-0.099,0.236-0.205,0.347-0.314c0.108-0.105,0.227-0.234,0.303-0.326l0.483-0.586
					l0.478,0.546c0.379,0.433,0.792,0.832,1.241,1.111c0.447,0.282,0.92,0.429,1.362,0.356c0.444-0.065,0.88-0.353,1.244-0.753
					c0.363-0.393,0.676-0.911,0.892-1.397l0.281-0.63l0.501,0.416c0.511,0.425,1.063,0.811,1.634,1.006
					c0.284,0.095,0.566,0.135,0.822,0.09c0.256-0.042,0.49-0.17,0.696-0.371c0.415-0.408,0.682-1.04,0.879-1.676
					c0.196-0.645,0.318-1.325,0.407-2.01c0.088-0.686,0.139-1.381,0.169-2.078c0.033-0.697,0.044-1.396,0.039-2.097
					C220.946,196.746,220.893,195.341,220.769,193.941z"/>
				<path style="fill:#89513B;" d="M203.291,206.725c-0.156-0.21-0.215-0.336-0.306-0.498c-0.071-0.153-0.154-0.305-0.212-0.457
					c-0.133-0.304-0.233-0.609-0.336-0.914c-0.178-0.612-0.33-1.224-0.425-1.839c-0.052-0.307-0.104-0.613-0.132-0.921
					c-0.031-0.307-0.079-0.613-0.091-0.92l-0.058-0.919l-0.016-0.917c-0.01-0.305-0.004-0.61,0.007-0.914l0.026-0.912
					c0.04-0.607,0.079-1.212,0.131-1.815c0.069-0.602,0.127-1.204,0.205-1.803l0.267-1.791l-0.08,1.806
					c-0.016,0.602-0.011,1.203-0.018,1.803c0.01,0.6,0.035,1.2,0.057,1.797l0.068,0.894c0.02,0.298,0.045,0.595,0.085,0.89
					l0.107,0.885l0.148,0.876c0.042,0.293,0.119,0.578,0.178,0.866c0.057,0.289,0.136,0.57,0.214,0.851
					c0.148,0.565,0.347,1.108,0.56,1.634c0.118,0.256,0.233,0.513,0.368,0.749c0.062,0.124,0.138,0.229,0.205,0.343l0.108,0.152
					c0.018,0.028,0.034,0.043,0.051,0.065l0.025,0.031c0.007,0.007,0.006,0.004,0.008,0.007L203.291,206.725z"/>
				<path style="fill:#89513B;" d="M209.41,207.083c-0.053-1.203-0.076-2.385-0.083-3.577c-0.007-1.189,0.007-2.377,0.04-3.564
					c0.07-2.373,0.225-4.746,0.547-7.09c-0.073,2.365,0.024,4.723,0.203,7.073c0.092,1.174,0.203,2.347,0.333,3.516
					c0.131,1.167,0.279,2.341,0.453,3.49L209.41,207.083z"/>
				<polygon style="fill:#89513B;" points="216.755,193.434 216.005,205.673 215.255,193.434 				"/>
			</g>
		</g>
	</g>
</g>
</svg>
