<?xml version="1.0" encoding="utf-8"?>
<!-- Generator: Adobe Illustrator 27.5.0, SVG Export Plug-In . SVG Version: 6.00 Build 0)  -->
<svg version="1.1" xmlns="http://www.w3.org/2000/svg" xmlns:xlink="http://www.w3.org/1999/xlink" x="0px" y="0px"
	 viewBox="0 0 500 500" style="enable-background:new 0 0 500 500;" xml:space="preserve">
<g id="BACKGROUND">
	<rect style="fill:#FFFFFF;" width="500" height="500"/>
	<g>
		<path style="fill:#D8F0ED;" d="M243.357,33.995C83.435,36.734,101.29,127.256,72.78,163.015s-91.812,196.187,13.53,268.671
			c105.342,72.483,303.462,43.007,356.134-7.248c52.671-50.255,45.906-188.456,14.98-223.248
			C439.212,180.701,469.021,30.129,243.357,33.995z"/>
		<path style="fill:#007A81;" d="M28.988,332.625h450.568c0.734-6.456,1.231-12.965,1.515-19.457H27.773
			C27.859,319.672,28.249,326.173,28.988,332.625z"/>
	</g>
</g>
<g id="OBJECTS">
	<g>
		<path style="fill:#9CD6E2;" d="M117.817,92.043H107.23c-1.717,0-3.109,1.392-3.109,3.109v45.153c0,1.717,1.392,3.109,3.109,3.109
			h10.588c1.717,0,3.109-1.392,3.109-3.109V95.151C120.926,93.434,119.534,92.043,117.817,92.043z"/>
		<path style="fill:#FFFFFF;" d="M130.019,106.116h-5.984c-1.717,0-3.109,1.392-3.109,3.109v31.079c0,1.717,1.392,3.109,3.109,3.109
			h5.984c1.717,0,3.109-1.392,3.109-3.109v-31.079C133.128,107.508,131.736,106.116,130.019,106.116z"/>
		<path style="fill:#9CD6E2;" d="M148.11,96.026h-9.284c-1.717,0-3.109,1.392-3.109,3.109v41.17c0,1.717,1.392,3.109,3.109,3.109
			h9.284c1.717,0,3.109-1.392,3.109-3.109v-41.17C151.218,97.418,149.827,96.026,148.11,96.026z"/>
		<path style="fill:#FFFFFF;" d="M175.401,141.925l5.346-3.087c1.487-0.858,1.996-2.76,1.138-4.247l-19.519-33.808
			c-0.859-1.487-2.76-1.996-4.247-1.138l-5.346,3.087c-1.487,0.858-1.996,2.76-1.138,4.247l19.519,33.808
			C172.013,142.274,173.914,142.783,175.401,141.925z"/>
		<path style="fill:#007A81;" d="M187.006,150.474H99.524c-2.277,0-4.122-1.846-4.122-4.122v-1.716c0-2.277,1.845-4.122,4.122-4.122
			h87.482c2.277,0,4.122,1.846,4.122,4.122v1.716C191.128,148.628,189.283,150.474,187.006,150.474z"/>
	</g>
	<g>
		<path style="fill:#81B392;" d="M308.462,75.168c0.71-5.209,0.922-11.375,5.78-15.381c2.309-1.904,7.538-2.786,10.548-2.092
			c3.236,0.746,4.365,3.651,4.972,6.214c2.374,10.027,3.07,20.404,2.065,30.815c-0.147,1.529-0.345,3.097-1.215,4.534
			c-3.748,6.188-13.829,4.799-16.805,0.212C309.102,92.218,307.314,83.593,308.462,75.168z"/>
		<path style="fill:#FFFFFF;" d="M357.164,72.801h-9.284c-1.717,0-3.109,1.392-3.109,3.109v41.169c0,1.717,1.392,3.109,3.109,3.109
			h9.284c1.717,0,3.109-1.392,3.109-3.109V75.91C360.273,74.193,358.881,72.801,357.164,72.801z"/>
		<path style="fill:#81B392;" d="M375.844,59.38h-12.462c-1.717,0-3.109,1.392-3.109,3.109v54.59c0,1.717,1.392,3.109,3.109,3.109
			h12.462c1.717,0,3.109-1.392,3.109-3.109v-54.59C378.953,60.772,377.561,59.38,375.844,59.38z"/>
		<path style="fill:#9CD6E2;" d="M394.525,75.104h-12.462c-1.717,0-3.109,1.392-3.109,3.109v38.866c0,1.717,1.392,3.109,3.109,3.109
			h12.462c1.717,0,3.109-1.392,3.109-3.109V78.213C397.633,76.496,396.242,75.104,394.525,75.104z"/>
		<path style="fill:#007A81;" d="M401.286,126.083H297.848c-2.277,0-4.122-1.845-4.122-4.122v-1.716
			c0-2.277,1.845-4.122,4.122-4.122h103.438c2.277,0,4.122,1.846,4.122,4.122v1.716
			C405.408,124.238,403.562,126.083,401.286,126.083z"/>
		<path style="fill:#FFFFFF;" d="M335.246,87.633h-29.294c-1.35,0-2.402,1.169-2.26,2.511l2.521,23.943
			c0.122,1.157,1.097,2.035,2.26,2.035h24.251c1.163,0,2.139-0.878,2.26-2.035l2.521-23.943
			C337.648,88.802,336.596,87.633,335.246,87.633z"/>
		<path style="fill:#007A81;" d="M324.066,58.006c1.109-1.015,2.311-2.242,2.228-3.744c-0.017-0.3-0.099-0.618-0.327-0.815
			c-0.201-0.174-0.481-0.223-0.747-0.226c-1.243-0.016-2.431,0.933-2.69,2.149c0.142-1.012,0.068-2.053-0.216-3.034
			c-0.207-0.715-0.729-1.521-1.466-1.419c-0.549,0.076-0.888,0.631-1.094,1.146c-0.417,1.043-0.616,2.173-0.579,3.297
			c-0.57-1.007-1.19-1.985-1.858-2.93c-0.479-0.677-1.228-1.419-2.008-1.136c-0.382,0.139-0.64,0.499-0.812,0.867
			c-0.701,1.503-0.232,3.46,1.074,4.482c-1.063-0.76-2.533-0.907-3.725-0.373c-0.251,0.113-0.514,0.285-0.566,0.556
			c-0.034,0.175,0.03,0.354,0.106,0.515c0.59,1.265,1.901,2.072,3.258,2.398c0.128,0.031,0.259,0.042,0.388,0.066
			c-0.467,0.581-0.785,1.251-0.518,1.907c0.293,0.719,1.207,1.014,1.965,0.853c0.471-0.1,0.89-0.338,1.285-0.619
			c-0.081,0.212-0.097,0.451-0.014,0.661c0.204,0.513,0.795,0.788,1.347,0.78c0.552-0.008,1.073-0.243,1.566-0.492
			c0.481-0.244,0.964-0.516,1.306-0.932s0.517-1.011,0.307-1.507c0.506,0.787,1.52,1.241,2.426,1.008
			c0.906-0.233,1.592-1.189,1.441-2.112C325.995,58.428,324.959,57.729,324.066,58.006z"/>
	</g>
	<g>
		<ellipse style="fill:#9CD6E2;" cx="96.217" cy="352.92" rx="35.376" ry="6.305"/>
		<g>
			<path style="fill:#81B392;" d="M81.961,247.337l4.655-4.073c-0.87-2.789-1.924-5.613-3.205-8.427l-6.282,2.513l3.97-7.113
				c-3.276-5.95-7.654-11.729-13.49-16.876l-5.299,3.693l3.127-5.518c-7.143-5.755-16.271-10.598-27.932-13.811
				c0,0,0.063,5.874,1.642,14.594l8.022,0.547l-7.249,3.346c1.359,6.304,3.484,13.677,6.802,21.237l9.146-2.032l-8.034,4.484
				c0.891,1.887,1.861,3.78,2.912,5.664l10.276-5.96l-6.835,11.62c3.29,4.977,7.228,9.793,11.944,14.186l7.776-5.832l-3.19,9.771
				c5.4,4.258,11.677,7.973,18.976,10.847c0,0,2.608-15.519-2.072-33.425L81.961,247.337z"/>
			<path style="fill:#81B392;" d="M111.277,247.014l7.858,2.761c2.923-3.855,5.564-7.677,7.955-11.437l-4.216-5.498l6.393,1.984
				c8.465-14.08,13.415-27.091,16.308-37.269l-5.628-2.729l6.583-0.803c2.811-10.995,3.081-17.882,3.081-17.882
				c-10.169,2.182-18.474,5.519-25.256,9.644c1.62,3.045,3.351,6.141,3.351,6.141l-6.205-4.309
				c-5.483,3.757-9.845,8.074-13.306,12.718l6.302,5.121l-8.464-2.015c-1.153,1.795-2.182,3.629-3.102,5.491l3.834,2.001
				l-5.013,0.537c-4.169,9.564-5.598,19.693-5.692,28.83l5.873,2.847l-5.808,1.936c0.566,14.69,4.198,25.769,4.198,25.769
				c5.733-5.499,10.795-11.054,15.273-16.572L111.277,247.014z"/>
			<path style="fill:#007A81;" d="M142.852,184.838c-7.783,3.691-13.187,10.718-17.783,17.779
				c-5.012,7.701-9.297,15.898-12.963,24.318c-7.303,16.775-12.098,34.702-14.704,52.795c-0.719,4.994-1.41,10.014-1.828,15.044
				c-0.154,1.853-0.28,3.708-0.393,5.564c-1.418-9.793-3.741-19.447-7.137-28.763c-4.655-12.77-10.777-24.986-18.437-36.218
				c-4.334-6.354-9.155-12.35-14.552-17.835c-0.051-0.052-0.12,0.024-0.077,0.077c8.477,10.641,16.004,21.968,22.065,34.162
				c5.945,11.959,10.371,24.735,13.281,37.768c1.635,7.323,2.893,14.788,3.553,22.264c0.143,1.624,2.684,1.655,2.563,0
				c-0.016-0.212-0.04-0.423-0.056-0.635c0.131-0.094,0.234-0.24,0.273-0.466c0.746-4.354,0.629-8.896,0.949-13.302
				c0.327-4.5,0.667-9.014,1.233-13.491c1.14-9.011,2.81-17.976,5.061-26.776c4.435-17.339,11.053-34.141,20.237-49.529
				c5.046-8.454,10.732-16.746,18.827-22.567C143.077,184.944,142.98,184.777,142.852,184.838z"/>
			<path style="fill:#FFFFFF;" d="M119.644,353.404H73.272c-1.844,0-3.365-1.444-3.461-3.286l-2.641-51.056
				c-0.103-1.982,1.477-3.644,3.461-3.644h51.654c1.984,0,3.563,1.663,3.461,3.644l-2.641,51.056
				C123.009,351.959,121.488,353.404,119.644,353.404z"/>
			<path style="fill:#81B392;" d="M117.72,185.162"/>
			<path style="fill:#9CD6E2;" d="M121.731,305.634c-0.972,0.094-2.101,0.326-3.11,0.757c-2.648-1.564-6.062-1.899-9.008-1.196
				c-1.234,0.294-2.658,0.863-3.751,1.721c-0.256-0.138-0.501-0.254-0.719-0.343c-2.343-0.949-5.144-0.865-7.365,0.383
				c-1.315-0.877-2.916-1.416-4.311-1.617c-2.426-0.348-5.085,0.108-7.172,1.456c-2.152-1.635-5.036-2.138-7.647-1.495
				c-1.118,0.275-2.403,0.861-3.431,1.697c-0.131-0.063-0.262-0.121-0.393-0.171c-2.497-0.955-5.206-0.248-7.176,1.447l0.061,1.177
				c1.802-1.668,4.046-2.674,6.669-1.668c0.005,0.002,0.011,0.005,0.016,0.007c-0.679,0.792-1.107,1.737-1.049,2.808
				c0.121,2.197,3.302,3.768,4.404,1.372c0.742-1.613-0.122-3.206-1.391-4.241c0.078-0.058,0.155-0.124,0.233-0.177
				c2.514-1.716,6.184-1.751,8.712-0.015c-0.012,0.011-0.026,0.019-0.038,0.03c-0.942,0.84-1.649,2.083-1.299,3.375
				c0.281,1.039,1.208,1.894,2.329,1.748c1.103-0.143,1.946-1.187,2.051-2.265c0.098-1.003-0.371-1.929-1.021-2.681
				c1.183-0.676,2.581-1.045,3.896-1.123c1.747-0.104,3.531,0.254,5.063,1.111c0.073,0.041,0.152,0.089,0.233,0.14
				c-1.595,1.542-2.51,4.1-0.41,5.69c2.296,1.738,4.767-1.029,4.161-3.391c-0.217-0.848-0.676-1.582-1.278-2.21
				c1.202-0.55,2.568-0.734,3.872-0.562c0.682,0.09,1.346,0.287,1.976,0.559c-0.574,0.784-0.873,1.725-0.679,2.84
				c0.373,2.133,3.206,3.347,4.653,1.38c1.188-1.614-0.205-3.358-1.77-4.511c1.013-0.664,2.309-1.043,3.339-1.238
				c1.921-0.366,3.917-0.23,5.772,0.39c0.298,0.1,0.654,0.242,1.028,0.422c-0.811,0.662-1.357,1.557-1.348,2.763
				c0.016,2.131,2.212,4.348,4.277,2.815c1.945-1.445,1.316-3.776-0.056-5.301c1.372-0.396,2.939-0.384,4.257-0.314
				c0.339,0.018,0.673,0.069,1.008,0.107l0.085-1.648C124.188,305.533,122.959,305.515,121.731,305.634z M76.636,311.602
				c-0.973,1.332-2.261-0.656-1.976-1.712c0.145-0.537,0.47-1.012,0.861-1.429C76.537,309.254,77.432,310.513,76.636,311.602z
				 M86.504,311.269c-0.796,0.391-1.433-0.507-1.287-1.287c0.098-0.525,0.496-0.986,0.869-1.339
				c0.083-0.078,0.176-0.147,0.264-0.221C87.017,309.217,87.705,310.679,86.504,311.269z M98.306,312.368
				c-1.104,0.853-2.124-0.616-1.935-1.688c0.135-0.767,0.677-1.42,1.288-1.919C98.78,309.812,99.684,311.304,98.306,312.368z
				 M106.863,311.836c-1.214,0.099-1.61-1.351-1.334-2.311c0.1-0.347,0.282-0.647,0.494-0.927c0.345,0.237,0.671,0.501,0.965,0.804
				C107.688,310.121,108.366,311.712,106.863,311.836z M119.555,311.298c-0.703,0.99-1.716,0.412-2.051-0.518
				c-0.342-0.947,0.05-1.811,0.803-2.41c0.11-0.087,0.233-0.155,0.351-0.231C119.722,308.964,120.425,310.071,119.555,311.298z"/>
		</g>
	</g>
	<g>
		<ellipse style="fill:#9CD6E2;" cx="404.784" cy="356.464" rx="53.49" ry="7.699"/>
		<g>
			<g>
				<path style="fill:#FFFFFF;" d="M451.101,344.568h-96.24c-3.136,0-5.679-2.542-5.679-5.679V221.205
					c0-3.136,2.542-5.679,5.679-5.679h96.24c3.136,0,5.679,2.542,5.679,5.679v117.684
					C456.78,342.026,454.237,344.568,451.101,344.568z"/>
				<path style="fill:#9CD6E2;" d="M444.516,256.747h-83.873c-2.725,0-4.935-2.209-4.935-4.935v-24.464
					c0-2.725,2.209-4.935,4.935-4.935h83.873c2.725,0,4.935,2.209,4.935,4.935v24.464
					C449.451,254.538,447.241,256.747,444.516,256.747z"/>
				<path style="fill:#9CD6E2;" d="M444.516,297.485h-83.873c-2.725,0-4.935-2.209-4.935-4.935v-24.464
					c0-2.725,2.209-4.935,4.935-4.935h83.873c2.725,0,4.935,2.209,4.935,4.935v24.464
					C449.451,295.276,447.241,297.485,444.516,297.485z"/>
				<path style="fill:#9CD6E2;" d="M444.516,338.223h-83.873c-2.725,0-4.935-2.209-4.935-4.935v-24.464
					c0-2.725,2.209-4.935,4.935-4.935h83.873c2.725,0,4.935,2.209,4.935,4.935v24.464
					C449.451,336.014,447.241,338.223,444.516,338.223z"/>
				<polygon style="fill:#FFFFFF;" points="446.927,358.06 440.739,358.06 438.739,344.568 448.927,344.568 				"/>
				<polygon style="fill:#25113B;" points="448.927,344.568 438.739,344.568 439.178,347.531 				"/>
				<polygon style="fill:#FFFFFF;" points="365.142,358.06 358.954,358.06 356.954,344.568 367.142,344.568 				"/>
				<polygon style="fill:#25113B;" points="367.142,344.568 356.954,344.568 357.393,347.531 				"/>
				<path style="fill:#25113B;" d="M407.369,321.057c0,2.645-2.145,4.79-4.79,4.79c-2.645,0-4.79-2.145-4.79-4.79
					c0-2.645,2.145-4.79,4.79-4.79C405.225,316.267,407.369,318.411,407.369,321.057z"/>
				<path style="fill:#25113B;" d="M407.369,280.319c0,2.645-2.145,4.79-4.79,4.79c-2.645,0-4.79-2.145-4.79-4.79
					c0-2.645,2.145-4.79,4.79-4.79C405.225,275.529,407.369,277.673,407.369,280.319z"/>
				<path style="fill:#25113B;" d="M407.369,239.58c0,2.645-2.145,4.79-4.79,4.79c-2.645,0-4.79-2.145-4.79-4.79
					c0-2.645,2.145-4.79,4.79-4.79C405.225,234.79,407.369,236.935,407.369,239.58z"/>
			</g>
			<g>
				<path style="fill:#81B392;" d="M385.807,181.046c-1.967-4.647-3.956-9.373-4.54-14.385c-0.208-1.788-0.216-3.684,0.602-5.288
					c0.818-1.604,2.673-2.796,4.415-2.336c1.596,0.421,2.569,1.987,3.382,3.423c2.461,4.351,4.921,8.702,7.382,13.053
					c-1.56-6.509-2.241-13.23-2.016-19.92c0.207-6.174,1.581-13.007,6.602-16.605c0.723-0.518,1.656-0.966,2.474-0.616
					c0.523,0.224,0.867,0.726,1.151,1.218c2.976,5.157,2.469,11.532,1.873,17.456c-0.475,4.718-0.949,9.435-1.424,14.153
					c0.441-3.232,0.89-6.497,2.039-9.55c1.15-3.053,3.078-5.921,5.881-7.59c0.416-0.248,0.896-0.474,1.367-0.363
					c0.751,0.177,1.048,1.072,1.177,1.832c1.216,7.197-1.138,14.466-3.46,21.386c0.999-2.117,2.439-4.025,4.2-5.568
					c0.736-0.645,1.662-1.26,2.622-1.065c1.665,0.338,1.924,2.61,1.635,4.285c-0.849,4.929-3.027,9.514-5.182,14.027
					c-2.104,4.405-4.649,9.221-9.262,10.818C394.303,203.709,389.394,189.521,385.807,181.046z"/>
				<path style="fill:#007A81;" d="M391.493,191.256c-1.31-2.813-2.634-5.673-3.024-8.707c-0.139-1.083-0.144-2.23,0.401-3.201
					c0.545-0.971,1.78-1.692,2.94-1.414c1.063,0.255,1.711,1.203,2.252,2.072c1.639,2.633,3.277,5.267,4.916,7.9
					c-1.039-3.94-1.492-8.007-1.343-12.057c0.138-3.737,1.053-7.873,4.397-10.051c0.482-0.314,1.103-0.585,1.647-0.373
					c0.348,0.135,0.577,0.439,0.766,0.737c1.982,3.122,1.645,6.98,1.248,10.565c-0.316,2.855-0.632,5.711-0.948,8.566
					c0.294-1.956,0.593-3.932,1.358-5.78s2.05-3.584,3.916-4.594c0.277-0.15,0.597-0.287,0.91-0.22
					c0.5,0.107,0.698,0.649,0.784,1.109c0.809,4.356-0.758,8.755-2.304,12.944c0.666-1.281,1.624-2.436,2.797-3.37
					c0.49-0.39,1.107-0.762,1.746-0.645c1.109,0.205,1.281,1.58,1.089,2.593c-0.565,2.983-2.016,5.758-3.451,8.49
					c-1.401,2.666-3.096,5.581-6.168,6.547C397.151,204.972,393.882,196.385,391.493,191.256z"/>
				<path style="fill:#9CD6E2;" d="M417.226,187.26h-29.294c-1.35,0-2.402,1.169-2.26,2.511l2.521,23.943
					c0.122,1.157,1.097,2.035,2.26,2.035h24.251c1.163,0,2.139-0.878,2.26-2.035l2.521-23.943
					C419.628,188.429,418.576,187.26,417.226,187.26z"/>
				<g>
					<path style="fill:#FFFFFF;" d="M403.156,199.769c5.092,0.003,10.183,0.018,15.274,0.029l0.089-0.845
						c-5.121,0.012-10.242,0.026-15.363,0.03c-5.503,0.003-11.009-0.014-16.515-0.002l0.083,0.789
						C392.202,199.783,397.682,199.766,403.156,199.769z"/>
					<path style="fill:#FFFFFF;" d="M386.062,193.477l0.165,1.573c5.643,0.028,11.289-0.008,16.929-0.001
						c5.256,0.007,10.512,0.035,15.768,0.058l0.178-1.687c-5.315,0.023-10.63,0.051-15.946,0.058
						C397.461,193.485,391.76,193.447,386.062,193.477z"/>
				</g>
			</g>
		</g>
	</g>
	<g>
		<ellipse style="fill:#9CD6E2;" cx="250" cy="405.278" rx="146.484" ry="54.465"/>
		<g>
			<ellipse style="fill:#9CD6E2;" cx="250" cy="397.19" rx="142.994" ry="50.511"/>
		</g>
		<g>
			<path style="fill:#007A81;" d="M392.23,397.19c-7.429-25.432-68.271-45.266-142.23-45.266
				c-73.959,0-134.801,19.834-142.23,45.266h-0.764v5.245c0,27.897,64.021,50.511,142.994,50.511s142.994-22.615,142.994-50.511
				v-5.245H392.23z"/>
			<ellipse style="fill:#9CD6E2;" cx="250" cy="397.19" rx="142.994" ry="50.511"/>
			<ellipse style="fill:#007A81;" cx="249.21" cy="388.715" rx="108.484" ry="32.906"/>
			<path style="fill:#007A81;" d="M283.464,417.516c0,0,19.637,20.85,40.906,14.594c21.269-6.256,0,0,0,0l-30.603-23.343
				L283.464,417.516z"/>
			<path style="fill:#007A81;" d="M163.385,405.9c0,0-9.192,10.986,5.897,22.994c5.055,4.023,4.693-4.4,4.693-4.4l8.939-12.354
				L163.385,405.9z"/>
		</g>
		<path style="fill:#D8F0ED;" d="M130.073,379.152c-0.156-0.186-0.385-0.314-0.59-0.451c-0.155-0.103-0.315-0.198-0.476-0.292
			c-0.332-0.194-0.667-0.384-1.005-0.571c-0.69-0.381-1.387-0.764-2.163-0.964c-0.227-0.059-0.481,0.039-0.6,0.229
			c-0.127,0.203-0.069,0.432,0.083,0.604c0.119,0.136,0.231,0.279,0.369,0.398s0.281,0.233,0.421,0.351
			c0.28,0.237,0.572,0.461,0.857,0.692c0.286,0.232,0.569,0.468,0.848,0.707c0.312,0.266,0.652,0.616,1.034,0.782
			c0.461,0.2,0.974,0.152,1.3-0.244c0.131-0.16,0.226-0.366,0.216-0.573C130.356,379.554,130.248,379.361,130.073,379.152z"/>
		<path style="fill:#D8F0ED;" d="M133.222,387.968c-0.047,0.018-0.094,0.036-0.141,0.054c-0.228-0.017-0.426,0.054-0.632,0.168
			c-0.014,0.005-0.028,0.016-0.042,0.022c-0.007,0.004-0.014,0.007-0.021,0.011c0.001,0,0.001,0,0.002,0
			c-0.08,0.035-0.158,0.072-0.246,0.136c0.166-0.12-0.07,0.05-0.1,0.071c-0.193,0.139-0.38,0.279-0.561,0.432
			c-0.271,0.23-0.542,0.46-0.813,0.69c-0.271,0.23-0.542,0.46-0.813,0.689c-0.318,0.27-0.722,0.543-0.914,0.912
			c-0.206,0.395-0.2,0.913,0.169,1.232c0.37,0.318,0.868,0.373,1.313,0.159c0.393-0.189,0.673-0.565,0.957-0.871l1.44-1.553
			c0.16-0.172,0.31-0.349,0.454-0.533c0.054-0.069,0.113-0.137,0.163-0.208c0.048-0.067,0.074-0.133,0.098-0.199
			c0.114-0.191,0.185-0.376,0.163-0.587c0.018-0.043,0.035-0.086,0.053-0.129C133.861,388.193,133.516,387.856,133.222,387.968z"/>
		<path style="fill:#D8F0ED;" d="M120.961,400.077c-0.159-0.321-0.489-0.578-0.755-0.827c-0.208-0.195-0.424-0.382-0.646-0.562
			c-0.274-0.221-0.563-0.419-0.869-0.6c-0.299-0.176-0.615-0.301-0.944-0.423c-0.114-0.042-0.292-0.03-0.407,0
			c-0.161,0.042-0.297,0.135-0.398,0.258c-0.179,0.217-0.228,0.558-0.06,0.798c0.307,0.438,0.618,0.872,0.96,1.286l-0.171-0.208
			c0.199,0.242,0.387,0.492,0.564,0.749c0.087,0.126,0.174,0.253,0.25,0.386c0.038,0.067,0.075,0.134,0.112,0.201
			c0.084,0.155,0.206,0.287,0.336,0.411c0.452,0.431,1.195,0.457,1.695,0.095c0.213-0.155,0.401-0.376,0.463-0.629l0.046-0.322
			C121.136,400.47,121.078,400.266,120.961,400.077z"/>
		<path style="fill:#D8F0ED;" d="M141.902,402.442c-0.192,0.022-0.368,0.038-0.545,0.107c-0.185,0.072-0.345,0.135-0.511,0.232
			c-0.162,0.095-0.32,0.199-0.481,0.296c-0.356,0.214-0.719,0.417-1.088,0.61c-0.355,0.186-0.721,0.353-1.076,0.538
			c-0.176,0.092-0.354,0.181-0.533,0.268c-0.094,0.046-0.197,0.084-0.287,0.136c-0.12,0.066-0.215,0.156-0.286,0.268
			c0.053-0.058,0.045-0.058-0.023,0c-0.205,0.153-0.236,0.482-0.139,0.689c0.114,0.242,0.337,0.367,0.614,0.388
			c-0.064-0.004-0.056,0.004,0.023,0.022c0.141,0.035,0.282,0.035,0.424,0c0.109-0.015,0.217-0.033,0.326-0.05
			c0.216-0.035,0.431-0.073,0.646-0.115c0.399-0.077,0.789-0.198,1.175-0.318c0.385-0.12,0.766-0.25,1.142-0.392
			c0.274-0.103,0.552-0.204,0.818-0.323c0.342-0.154,0.604-0.386,0.831-0.67C143.447,403.483,142.76,402.342,141.902,402.442z"/>
		<path style="fill:#D8F0ED;" d="M139.233,421.497c-0.089-0.23-0.19-0.457-0.288-0.683c-0.214-0.495-0.423-0.996-0.669-1.477
			c-0.211-0.413-0.421-0.844-0.681-1.232c-0.137-0.203-0.26-0.415-0.398-0.617c-0.158-0.231-0.373-0.379-0.559-0.581
			c-0.13-0.142-0.412-0.217-0.6-0.149c-0.041,0.014-0.081,0.03-0.12,0.047c-0.009,0.004-0.018,0.008-0.027,0.012
			c-0.182,0.077-0.32,0.316-0.305,0.5c0.022,0.276-0.023,0.514,0.037,0.795c0.051,0.239,0.11,0.473,0.153,0.714
			c0.078,0.444,0.207,0.884,0.309,1.323c0.102,0.442,0.225,0.88,0.329,1.321c0.152,0.643,0.241,1.216,0.728,1.734
			c0.611,0.65,2.005,0.352,2.168-0.537C139.384,422.259,139.384,421.886,139.233,421.497z"/>
		<path style="fill:#D8F0ED;" d="M154.766,417.568c-0.16-0.233-0.399-0.439-0.696-0.502c-0.327-0.07-0.592-0.011-0.897,0.11
			c0.157-0.062,0.177-0.07,0.06-0.025c-0.123,0.041-0.241,0.09-0.356,0.147c-0.068,0.039-0.132,0.087-0.199,0.129
			c-0.155,0.098-0.312,0.194-0.471,0.286c-0.327,0.189-0.664,0.364-1.007,0.526c-0.164,0.077-0.328,0.155-0.495,0.227
			c-0.083,0.036-0.166,0.071-0.25,0.106c-0.086,0.035-0.096,0.039-0.028,0.013c-0.037,0.015-0.075,0.029-0.112,0.043
			c-0.174,0.067-0.351,0.127-0.527,0.189c-0.24,0.085-0.373,0.202-0.584,0.302c-0.359,0.17-0.309,0.801,0.119,0.858
			c0.111,0.015,0.221,0.028,0.332,0.042c0.335,0.097,0.716,0.039,1.059,0.003c0.431-0.046,0.865-0.101,1.289-0.187
			c0.364-0.074,0.725-0.162,1.082-0.265c0.439-0.127,0.887-0.255,1.265-0.506c0.253-0.168,0.45-0.365,0.535-0.653
			C154.96,418.148,154.925,417.8,154.766,417.568z"/>
		<path style="fill:#D8F0ED;" d="M196.076,435.308c0.101,0.104,0.064,0.056-0.11-0.143c-0.077-0.091-0.171-0.165-0.281-0.224
			c-0.215-0.118-0.43-0.161-0.673-0.185c-0.296-0.03-0.589-0.022-0.886-0.013c-0.57,0.017-1.14,0.048-1.708,0.093
			c-1.211,0.096-2.392,0.261-3.57,0.543c-0.946,0.226-0.775,1.687,0.235,1.628c1.13-0.066,2.266-0.13,3.398-0.15
			c0.548-0.01,1.097-0.007,1.645,0.009c0.295,0.009,0.591,0.033,0.886,0.01c0.234-0.018,0.467-0.065,0.673-0.178
			c0.104-0.061,0.197-0.133,0.281-0.216c0.166-0.212,0.203-0.253,0.11-0.124C196.397,436.064,196.354,435.606,196.076,435.308z"/>
		<g>
			<path style="fill:#D8F0ED;" d="M214.818,429c-0.121-0.254-0.336-0.405-0.567-0.572l0.251,0.182
				c-0.142-0.105-0.274-0.228-0.439-0.299c-0.084-0.035-0.167-0.073-0.249-0.112c-0.163-0.079-0.321-0.165-0.477-0.257
				c-0.274-0.162-0.55-0.311-0.812-0.488c-0.089-0.069-0.178-0.136-0.263-0.209c-0.121-0.105-0.255-0.198-0.372-0.306
				c-0.11-0.101-0.209-0.211-0.321-0.31c-0.006-0.005-0.022-0.023-0.038-0.04c0.021,0.034,0.026,0.07-0.006,0.01
				c-0.006-0.012-0.018-0.021-0.025-0.033c0,0,0-0.001,0-0.001c-0.001,0-0.001-0.001-0.002-0.001
				c-0.001-0.002-0.003-0.004-0.004-0.006c0.002,0,0.003,0.002,0.005,0.003c-0.008-0.08-0.035-0.159-0.085-0.232l-0.023-0.032
				c-0.001,0.002-0.003,0.004-0.004,0.007c-0.008-0.011-0.019-0.017-0.029-0.027c-0.021-0.022-0.04-0.044-0.066-0.062
				c-0.018-0.012-0.027-0.035-0.047-0.044c-0.001-0.001-0.003-0.001-0.004-0.002l0.045,0.042c-0.053-0.035-0.108-0.068-0.169-0.091
				c-0.157-0.059-0.419,0.003-0.524,0.13c-0.043,0.052-0.087,0.103-0.126,0.158c-0.001,0.001,0-0.001-0.001,0.001
				c-0.001,0.001-0.001,0.003-0.002,0.004c-0.002,0.002-0.004,0.004-0.006,0.007c-0.02,0.029-0.025,0.038-0.023,0.037
				c-0.118,0.142-0.18,0.304-0.191,0.485c-0.013,0.221,0.052,0.464,0.135,0.67c0.095,0.239,0.181,0.491,0.313,0.715
				c0.1,0.168,0.209,0.331,0.327,0.488c0.164,0.218,0.339,0.43,0.526,0.631c0.205,0.222,0.428,0.39,0.678,0.568
				c0.542,0.385,1.227,0.77,1.928,0.527c0.337-0.117,0.582-0.292,0.724-0.607C215.022,429.604,214.97,429.318,214.818,429z"/>
			<path style="fill:#D8F0ED;" d="M211.532,426.589c-0.008-0.013-0.019-0.022-0.033-0.029c0,0.001,0.001,0.003,0.001,0.004
				C211.511,426.572,211.52,426.577,211.532,426.589z"/>
		</g>
		<path style="fill:#D8F0ED;" d="M232.169,438.209c-0.155-0.451-0.533-0.675-1.018-0.727c-0.55-0.06-1.051,0.105-1.566,0.262
			c-0.431,0.132-0.867,0.253-1.287,0.413c-0.423,0.161-0.84,0.334-1.263,0.494c-0.206,0.078-0.379,0.196-0.567,0.303
			c-0.095,0.054-0.157,0.121-0.243,0.181c-0.127,0.09-0.31,0.136-0.456,0.19c-0.063,0.023-0.058,0.114,0.017,0.115
			c0.125,0.002,0.252-0.001,0.376,0.015c0.135,0.018,0.258,0.07,0.39,0.097c0.207,0.041,0.417,0.095,0.629,0.106
			c0.464,0.025,0.93,0.038,1.395,0.051c0.464,0.013,0.931-0.022,1.395-0.041c0.283-0.011,0.557-0.022,0.838-0.061
			c0.315-0.043,0.591-0.142,0.875-0.279C232.081,439.137,232.306,438.607,232.169,438.209z"/>
		<path style="fill:#D8F0ED;" d="M244.972,433.044c-0.12-0.491-0.542-0.764-0.951-1.04c-0.236-0.159-0.477-0.302-0.728-0.439
			c-0.498-0.271-1.001-0.552-1.524-0.778c-0.549-0.237-1.111-0.45-1.673-0.656c-0.434-0.159-1.188-0.44-1.598-0.11
			c-0.153-0.001-0.273,0.155-0.147,0.276c-0.03,0.482,0.591,0.89,0.941,1.141c0.391,0.28,0.825,0.624,1.234,0.938
			c0.097,0.074,0.197,0.145,0.296,0.217c0.008,0.006,0.059,0.042,0.091,0.065c0.03,0.022,0.082,0.06,0.09,0.066
			c0.053,0.039,0.106,0.078,0.158,0.117c0.224,0.167,0.446,0.336,0.666,0.508c0.264,0.207,0.53,0.409,0.805,0.603
			c0.368,0.259,0.713,0.512,1.206,0.491C244.622,434.409,245.148,433.764,244.972,433.044z"/>
		<path style="fill:#D8F0ED;" d="M252.627,437.982c-0.717-0.43-1.574-0.093-2.251,0.232c-0.42,0.202-0.858,0.409-1.236,0.677
			c-0.411,0.291-0.811,0.595-1.193,0.919c-0.194,0.165-0.312,0.35-0.464,0.498c-0.208,0.203-0.312,0.376-0.38,0.643
			c-0.055,0.219,0.106,0.389,0.332,0.409c0.124,0.011,0.216,0.035,0.347,0.013c0.108-0.018,0.205-0.052,0.307-0.088
			c0.051-0.018,0.101-0.036,0.152-0.053c-0.05,0.017,0.004-0.008,0.039-0.014c0.154-0.029,0.288-0.042,0.435-0.092
			c0.428-0.144,0.863-0.267,1.303-0.377c0.432-0.109,0.853-0.257,1.286-0.363c0.628-0.154,1.438-0.331,1.729-0.945
			C253.291,438.897,253.191,438.32,252.627,437.982z"/>
		<path style="fill:#D8F0ED;" d="M266.915,428.434c-0.018-0.016-0.035-0.033-0.053-0.049c-0.068-0.155-0.172-0.295-0.321-0.418
			c-0.153-0.125-0.312-0.242-0.473-0.358c0.079,0.057,0.158,0.114,0.237,0.172c-0.127-0.094-0.245-0.197-0.368-0.295
			c-0.143-0.114-0.3-0.21-0.452-0.312c-0.318-0.239-0.633-0.499-0.906-0.78c-0.092-0.095-0.207-0.205-0.337-0.262
			c-0.015-0.013-0.03-0.026-0.044-0.04c-0.033-0.03-0.066-0.061-0.098-0.093c-0.241-0.235-0.432-0.439-0.807-0.453
			c0.021,0.005,0.041,0.01,0.061,0.016c-0.103-0.025-0.204,0-0.28,0.07l0.044-0.042c-0.025,0.017-0.038,0.036-0.06,0.053
			c-0.013,0.014-0.039,0.017-0.048,0.034c-0.003,0.005-0.005,0.01-0.008,0.015c-0.099,0.088-0.178,0.181-0.217,0.327
			c-0.032,0.123-0.043,0.247-0.034,0.373c0.005,0.084,0.014,0.168,0.025,0.251c0.009,0.072,0.021,0.144,0.031,0.216
			c-0.002-0.003-0.005-0.003-0.006,0.029c-0.008,0.314,0.145,0.593,0.284,0.87c0.082,0.163,0.169,0.333,0.285,0.478
			c0.322,0.401,0.694,0.849,1.166,1.102c0.236,0.126,0.505,0.256,0.762,0.332c0.083,0.025,0.17,0.044,0.256,0.061
			c0.275,0.056,0.494,0.033,0.701-0.044c0.036-0.001,0.073-0.001,0.109-0.003c0.317-0.018,0.587-0.17,0.714-0.451
			C267.194,428.975,267.145,428.634,266.915,428.434z"/>
		<path style="fill:#D8F0ED;" d="M283.874,434.054c-0.014-0.134-0.041-0.233-0.107-0.353c-0.042-0.076-0.119-0.153-0.107-0.245
			c0.008-0.061-0.087-0.075-0.116-0.03c-0.045,0.068-0.138,0.08-0.211,0.109c-0.124,0.048-0.221,0.097-0.321,0.183
			c-0.175,0.15-0.313,0.331-0.457,0.506c-0.318,0.383-0.615,0.766-0.87,1.189c-0.237,0.392-0.473,0.784-0.711,1.175
			c-0.326,0.534-0.764,1.271-0.532,1.902c0.18,0.488,0.74,0.887,1.317,0.702c0.777-0.25,1.118-0.977,1.379-1.65
			c0.169-0.435,0.309-0.883,0.452-1.326c0.156-0.485,0.234-0.979,0.273-1.483C283.881,434.506,283.899,434.282,283.874,434.054z"/>
		<path style="fill:#D8F0ED;" d="M313.782,439.486c-0.213-0.199-0.509-0.263-0.787-0.336c-0.394-0.103-0.806-0.134-1.211-0.178
			c-0.339-0.037-0.68-0.086-1.021-0.103c-0.158-0.008-0.316-0.021-0.474-0.023c-0.113-0.001-0.238,0.005-0.347,0.029
			c-0.072,0.013-0.139,0.036-0.204,0.07c-0.126,0.098-0.155,0.117-0.088,0.059c-0.214,0.106-0.309,0.414-0.169,0.605
			c-0.026-0.089-0.01-0.059,0.047,0.088c0.037,0.059,0.083,0.109,0.14,0.151c0.072,0.061,0.161,0.118,0.248,0.163
			c0.148,0.075,0.308,0.133,0.461,0.199c0.358,0.155,0.729,0.28,1.096,0.413c0.328,0.118,0.654,0.247,0.998,0.317
			c0.288,0.058,0.592,0.143,0.885,0.067c0.318-0.082,0.639-0.322,0.728-0.627C314.176,440.061,314.022,439.711,313.782,439.486z"/>
		<path style="fill:#D8F0ED;" d="M343.011,424.358c-0.306,0.073-0.569,0.245-0.76,0.478c-0.078,0.095-0.14,0.184-0.204,0.286
			c-0.083,0.131-0.166,0.261-0.25,0.392c-0.172,0.267-0.361,0.528-0.514,0.805c-0.149,0.27-0.299,0.538-0.44,0.812
			c-0.07,0.136-0.141,0.273-0.213,0.408c-0.127,0.24-0.277,0.494-0.174,0.769c0.072,0.193,0.243,0.347,0.446,0.407l-0.003,0.009
			c0.01,0.002,0.017-0.002,0.027-0.001c0.099,0.025,0.203,0.034,0.311,0.001c0.009-0.003,0.014-0.008,0.023-0.011
			c0.137-0.029,0.266-0.084,0.398-0.174c0.133-0.09,0.265-0.181,0.397-0.272c0.317-0.219,0.623-0.449,0.925-0.686
			c0.249-0.195,0.471-0.42,0.698-0.637c0.12-0.115,0.24-0.23,0.359-0.346c0.053-0.051,0.108-0.102,0.158-0.155
			c0.249-0.263,0.41-0.594,0.399-0.951C344.571,424.72,343.815,424.165,343.011,424.358z"/>
		<path style="fill:#D8F0ED;" d="M347.916,409.758c-0.482-0.167-1.066-0.24-1.582-0.203c-0.286,0.02-0.571,0.055-0.855,0.093
			c-0.107,0.015-0.215,0.029-0.321,0.049c-0.154,0.028-0.283,0.093-0.43,0.14c-0.076,0.036-0.089,0.039-0.037,0.008
			c-0.054,0.013-0.107,0.027-0.16,0.041c-0.13,0.035-0.264,0.068-0.384,0.127c-0.101,0.049-0.204,0.118-0.29,0.188
			c-0.031,0.029-0.063,0.057-0.094,0.086c-0.048,0.05-0.086,0.106-0.115,0.168c-0.134,0.049-0.109,0.216,0.033,0.23
			c0.008,0.001,0.016,0.002,0.024,0.003c0.125,0.133,0.258,0.228,0.44,0.305c0.128,0.054,0.249,0.08,0.384,0.111
			c0.053,0.012,0.107,0.025,0.16,0.038c-0.052-0.028-0.04-0.023,0.037,0.015c0.247,0.105,0.496,0.175,0.752,0.257
			c0.107,0.034,0.214,0.071,0.32,0.109c0.055,0.02,0.414,0.157,0.122,0.043c0.566,0.221,1.137,0.417,1.749,0.477
			c0.607,0.059,1.517-0.154,1.546-0.86C349.245,410.49,348.537,409.973,347.916,409.758z"/>
		<path style="fill:#D8F0ED;" d="M366.788,415.676c-0.001-0.005-0.002-0.006-0.003-0.01c0.003-0.012,0.006-0.022,0.01-0.042
			c0.021-0.114,0.02-0.236,0.03-0.351c0.019-0.224-0.089-0.417-0.252-0.565c-0.001-0.018-0.001-0.041-0.002-0.058
			c-0.014-0.192-0.029-0.383-0.047-0.575c-0.036-0.378-0.073-0.764-0.083-1.143c-0.003-0.101,0.003-0.204-0.004-0.305
			c-0.004-0.066-0.043-0.447-0.036-0.26c-0.01-0.234-0.01-0.447-0.069-0.678c-0.112-0.435-0.758-0.602-1.084-0.269
			c-0.331,0.339-0.545,0.797-0.71,1.227c-0.149,0.388-0.277,0.768-0.365,1.173c-0.103,0.475-0.142,0.964-0.157,1.449
			c-0.015,0.491-0.024,1.008,0.105,1.487c0.142,0.527,0.735,0.972,1.325,0.947c0.611-0.026,1.152-0.383,1.325-0.947
			C366.883,416.389,366.887,416.046,366.788,415.676z"/>
		<path style="fill:#D8F0ED;" d="M368.967,400.734c-0.145-0.322-0.387-0.477-0.722-0.606c-0.232-0.089-0.438-0.153-0.702-0.146
			c-0.246,0.006-0.531,0.059-0.765,0.142c-0.404,0.143-0.816,0.273-1.196,0.465c-0.289,0.145-0.545,0.332-0.824,0.492
			c-0.1,0.058-0.232,0.13-0.306,0.221c-0.04,0.034-0.033,0.034,0.019-0.001l-0.101,0.065c-0.21,0.141-0.363,0.271-0.467,0.496
			c-0.105,0.228-0.056,0.433,0.163,0.583c0.21,0.143,0.418,0.187,0.676,0.208c0.021,0.001,0.043,0.003,0.064,0.004
			c0,0.001,0.006,0.003,0.03,0.008c0.056,0.061,0.289,0.045,0.394,0.047c0.34,0.009,0.675,0.041,1.015,0.027
			c0.421-0.017,0.838-0.103,1.253-0.172c0.25-0.041,0.497-0.132,0.724-0.24c0.311-0.148,0.489-0.413,0.691-0.664
			C369.119,401.407,369.092,401.012,368.967,400.734z"/>
		<path style="fill:#D8F0ED;" d="M382.452,399.198c-0.053-0.327-0.121-0.668-0.25-0.976c-0.156-0.371-0.333-0.702-0.537-1.048
			c-0.173-0.293-0.451-0.587-0.797-0.712c-0.168-0.072-0.424-0.22-0.588-0.066c-0.072,0.067-0.135,0.131-0.164,0.226
			c-0.011,0.037-0.007,0.041,0,0.039c-0.078,0.124-0.125,0.25-0.165,0.392c-0.083,0.296-0.038,0.58-0.067,0.88
			c-0.048,0.504-0.055,1.01-0.124,1.512c-0.057,0.402-0.093,0.828,0.028,1.208c0.155,0.484,0.584,0.836,1.117,0.904
			c0.509,0.064,1.089-0.157,1.339-0.602C382.551,400.406,382.549,399.793,382.452,399.198z"/>
		<path style="fill:#D8F0ED;" d="M373.921,387.033c-0.339-0.318-0.774-0.383-1.228-0.305c-0.359,0.062-0.684,0.328-0.946,0.55
			c-0.07,0.059-0.141,0.117-0.212,0.174c-0.023,0.018-0.099,0.075-0.143,0.108c-0.047,0.032-0.093,0.065-0.14,0.097
			c-0.076,0.053-0.153,0.106-0.232,0.157c-0.165,0.108-0.335,0.21-0.508,0.306c-0.161,0.09-0.326,0.174-0.494,0.253
			c-0.083,0.039-0.168,0.077-0.252,0.113c-0.036,0.015-0.072,0.03-0.107,0.045c-0.008,0.003-0.011,0.004-0.023,0.008
			c-0.221,0.082-0.441,0.175-0.655,0.274c-0.069,0.032-0.239,0.166-0.247,0.16c-0.03,0.024-0.03,0.023,0-0.004
			c0.033-0.026,0.03-0.028-0.007-0.008c-0.112,0.032-0.213,0.144-0.299,0.217c-0.268,0.229-0.196,0.68,0.115,0.841
			c0.094,0.049,0.238,0.145,0.35,0.139c0.043,0.011,0.044,0.006,0.003-0.015c-0.085-0.053-0.034-0.036,0.154,0.053
			c0.09,0.026,0.181,0.039,0.275,0.047c0.206,0.017,0.421,0.017,0.626-0.008c0.484-0.058,0.963-0.135,1.433-0.262
			c0.471-0.127,0.934-0.294,1.374-0.497c0.191-0.088,0.379-0.184,0.562-0.286c0.167-0.093,0.322-0.205,0.467-0.326
			c0.226-0.188,0.351-0.418,0.459-0.678C374.405,387.803,374.214,387.308,373.921,387.033z"/>
		<path style="fill:#D8F0ED;" d="M374.182,377.754c-0.251-0.281-0.5-0.576-0.773-0.838c-0.063-0.06-0.121-0.122-0.177-0.187
			c-0.028-0.033-0.056-0.065-0.083-0.098c-0.052-0.061-0.082-0.098-0.013-0.014c-0.144-0.175-0.297-0.343-0.443-0.516
			c-0.007-0.008-0.082-0.097-0.049-0.058c0.032,0.039-0.044-0.055-0.051-0.063c-0.105-0.128-0.197-0.209-0.337-0.3
			c-0.171-0.111-0.348-0.224-0.56-0.133c-0.21,0.09-0.235,0.284-0.266,0.472c-0.043,0.258,0.01,0.483,0.069,0.735
			c0.085,0.363,0.216,0.708,0.323,1.065c0.119,0.398,0.337,0.804,0.543,1.171c0.281,0.5,0.667,1.117,1.292,1.254
			c0.703,0.155,1.403-0.309,1.408-1.007C375.07,378.627,374.571,378.189,374.182,377.754z"/>
	</g>
	<g>
		<path style="fill:#EBAF88;" d="M295.681,284.803c0,0,0.973,27.413,23.401,27.855l-10.098-34.711L295.681,284.803z"/>
		<path style="fill:#EB806A;" d="M309.08,278.28l-0.097-0.333l-13.302,6.856c0,0,0.109,2.934,1.032,6.89
			c3.177-1.931,6.246-4.04,9.16-6.349L309.08,278.28z"/>
		<path style="fill:#EBAF88;" d="M177.88,312.618c15.79-0.031,23.422-12.938,25.316-25.411l-13.105-6.631L177.88,312.618z"/>
		<path style="fill:#EB806A;" d="M203.197,287.207l-10.652-5.39l-2.097,5.275c3.156,2.964,6.807,5.397,10.754,7.177
			C202.163,291.958,202.837,289.574,203.197,287.207z"/>
		<path style="fill:#9795D1;" d="M298.878,338.047l-33.157,0.158l-65.682,0.158c0,0-26.571-0.548-49.702,9.242l6.44,9.31
			l22.973,16.815l66.551,12.552l103.97-37.657C326.351,340.337,298.878,338.047,298.878,338.047z"/>
		<path style="fill:#25113B;" d="M265.721,338.205l-65.682,0.158c0,0-2.509,0.031-6.648,0.357
			c6.79,4.611,21.689,12.354,46.342,13.475c35.436,1.611,59.145-14.148,59.145-14.148L265.721,338.205z"/>
		<path style="fill:#25113B;" d="M219.003,386.109c-3.989-1.813-15.437-2.872-28.002,4.667
			c-12.565,7.539-33.747,24.053-22.258,38.055c11.488,14.001,36.543-12.689,41.645-14.719c5.102-2.031,10.411-2.154,13.283-7.898
			C226.542,400.47,222.952,387.904,219.003,386.109z"/>
		<path style="fill:#EBAF88;" d="M238.7,382.256c0,0-23.684,3.789-25.894,5.053c-2.21,1.263-7.579,19.262,1.895,22.104
			c9.473,2.842,24.688,2.503,29.683,1.263C249.379,409.437,247.226,382.888,238.7,382.256z"/>
		<path style="fill:#9795D1;" d="M302.171,360.152c0,0-50.525,19.578-66.629,21.157l7.09,31.686c0,0,70.275-1.056,99.327-15.266
			c29.052-14.21,31.578-41.683,7.579-49.262L302.171,360.152z"/>
		<path style="fill:#25113B;" d="M280.997,386.109c3.99-1.813,15.437-2.872,28.003,4.667c12.565,7.539,33.747,24.053,22.258,38.055
			c-11.488,14.001-36.543-12.689-41.645-14.719c-5.102-2.031-10.411-2.154-13.283-7.898
			C273.458,400.47,277.048,387.904,280.997,386.109z"/>
		<path style="fill:#EBAF88;" d="M261.3,382.256c0,0,23.683,3.789,25.894,5.053c2.21,1.263,7.579,19.262-1.895,22.104
			s-24.688,2.503-29.683,1.263C250.621,409.437,252.774,382.888,261.3,382.256z"/>
		<path style="fill:#FF5265;" d="M219.183,223.104c-14.723,4.263-28.618,12.789-32.407,25.894
			c-3.789,13.105-8.052,32.367-8.052,32.367s15.473,6.789,24.473,5.842c0,0,1.579,10.737,3.474,20.999
			c1.895,10.263-6.631,30.157-6.631,30.157s22.42,8.526,50.841,8.526c28.42,0,47.998-8.842,47.998-8.842s-7.105-16.894-6.631-26.683
			c0.474-9.789,3.434-26.561,3.434-26.561s19.302-0.28,27.354-4.385c0,0-12.568-41.14-22.894-47.051
			c-10.326-5.911-18.789-8.526-25.183-10.263H219.183z"/>
		<path style="fill:#25113B;" d="M244.788,124.689c-41.268,1.069-40.79,46.196-42.019,59.71
			c-1.229,13.515-4.423,38.578,36.367,39.07c40.79,0.491,53.076-8.846,53.322-25.555S292.213,123.46,244.788,124.689z"/>
		<path style="fill:#EBAF88;" d="M232.683,204.512c0,0-0.353,6.647-1.066,11.25c-0.713,4.603-12.434,7.342-12.434,7.342
			s10.776,12.434,28.42,11.605c17.644-0.829,27.354-11.605,27.354-11.605s-10.184-1.895-11.842-5.921s-1.776-12.907-1.776-12.907
			L232.683,204.512z"/>
		<path style="fill:#EB806A;" d="M267.84,411.59c-0.878-9.564-1.757-19.129-2.635-28.693c-2.347-0.391-3.904-0.64-3.904-0.64
			c-8.526,0.632-10.679,27.181-5.684,28.42C257.974,411.261,262.608,411.645,267.84,411.59z"/>
		<path style="fill:#EBAF88;" d="M192.409,297.032c1.753,19.982-30.014,22.16-29-1.729c1.014-23.89,10.772-51.714,13.026-58.7
			c2.254-6.987,2.113-20.142,4.367-23.635s4.395-4.17,6.761-9.466c2.366-5.296,3.606-12.058,7.437-12.283
			c3.831-0.225,3.526,4.157,3.381,8.001c-0.225,5.972-1.69,10.255-1.69,10.255s6.423-0.113,9.128,0.902
			c2.704,1.014,2.141,5.634,0.676,6.987c0,0,2.704,3.493,0.225,7.663c0,0,1.014,3.719-1.127,5.409c0,0,0.225,4.169-2.479,5.747
			c-2.704,1.578-8.677,1.352-8.677,1.352S190.873,279.527,192.409,297.032z"/>
		<path style="fill:#EB806A;" d="M206.725,217.691c1.047-1.269,1.927-3.061,1.518-4.696c-0.389-1.553-1.84-2.597-3.313-3.009
			c-1.932-0.54-4.057-0.397-6.042-0.572c-0.425-0.038-0.849-0.092-1.273-0.135c0.064-0.245,0.103-0.501,0.154-0.737
			c0.099-0.454,0.194-0.908,0.277-1.365c0.157-0.867,0.281-1.74,0.373-2.616c0.094-0.891,0.137-1.79,0.12-2.686
			c-0.002-0.119-0.008-1.55-0.322-1.41c-0.22,0.097-0.221,0.324-0.248,0.541c-0.051,0.406-0.098,0.81-0.137,1.217
			c-0.082,0.857-0.19,1.715-0.316,2.566c-0.118,0.802-0.266,1.599-0.442,2.39c-0.088,0.396-0.181,0.791-0.287,1.182
			c-0.071,0.263-0.174,0.533-0.231,0.805c-0.283-0.033-0.568-0.056-0.851-0.091c-0.995-0.123-2.209-0.426-3.191-0.158
			c-0.104,0.028-0.102,0.153-0.027,0.21c0.655,0.499,1.583,0.625,2.372,0.792c0.828,0.176,1.671,0.294,2.51,0.408
			c1.771,0.24,3.549,0.326,5.328,0.467c1.494,0.119,3.316,0.461,4.167,1.854c1.023,1.675-0.35,3.26-1.218,4.622
			c-0.79-0.179-1.656-0.201-2.436-0.295c-1.067-0.129-2.134-0.258-3.204-0.37c-1.069-0.112-2.136-0.199-3.21-0.249
			c-0.885-0.041-2.266-0.267-3.034,0.263c-0.111,0.077-0.104,0.213,0,0.291c0.572,0.427,1.542,0.394,2.23,0.449
			c0.893,0.072,1.784,0.153,2.677,0.228c1.738,0.145,3.474,0.318,5.207,0.524c0.738,0.088,1.764,0.037,2.372,0.528
			c0.632,0.51,0.79,1.375,0.796,2.14c0.01,1.229,0.037,3.237-1.074,4.046c-0.45-0.217-0.946-0.35-1.432-0.43
			c-1.008-0.166-2.03-0.268-3.049-0.342c-1.236-0.09-2.471-0.094-3.709-0.041c-1.083,0.047-2.297,0.111-3.305,0.542
			c-0.122,0.052-0.084,0.253,0.037,0.28c1.043,0.234,2.205,0.157,3.268,0.176c1.158,0.02,2.316,0.095,3.47,0.194
			c1.076,0.092,2.174,0.197,3.231,0.428c0.966,0.211,1.701,0.623,1.766,1.699c0.049,0.814-0.103,1.913-0.813,2.426
			c-0.768,0.556-1.997,0.466-2.893,0.519c-2.318,0.136-4.638,0.164-6.957,0.046c-0.867-0.044-0.865,1.304,0,1.348
			c2.156,0.11,4.322,0.135,6.478,0.007c0.885-0.053,1.899-0.06,2.814-0.281c0.012,0.33,0.119,0.675,0.122,1.006
			c0.005,0.545-0.101,1.085-0.299,1.593c-0.42,1.08-1.253,1.988-2.353,2.385c-1.445,0.522-3.122,0.498-4.638,0.641
			c-1.598,0.151-3.228,0.25-4.795,0.61c-0.453,0.104-0.329,0.761,0.106,0.782c1.878,0.092,3.781-0.16,5.652-0.316
			c1.628-0.135,3.434-0.116,4.896-0.943c1.091-0.617,1.911-1.659,2.342-2.827c0.225-0.609,0.339-1.277,0.326-1.926
			c-0.008-0.418-0.02-1.032-0.274-1.421c0.396-0.228,0.744-0.535,1.01-0.965c0.801-1.295,0.911-3.528-0.226-4.662
			c1.051-0.92,1.261-2.454,1.349-3.799C208.183,220.166,207.942,218.49,206.725,217.691z"/>
		<path style="fill:#EBAF88;" d="M304.257,297.032c-2.557,19.895,30.47,22.16,29.456-1.729c-1.014-23.89-10.352-51.714-12.606-58.7
			c-2.254-6.987-2.989-20.142-5.243-23.635c-2.254-3.493-4.395-4.17-6.761-9.466c-2.367-5.296-3.606-12.058-7.437-12.283
			c-3.831-0.225-3.526,4.157-3.381,8.001c0.225,5.972,1.69,10.255,1.69,10.255s-6.423-0.113-9.128,0.902
			c-2.704,1.014-2.141,5.634-0.676,6.987c0,0-2.704,3.493-0.225,7.663c0,0-1.014,3.719,1.127,5.409c0,0-0.225,4.169,2.479,5.747
			c2.704,1.578,8.677,1.352,8.677,1.352S307.016,275.564,304.257,297.032z"/>
		<path style="fill:#EB806A;" d="M289.94,217.691c-1.047-1.269-1.927-3.061-1.518-4.696c0.389-1.553,1.84-2.597,3.313-3.009
			c1.932-0.54,4.057-0.397,6.042-0.572c0.425-0.038,0.849-0.092,1.273-0.135c-0.064-0.245-0.103-0.501-0.154-0.737
			c-0.099-0.454-0.194-0.908-0.277-1.365c-0.157-0.867-0.281-1.74-0.373-2.616c-0.094-0.891-0.137-1.79-0.12-2.686
			c0.002-0.119,0.008-1.55,0.322-1.41c0.22,0.097,0.221,0.324,0.248,0.541c0.051,0.406,0.098,0.81,0.137,1.217
			c0.082,0.857,0.19,1.715,0.316,2.566c0.119,0.802,0.266,1.599,0.442,2.39c0.088,0.396,0.181,0.791,0.287,1.182
			c0.071,0.263,0.174,0.533,0.231,0.805c0.284-0.033,0.568-0.056,0.851-0.091c0.995-0.123,2.209-0.426,3.191-0.158
			c0.104,0.028,0.102,0.153,0.027,0.21c-0.655,0.499-1.583,0.625-2.372,0.792c-0.828,0.176-1.671,0.294-2.51,0.408
			c-1.771,0.24-3.549,0.326-5.328,0.467c-1.494,0.119-3.316,0.461-4.167,1.854c-1.023,1.675,0.35,3.26,1.218,4.622
			c0.79-0.179,1.656-0.201,2.436-0.295c1.067-0.129,2.134-0.258,3.204-0.37c1.069-0.112,2.136-0.199,3.21-0.249
			c0.885-0.041,2.266-0.267,3.034,0.263c0.111,0.077,0.104,0.213,0,0.291c-0.573,0.427-1.542,0.394-2.23,0.449
			c-0.893,0.072-1.784,0.153-2.677,0.228c-1.738,0.145-3.474,0.318-5.207,0.524c-0.738,0.088-1.764,0.037-2.372,0.528
			c-0.632,0.51-0.79,1.375-0.796,2.14c-0.01,1.229-0.037,3.237,1.074,4.046c0.45-0.217,0.946-0.35,1.432-0.43
			c1.008-0.166,2.03-0.268,3.049-0.342c1.236-0.09,2.471-0.094,3.709-0.041c1.083,0.047,2.297,0.111,3.305,0.542
			c0.122,0.052,0.084,0.253-0.036,0.28c-1.043,0.234-2.205,0.157-3.268,0.176c-1.158,0.02-2.316,0.095-3.47,0.194
			c-1.076,0.092-2.174,0.197-3.231,0.428c-0.966,0.211-1.7,0.623-1.766,1.699c-0.05,0.814,0.103,1.913,0.813,2.426
			c0.768,0.556,1.997,0.466,2.893,0.519c2.318,0.136,4.638,0.164,6.957,0.046c0.867-0.044,0.865,1.304,0,1.348
			c-2.156,0.11-4.322,0.135-6.478,0.007c-0.885-0.053-1.899-0.06-2.814-0.281c-0.012,0.33-0.119,0.675-0.122,1.006
			c-0.005,0.545,0.101,1.085,0.299,1.593c0.42,1.08,1.253,1.988,2.353,2.385c1.445,0.522,3.122,0.498,4.638,0.641
			c1.598,0.151,3.228,0.25,4.796,0.61c0.453,0.104,0.329,0.761-0.106,0.782c-1.878,0.092-3.781-0.16-5.652-0.316
			c-1.628-0.135-3.434-0.116-4.896-0.943c-1.091-0.617-1.911-1.659-2.342-2.827c-0.225-0.609-0.339-1.277-0.327-1.926
			c0.008-0.418,0.02-1.032,0.274-1.421c-0.396-0.228-0.744-0.535-1.01-0.965c-0.801-1.295-0.911-3.528,0.226-4.662
			c-1.051-0.92-1.261-2.454-1.349-3.799C288.483,220.166,288.724,218.49,289.94,217.691z"/>
		<path style="fill:#9795D1;" d="M197.829,360.152c0,0,50.525,19.578,66.63,21.157l-5.368,33.473c0,0-71.998-2.842-101.049-17.052
			c-29.052-14.21-30.535-40.702-7.703-50.125L197.829,360.152z"/>
		<path style="fill:#EB806A;" d="M262.542,215.38c-1.112-4.399-1.203-11.105-1.203-11.105l-28.657,0.237
			c0,0-0.353,6.647-1.066,11.25c-0.233,1.504-1.645,2.808-3.436,3.884c2.141,1.223,4.632,1.902,7.102,2.124
			c3.946,0.356,7.903-0.325,11.806-1.003C252.496,219.828,258.323,218.64,262.542,215.38z"/>
		<path style="fill:#EBAF88;" d="M276.194,175.717c0,0,7.657-0.255,7.657,7.146c0,7.402-7.657,7.657-7.657,7.657
			s-5.881,27.145-27.564,27.819c-24.629,0.766-29.733-27.819-29.733-27.819s-7.657-0.255-7.657-7.657
			c0-7.401,7.657-7.146,7.657-7.146s-0.255-5.998,5.104-8.55c5.36-2.552,20.163-8.55,22.332-16.207
			C246.333,150.96,272.11,161.424,276.194,175.717z"/>
		<path style="fill:#EB806A;" d="M217.584,180.848c-0.307-0.386-0.659-0.767-1.045-1.075c-0.399-0.318-1.083-0.746-1.582-0.388
			c-0.191,0.137-0.322,0.416-0.167,0.637c0.213,0.304,0.585,0.449,0.832,0.732c0.245,0.282,0.434,0.619,0.631,0.936
			c0.122,0.196,0.247,0.39,0.357,0.593c0.086,0.159,0.158,0.301,0.202,0.422c0.02,0.056,0.028,0.115,0.046,0.171
			c-0.479-0.002-0.999,0.274-1.297,0.604c-0.41,0.455-0.625,1.018-0.542,1.63c0.079,0.586,0.401,1.114,0.96,1.35
			c0.664,0.28,1.346,0.072,1.871-0.389c0.679-0.597,1.007-1.586,0.945-2.474C218.721,182.554,218.223,181.652,217.584,180.848z"/>
		<path style="fill:#EB806A;" d="M276.556,183.596c-0.062,0.888,0.266,1.876,0.945,2.474c0.525,0.461,1.207,0.67,1.871,0.389
			c0.559-0.236,0.881-0.764,0.96-1.35c0.082-0.611-0.133-1.175-0.542-1.63c-0.298-0.33-0.818-0.606-1.297-0.604
			c0.018-0.056,0.026-0.115,0.046-0.171c0.044-0.121,0.116-0.263,0.202-0.422c0.11-0.203,0.235-0.397,0.357-0.593
			c0.197-0.317,0.385-0.654,0.631-0.936c0.246-0.283,0.618-0.428,0.832-0.732c0.155-0.221,0.024-0.5-0.167-0.637
			c-0.5-0.358-1.183,0.069-1.582,0.388c-0.386,0.308-0.738,0.689-1.045,1.075C277.126,181.652,276.628,182.554,276.556,183.596z"/>
		<path style="fill:#EB806A;" d="M276.194,175.717c-4.083-14.293-29.861-24.757-29.861-24.757
			c-2.17,7.657-16.972,13.654-22.332,16.207c-4.086,1.946-4.907,5.887-5.067,7.653c0.587-1.172,3.073-5.49,8.422-6.774
			c6.208-1.49,17.878-6.58,19.864-13.408C247.22,154.638,266.183,158.805,276.194,175.717z"/>
		<path style="fill:#25113B;" d="M280.468,224.714c-0.555-0.176-1.102-0.346-1.635-0.507c-4.744,6.903-11.709,11.924-19.967,14.327
			c-10.851,3.157-23.513,2.307-33.274-3.668c-2.502-1.531-4.805-3.404-6.797-5.559c-1.023-1.106-1.959-2.289-2.792-3.544
			c-0.298-0.449-0.566-0.915-0.831-1.382c-0.378,0.132-0.755,0.268-1.13,0.405c0.811,1.575,1.949,3.058,2.996,4.356
			c1.672,2.073,3.616,3.908,5.757,5.488c4.808,3.549,10.577,5.727,16.461,6.64c11.572,1.796,24.102-0.655,33.422-7.955
			C275.704,230.947,278.403,228.015,280.468,224.714z"/>
		<path style="fill:#25113B;" d="M201.548,276.272c-0.364-3.551-0.529-7.149-0.375-10.717c0.078-1.796,0.24-3.592,0.513-5.369
			c0.232-1.506,0.908-3.263,0.682-4.777c-0.027-0.179-0.306-0.248-0.418-0.11c-0.958,1.18-1.14,3.114-1.412,4.571
			c-0.322,1.727-0.55,3.473-0.696,5.223c-0.305,3.651-0.219,7.301,0.129,10.946c0.324,3.401,0.792,6.82,1.44,10.202
			c-1.377,0.005-2.755-0.036-4.126-0.17c-1.73-0.169-3.438-0.497-5.167-0.661c-0.501-0.047-0.509,0.656-0.11,0.813
			c1.649,0.649,3.423,0.929,5.176,1.146c1.496,0.185,3.002,0.267,4.509,0.289c0.713,3.424,1.62,6.8,2.793,10.066
			c0.096,0.268,0.574,0.255,0.537-0.073C204.214,290.485,202.285,283.471,201.548,276.272z"/>
		<path style="fill:#25113B;" d="M304.442,283.067c-0.217-0.035-0.404-0.079-0.625-0.059c-0.172,0.016-0.342,0.053-0.512,0.082
			c-0.366,0.063-0.733,0.115-1.098,0.186c-0.674,0.131-1.349,0.254-2.029,0.354c-0.678,0.1-1.358,0.171-2.034,0.28
			c-0.34,0.055-0.728,0.078-1.107,0.13c0.35-2.25,0.622-4.51,0.769-6.784c0.229-3.554,0.148-7.101-0.262-10.639
			c-0.396-3.412-0.871-6.867-1.941-10.134c-0.064-0.195-0.372-0.169-0.368,0.05c0.057,3.458,0.738,6.879,1.033,10.326
			c0.297,3.463,0.355,6.933,0.058,10.398c-0.297,3.47-0.882,6.915-1.569,10.327c-0.684,3.396-1.529,6.726-1.892,10.176
			c-0.055,0.526,0.697,0.541,0.859,0.116c1.279-3.348,2.031-6.818,2.709-10.332c0.147-0.763,0.283-1.527,0.412-2.293
			c0.446,0.042,0.913,0.022,1.324,0.024c0.715,0.003,1.421-0.062,2.131-0.143c0.726-0.082,1.45-0.182,2.171-0.3
			c0.708-0.116,1.526-0.239,2.116-0.659C304.959,283.907,305.007,283.159,304.442,283.067z"/>
		<path style="fill:#EB806A;" d="M192.391,273.859c-0.024-0.175-0.291-0.152-0.332,0c-0.561,2.086-0.633,4.302-0.83,6.445
			c-0.211,2.294-0.356,4.595-0.516,6.894c-0.16,2.297-0.269,4.596-0.374,6.896c-0.085,1.866-0.641,4.394,0.205,6.126
			c0.143,0.292,0.577,0.257,0.729,0c0.484-0.819,0.501-1.745,0.553-2.677c0.064-1.148,0.091-2.3,0.14-3.449
			c0.097-2.299,0.204-4.596,0.275-6.896c0.071-2.298,0.171-4.596,0.219-6.894C192.505,278.164,192.684,275.985,192.391,273.859z"/>
		<path style="fill:#EB806A;" d="M306.014,276.267c-0.055-1.325-0.138-2.644-0.253-3.965c-0.087-1.009-0.082-2.119-0.651-2.988
			c-0.012-0.018-0.043-0.022-0.054,0c-0.473,0.911-0.373,1.986-0.379,2.988c-0.009,1.322-0.007,2.643,0.003,3.965
			c0.018,2.479-0.019,4.958-0.033,7.438c-0.013,2.479-0.063,4.959-0.147,7.437c-0.081,2.379-0.673,5.228,0.115,7.517
			c0.084,0.245,0.468,0.35,0.6,0.078c1.019-2.096,0.76-4.821,0.837-7.1c0.086-2.56,0.135-5.122,0.145-7.684
			C306.208,281.39,306.121,278.827,306.014,276.267z"/>
		<path style="fill:#25113B;" d="M263.976,379.928c-19.177-1.672-37.875-6.107-55.957-12.65c-2.778-1.005-5.521-2.157-8.284-3.245
			c0.231-0.313,0.455-0.63,0.681-0.945c0.171-0.239,0.361-0.467,0.502-0.725c0.092-0.169,0.172-0.335,0.221-0.522
			c0.032-0.121,0.062-0.239,0.045-0.367c-0.009-0.066-0.027-0.123-0.041-0.188c-0.039-0.177-0.206-0.263-0.369-0.281
			c0.017,0.002,0.081,0.012,0.029,0.003c-0.056-0.01-0.117-0.022-0.174-0.024c-0.109-0.005-0.202,0.038-0.299,0.077
			c-0.099,0.04-0.207,0.074-0.297,0.129c-0.066,0.04-0.125,0.091-0.187,0.138c-0.287,0.216-0.524,0.466-0.769,0.727
			c-0.386,0.411-0.758,0.843-1.083,1.306c-1.725-0.653-3.461-1.266-5.223-1.78c-0.166-0.049-0.252,0.181-0.114,0.271
			c3.997,2.616,8.596,4.39,13.024,6.147c4.497,1.784,9.067,3.371,13.686,4.811c9.306,2.902,18.792,5.212,28.399,6.87
			c5.101,0.881,10.226,1.603,15.373,2.153c-1.35,10.826-3.025,21.621-5.143,32.323c-0.228,1.153,1.552,1.639,1.763,0.486
			c2.005-10.956,3.7-21.956,4.975-33.022C265.145,381.079,264.902,380.009,263.976,379.928z"/>
		<path style="fill:#25113B;" d="M317.398,356.129c-1.723,0.934-3.252,2.351-4.868,3.467c-0.095,0.065-0.193,0.125-0.288,0.19
			c-0.043-0.015-0.086-0.029-0.129-0.046c-0.231-0.09-0.465-0.173-0.695-0.265c-0.201-0.092-0.4-0.194-0.608-0.259
			c-0.184-0.057-0.368-0.112-0.55-0.177c-0.299-0.107-0.703,0.068-0.849,0.345c-0.16,0.303-0.119,0.659,0.117,0.911
			c0.212,0.225,0.429,0.457,0.69,0.626c0.052,0.034,0.108,0.061,0.162,0.093c-0.952,0.608-1.913,1.202-2.891,1.771
			c-3.504,2.04-7.098,3.907-10.799,5.566c-7.426,3.328-15.146,5.908-23.022,7.939c-4.412,1.137-9.017,1.861-13.29,3.422
			c-0.446,0.163-0.403,0.859,0.116,0.859c4.048,0.003,8.11-0.983,12.049-1.889c4.051-0.932,8.066-2.033,12.024-3.304
			c7.83-2.516,15.448-5.693,22.598-9.77c1.974-1.126,3.895-2.346,5.796-3.591c1.915-1.254,4.171-2.524,5.735-4.209
			C319.521,356.92,318.481,355.542,317.398,356.129z"/>
		<path style="fill:#25113B;" d="M230.077,316.724c-1.708-0.798-3.546-1.236-5.245-2.072c-0.838-0.412-1.617-0.901-2.394-1.417
			c-0.764-0.508-1.497-1.22-2.354-1.546c-0.246-0.094-0.496,0.188-0.423,0.423c0.281,0.897,1.119,1.643,1.805,2.254
			c0.773,0.689,1.676,1.285,2.581,1.785c1.766,0.976,3.877,1.766,5.912,1.472C230.371,317.565,230.443,316.896,230.077,316.724z"/>
		<path style="fill:#25113B;" d="M279.973,312.475c-1.703,0.616-3.159,1.945-4.68,2.912c-1.612,1.026-3.28,1.957-5.001,2.787
			c-3.479,1.678-7.149,2.93-10.896,3.859c-7.48,1.855-15.439,2.171-23.032,0.817c-2.135-0.381-4.227-0.918-6.308-1.522
			c-1.899-0.551-3.889-1.567-5.877-1.648c-0.085-0.003-0.119,0.103-0.066,0.16c1.228,1.33,3.193,1.962,4.847,2.595
			c1.843,0.704,3.748,1.246,5.669,1.695c3.855,0.901,7.819,1.382,11.777,1.443c7.959,0.123,15.934-1.56,23.182-4.834
			c2.086-0.942,4.117-2.017,6.071-3.211c1.758-1.074,3.957-2.264,5.108-4.019C281.091,313.014,280.548,312.267,279.973,312.475z"/>
		<path style="fill:#25113B;" d="M240.874,171.87c-0.284-0.843-0.951-1.132-1.712-1.432c-0.384-0.151-0.781-0.27-1.185-0.351
			c-1.052-0.212-2.106-0.249-3.166-0.085c-0.91,0.141-1.856,0.457-2.655,0.917c-0.793,0.457-1.841,1.316-1.806,2.321
			c0.013,0.388,0.297,0.631,0.668,0.668c0.425,0.042,0.805-0.141,1.116-0.252c0.229-0.082,0.448-0.184,0.673-0.275
			c-0.151,0.061,0.051-0.016,0.107-0.036c0.077-0.028,0.153-0.054,0.23-0.083c0.368-0.138,0.734-0.267,1.118-0.357
			c0.182-0.043,0.367-0.071,0.55-0.108c0.016-0.003,0.009-0.003,0.016-0.005c0.016-0.001,0.016,0,0.048-0.002
			c0.103-0.007,0.206-0.018,0.308-0.026c0.373-0.03,0.744-0.043,1.117-0.023c0.104,0.005,0.207,0.015,0.31,0.022
			c0.02,0.001,0.029,0.002,0.043,0.003c0.186,0.029,0.371,0.062,0.554,0.105c0.181,0.043,0.36,0.092,0.537,0.149
			c0.098,0.031,0.195,0.068,0.293,0.101c0.045,0.015,0.05,0.017,0.063,0.022c0.613,0.271,1.091,0.569,1.814,0.415
			C240.612,173.41,241.1,172.543,240.874,171.87z"/>
		<path style="fill:#25113B;" d="M238.579,180.711c-0.197-1.845-1.191-3.521-2.93-3.424c-3.218,0.18-3.759,5.255-1.791,7.147
			c0.678,0.652,1.612,1.042,2.557,0.816C238.09,184.851,238.79,182.684,238.579,180.711z"/>
		<path style="fill:#25113B;" d="M255.573,171.926c0.275-0.846,0.939-1.142,1.697-1.45c0.382-0.156,0.777-0.278,1.181-0.364
			c1.049-0.223,2.104-0.271,3.165-0.118c0.912,0.131,1.861,0.437,2.664,0.889c0.798,0.449,1.855,1.296,1.831,2.301
			c-0.009,0.388-0.29,0.634-0.66,0.675c-0.425,0.047-0.806-0.132-1.119-0.24c-0.23-0.079-0.45-0.179-0.676-0.267
			c0.152,0.059-0.052-0.016-0.108-0.035c-0.077-0.027-0.154-0.052-0.231-0.08c-0.37-0.134-0.737-0.259-1.122-0.345
			c-0.183-0.041-0.368-0.067-0.551-0.102c-0.016-0.003-0.009-0.003-0.016-0.004c-0.016-0.001-0.016,0-0.048-0.002
			c-0.103-0.006-0.206-0.016-0.309-0.023c-0.373-0.026-0.744-0.035-1.118-0.011c-0.104,0.006-0.207,0.018-0.31,0.026
			c-0.02,0.002-0.029,0.003-0.043,0.004c-0.185,0.031-0.37,0.066-0.553,0.111c-0.18,0.044-0.359,0.096-0.535,0.154
			c-0.098,0.033-0.194,0.07-0.292,0.104c-0.045,0.016-0.049,0.018-0.063,0.022c-0.61,0.278-1.085,0.581-1.809,0.435
			C255.851,173.463,255.354,172.601,255.573,171.926z"/>
		<path style="fill:#25113B;" d="M257.78,180.711c0.197-1.845,1.191-3.521,2.93-3.424c3.218,0.18,3.759,5.255,1.791,7.147
			c-0.678,0.652-1.612,1.042-2.557,0.816C258.269,184.851,257.569,182.684,257.78,180.711z"/>
		<path style="fill:#EB806A;" d="M251.715,186.581c-0.108-0.022-0.301-0.081-0.486-0.04c-0.132,0.03-0.267,0.074-0.395,0.117
			c-0.294,0.099-0.547,0.221-0.841,0.316c-0.583,0.189-1.128,0.304-1.726,0.307c-0.574,0.003-1.152-0.079-1.703-0.242
			c-0.577-0.171-1.106-0.441-1.666-0.651c-0.271-0.102-0.45,0.232-0.345,0.448c0.638,1.304,2.364,1.862,3.714,1.923
			c0.711,0.032,1.467-0.047,2.135-0.3c0.394-0.149,0.76-0.316,1.083-0.59c0.12-0.102,0.219-0.219,0.317-0.342
			c0.163-0.205,0.176-0.425,0.183-0.589C251.992,186.785,251.867,186.612,251.715,186.581z"/>
		<path style="fill:#25113B;" d="M236.957,194.657c0.206-3.506,22.016-2.98,23.506-0.497c1.49,2.483-2.98,10.429-11.919,10.429
			C241.079,204.589,236.791,197.471,236.957,194.657z"/>
		<path style="fill:#FF5265;" d="M240.169,200.955c1.977,2.004,4.808,3.634,8.375,3.634c4.207,0,7.409-1.765,9.481-3.887
			C252.437,198.122,245.686,198.239,240.169,200.955z"/>
		<path style="fill:#FFFFFF;" d="M260.571,194.431c-0.036-0.091-0.06-0.191-0.108-0.271c-1.48-2.467-23.002-3-23.489,0.43
			c1.155,0.845,2.932,1.079,4.459,1.111c2.98,0.063,5.959,0.125,8.939,0.188c2.012,0.042,4.029,0.084,6.033-0.094
			c1.371-0.122,2.784-0.367,3.918-1.148C260.415,194.583,260.485,194.5,260.571,194.431z"/>
		<path style="fill:#FF5265;" d="M234.639,189.691c0,2.011-2.52,3.642-5.628,3.642c-3.108,0-5.628-1.631-5.628-3.642
			c0-2.011,2.52-3.642,5.628-3.642C232.12,186.049,234.639,187.679,234.639,189.691z"/>
		<ellipse style="fill:#FF5265;" cx="266.919" cy="189.691" rx="5.628" ry="3.642"/>
		<path style="fill:#FF5265;" d="M233.342,176.259c-0.022-0.053-0.045-0.106-0.067-0.159c-0.056-0.094-0.133-0.166-0.224-0.224
			c0.014,0.011,0.029,0.022,0.043,0.033c-0.102-0.079-0.186-0.174-0.282-0.259c-0.097-0.085-0.185-0.178-0.264-0.279
			c0.036,0.046,0.072,0.093,0.108,0.139c-0.074-0.096-0.136-0.205-0.226-0.287c-0.049-0.045-0.096-0.091-0.14-0.141
			c-0.041-0.032-0.082-0.063-0.122-0.095c-0.048-0.02-0.096-0.041-0.144-0.061c-0.132-0.036-0.269-0.022-0.393,0.031
			c-0.099,0.042-0.176,0.101-0.242,0.186c-0.075,0.097-0.144,0.24-0.13,0.366c0.023,0.217,0.046,0.423,0.158,0.614
			c0.082,0.141,0.184,0.271,0.287,0.398c0.173,0.212,0.412,0.376,0.66,0.492c0.077,0.049,0.159,0.075,0.248,0.079
			c0.089,0.02,0.177,0.016,0.266-0.012c0.155-0.043,0.323-0.162,0.399-0.307C233.357,176.618,233.398,176.43,233.342,176.259z"/>
		<path style="fill:#FF5265;" d="M232.024,177.75c0-0.006-0.003-0.012-0.003-0.018c-0.001-0.047-0.013-0.09-0.025-0.135
			c-0.029-0.137-0.083-0.271-0.18-0.368c-0.064-0.064-0.14-0.109-0.222-0.144c-0.033-0.014-0.066-0.028-0.1-0.042
			c-0.086-0.037-0.173-0.088-0.266-0.103c-0.038-0.006-0.076-0.011-0.114-0.016c-0.015-0.002-0.03-0.004-0.046-0.006
			c-0.041-0.006-0.082-0.011-0.123-0.017c-0.067-0.018-0.134-0.018-0.201,0c-0.041,0.001-0.081,0.007-0.12,0.019
			c-0.059,0.025-0.119,0.05-0.178,0.075c-0.014,0.006-0.027,0.012-0.041,0.017c-0.078,0.033-0.134,0.073-0.202,0.138
			c-0.034,0.044-0.068,0.088-0.102,0.132c-0.048,0.075-0.073,0.155-0.077,0.242c-0.016,0.058-0.016,0.115,0,0.173
			c0.004,0.087,0.03,0.167,0.077,0.242c0.06,0.121,0.248,0.295,0.362,0.355c0.121,0.064,0.249,0.094,0.382,0.119
			c0.098,0.019,0.194,0.031,0.293,0.025c0.034-0.002,0.068-0.004,0.102-0.006c0.019-0.001,0.038-0.002,0.056-0.003
			c0.039-0.001,0.078-0.006,0.116-0.014c0.063,0,0.122-0.016,0.177-0.048c0.092-0.039,0.163-0.075,0.235-0.155
			c0.026-0.029,0.034-0.066,0.055-0.095c0.009-0.011,0.024-0.017,0.032-0.029c0.049-0.053,0.082-0.116,0.099-0.188
			c0.012-0.054,0.012-0.109,0.011-0.164C232.021,177.741,232.023,177.745,232.024,177.75z"/>
		<g>
			<path style="fill:#FF5265;" d="M265.314,175.631c-0.011,0.027-0.022,0.051-0.033,0.077c-0.01,0.023-0.02,0.048-0.03,0.071
				C265.272,175.73,265.293,175.68,265.314,175.631z"/>
			<path style="fill:#FF5265;" d="M265.343,175.452c0.003-0.081-0.014-0.156-0.051-0.226c-0.049-0.116-0.128-0.216-0.24-0.28
				c-0.068-0.039-0.144-0.066-0.217-0.094c-0.137-0.051-0.29-0.032-0.429-0.005c-0.073,0.015-0.147,0.032-0.218,0.056
				c-0.26,0.089-0.482,0.265-0.683,0.449c-0.155,0.143-0.302,0.307-0.389,0.5c-0.089,0.197-0.169,0.394-0.214,0.605
				c-0.035,0.166-0.029,0.359,0.067,0.508c0.079,0.122,0.18,0.213,0.315,0.27c0.31,0.131,0.64,0.008,0.823-0.27
				c0.011-0.017,0.024-0.034,0.036-0.051c0.035-0.042,0.069-0.084,0.107-0.123c0.056-0.057,0.119-0.107,0.17-0.168
				c0.103-0.125,0.219-0.237,0.346-0.337c-0.051,0.04-0.103,0.08-0.155,0.12c0.129-0.099,0.26-0.191,0.378-0.303
				c0.034-0.032,0.07-0.062,0.105-0.093c0.097-0.086,0.141-0.191,0.186-0.302c0.014-0.033,0.03-0.066,0.042-0.1
				C265.329,175.556,265.337,175.504,265.343,175.452z"/>
		</g>
		<path style="fill:#FF5265;" d="M266.368,177.167c-0.016-0.057-0.045-0.106-0.086-0.148c-0.047-0.073-0.11-0.131-0.188-0.173
			c-0.08-0.043-0.167-0.076-0.255-0.1c-0.173-0.046-0.285-0.025-0.458,0.002c-0.081,0.013-0.161,0.032-0.239,0.057
			c-0.142,0.047-0.251,0.114-0.357,0.219c-0.025,0.025-0.05,0.051-0.073,0.078c-0.051,0.059-0.099,0.118-0.133,0.188
			c-0.03,0.063-0.057,0.128-0.082,0.193c-0.038,0.098-0.01,0.26,0.045,0.346c0.062,0.096,0.154,0.181,0.269,0.207
			c0.056,0.012,0.109,0.034,0.166,0.043c0.117,0.019,0.234,0.064,0.353,0.054c0.2-0.017,0.411,0.012,0.603-0.061
			c0.108-0.041,0.213-0.089,0.296-0.173c0.035-0.045,0.07-0.09,0.105-0.136c0.049-0.077,0.076-0.16,0.08-0.249
			c0.016-0.059,0.016-0.119,0-0.178C266.414,177.276,266.399,177.22,266.368,177.167z"/>
		<path style="fill:#FFFFFF;" d="M238.485,177.782c-0.064-0.23-0.18-0.429-0.348-0.598c-0.091-0.071-0.183-0.141-0.274-0.212
			c-0.211-0.123-0.439-0.184-0.684-0.185c-0.187-0.007-0.361,0.032-0.522,0.117c-0.168,0.055-0.313,0.148-0.436,0.28
			c-0.132,0.123-0.225,0.268-0.28,0.436c-0.085,0.161-0.124,0.336-0.117,0.522c0.016,0.12,0.032,0.24,0.048,0.36
			c0.064,0.23,0.18,0.429,0.348,0.598c0.091,0.071,0.183,0.141,0.274,0.212c0.211,0.123,0.439,0.184,0.684,0.185
			c0.186,0.007,0.361-0.032,0.522-0.117c0.168-0.055,0.313-0.148,0.436-0.28c0.132-0.123,0.226-0.268,0.28-0.436
			c0.085-0.161,0.124-0.335,0.117-0.522C238.517,178.022,238.501,177.902,238.485,177.782z"/>
		<path style="fill:#FFFFFF;" d="M263.764,177.782c-0.064-0.23-0.18-0.429-0.348-0.598c-0.091-0.071-0.183-0.141-0.274-0.212
			c-0.211-0.123-0.439-0.184-0.684-0.185c-0.187-0.007-0.361,0.032-0.522,0.117c-0.168,0.055-0.313,0.148-0.436,0.28
			c-0.132,0.123-0.226,0.268-0.28,0.436c-0.085,0.161-0.124,0.336-0.117,0.522c0.016,0.12,0.032,0.24,0.048,0.36
			c0.064,0.23,0.18,0.429,0.348,0.598c0.091,0.071,0.183,0.141,0.274,0.212c0.211,0.123,0.439,0.184,0.684,0.185
			c0.186,0.007,0.361-0.032,0.522-0.117c0.168-0.055,0.313-0.148,0.436-0.28c0.132-0.123,0.225-0.268,0.28-0.436
			c0.085-0.161,0.124-0.335,0.117-0.522C263.797,178.022,263.78,177.902,263.764,177.782z"/>
	</g>
</g>
</svg>
