<?xml version="1.0" encoding="utf-8"?>
<!-- Generator: Adobe Illustrator 27.5.0, SVG Export Plug-In . SVG Version: 6.00 Build 0)  -->
<svg version="1.1" xmlns="http://www.w3.org/2000/svg" xmlns:xlink="http://www.w3.org/1999/xlink" x="0px" y="0px"
	 viewBox="0 0 500 500" style="enable-background:new 0 0 500 500;" xml:space="preserve">
	 
  <defs>
    <clipPath id="boxClip">
      <path
        d="M136.043,108.974c-42.464,26.737-86.553,223.12-20.681,280.836s281.872,13.679,296.426-48.174
           s4.596-203.556-30.638-232.662C345.915,79.868,198.085,69.91,136.043,108.974z"/>
    </clipPath>
  </defs>
<g id="BACKGROUND">
	<g>
		<g>
			<defs>
				<rect id="SVGID_1_" width="500" height="500"/>
			</defs>
			<clipPath id="SVGID_00000177468448153141649960000015973645372027719854_">
				<use xlink:href="#SVGID_1_"  style="overflow:visible;"/>
			</clipPath>
		</g>
	</g>
</g>
<g id="OBJECTS">
	<path style="fill:#FFFFFF;" d="M136.043,108.974c-42.464,26.737-86.553,223.12-20.681,280.836s281.872,13.679,296.426-48.174
		s4.596-203.556-30.638-232.662C345.915,79.868,198.085,69.91,136.043,108.974z"/>
	<g>
		<defs>
			<rect id="SVGID_00000081608380485957349620000017419275164648269243_" width="500" height="500"/>
		</defs>
		<clipPath id="SVGID_00000050644641615191744540000010314317654940600452_">
			<use xlink:href="#SVGID_00000081608380485957349620000017419275164648269243_"  style="overflow:visible;"/>
		</clipPath>
		<g style="clip-path:url(#SVGID_00000050644641615191744540000010314317654940600452_);">
			<g>
				
				
				<g clip-path="url(#boxClip)">
					<path style="fill:#384584;" d="M303.98,535.11h-22.32l-5.28-34.16v-0.01L274.69,490v-0.01l-5.07-32.8l-2.38-15.42l-14.36-92.95
						v-0.01l-1.69-10.91l-1.41-9.13l-1.24-0.13l-0.87,9.54l-0.59,6.46l-5.33,58.31l-1.66,18.13l-4.08,44.66l-0.83,9.08l-5.51,60.29
						h-22.95l0.34-48.63l0.12-17.76l0.12-16.39l0.12-17.66l0.19-27l0.07-9.73l0.22-32.45l0.08-11.37c0-0.01,0-0.01,0-0.02
						l0.15-20.92c0.01-1.02,0.03-2.05,0.06-3.07c0.04-1.69,0.12-3.37,0.24-5.06c0-0.01,0-0.01,0-0.02
						c0.64-9.83,2.33-19.58,5.04-29.05c0.62-2.2,1.3-4.38,2.04-6.55L216,288l6.5-19.14l19.08-9.73l1.02,4.94l30.18,4.83l6.13,11.34
						c2.45,4.54,4.64,9.2,6.56,13.95v0.01c1.32,3.29,2.52,6.63,3.57,10.01c2.07,6.53,3.63,13.22,4.68,20
						c0.55,3.45,0.95,6.92,1.22,10.41c0.12,1.5,0.21,3.01,0.28,4.52l4.45,99.64l0.42,9.4l0.95,21.19l0.45,10.1L303.98,535.11z"/>
					<g style="opacity:0.1;">
						<path style="fill:#FFFFFF;" d="M222.99,297.41c-1.02,1.75-3.71,2.69-5.47,1.44c-1.35-0.96-2.7-1.91-4.05-2.87
							c0.62-2.2,1.3-4.38,2.04-6.55L216,288c1.85,1.32,3.7,2.63,5.55,3.94C223.32,293.19,224.16,295.41,222.99,297.41z"/>
						<path style="fill:#FFFFFF;" d="M237.847,336.874c-2.567-1.819-5.134-3.639-7.701-5.459c-1.764-1.25-4.45-0.314-5.473,1.435
							c-1.172,2.004-0.333,4.22,1.435,5.473c2.567,1.82,5.134,3.639,7.701,5.459c1.763,1.25,4.45,0.314,5.473-1.435
							C240.455,340.343,239.615,338.127,237.847,336.874z"/>
						<path style="fill:#FFFFFF;" d="M238.642,367.328c-2.567-1.819-5.134-3.639-7.701-5.459c-1.763-1.25-4.45-0.314-5.473,1.435
							c-1.172,2.004-0.333,4.22,1.435,5.473c2.567,1.819,5.134,3.639,7.701,5.459c1.763,1.25,4.45,0.314,5.473-1.435
							C241.249,370.797,240.41,368.581,238.642,367.328z"/>
						<path style="fill:#FFFFFF;" d="M215.14,407.69c-1.02,1.75-3.71,2.69-5.47,1.44c-0.69-0.49-1.38-0.97-2.06-1.46l0.07-9.73
							c2,1.43,4.02,2.85,6.03,4.28C215.47,403.47,216.31,405.69,215.14,407.69z"/>
						<path style="fill:#FFFFFF;" d="M235.805,433.946c-2.567-1.82-5.134-3.639-7.701-5.459c-1.763-1.25-4.45-0.314-5.473,1.435
							c-1.172,2.004-0.333,4.22,1.435,5.473c2.567,1.819,5.134,3.639,7.701,5.459c1.763,1.25,4.45,0.314,5.473-1.435
							C238.413,437.414,237.573,435.199,235.805,433.946z"/>
						<path style="fill:#FFFFFF;" d="M301.49,479.47c-1.72-1.23-3.44-2.45-5.17-3.67c-1.77-1.25-2.61-3.47-1.43-5.47
							c1.02-1.75,3.71-2.69,5.47-1.44c0.23,0.16,0.45,0.32,0.68,0.48L301.49,479.47z"/>
						<path style="fill:#FFFFFF;" d="M236.01,465.74l-0.83,9.08c-0.2-0.08-0.4-0.19-0.58-0.32c-2.56-1.82-5.13-3.64-7.7-5.45
							c-1.76-1.26-2.6-3.47-1.43-5.48c1.02-1.75,3.71-2.68,5.47-1.43C232.63,463.34,234.32,464.54,236.01,465.74z"/>
						<path style="fill:#FFFFFF;" d="M270.83,308.789c-2.567-1.82-5.134-3.639-7.701-5.459c-1.763-1.25-4.45-0.314-5.473,1.435
							c-1.172,2.005-0.332,4.22,1.435,5.473c2.567,1.819,5.134,3.639,7.701,5.459c1.763,1.25,4.45,0.314,5.473-1.435
							C273.437,312.258,272.597,310.042,270.83,308.789z"/>
						<path style="fill:#FFFFFF;" d="M294.94,334.62c-1.44-1.02-2.87-2.03-4.3-3.05c-1.77-1.26-2.61-3.47-1.44-5.48
							c0.85-1.45,2.86-2.34,4.52-1.88C294.27,327.66,294.67,331.13,294.94,334.62z"/>
						<path style="fill:#FFFFFF;" d="M247.67,338.18l-0.59,6.46c-1.4-1.28-1.96-3.24-0.91-5.03
							C246.51,339.02,247.05,338.52,247.67,338.18z"/>
						<path style="fill:#FFFFFF;" d="M260.78,349.1c-1.02,1.75-3.71,2.69-5.47,1.44c-0.81-0.57-1.62-1.15-2.43-1.72v-0.01
							l-1.69-10.91c0.16,0.08,0.31,0.17,0.46,0.27c2.56,1.82,5.13,3.64,7.7,5.46C261.11,344.88,261.95,347.1,260.78,349.1z"/>
						<path style="fill:#FFFFFF;" d="M294.528,380.788c-2.567-1.819-5.134-3.639-7.701-5.459c-1.763-1.25-4.45-0.314-5.473,1.435
							c-1.172,2.004-0.332,4.22,1.435,5.473c2.567,1.819,5.134,3.639,7.701,5.459c1.763,1.25,4.45,0.314,5.473-1.435
							C297.135,384.256,296.296,382.041,294.528,380.788z"/>
						<path style="fill:#FFFFFF;" d="M300.09,448.18c-0.62-0.02-1.22-0.19-1.75-0.57c-2.57-1.82-5.14-3.64-7.7-5.46
							c-1.77-1.25-2.61-3.47-1.44-5.47c1.02-1.75,3.71-2.69,5.47-1.44c1.67,1.18,3.33,2.36,5,3.54L300.09,448.18z"/>
						<path style="fill:#FFFFFF;" d="M284.05,501.07c-1.02,1.75-3.71,2.68-5.47,1.43c-0.73-0.52-1.47-1.04-2.2-1.55v-0.01
							L274.69,490c0.07,0.04,0.15,0.09,0.22,0.14c2.57,1.82,5.14,3.64,7.7,5.46C284.38,496.85,285.22,499.06,284.05,501.07z"/>
						<path style="fill:#FFFFFF;" d="M246.489,278.425c-2.567-1.82-5.134-3.639-7.701-5.459c-1.764-1.25-4.45-0.314-5.473,1.435
							c-1.172,2.004-0.332,4.22,1.435,5.473c2.567,1.82,5.134,3.639,7.701,5.459c1.764,1.25,4.45,0.314,5.473-1.435
							C249.097,281.893,248.257,279.678,246.489,278.425z"/>
						<path style="fill:#FFFFFF;" d="M239.108,295.344c-1.982-0.544-4.48,0.668-4.92,2.794c-0.704,3.399-1.408,6.799-2.112,10.198
							c-0.438,2.114,0.616,4.322,2.794,4.921c1.982,0.545,4.48-0.668,4.921-2.794c0.704-3.4,1.408-6.799,2.112-10.198
							C242.339,298.151,241.285,295.943,239.108,295.344z"/>
						<path style="fill:#FFFFFF;" d="M267.08,374.939c-1.982-0.544-4.48,0.668-4.92,2.794c-0.704,3.399-1.408,6.799-2.112,10.198
							c-0.438,2.114,0.616,4.322,2.794,4.921c1.982,0.545,4.48-0.668,4.921-2.794c0.704-3.4,1.408-6.799,2.112-10.198
							C270.311,377.746,269.257,375.538,267.08,374.939z"/>
						<path style="fill:#FFFFFF;" d="M216.32,353.2c-0.7,3.4-1.4,6.8-2.11,10.2c-0.44,2.12-2.94,3.34-4.92,2.79
							c-0.53-0.15-1-0.39-1.39-0.7l0.08-11.37c0-0.01,0-0.01,0-0.02c0.21-1.01,0.42-2.02,0.63-3.03c0.44-2.12,2.94-3.33,4.92-2.79
							C215.71,348.88,216.76,351.09,216.32,353.2z"/>
						<path style="fill:#FFFFFF;" d="M241.75,402.95l-1.66,18.13c-0.54,0.07-1.08,0.05-1.59-0.09c-2.18-0.6-3.23-2.81-2.79-4.92
							c0.7-3.4,1.4-6.8,2.11-10.2C238.19,404.08,240.01,402.94,241.75,402.95z"/>
						<path style="fill:#FFFFFF;" d="M229.219,491.044c-1.982-0.544-4.48,0.668-4.921,2.794c-0.704,3.4-1.408,6.799-2.112,10.198
							c-0.438,2.113,0.616,4.322,2.794,4.92c1.982,0.544,4.48-0.668,4.92-2.794c0.704-3.4,1.408-6.799,2.112-10.198
							C232.45,493.851,231.396,491.642,229.219,491.044z"/>
						<path style="fill:#FFFFFF;" d="M211.31,439.72c-0.7,3.4-1.4,6.8-2.11,10.2c-0.22,1.07-0.96,1.91-1.9,2.41l0.12-17.66
							c0.37-0.01,0.74,0.03,1.1,0.13C210.7,435.4,211.75,437.61,211.31,439.72z"/>
						<path style="fill:#FFFFFF;" d="M227.045,381.642c-1.982-0.545-4.48,0.668-4.921,2.794c-0.704,3.399-1.408,6.799-2.112,10.198
							c-0.438,2.113,0.616,4.322,2.794,4.92c1.982,0.544,4.48-0.668,4.921-2.794c0.704-3.4,1.408-6.799,2.112-10.199
							C230.276,384.449,229.222,382.241,227.045,381.642z"/>
						<path style="fill:#FFFFFF;" d="M212.75,473.37c-0.7,3.4-1.41,6.8-2.11,10.2c-0.35,1.66-1.95,2.77-3.58,2.91l0.12-17.76
							c0.87-0.4,1.88-0.51,2.78-0.27C212.13,469.05,213.19,471.26,212.75,473.37z"/>
						<path style="fill:#FFFFFF;" d="M269.916,277.172c-1.982-0.544-4.48,0.668-4.92,2.794c-0.704,3.4-1.408,6.799-2.112,10.198
							c-0.438,2.113,0.616,4.322,2.794,4.921c1.982,0.544,4.48-0.668,4.921-2.794c0.704-3.399,1.408-6.799,2.112-10.198
							C273.148,279.979,272.094,277.77,269.916,277.172z"/>
						<path style="fill:#FFFFFF;" d="M283.874,339.194c-1.982-0.544-4.48,0.668-4.921,2.794c-0.704,3.4-1.408,6.799-2.112,10.198
							c-0.438,2.113,0.616,4.322,2.794,4.92c1.982,0.544,4.48-0.668,4.92-2.794c0.704-3.4,1.408-6.799,2.112-10.198
							C287.105,342.001,286.051,339.793,283.874,339.194z"/>
						<path style="fill:#FFFFFF;" d="M274.88,444.15c-0.7,3.4-1.4,6.8-2.11,10.2c-0.31,1.51-1.68,2.56-3.15,2.84l-2.38-15.42
							c0.57-1.96,2.95-3.07,4.85-2.54C274.27,439.83,275.32,442.03,274.88,444.15z"/>
						<path style="fill:#FFFFFF;" d="M214.967,314.448c-1.982-0.544-4.48,0.669-4.92,2.794c-0.704,3.4-1.408,6.799-2.112,10.198
							c-0.438,2.113,0.616,4.322,2.794,4.921c1.982,0.544,4.48-0.669,4.921-2.794c0.704-3.399,1.408-6.799,2.112-10.198
							C218.198,317.255,217.144,315.047,214.967,314.448z"/>
						<path style="fill:#FFFFFF;" d="M289.04,304.21c-0.61,0.13-1.24,0.12-1.83-0.04c-2.17-0.6-3.23-2.81-2.79-4.92
							c0.35-1.68,0.7-3.37,1.05-5.05C286.79,297.49,287.99,300.83,289.04,304.21z"/>
						<path style="fill:#FFFFFF;" d="M278.863,405.983c-1.982-0.544-4.48,0.668-4.921,2.794c-0.704,3.399-1.408,6.799-2.112,10.198
							c-0.438,2.113,0.616,4.322,2.794,4.921c1.982,0.544,4.48-0.668,4.921-2.794c0.704-3.4,1.408-6.799,2.112-10.198
							C282.094,408.79,281.041,406.581,278.863,405.983z"/>
						<path style="fill:#FFFFFF;" d="M283.874,466.121c-1.982-0.544-4.48,0.668-4.921,2.794c-0.704,3.4-1.408,6.799-2.112,10.199
							c-0.438,2.113,0.616,4.322,2.794,4.92c1.982,0.544,4.48-0.668,4.92-2.794c0.704-3.4,1.408-6.799,2.112-10.199
							C287.105,468.928,286.051,466.72,283.874,466.121z"/>
					</g>
					<path style="fill:#222E5E;" d="M247.44,328.572c-0.025,0-0.05-0.003-0.076-0.011c-2.836-0.822-5.47-2.309-7.828-4.415
						c-0.112-0.1-0.122-0.272-0.022-0.384c0.099-0.111,0.272-0.122,0.384-0.021c2.297,2.053,4.861,3.499,7.618,4.299
						c0.144,0.042,0.227,0.193,0.185,0.336C247.667,328.494,247.558,328.572,247.44,328.572z"/>
				</g>
			</g>
			<g>
				<path style="fill:#162A45;" d="M278.203,152.354c-1.186-3.577-4.178-6.377-7.628-7.893c1.812-1.366,2.586-3.958,1.819-6.094
					c-0.767-2.136-3.013-3.643-5.28-3.545c2.613-3.476,1.867-8.745-1.005-12.01c-2.872-3.265-7.391-4.712-11.739-4.742
					c-0.674-4.464-4.415-8.294-8.862-9.072c-4.447-0.778-9.266,1.554-11.416,5.524c-2.251-2.045-5.767-2.559-8.509-1.244
					c-1.728,0.829-3.078,2.352-3.797,4.124c-0.654-0.218-1.385-0.204-1.999,0.115c-1.168,0.607-1.703,2.197-1.139,3.387
					c-5.745-0.003-11.351,3.505-13.86,8.674c-2.509,5.169-1.797,11.743,1.759,16.255c-2.963-0.935-6.469,1.579-6.535,4.686
					c-0.066,3.107,3.33,5.766,6.33,4.958c-2.741,1.844-3.484,5.887-2.025,8.851c1.459,2.964,4.708,4.794,7.998,5.096
					c3.29,0.301,6.588-0.757,9.461-2.388c-1.725,2.223-0.744,5.776,1.572,7.375c2.316,1.599,5.472,1.519,8.095,0.498
					c2.623-1.021,4.833-2.857,6.991-4.663c1.035,2.366,3.068,4.523,5.639,4.763c2.571,0.24,5.292-2.261,4.551-4.734
					c2.258,2.077,5.12,3.595,8.178,3.846c3.058,0.251,6.294-0.891,8.202-3.294c1.908-2.403,2.219-6.079,0.412-8.559
					c2.506,2.814,7.325,2.844,10.205,0.415C278.503,160.254,279.389,155.93,278.203,152.354z"/>
				<g>
					<path style="fill:#82554C;" d="M166.042,253.085l-31.258-52.705c-1.506-2.539-0.668-5.818,1.871-7.324
						c2.341-1.388,5.311-0.784,6.941,1.309l37.7,48.308c3.144,4.029,2.427,9.843-1.602,12.987
						c-4.029,3.144-9.843,2.427-12.987-1.602C166.472,253.758,166.233,253.402,166.042,253.085z"/>
					<path style="fill:#82554C;" d="M170.747,257.016c-0.749-0.285-1.472-0.673-2.152-1.167c-4.123-3.002-5.032-8.778-2.03-12.901
						l43.173-59.301c3.001-4.123,8.773-5.03,12.9-2.031c4.123,3.002,5.032,8.778,2.03,12.901l-43.173,59.301
						C178.988,257.262,174.545,258.463,170.747,257.016z"/>
					<path style="fill:#82554C;" d="M144.827,194.821c0,0,1.808-18.663,0.324-19.811c-1.484-1.149-5.465,11.204-5.465,11.204
						s-26.623-12.014-27.748-10.559c-1.125,1.455,10.259,7.251,10.259,7.251s-13.739-4.693-14.583-3.034
						c-0.765,1.503,13.107,7.234,13.107,7.234s-15.033-3.326-14.83-1.755c0.202,1.571,13.482,5.649,13.482,5.649
						s-12.516-1.151-12.287-0.104c0.229,1.047,12.397,4.575,12.397,4.575c6.037,1.792,8.078,3.785,13.953,7.158
						C144.008,208.7,146.144,204.576,144.827,194.821z"/>
					<path style="fill:#82554C;" d="M318.916,214.525l36.54-57c1.593-2.484,4.898-3.207,7.382-1.615
						c2.309,1.48,3.096,4.441,1.916,6.846l-29.743,60.824c-2.244,4.589-7.784,6.49-12.372,4.246
						c-4.589-2.244-6.49-7.783-4.246-12.372C318.55,215.133,318.728,214.819,318.916,214.525z"/>
					<path style="fill:#82554C;" d="M332.562,226.548c-2.956,2.534-7.32,3.005-10.822,0.866l-59.244-36.189
						c-4.352-2.658-5.725-8.342-3.067-12.695c2.661-4.347,8.342-5.724,12.694-3.066l59.244,36.189
						c4.353,2.658,5.725,8.342,3.067,12.695C333.914,225.196,333.279,225.933,332.562,226.548z"/>
					<path style="fill:#82554C;" d="M356.33,156.301c0,0,6.901-17.815,8.836-18.495c1.935-0.68,0.003,11.838,0.003,11.838
						s30.744-4.218,31.137-2.573c0.394,1.645-13.057,4.062-13.057,4.062s15.171-0.776,15.204,0.985
						c0.03,1.596-15.745,3.303-15.745,3.303s15.764,0.831,14.847,2.238c-0.916,1.407-15.368,1.732-15.368,1.732
						s12.378,2.196,11.679,3.109c-0.7,0.913-13.846,1.017-13.846,1.017c-6.542,0.09-9.393,1.411-16.51,3.012
						C350.701,169.412,350.583,165.022,356.33,156.301z"/>
					<path style="fill:#82554C;" d="M272.783,268.898c-19.392,6.095-39.815,8.572-52.559,6.66
						c-2.184-6.442-3.563-14.199-4.335-21.956c-0.511-5.041-0.75-10.071-0.793-14.775c-2.662-1.749-6.67-5.388-7.094-11.559
						c-0.445-6.355,2.184-11.613,4.845-16.415l8.908-31.842l16.002,1.228l21.478-5.617l13.123,26.431
						c-0.641,14.405-1.097,29.528-0.891,43.39C271.588,253.277,271.99,261.598,272.783,268.898z"/>
					<path style="fill:#84153D;" d="M215.89,253.602c-1.143,2.948,0.866,6.959,0.866,6.959c20.943,3.045,46.159-2.7,54.874-9.077
						c1.365-1.973-0.161-7.041-0.161-7.041L215.89,253.602z"/>
					<path style="fill:#84153D;" d="M182.051,220.214c0,0-3.877,5.727-3.814,6.701c0.208,3.18,11.887,12.367,14.004,12.142
						c2.118-0.225,5.238-6.5,5.238-6.5L182.051,220.214z"/>
					<path style="fill:#C4356F;" d="M221.756,179.012c-9.414-1.374-13.844,0.614-18.705,9.674
						c-4.861,9.061-21.904,29.966-21.589,31.667c0.316,1.7,13.21,13.661,16.538,12.967c3.329-0.693,18.734-25.68,18.734-25.68
						L221.756,179.012z"/>
					<path style="fill:#84153D;" d="M314.957,201.629c-0.452-1.712-7.476-5.269-7.476-5.269l-9.13,17.59
						c0,0,6.691,5.567,9.223,4.923C310.105,218.23,315.409,203.341,314.957,201.629z"/>
					<path style="fill:#C4356F;" d="M259.236,174.623c0,0,9.043-3.4,12.406-1.805c3.363,1.595,35.376,20.121,36.44,23.357
						c0.498,1.516-6.019,17.589-8.922,18.861c-4.854,2.126-29.078-12.898-29.078-12.898L259.236,174.623z"/>
					<path style="fill:#C4356F;" d="M271.469,244.444c-16.861,8.963-36.719,12.233-55.579,9.158
						c-0.511-5.041-0.75-10.071-0.793-14.775c-2.662-1.749-6.67-5.388-7.094-11.559c-0.445-6.355,2.184-11.613,4.845-16.415
						l8.908-31.842l16.002,1.228l21.478-5.617l13.123,26.431C271.718,215.46,271.262,230.582,271.469,244.444z"/>
					<g>
						<g>
							<path style="fill:#82554C;" d="M243.616,156.345l3.963,21.493c0,0-8.728,7.204-16.916,3.308l-1.672-16.469L243.616,156.345z"
								/>
							<path style="fill:#542C24;" d="M229.717,171.821c9.982-0.399,14.638-7.42,14.638-7.42l-15.209,1.793L229.717,171.821z"/>
						</g>
						<g>
							<path style="fill:#FFA233;" d="M217.593,151.087c-0.022,0.016-0.043,0.035-0.067,0.049c-0.101,0.058-0.205,0.108-0.307,0.162
								c-0.17,0.09-0.333,0.191-0.499,0.289c0.679,1.358,1.066,3.375-0.436,4.319c-0.659,0.414-1.46,0.398-2.057-0.123
								c-0.674-0.589-0.921-1.568-0.818-2.433c0.115-0.956,0.685-1.799,1.498-2.3c0.547-0.337,0.045-1.203-0.505-0.863
								c-0.958,0.591-1.681,1.546-1.916,2.656c-0.25,1.181-0.004,2.483,0.797,3.408c0.721,0.834,1.899,1.185,2.942,0.79
								c1.049-0.397,1.777-1.314,2.007-2.405C218.492,153.402,218.16,152.182,217.593,151.087z"/>
							<path style="fill:#82554C;" d="M233.248,120.853c17.341,0.315,24.585,11.581,19.97,30.324
								c-3.674,14.921-14.501,21.719-25.931,17.858c-9.047-3.056-13.688-11.419-12.768-22.807
								C215.832,129.975,222.951,120.665,233.248,120.853z"/>
							<path style="fill:#162A45;" d="M219.776,127.156c2.876-1.974,6.182-3.317,9.62-3.907c-0.618,0.111-0.966,0.873-0.777,1.472
								c0.189,0.599,0.774,1.005,1.385,1.151c0.611,0.146,1.25,0.076,1.873-0.005c-1.259,1.977-0.738,4.751,0.828,6.496
								c1.565,1.745,3.956,2.569,6.296,2.715c-1.015,1.617-1.178,3.738-0.423,5.492c0.756,1.754,2.41,3.092,4.283,3.464
								c-0.384,0.395-0.433,1.071-0.111,1.518c0.323,0.447,0.98,0.612,1.476,0.372c-0.155,2.764,1.122,5.571,3.308,7.269
								c2.187,1.699,5.221,2.242,7.862,1.408c2.924-5.177,4.083-11.382,3.335-17.281c-0.747-5.899-3.652-11.55-8.207-15.372
								c-4.555-3.822-10.75-5.708-16.625-4.79C228.024,118.075,222.395,121.818,219.776,127.156z"/>
							<g>
								<path style="fill:#82554C;" d="M250.642,151.879c-1.514,2.467-1.173,5.149,0.614,6.247c1.786,1.097,4.462-0.013,5.976-2.481
									c1.515-2.467,1.294-5.357-0.492-6.454C254.954,148.094,252.157,149.412,250.642,151.879z"/>
								<path style="fill:#FFA233;" d="M255.38,157.682c-0.022,0.016-0.043,0.036-0.067,0.049c-0.101,0.057-0.205,0.108-0.308,0.162
									c-0.17,0.09-0.333,0.191-0.498,0.289c0.679,1.358,1.066,3.375-0.436,4.319c-0.659,0.414-1.46,0.399-2.057-0.123
									c-0.674-0.589-0.922-1.568-0.818-2.433c0.115-0.956,0.684-1.799,1.498-2.3c0.547-0.337,0.045-1.202-0.505-0.863
									c-0.958,0.591-1.681,1.546-1.916,2.656c-0.25,1.181-0.004,2.482,0.797,3.408c0.721,0.834,1.899,1.185,2.942,0.79
									c1.049-0.397,1.777-1.314,2.007-2.405C256.279,159.998,255.947,158.778,255.38,157.682z"/>
								<path style="fill:#542C24;" d="M251.931,155.724c-0.235-0.025-0.434-0.201-0.478-0.445c-0.053-0.295,0.143-0.577,0.439-0.63
									c0.414-0.074,0.907-0.367,1.011-0.835c0.04-0.18-0.001-0.385-0.05-0.621c-0.052-0.256-0.11-0.545-0.077-0.867
									c0.061-0.593,0.392-1.164,0.885-1.53c0.627-0.465,1.376-0.618,1.997-0.403c1.041,0.353,1.428,1.481,1.271,2.415
									c-0.05,0.296-0.327,0.501-0.625,0.446c-0.296-0.049-0.496-0.329-0.446-0.626c0.078-0.468-0.088-1.049-0.549-1.206
									c-0.275-0.094-0.671,0.003-1.002,0.248c-0.253,0.187-0.421,0.474-0.451,0.768c-0.016,0.157,0.019,0.335,0.061,0.54
									c0.063,0.312,0.135,0.666,0.045,1.071c-0.184,0.831-0.939,1.502-1.879,1.67C252.032,155.729,251.981,155.73,251.931,155.724
									z"/>
							</g>
							<g>
								<path style="fill:#162A45;" d="M217.584,136.613c0,0,5.314-0.012,8.406,1.092
									C224.654,135.006,219.85,135.398,217.584,136.613z"/>
								<path style="fill:#162A45;" d="M242.602,140.807c0,0-5.019-1.744-8.302-1.71
									C236.444,136.982,240.857,138.92,242.602,140.807z"/>
								<path style="fill:#542C24;" d="M226.112,152.943c-0.044-0.005-0.087-0.014-0.13-0.03c-0.874-0.32-1.45-0.805-1.667-1.404
									c-0.123-0.34-0.187-0.888,0.206-1.561c0.22-0.376,0.611-0.835,1.026-1.322c0.375-0.44,0.763-0.894,0.939-1.198
									c0.15-0.26,0.483-0.348,0.742-0.2c0.26,0.15,0.349,0.482,0.199,0.742c-0.225,0.391-0.627,0.862-1.053,1.361
									c-0.365,0.429-0.743,0.872-0.914,1.164c-0.22,0.377-0.147,0.58-0.123,0.645c0.1,0.279,0.471,0.553,1.017,0.752
									c0.282,0.103,0.427,0.415,0.324,0.696C226.591,152.827,226.353,152.968,226.112,152.943z"/>
								<path style="fill:#FFFFFF;" d="M222.058,154.67c3.263,0.789,6.748,1.216,10.407,1.36
									C229.932,159.838,222.691,157.882,222.058,154.67z"/>
								<path style="fill:#162A45;" d="M238.176,145.844c-0.249-0.654-0.758-1.214-1.475-1.336c-0.751-0.127-1.474,0.159-2.014,0.68
									c-0.527,0.509-0.825,1.183-1.095,1.851c-0.11,0.272,0.12,0.597,0.379,0.668c0.31,0.085,0.558-0.106,0.668-0.379
									c0.094-0.233,0.197-0.469,0.327-0.708c0.072-0.132,0.153-0.258,0.238-0.383c0.035-0.05,0.09-0.116,0.169-0.2
									c0.177-0.187,0.286-0.274,0.513-0.382c0.017-0.005,0.093-0.037,0.104-0.04c0.067-0.021,0.135-0.039,0.204-0.05
									c0.038-0.007,0.039-0.007,0.004-0.001c0.04-0.003,0.08-0.005,0.119-0.006c0.053-0.001,0.107,0.001,0.16,0.008
									c0.016,0.006,0.109,0.028,0.107,0.027c0.092,0.021,0.012-0.008,0.091,0.033c0.142,0.073,0.115,0.051,0.226,0.165
									c0.002,0.001,0.054,0.062,0.065,0.071c0.026,0.036,0.051,0.073,0.074,0.111c0.032,0.053,0.061,0.109,0.088,0.165
									c0.016,0.035,0.015,0.032-0.002-0.007c0.013,0.033,0.025,0.067,0.036,0.101c0.163,0.493,0.09,1.054,0.018,1.556
									c-0.041,0.29,0.071,0.583,0.379,0.668c0.255,0.07,0.627-0.087,0.668-0.379C238.336,147.341,238.449,146.561,238.176,145.844
									z"/>
								<path style="fill:#162A45;" d="M223.499,143.325c-0.249-0.654-0.758-1.214-1.475-1.336c-0.751-0.127-1.474,0.159-2.014,0.68
									c-0.527,0.509-0.825,1.183-1.095,1.851c-0.11,0.272,0.12,0.597,0.379,0.668c0.31,0.085,0.558-0.106,0.668-0.379
									c0.094-0.233,0.197-0.469,0.327-0.708c0.072-0.132,0.153-0.258,0.238-0.383c0.035-0.05,0.09-0.116,0.169-0.2
									c0.176-0.186,0.286-0.274,0.513-0.382c0.017-0.005,0.093-0.037,0.104-0.04c0.067-0.021,0.135-0.039,0.204-0.05
									c0.038-0.007,0.039-0.007,0.004-0.001c0.04-0.003,0.08-0.005,0.12-0.006c0.053-0.001,0.107,0.001,0.16,0.008
									c0.016,0.006,0.109,0.028,0.107,0.028c0.092,0.021,0.012-0.008,0.091,0.033c0.142,0.073,0.115,0.051,0.226,0.165
									c0.001,0.001,0.054,0.062,0.065,0.071c0.026,0.036,0.051,0.073,0.074,0.111c0.032,0.053,0.061,0.109,0.088,0.165
									c0.016,0.035,0.015,0.032-0.002-0.007c0.013,0.033,0.025,0.067,0.036,0.101c0.163,0.493,0.09,1.054,0.018,1.556
									c-0.041,0.29,0.071,0.583,0.379,0.668c0.255,0.07,0.627-0.087,0.668-0.379C223.658,144.822,223.772,144.042,223.499,143.325
									z"/>
							</g>
						</g>
					</g>
					<g>
						<path style="fill:#84153D;" d="M270.557,201.942c-0.047-0.059-4.779-6.022-6.559-12.363c-0.041-0.145-0.194-0.23-0.335-0.188
							c-0.145,0.04-0.229,0.19-0.188,0.335c1.402,4.995,4.596,9.747,5.989,11.665c-3.184-1.656-4.285-3.66-4.297-3.682
							c-0.072-0.132-0.236-0.181-0.367-0.111c-0.132,0.071-0.183,0.234-0.112,0.366c0.056,0.105,1.413,2.595,5.549,4.397
							c0.046,0.02,0.096,0.026,0.143,0.02c0.07-0.009,0.136-0.045,0.181-0.105C270.637,202.177,270.635,202.038,270.557,201.942z"/>
						<path style="fill:#84153D;" d="M217.564,239.891c-0.087-0.035-8.664-3.609-9.293-12.641
							c-0.474-6.808,2.691-12.471,5.484-17.468l0.276-0.494c0.029-0.052,0.04-0.111,0.032-0.17
							c-0.012-0.088-1.205-8.874-0.029-13.693c0.035-0.146-0.054-0.293-0.2-0.329c-0.142-0.036-0.292,0.054-0.328,0.199
							c-0.778,3.187-0.561,7.915-0.299,10.955c-1.679-1.107-2.356-3.154-2.363-3.177c-0.045-0.142-0.196-0.221-0.341-0.177
							c-0.143,0.045-0.223,0.196-0.178,0.34c0.033,0.107,0.829,2.548,2.943,3.69c0.106,1.103,0.207,1.905,0.243,2.176l-0.232,0.415
							c-2.83,5.063-6.037,10.801-5.552,17.771c0.653,9.375,9.542,13.069,9.632,13.105c0.033,0.014,0.068,0.02,0.102,0.02
							c0.107,0,0.209-0.064,0.252-0.17C217.771,240.105,217.703,239.947,217.564,239.891z"/>
						<path style="fill:#84153D;" d="M265.882,224.268c-0.147-0.016-0.285,0.084-0.306,0.232
							c-0.622,4.555-6.305,11.436-16.992,12.476c-0.149,0.015-0.258,0.148-0.244,0.297c0.014,0.14,0.132,0.245,0.27,0.245
							c0.009,0,0.018,0,0.027-0.001c11.599-1.13,16.875-8.538,17.477-12.943C266.135,224.426,266.03,224.288,265.882,224.268z"/>
						<path style="fill:#84153D;" d="M237.916,186.212c-1.071,0-2.139-0.112-3.175-0.34c-2.704-0.593-5.282-1.99-7.257-3.932
							c-0.107-0.106-0.108-0.278-0.003-0.384c0.105-0.108,0.277-0.108,0.384-0.004c1.903,1.872,4.386,3.218,6.992,3.79
							c2.605,0.573,5.424,0.394,7.936-0.51c0.143-0.05,0.297,0.023,0.348,0.163c0.05,0.142-0.023,0.297-0.164,0.348
							C241.369,185.919,239.64,186.212,237.916,186.212z"/>
					</g>
					<path style="fill:#C4356F;" d="M227.505,179.453c1.342-0.498,1.279-4.393,2.512-4.676c1.233-0.283,3.397,1.953,8.376,1.104
						c7.374-1.258,7.212-4.475,8.001-4.47c1.097,0.006,2.979,4.806,4.828,5.308c0,0-4.554,7.691-12.575,7.691
						C230.626,184.41,227.505,179.453,227.505,179.453z"/>
				</g>
				<g>
					<g>
						<path style="fill:#162A45;" d="M261.112,254.22c-9.671-5.48-18.245-12.723-25.323-21.293
							c-7.14-8.645-13.001-18.862-16.19-29.646c-1.674-5.661-2.359-12.003,0.459-17.429c1.668-3.212,4.32-5.411,7.487-6.39
							c-0.762-0.492-1.625-0.743-2.538-0.912c-0.565-0.104-1.134-0.125-1.707-0.111c-0.475,0.011-0.998,0.042-1.382,0.24
							c-0.039,0.02-0.081,0.023-0.122,0.038c-0.525,0.397-1.034,0.822-1.512,1.302c-4.226,4.245-5.79,10.489-5.329,16.331
							c0.515,6.534,3.002,12.831,5.743,18.725c2.502,5.379,5.535,10.51,9.026,15.306c7.906,10.865,18.047,20.024,29.744,26.652
							C261.295,258.07,262.939,255.255,261.112,254.22z"/>
						<path style="fill:#162A45;" d="M278.949,241.687c-2.094-6.35-4.607-12.54-7.415-18.598c0.052,1.304,0.099,2.608,0.098,3.913
							c-0.002,1.401-0.095,2.8-0.092,4.2c1.555,3.729,2.999,7.505,4.267,11.351C276.46,244.536,279.608,243.687,278.949,241.687z"/>
						<g>
							<g>
								<path style="fill:#F78721;" d="M255.884,265.441c0,0,8.173,25.838,12.85,26.028c10.786,0.438,30.516-18.905,31.897-29.868
									c0.542-4.305-16.84-20.87-16.84-20.87L255.884,265.441z"/>
							</g>
							<g>
								<path style="fill:#FFA233;" d="M253.245,257.894c-1.509,1.738,2.391,14.078,4.702,14.735
									c2.311,0.657,23.053-6.288,25.641-9.106c2.587-2.818,6.605-16.755,5.245-18.864c-1.36-2.109-6.436-7.928-7.62-7.812
									C277.938,237.165,255.372,255.444,253.245,257.894z"/>
							</g>
							<path style="opacity:0.5;fill:#FFFFFF;" d="M271.288,247.346c-1.85-0.75-16.92,8.645-13.499,13.822
								C261.211,266.346,276.42,249.427,271.288,247.346z"/>
							<path style="fill:#162A45;" d="M278.734,263.962c0.037,0.725,3.19,3.097,4.16,3.028c0.971-0.069,3.352-2.843,3.375-3.86
								c0.023-1.017-1.988-3.467-2.566-3.536C283.125,259.524,278.688,263.06,278.734,263.962z"/>
						</g>
					</g>
				</g>
			</g>
		</g>
	</g>
	<g>
		<path style="fill:#FFC655;" d="M323.382,153.168c-0.565-0.022-1.13,5.189-1.13,5.189s-4.836,0.706-4.836,1.094
			c0,0.388,4.659,0.777,4.659,0.777s1.236,5.366,1.624,5.366s1.13-5.189,1.13-5.189s4.377-0.494,4.342-0.882
			c-0.035-0.388-4.271-1.306-4.271-1.306S324.3,153.203,323.382,153.168z"/>
		<path style="fill:#FFC655;" d="M134.683,270.749c-0.566-0.022-1.13,5.189-1.13,5.189s-4.836,0.706-4.836,1.094
			c0,0.388,4.66,0.777,4.66,0.777s1.236,5.366,1.624,5.366c0.388,0,1.13-5.189,1.13-5.189s4.377-0.494,4.342-0.883
			c-0.035-0.388-4.271-1.306-4.271-1.306S135.601,270.784,134.683,270.749z"/>
		<path style="fill:#FFC655;" d="M343.44,286.807c-0.565-0.022-1.13,5.189-1.13,5.189s-4.836,0.706-4.836,1.094
			c0,0.388,4.66,0.777,4.66,0.777s1.236,5.366,1.624,5.366s1.129-5.189,1.129-5.189s4.377-0.494,4.342-0.883
			s-4.271-1.306-4.271-1.306S344.357,286.842,343.44,286.807z"/>
		<path style="fill:#FFC655;" d="M168.781,165.593c-0.566-0.022-1.13,5.189-1.13,5.189s-4.836,0.706-4.836,1.094
			c0,0.388,4.66,0.777,4.66,0.777s1.236,5.365,1.624,5.365c0.388,0,1.13-5.189,1.13-5.189s4.377-0.494,4.342-0.883
			c-0.035-0.388-4.271-1.306-4.271-1.306S169.699,165.629,168.781,165.593z"/>
		<path style="fill:#FFC655;" d="M310.591,140.742c-0.403-0.015-0.805,3.696-0.805,3.696s-3.445,0.503-3.445,0.779
			c0,0.277,3.319,0.553,3.319,0.553s0.88,3.822,1.157,3.822c0.277,0,0.805-3.696,0.805-3.696s3.118-0.352,3.093-0.629
			c-0.025-0.277-3.043-0.93-3.043-0.93S311.245,140.767,310.591,140.742z"/>
		<path style="fill:#FFC655;" d="M313.293,279.207c-0.403-0.016-0.805,3.696-0.805,3.696s-3.445,0.503-3.445,0.78
			s3.319,0.553,3.319,0.553s0.88,3.822,1.157,3.822c0.276,0,0.805-3.696,0.805-3.696s3.118-0.352,3.093-0.629
			c-0.025-0.277-3.043-0.93-3.043-0.93S313.947,279.232,313.293,279.207z"/>
		<path style="fill:#FFC655;" d="M178.82,274.781c-0.403-0.016-0.805,3.696-0.805,3.696s-3.445,0.503-3.445,0.779
			c0,0.277,3.319,0.553,3.319,0.553s0.88,3.822,1.157,3.822c0.277,0,0.805-3.696,0.805-3.696s3.118-0.352,3.093-0.629
			c-0.025-0.276-3.042-0.93-3.042-0.93S179.474,274.807,178.82,274.781z"/>
		<path style="fill:#FFC655;" d="M128.78,238.791c-0.403-0.016-0.805,3.696-0.805,3.696s-3.445,0.503-3.445,0.78
			c0,0.277,3.319,0.553,3.319,0.553s0.88,3.822,1.157,3.822s0.805-3.696,0.805-3.696s3.118-0.352,3.093-0.629
			s-3.043-0.93-3.043-0.93S129.434,238.816,128.78,238.791z"/>
	</g>
	<g>
		<g>
			<path style="fill:#FFA233;" d="M151.732,312.519c4.791,2.37,8.614,6.586,10.624,11.539c1.515,3.732,2.016,7.922,1.093,11.843
				c-0.713,3.029-2.26,5.839-4.328,8.165c-5.364,6.033-14.402,8.497-22.085,6.021c-8.472-2.73-14.747-11.351-14.523-20.344
				C122.876,315.15,138.813,306.128,151.732,312.519z"/>
			<path style="fill:#162A45;" d="M130.367,323.683c2.244,0.194,4.468,0.64,6.614,1.323c0.301,0.096,0.515,0.399,0.529,0.707
				c0.016,0.345-0.156,0.578-0.433,0.763c-1.585,1.057-3.171,2.114-4.756,3.17c-0.359,0.24-0.897-0.005-1.073-0.357
				c-0.213-0.427-0.003-0.832,0.357-1.073c1.08-0.72,2.159-1.439,3.239-2.159c-1.507-0.384-3.041-0.645-4.595-0.78
				C129.226,325.189,129.338,323.594,130.367,323.683z"/>
			<path style="fill:#162A45;" d="M148.111,322.058c1.272-1.404,2.544-2.807,3.816-4.211c0.29-0.32,0.865-0.229,1.129,0.069
				c0.313,0.354,0.221,0.808-0.069,1.129c-0.846,0.933-1.692,1.867-2.538,2.8c1.811,0.021,3.62,0.154,5.416,0.4
				c0.428,0.059,0.771,0.407,0.738,0.857c-0.03,0.411-0.427,0.797-0.857,0.738c-2.374-0.326-4.769-0.455-7.165-0.386
				c-0.308,0.009-0.603-0.271-0.691-0.541C147.784,322.586,147.886,322.306,148.111,322.058z"/>
			<path style="fill:#FFFFFF;" d="M134.608,332.821c6.609-2.724,13.605-4.509,20.711-5.283
				C156.125,343.165,140.297,343.287,134.608,332.821z"/>
		</g>
		<g>
			<path style="fill:#FFA233;" d="M396.599,208.352c-5.304,4.069-8.974,10.169-10.24,16.733c-0.954,4.947-0.555,10.21,1.529,14.797
				c1.609,3.544,4.188,6.617,7.289,8.97c8.043,6.103,19.731,6.936,28.559,2.037c9.734-5.402,15.344-17.502,12.891-28.483
				C432.645,204.588,410.903,197.379,396.599,208.352z"/>
			<path style="fill:#162A45;" d="M419.996,227.999c-2.069,4.388-6.449,7.201-11.339,6.992c-4.892-0.21-9.134-3.522-10.687-8.133
				c-0.409-1.213-2.341-0.693-1.929,0.532c1.804,5.355,6.556,9.165,12.222,9.579c5.662,0.413,11.052-2.852,13.46-7.959
				C422.269,227.851,420.545,226.835,419.996,227.999z"/>
			<path style="fill:#162A45;" d="M425.397,220.331c-0.066,1.902-1.242,3.406-2.628,3.358c-1.386-0.048-2.456-1.629-2.39-3.531
				c0.066-1.902,1.242-3.406,2.628-3.358C424.392,216.847,425.462,218.428,425.397,220.331z"/>
			<path style="fill:#162A45;" d="M399.327,219.363c-0.21,1.892-1.497,3.302-2.875,3.149c-1.378-0.153-2.325-1.81-2.116-3.702
				c0.21-1.892,1.497-3.302,2.875-3.149C398.589,215.813,399.536,217.471,399.327,219.363z"/>
		</g>
		<g>
			<path style="fill:#FFA233;" d="M159.693,67.508c5.856,3.225,10.402,8.703,12.641,15.002c1.688,4.747,2.085,10.01,0.715,14.858
				c-1.058,3.746-3.145,7.172-5.856,9.964c-7.034,7.243-18.463,9.826-27.927,6.311c-10.436-3.876-17.803-14.994-17.03-26.219
				C123.492,69.211,143.901,58.813,159.693,67.508z"/>
			<path style="fill:#162A45;" d="M138.966,89.848c2.705,4.027,7.459,6.148,12.262,5.206c4.805-0.943,8.5-4.856,9.342-9.649
				c0.221-1.261,2.21-1.037,1.987,0.235c-0.978,5.565-5.102,10.047-10.641,11.309c-5.536,1.26-11.356-1.156-14.505-5.843
				C136.697,90.044,138.248,88.779,138.966,89.848z"/>
			<path style="fill:#162A45;" d="M132.142,84.075c0.051,0.558,0.627,0.893,1.139,0.838c0.56-0.06,0.886-0.619,0.838-1.139
				c-0.011-0.117-0.02-0.234-0.026-0.352c-0.001-0.027-0.002-0.076-0.002-0.109c0.002-0.195,0.011-0.389,0.033-0.582
				c0.021-0.187,0.051-0.374,0.096-0.557c0.013-0.034,0.053-0.168,0.053-0.169c0.032-0.094,0.068-0.188,0.108-0.279
				c0.034-0.079,0.071-0.157,0.112-0.233c0.016-0.02,0.083-0.127,0.094-0.142c0.045-0.065,0.093-0.128,0.144-0.189
				c0.024-0.03,0.049-0.059,0.075-0.088c0.004-0.004,0.002-0.002,0.007-0.006c0.115-0.11,0.24-0.207,0.37-0.299
				c0.033-0.019,0.117-0.071,0.139-0.082c0.084-0.042,0.17-0.076,0.257-0.111c0.021-0.008,0.031-0.013,0.043-0.019
				c0.014-0.001,0.03-0.003,0.057-0.008c0.092-0.015,0.184-0.024,0.276-0.038c-0.188,0.029,0.058,0.004,0.106,0.008
				c0.076,0.007,0.151,0.021,0.226,0.035c0.021,0.009,0.126,0.04,0.155,0.051c0.073,0.028,0.144,0.06,0.214,0.093
				c0.023,0.012,0.028,0.013,0.032,0.015c0.024,0.015,0.049,0.029,0.072,0.045c0.079,0.051,0.156,0.105,0.231,0.163
				c0.07,0.054,0.138,0.111,0.204,0.171c0.024,0.025,0.048,0.05,0.072,0.075c0.139,0.166,0.279,0.325,0.404,0.503
				c0.204,0.289,0.367,0.597,0.567,0.993c0.253,0.5,0.797,0.712,1.321,0.505c0.486-0.191,0.741-0.854,0.505-1.321
				c-0.497-0.985-1.083-1.972-2.002-2.622c-0.953-0.673-2.102-0.885-3.212-0.507c-1.034,0.352-1.836,1.202-2.287,2.177
				C132.105,81.883,132.044,83.008,132.142,84.075z"/>
			<path style="fill:#162A45;" d="M157.424,78.806c0.051,0.558,0.627,0.893,1.139,0.838c0.56-0.06,0.885-0.619,0.838-1.139
				c-0.011-0.117-0.02-0.234-0.026-0.352c-0.001-0.027-0.002-0.076-0.002-0.109c0.002-0.195,0.011-0.389,0.033-0.582
				c0.021-0.187,0.051-0.375,0.096-0.557c0.013-0.034,0.053-0.167,0.053-0.169c0.032-0.094,0.068-0.188,0.107-0.279
				c0.034-0.079,0.071-0.157,0.112-0.233c0.016-0.02,0.083-0.127,0.094-0.142c0.045-0.065,0.093-0.128,0.144-0.189
				c0.024-0.03,0.049-0.059,0.075-0.088c0.004-0.004,0.002-0.002,0.007-0.006c0.115-0.11,0.24-0.207,0.369-0.299
				c0.033-0.019,0.117-0.071,0.139-0.082c0.084-0.042,0.17-0.076,0.257-0.111c0.021-0.008,0.031-0.013,0.043-0.019
				c0.014-0.001,0.03-0.003,0.056-0.008c0.092-0.015,0.184-0.024,0.276-0.038c-0.188,0.029,0.058,0.004,0.106,0.008
				c0.076,0.007,0.151,0.021,0.226,0.035c0.021,0.009,0.126,0.04,0.155,0.051c0.073,0.028,0.144,0.06,0.214,0.093
				c0.023,0.012,0.028,0.013,0.032,0.015c0.024,0.015,0.049,0.029,0.072,0.045c0.079,0.051,0.156,0.105,0.231,0.163
				c0.07,0.054,0.138,0.111,0.204,0.171c0.024,0.025,0.048,0.05,0.071,0.075c0.139,0.166,0.279,0.326,0.404,0.503
				c0.204,0.289,0.367,0.596,0.567,0.993c0.253,0.5,0.797,0.712,1.321,0.505c0.486-0.191,0.741-0.854,0.505-1.321
				c-0.497-0.985-1.083-1.972-2.002-2.622c-0.953-0.673-2.101-0.885-3.212-0.507c-1.034,0.352-1.836,1.202-2.287,2.177
				C157.387,76.614,157.327,77.739,157.424,78.806z"/>
		</g>
	</g>
</g>

</svg>

