<?xml version="1.0" encoding="utf-8"?>
<!-- Generator: Adobe Illustrator 27.5.0, SVG Export Plug-In . SVG Version: 6.00 Build 0)  -->
<svg version="1.1" xmlns="http://www.w3.org/2000/svg" xmlns:xlink="http://www.w3.org/1999/xlink" x="0px" y="0px"
	 viewBox="0 0 500 500" style="enable-background:new 0 0 500 500;" xml:space="preserve">
<g id="BACKGROUND">
	<rect style="fill:#F7EBE9;" width="500" height="500"/>
</g>
<g id="OBJECTS">
	<path style="fill:#F6E047;" d="M174.636,57.356c-10.262,0.708-10.837,1.283-11.545,11.545
		c-0.709-10.262-1.283-10.837-11.545-11.545c10.262-0.708,10.837-1.283,11.545-11.545C163.8,56.073,164.374,56.647,174.636,57.356z"
		/>
	<path style="fill:#F6E047;" d="M170.962,125.248c-12.3,0.849-12.989,1.538-13.838,13.838c-0.849-12.3-1.537-12.989-13.838-13.838
		c12.3-0.849,12.988-1.537,13.838-13.838C157.973,123.71,158.661,124.399,170.962,125.248z"/>
	<path style="fill:#F6E047;" d="M358.424,62.415c-13.157,0.908-13.893,1.645-14.801,14.802
		c-0.908-13.157-1.645-13.893-14.802-14.802c13.157-0.908,13.893-1.645,14.802-14.802C344.531,60.77,345.267,61.506,358.424,62.415z
		"/>
	<path style="fill:#F6E047;" d="M381.695,115.131c-10.262,0.709-10.837,1.283-11.545,11.545
		c-0.708-10.262-1.283-10.837-11.545-11.545c10.262-0.708,10.837-1.283,11.545-11.545
		C370.859,113.848,371.433,114.423,381.695,115.131z"/>
	<path style="fill:#F6E047;" d="M183.309,92.071c-7.531,0.52-7.952,0.941-8.472,8.472c-0.52-7.531-0.941-7.952-8.472-8.472
		c7.531-0.52,7.952-0.941,8.472-8.472C175.356,91.13,175.777,91.551,183.309,92.071z"/>
	<g>
		<path style="fill:#4A2C13;" d="M278.971,219.896c-36.042,7.689-73.902,9.406-110.193,3c-2.216,1.175-5.055-0.007-6.706-1.896
			s-2.473-4.336-3.586-6.584c-2.023-4.087-5.074-7.614-6.947-11.772c-1.873-4.158-2.321-9.48,0.663-12.929
			c2.655-3.069,7.066-3.699,10.99-4.733c3.924-1.034,8.258-3.368,8.712-7.401c0.536-4.752-4.683-8.511-4.757-13.292
			c-0.08-5.176,5.557-8.298,10.381-10.177c4.824-1.879,10.504-4.791,10.689-9.964c0.196-5.483-6.214-9.586-5.886-15.063
			c0.478-7.984,13.868-9.622,15.093-17.527c0.755-4.872-3.769-9.361-3.174-14.256c0.635-5.225,6.43-7.878,9.973-11.771
			c3.824-4.203,5.061-10.082,7.608-15.162c6.342-12.649,20.162-19.415,33.122-25.097c3.986-1.747,8.156-3.51,12.503-3.305
			c4.347,0.205,10.945,1.769,11.647,6.064c9.798-6.823,22.765-2.205,29.542,7.624c3.92,5.686,5.346,13.241,10.781,17.502
			c3.119,2.445,7.104,3.409,10.808,4.82c3.704,1.411,7.49,3.616,8.923,7.31c2.917,7.517-5.399,16.378-1.676,23.529
			c2.997,5.757,11.987,6.311,14.743,12.187c2.749,5.861-2.517,13.23,0.285,19.066c2.732,5.692,11.497,6.416,14.054,12.189
			c2.625,5.925-3.067,13.184-0.334,19.06c2.005,4.311,7.507,5.626,10.797,9.058c4.628,4.826,3.765,13.096-0.286,18.416
			c-4.051,5.32-10.442,8.275-16.739,10.524C326.576,217.682,303.296,214.707,278.971,219.896z"/>
		<path style="fill:none;stroke:#61391B;stroke-width:0.8753;stroke-miterlimit:10;" d="M315.225,128.339
			c1.702,4.346,1.198,9.493-1.313,13.426c-1.916,3-5.05,5.77-4.688,9.312c0.508,4.965,7.419,6.945,8.741,11.757
			c0.775,2.821-0.629,5.764-2.257,8.195c-1.628,2.43-3.579,4.805-4.081,7.687c-0.508,2.917,0.564,5.868,1.841,8.539
			c1.277,2.671,2.8,5.294,3.284,8.215s-0.351,6.306-2.871,7.86"/>
		<path style="fill:none;stroke:#61391B;stroke-width:0.8753;stroke-miterlimit:10;" d="M294.449,149.472
			c-2.298,2.517-1.05,6.612,0.925,9.389c1.975,2.778,4.649,5.347,5.077,8.728c0.652,5.157-4.2,9.56-4.436,14.753
			c-0.156,3.435,1.721,6.58,3.263,9.653s2.808,6.718,1.437,9.871"/>
		<path style="fill:none;stroke:#4A2C13;stroke-width:0.8753;stroke-miterlimit:10;" d="M256.474,42.897
			c-16.232,3.129-32.377,9.526-43.874,21.404c-5.199,5.371-4.439,11.258-8.498,17.535c-3.218,4.976-11.428,10.926-10.752,16.814
			c0.587,5.107,4.157,10.292,2.029,14.972c-2.805,6.17-13.47,6.265-14.931,12.883c-1.353,6.13,6.932,10.962,6.334,17.211
			c-0.333,3.489-3.418,6.101-6.623,7.519c-3.205,1.418-6.741,2.052-9.811,3.743c-3.07,1.691-5.717,4.948-5.139,8.405
			c0.773,4.623,6.761,7.253,6.925,11.938c0.137,3.921-3.96,6.639-7.765,7.596c-3.805,0.957-8.018,1.082-11.142,3.456
			c-4.135,3.142-4.838,9.347-3.035,14.218c1.803,4.87,5.557,8.72,9.209,12.412"/>
		<path style="fill:none;stroke:#61391B;stroke-width:0.8753;stroke-miterlimit:10;" d="M205.525,127.498
			c-2.351,1.295-3.124,4.435-2.566,7.06c0.558,2.625,2.138,4.895,3.542,7.182c1.404,2.287,2.701,4.815,2.583,7.497
			c-0.28,6.378-8.032,10.061-9.471,16.281c-1.911,8.257,8.079,15.611,6.649,23.964c-0.573,3.348-2.911,6.096-4.196,9.24
			c-1.285,3.144-0.994,7.583,2.123,8.933"/>
		<path style="fill:none;stroke:#61391B;stroke-width:0.8753;stroke-miterlimit:10;" d="M217.807,127.314
			c-2.161,3.689-1.106,8.36,0.196,12.432c1.301,4.072,2.796,8.483,1.35,12.506c-1.427,3.969-5.49,6.74-6.248,10.888
			c-0.7,3.829,1.646,7.503,4.038,10.575c2.392,3.071,5.072,6.335,5.19,10.227c0.112,3.682-2.104,6.96-3.667,10.295
			c-1.564,3.335-2.371,7.689,0.125,10.398"/>
		<path style="fill:none;stroke:#61391B;stroke-width:0.8753;stroke-miterlimit:10;" d="M231.367,146.965
			c-3.069,2.665-4.34,7.221-3.092,11.09c1.408,4.366,5.682,7.969,5.149,12.526c-0.28,2.397-1.873,4.397-3.002,6.531
			c-3.117,5.895-2.565,13.545,1.367,18.931"/>
		<g>
			<path style="fill:#A8C2D0;" d="M162.113,500c-2.399-46.642,10.088-100.318,20.875-122.197
				c48.152,12.735,99.79,13.383,148.153,1.34c10.098,22.733,26.378,66.946,26.377,120.856"/>
			<path style="fill:none;stroke:#000000;stroke-width:0.9127;stroke-linecap:round;stroke-miterlimit:10;" d="M177.194,391.135
				c22.419,16.601,47.209,26.622,75.993,26.669c39.669,0.063,59.354-11.865,83.216-26.669"/>
			<path style="fill:none;stroke:#000000;stroke-width:0.9127;stroke-linecap:round;stroke-miterlimit:10;" d="M294.433,412.196
				c2.302,7.379,6.253,14.816,11.5,17.887c5.247,3.071,10.743,2.911,16.952,2.588c6.209-0.323,13.622-2.942,19.471-4.887"/>
			<path style="fill:none;stroke:#000000;stroke-width:0.9127;stroke-linecap:round;stroke-miterlimit:10;" d="M330.021,395.069
				c7.753,13.501,24.918,68.915,20.451,104.301"/>
			<path style="fill:none;stroke:#000000;stroke-width:0.9127;stroke-linecap:round;stroke-miterlimit:10;" d="M182.141,395.504
				c-7.762,15.825-14.615,63.066-14.61,104.203"/>
			<path style="fill:none;stroke:#000000;stroke-width:0.9127;stroke-linecap:round;stroke-miterlimit:10;" d="M211.669,409.922
				c-1.171,3.295-2.352,6.611-4.163,9.651c-1.811,3.04-4.309,5.821-7.592,7.525c-4.064,2.11-9.009,2.398-13.606,1.655
				c-4.596-0.743-8.936-2.44-13.229-4.124"/>
			<path style="fill:none;stroke:#000000;stroke-width:0.9127;stroke-linecap:round;stroke-miterlimit:10;" d="M248.231,417.804
				c-0.719,9.28-0.514,34.354-1.233,43.634c-0.443,5.721,9.376,7.989,15.046,5.601"/>
			<path style="fill:#A8C2D0;stroke:#000000;stroke-width:0.9127;stroke-miterlimit:10;" d="M219.178,395.583
				c-4.06,8.88-6.313,18.456-6.609,28.086c2.051,0.232,4.13,0.286,6.18,0.519c-0.13-9.183,2.377-18.203,7.6-26.031"/>
			<path style="fill:#A8C2D0;stroke:#000000;stroke-width:0.9127;stroke-miterlimit:10;" d="M278.998,401.618
				c4.607,8.547,7.346,17.94,8.007,27.46c2.473,0.148,4.652-0.338,6.83-1.425c-0.571-9.758-3.699-19.822-9.239-28.161"/>
			<path style="fill:none;stroke:#000000;stroke-width:0.9127;stroke-linecap:round;stroke-miterlimit:10;" d="M255.726,468.385
				c0.184,6.38-0.65,24.389-0.466,30.769"/>
		</g>
		<path style="fill:#E8A379;" d="M329.103,289.054c8.927-6.767,20.242-10.314,31.435-9.855c13.3,20.377,25.805,43.781,31.974,67.472
			c0.995,3.819,2.567,10.245-2.995,11.735c-4.509,1.208-10.027-6.149-12.953-8.908c-8.872-8.362-17.15-17.354-24.754-26.883
			C349.626,319.879,327.524,290.251,329.103,289.054z"/>
		<path style="fill:#E8A379;" d="M179.395,294.417c-7.742-8.095-18.353-13.391-29.477-14.71
			c-16.359,18.013-32.415,39.14-42.259,61.555c-1.587,3.613-4.157,9.709,1.098,12.061c4.26,1.907,10.874-4.483,14.201-6.743
			c10.085-6.85,19.682-14.418,28.7-22.622C154.249,321.601,180.765,295.849,179.395,294.417z"/>
		<path style="fill:#E8A379;" d="M302.955,193.019c-9.246-1.282-12.927-1.321-17.487-9.017c-3.787-6.391-3.847-13.808-3.718-20.938
			c-13.172,2.167-27.237,1.504-40.181-1.644c0.744,4.195,1.276,8.428,1.124,12.668c-0.159,4.455-1.045,9.197-4.09,12.961
			c-2.466,3.049-6.357,4.896-10.26,6.405c-6.914,2.674-12.992,5.084-20.641,5.748c5.806,15.264,19.328,30.114,35.085,39.193
			c5.609,3.232,12.172,5.996,18.933,5.326c6.586-0.653,12.067-4.42,16.918-8.208c15.439-12.054,22.859-24.137,33.492-39.342
			C311.235,196.062,303.848,193.143,302.955,193.019z"/>
		<g>
			<defs>
				<path id="XMLID_4_" d="M326.53,392.597c7.393-2.795,14.527-7.874,16.993-15.384c2.707-8.242-0.755-17.053-2.802-25.483
					c-3.445-14.189-1.495-30.465-0.475-45.03c21.36-4.433,33.1-10.051,42.798-29.592c-6.014-13.464-9.243-26.732-16.879-39.347
					c-5.128-8.472-14.238-28.122-22.274-33.909c-14.195-10.221-27.395-11.754-44.855-12.814
					c-9.564,8.544-22.127,13.662-34.939,14.233c-12.812,0.572-25.781-3.408-36.067-11.066c-13.123,4.971-28.486,1.009-41.744,5.607
					c-14.253,4.943-24.373,17.581-32.173,30.494c-6.879,11.39-12.429,18.065-21.166,31.767c-2.249,3.528-1.854,8.162,1.038,11.185
					c12.118,12.669,27.761,22.747,44.179,28.39c-0.048,9.894,2.633,20.474,4.786,30.132c2.154,9.657,3.575,19.876,0.672,29.335
					c-1.939,6.32-5.737,12.022-7.014,18.513c-1.396,7.099,3.339,14.882,10.195,17.195c18.826,6.352,37.363,11.337,56.938,15.375
					c14.581,3.008,29.47,2.824,43.445-2.311C301.161,404.75,312.604,397.862,326.53,392.597z"/>
			</defs>
			<use xlink:href="#XMLID_4_"  style="overflow:visible;fill:#B1B788;"/>
			<clipPath id="XMLID_00000083058386368924179080000005684714593223577728_">
				<use xlink:href="#XMLID_4_"  style="overflow:visible;"/>
			</clipPath>
			<path style="clip-path:url(#XMLID_00000083058386368924179080000005684714593223577728_);fill:#EBAEBB;" d="M133.914,253.471
				c9.908,17.471,28.051,32.935,48.094,34.232c-1.171,5.009-2.671,8.935-3.842,13.944c-0.306,1.31,0.313,1.32-0.833,2.025
				c-0.891,0.548-2.012,0.5-3.053,0.403c-14.77-1.379-28.779-9.495-37.32-21.624c-2.933-4.164-5.272-8.86-5.985-13.903
				C130.261,263.505,130.688,257.413,133.914,253.471z"/>
			<path style="clip-path:url(#XMLID_00000083058386368924179080000005684714593223577728_);fill:#EBAEBB;" d="M384.442,258.369
				c-9.908,17.471-28.051,32.935-48.094,34.232c1.171,5.009,2.671,8.935,3.842,13.944c0.306,1.31-0.313,1.32,0.833,2.025
				c0.891,0.548,2.012,0.5,3.053,0.403c14.771-1.378,28.779-9.495,37.32-21.624c2.933-4.164,5.272-8.86,5.985-13.903
				C388.094,268.403,387.667,262.311,384.442,258.369z"/>
			<path style="clip-path:url(#XMLID_00000083058386368924179080000005684714593223577728_);fill:#EBAEBB;" d="M291.152,182.046
				c-15.664,12.571-49.497,7.509-68.6,1.306c-0.764,5.087-11.265,6.033-12.028,11.12c-0.2,1.33,53.752,46.901,98.206-1.51
				c3.445-3.752-9.691-1.53-7.165-5.953C304.091,182.587,292.692,186.901,291.152,182.046z"/>
		</g>
		<path style="fill:#D2D2D2;" d="M280.198,163.458c-5.573,3.758-14.184,4.663-21.49,4.098c-7.307-0.565-10.374-1.954-16.459-4.65
			c3.023,4.107,3.471,5.563,8.09,8.594c4.619,3.031,11.125,4.704,16.679,2.998C273.227,172.591,277.639,168.34,280.198,163.458z"/>
		<path style="fill:#E8A379;" d="M310.198,114.524c-0.163,24.26-21.474,54.696-47.877,54.518
			c-26.402-0.178-47.898-30.9-47.735-55.161c0.163-24.26,14.293-57.641,47.806-57.641C295.139,56.24,310.361,90.264,310.198,114.524
			z"/>
		<path style="fill:#D9896C;" d="M242.853,123.308c-0.12,3.657-3.182,6.524-6.839,6.404c-3.657-0.12-6.524-3.182-6.404-6.839
			c0.12-3.657,3.182-6.524,6.839-6.404C240.106,116.589,242.973,119.651,242.853,123.308z"/>
		<path style="fill:#D9896C;" d="M297.201,123.308c-0.12,3.657-3.182,6.524-6.839,6.404c-3.657-0.12-6.524-3.182-6.404-6.839
			c0.12-3.657,3.182-6.524,6.839-6.404C294.454,116.589,297.322,119.651,297.201,123.308z"/>
		<path style="fill:#4A2C13;" d="M247.149,90.974c1.96,0.071,4.032,0.389,5.531,1.653c1.499,1.264,2.112,3.743,0.817,5.216
			c-1.314,1.496-3.661,1.239-5.633,0.963c-3.202-0.447-6.444-0.607-9.674-0.483c-3.239,0.125-6.624,1.284-9.796,1.266
			c-2.678-0.015-0.261-2.463,0.993-3.396c2.313-1.722,5.109-2.97,7.845-3.841C240.427,91.334,243.796,90.853,247.149,90.974z"/>
		<path style="fill:#4A2C13;" d="M278.499,90.974c-1.96,0.071-4.032,0.389-5.531,1.653c-1.5,1.264-2.112,3.743-0.817,5.216
			c1.314,1.496,3.661,1.239,5.633,0.963c3.202-0.447,6.444-0.607,9.674-0.483c3.239,0.125,6.624,1.284,9.796,1.266
			c2.678-0.015,0.261-2.463-0.993-3.396c-2.313-1.722-5.109-2.97-7.844-3.841C285.221,91.334,281.852,90.853,278.499,90.974z"/>
		<g>
			<g>
				<path style="fill:#E8A379;" d="M152.233,256.878c0.618-2.706,2.5-4.949,4.562-6.807c2.062-1.858,4.368-3.454,6.243-5.501
					c3.3-3.602,5.042-8.35,6.311-13.068c1.268-4.718,2.154-9.571,4.096-14.054c1.132-2.613-1.939-5.108-3.449-7.522
					c-1.393-2.227-2.786-4.454-4.179-6.68c-1.25-1.999-1.037-4.03-0.986-6.288c0.134-5.915,1.441-11.286,2.581-16.719
					c1.26-0.773,3.143-0.396,4.032,0.785c1.677,2.227,1.732,5.248,1.579,8.032c-0.133,2.411,0.345,4.637,0.008,7.029
					c-0.472,3.343,1.589,5.841,4.245,8.554c0.849-6.123,0.611-11.891,0.476-18.07c-0.187-8.519,3.34-16.5,5.136-24.83
					c1.697-0.235,3.345,0.993,4.239,2.454c0.894,1.462,1.124,3.235,1.126,4.948c0.003,2.735-0.6,6.542-1.695,11.086
					c2.629-7.97,5.239-15.887,7.868-23.857c2.294,0.138,3.895,2.256,4.537,4.463c0.642,2.207,0.327,4.569-0.082,6.83
					c-1.07,5.915-2.754,11.719-5.016,17.289c-2.146,5.284-0.757,11.423-0.451,17.118c3.886-2.722,7.479-4.347,11.981-5.844
					c2.081-0.692,3.994,1.012,5.692,2.401c2.875,2.352,6.256,4.431,8.01,7.705c2.281,4.257,2.957,5.734,3.481,10.332
					c-1.163,1.442-3.665,1.64-5.345,0.859c-1.68-0.78-2.885-2.315-3.837-3.904c-0.953-1.589-1.728-3.296-2.886-4.743
					c-1.158-1.446-2.808-2.641-4.66-2.696c-2.355,1.762-5.323,3.528-8.206,4.109c-0.893,1.783-1.594,4.238-1.397,6.222
					c0.417,4.203,4.141,7.516,7.236,10.39c3.962,0.032,7.339-2.079,9.595-5.336c2.886-4.165,7.879-5.357,12.766-4.02
					c2.38-0.02,2.991,3.83,1.504,5.197c-6.213,5.713-16.611,13.309-23.696,19.505c-3.782,3.307-6.958,7.382-11.277,9.947
					c-4.876,2.895-11.031,3.759-14.983,7.826"/>
				<path style="fill:#E8A379;" d="M156.794,250.071c-9.227,9.951-19.197,22.994-29.317,31.341
					c-10.12,8.348-20.772,16.264-29.058,26.434C90.132,318.017,84.322,331,85.844,344.03c0.712,6.091,3.54,12.542,9.175,14.961
					c5.98,2.567,12.882-0.243,18.332-3.801c17.193-11.221,28.356-29.51,37.75-47.766c9.394-18.256,17.814-37.418,31.586-52.644"/>
				<path style="fill:none;stroke:#C67E52;stroke-width:0.8753;stroke-linecap:round;stroke-miterlimit:10;" d="M185.735,202.62
					c0.41-7.909,0.53-12.944,0.821-22.393c0.052-1.7,5.399-14.674,5.914-17.13"/>
				<path style="fill:none;stroke:#C67E52;stroke-width:0.8753;stroke-linecap:round;stroke-miterlimit:10;" d="M157.124,294.876
					c-11.044,18.125-16.934,30.824-29.369,48.024"/>
			</g>
			<path style="fill:none;stroke:#C67E52;stroke-width:0.8753;stroke-linecap:round;stroke-miterlimit:10;" d="M181.506,169.08
				c0.513,0.227,1.107,0.456,1.615,0.216c0.509-0.24,0.71-0.848,0.855-1.392c0.452-1.699,0.859-3.41,1.22-5.13"/>
			<path style="fill:none;stroke:#C67E52;stroke-width:0.8753;stroke-linecap:round;stroke-miterlimit:10;" d="M192.47,163.097
				c0.174,0.431,0.701,0.648,1.156,0.56c0.456-0.088,0.833-0.424,1.077-0.819c0.244-0.395,0.375-0.848,0.502-1.294
				c0.409-1.43,0.818-2.646,1.226-4.076"/>
			<path style="fill:none;stroke:#C67E52;stroke-width:0.8753;stroke-linecap:round;stroke-miterlimit:10;" d="M166.217,186.13
				c0.497,0.561,1.456,0.469,2.029-0.013c0.573-0.482,0.841-1.232,1.024-1.958c0.353-1.402,0.48-2.345,0.606-3.785"/>
			<path style="fill:none;stroke:#C67E52;stroke-width:0.8753;stroke-linecap:round;stroke-miterlimit:10;" d="M220.946,210.517
				c-0.707-0.11-1.378,0.475-1.597,1.156c-0.22,0.681-0.095,1.422,0.073,2.118c0.329,1.367,0.815,2.697,1.446,3.954"/>
		</g>
		<path style="fill:none;stroke:#C67E52;stroke-width:0.8753;stroke-linecap:round;stroke-miterlimit:10;" d="M260.624,100.216
			c0.468,6.833,0.161,13.719-0.914,20.483c-0.266,1.671-0.553,3.496,0.289,4.965c0.842,1.468,2.644,2.167,4.336,2.151
			c1.692-0.015,3.315-0.622,4.898-1.222"/>
		<path style="fill:#FBF3E7;" d="M278.83,136.98c-9.675-1.408-19.553-1.415-29.23-0.021c3.143,5.32,8.296,8.968,14.475,8.93
			C270.252,145.852,275.752,142.337,278.83,136.98z"/>
		<path style="fill:none;stroke:#000000;stroke-width:1.8517;stroke-linecap:round;stroke-miterlimit:10;" d="M248.21,110.687
			c-1.976-2.552-5.139-4.142-8.365-4.207c-3.226-0.064-6.45,1.399-8.526,3.869"/>
		<path style="fill:none;stroke:#000000;stroke-width:1.8517;stroke-linecap:round;stroke-miterlimit:10;" d="M275.114,110.687
			c1.976-2.552,5.139-4.142,8.365-4.207c3.226-0.064,6.45,1.399,8.526,3.869"/>
		<path style="fill:#4A2C13;" d="M214.352,110.542c3.592-0.378,5.589-4.343,6.351-7.874c0.762-3.53,1.13-7.504,3.803-9.932
			c4.232-3.843,11.653-1.502,16.072-5.128c3.627-2.976,3.68-8.715,6.947-12.083c5.671-5.844,16.622-1.041,23.115-5.955
			c3.702-2.802,4.713-7.844,5.457-12.427c0.759-4.672-4.234-8.126-8.742-9.57c-3.055-0.978-6.358,0.031-9.376,1.118
			c-11.996,4.318-23.711,10.082-32.955,18.861c-9.245,8.78-15.827,20.904-15.893,33.653
			C209.111,105.204,210.83,108.647,214.352,110.542z"/>
		<path style="fill:#4A2C13;" d="M273.045,65.329c0.637,2.981,2.739,5.612,5.505,6.892c4.057,1.878,9.714,1.294,12.038,5.112
			c2.4,3.943-0.697,10.092,2.711,13.206c2.107,1.925,5.637,1.448,7.8,3.31c2.048,1.762,2.087,4.839,2.326,7.529
			c0.239,2.69,1.859,6.727,4.518,7.203c2.011,0.361,3.476-2.024,4.266-3.908c0.79-1.884,0.664-4.015,0.437-6.046
			c-1.071-9.57-4.132-18.912-8.931-27.261c-2.845-4.949-6.41-9.658-11.262-12.665C285.858,54.616,270.48,53.331,273.045,65.329z"/>
		<path style="fill:none;stroke:#4A2C13;stroke-width:0.8753;stroke-miterlimit:10;" d="M213.464,108.219
			c5.794-0.528,10.972-5.163,12.137-10.863c0.425-2.082,0.494-4.509,2.147-5.845c1.654-1.336,4.043-0.892,6.168-0.806
			c6.05,0.244,12.084-3.375,14.717-8.827c0.773-1.6,1.306-3.382,2.562-4.64c2.401-2.404,6.3-1.967,9.697-2.04
			c2.971-0.064,6.01-0.69,8.466-2.362c2.456-1.672,4.232-4.522,4.077-7.49c-0.494,3.374,4.332,8.872,7.705,9.372
			c1.46,0.216,3.026-0.053,4.366,0.567c1.877,0.87,2.619,3.168,2.712,5.234c0.093,2.067-0.251,4.188,0.323,6.176
			c0.547,1.898,1.952,3.53,3.746,4.355c3.93,1.807,8.993-0.256,12.659,2.04"/>
		<path style="fill:none;stroke:#4A2C13;stroke-width:0.8753;stroke-miterlimit:10;" d="M281.244,45.711
			c7.182-0.113,14.324,3.471,18.526,9.296c3.916,5.43,5.487,12.687,10.811,16.746c4.045,3.084,9.484,3.668,13.858,6.263
			c6.241,3.703,9.58,11.71,7.82,18.75c-1.118,4.472-3.933,9.55-1.137,13.215c1.394,1.828,3.763,2.541,5.784,3.637
			c4.982,2.702,8.182,8.392,7.902,14.052c-0.224,4.541-2.426,9.361-0.345,13.403c3.029,5.882,12.917,5.6,15.429,11.721
			c2.508,6.114-4.685,13.145-2.071,19.215c2.146,4.982,9.508,5.787,11.978,10.616c1.549,3.028,0.618,6.85-1.412,9.579
			c-2.029,2.73-4.979,4.601-7.859,6.41"/>
		<path style="fill:none;stroke:#D7D7D7;stroke-width:0.8753;stroke-miterlimit:10;" d="M266.939,124.573
			c0.656-0.963,1.944-1.429,3.077-1.156c1.133,0.273,2.055,1.243,2.318,2.378c0.264,1.135-0.118,2.387-0.934,3.219
			c-0.816,0.832-2.031,1.238-3.19,1.114"/>
		<path style="fill:none;stroke:#7F8256;stroke-width:0.8753;stroke-linecap:round;stroke-miterlimit:10;" d="M189.308,269.674
			c-6.258,14.657-12.65,30.255-10.354,46.026"/>
		<path style="fill:none;stroke:#7F8256;stroke-width:0.8753;stroke-linecap:round;stroke-miterlimit:10;" d="M332.409,278.115
			c3.521,9.487,6.007,19.358,7.4,29.381"/>
		<path style="fill:none;stroke:#7F8256;stroke-width:0.8753;stroke-linecap:round;stroke-miterlimit:10;" d="M337.342,340.692
			c-3.058,5.578-8.521,9.535-14.411,11.938c-5.89,2.403-12.243,3.404-18.542,4.294c-1.441,0.204-2.931,0.419-4.164,1.192
			c-1.233,0.773-2.141,2.266-1.766,3.672c0.539,2.021,3.107,2.586,5.198,2.652c11.568,0.367,23.225-3.125,32.686-9.791"/>
		<path style="fill:none;stroke:#7F8256;stroke-width:0.8753;stroke-linecap:round;stroke-miterlimit:10;" d="M328.894,368.237
			c-7.461,6.404-17.47,9.752-27.282,9.127"/>
		<path style="fill:none;stroke:#7F8256;stroke-width:0.8753;stroke-linecap:round;stroke-miterlimit:10;" d="M184.195,365.407
			c19.219,9.193,40.789,13.421,62.057,12.164c2.859-0.169,6.408-0.068,7.684,2.496c0.913,1.836,0.046,4.165-1.491,5.523
			c-1.537,1.358-3.586,1.956-5.578,2.445c-16.782,4.12-34.78,3.14-51.015-2.778"/>
		<path style="fill:none;stroke:#7F8256;stroke-width:0.8753;stroke-linecap:round;stroke-miterlimit:10;" d="M247.611,397.692
			c8.806,1.488,17.986,0.708,26.414-2.244"/>
		<path style="fill:none;stroke:#7F8256;stroke-width:0.8753;stroke-linecap:round;stroke-miterlimit:10;" d="M301.27,206.547
			c-7.003,9.737-16.693,17.658-27.93,21.851s-24.016,4.511-35.19,0.152c-2.223-0.867-4.503-2.023-5.718-4.077
			c-1.215-2.054-0.813-5.207,1.357-6.199c2.244-1.025,4.71,0.65,6.757,2.027c6.782,4.56,15.224,6.589,23.337,5.607"/>
		<path style="fill:none;stroke:#7F8256;stroke-width:0.8753;stroke-linecap:round;stroke-miterlimit:10;" d="M186.235,330.852
			c11.243,6.656,25.499,7.97,37.769,3.48"/>
		<path style="fill:none;stroke:#7F8256;stroke-width:0.8753;stroke-linecap:round;stroke-miterlimit:10;" d="M297.651,326.054
			c11.245,4.611,24.622,3.652,35.094-2.515"/>
		<g>
			<g>
				<path style="fill:#E8A379;" d="M361.263,257.63c-0.182-2.77-1.684-5.283-3.426-7.444c-1.741-2.161-3.766-4.103-5.293-6.42
					c-2.688-4.079-3.656-9.044-4.161-13.903c-0.505-4.859-0.611-9.792-1.818-14.525c-0.703-2.759,2.724-4.736,4.597-6.881
					c1.728-1.978,3.456-3.956,5.184-5.934c1.551-1.776,1.663-3.815,1.97-6.052c0.804-5.861,0.365-11.371,0.1-16.917
					c-1.121-0.963-3.041-0.889-4.106,0.136c-2.009,1.933-2.541,4.908-2.831,7.681c-0.251,2.402-1.075,4.524-1.121,6.939
					c-0.064,3.376-2.494,5.516-5.546,7.774c0.131-6.18,1.28-11.837,2.392-17.918c1.534-8.382-0.685-16.82-1.138-25.33
					c-1.638-0.501-3.46,0.451-4.574,1.752c-1.114,1.302-1.622,3.016-1.895,4.707c-0.436,2.7-0.444,6.554-0.083,11.215
					c-1.333-8.285-2.656-16.516-3.99-24.802c-2.287-0.227-4.204,1.61-5.187,3.687c-0.983,2.077-1.047,4.459-1.001,6.757
					c0.12,6.01,0.863,12.008,2.214,17.865c1.282,5.557-1.062,11.399-2.266,16.973c-3.406-3.303-6.696-5.477-10.904-7.668
					c-1.945-1.013-4.104,0.367-6,1.469c-3.211,1.866-6.879,3.384-9.13,6.339c-2.927,3.842-3.828,5.193-5.073,9.65
					c0.92,1.608,3.359,2.199,5.141,1.695c1.783-0.504,3.215-1.829,4.407-3.247c1.192-1.418,2.228-2.981,3.601-4.226
					c1.372-1.245,3.191-2.163,5.028-1.924c2.046,2.113,4.697,4.327,7.452,5.358c0.599,1.902,0.902,4.437,0.394,6.365
					c-1.077,4.084-5.279,6.765-8.791,9.113c-3.917-0.596-6.917-3.215-8.629-6.788c-2.189-4.569-6.931-6.538-11.968-5.991
					c-2.347-0.396-3.56,3.308-2.308,4.893c5.23,6.625,14.293,15.772,20.307,23.012c3.21,3.865,5.7,8.391,9.559,11.607
					c4.356,3.631,10.296,5.459,13.554,10.1"/>
				<path style="fill:#E8A379;" d="M357.837,250.186c7.534,11.286,15.312,25.744,23.982,35.59
					c8.67,9.845,17.933,19.349,24.504,30.703c6.571,11.355,10.251,25.094,6.684,37.719c-1.667,5.901-5.482,11.823-11.429,13.319
					c-6.311,1.587-12.681-2.281-17.499-6.656c-15.198-13.803-23.324-33.629-29.707-53.143
					c-6.383-19.513-11.661-39.767-22.848-56.983"/>
				<path style="fill:none;stroke:#C67E52;stroke-width:0.8753;stroke-linecap:round;stroke-miterlimit:10;" d="M336.779,198.75
					c0.848-7.874,1.527-12.865,2.737-22.24c0.218-1.687-3.006-15.344-3.126-17.85"/>
				<path style="fill:none;stroke:#C67E52;stroke-width:0.8753;stroke-linecap:round;stroke-miterlimit:10;" d="M350.414,294.374
					c8.033,19.645,11.837,33.118,21.391,52.07"/>
			</g>
			<path style="fill:none;stroke:#C67E52;stroke-width:0.8753;stroke-linecap:round;stroke-miterlimit:10;" d="M346.267,166.303
				c-0.543,0.143-1.166,0.274-1.629-0.043c-0.465-0.318-0.567-0.95-0.624-1.51c-0.177-1.749-0.308-3.502-0.391-5.258"/>
			<path style="fill:none;stroke:#C67E52;stroke-width:0.8753;stroke-linecap:round;stroke-miterlimit:10;" d="M336.389,158.66
				c-0.24,0.398-0.794,0.529-1.231,0.37c-0.436-0.159-0.755-0.551-0.934-0.979c-0.179-0.429-0.236-0.896-0.291-1.357
				c-0.177-1.477-0.388-2.742-0.565-4.219"/>
			<path style="fill:none;stroke:#C67E52;stroke-width:0.8753;stroke-linecap:round;stroke-miterlimit:10;" d="M358.662,185.56
				c-0.579,0.475-1.512,0.232-2.001-0.335c-0.49-0.567-0.635-1.349-0.701-2.096c-0.126-1.44-0.103-2.392,0.001-3.834"/>
			<path style="fill:none;stroke:#C67E52;stroke-width:0.8753;stroke-linecap:round;stroke-miterlimit:10;" d="M300.761,200.969
				c0.716,0.003,1.285,0.687,1.394,1.395c0.109,0.707-0.132,1.419-0.408,2.08c-0.542,1.298-1.232,2.533-2.054,3.675"/>
		</g>
		<path style="fill:none;stroke:#61391B;stroke-width:0.8753;stroke-miterlimit:10;" d="M271.783,60.836
			c-2.592,4.334-8.583,4.839-13.629,4.645c-5.046-0.194-10.892-0.267-14.145,3.595c-2.706,3.214-2.565,8.098-5.141,11.417
			c-4.656,5.998-15.028,3.64-20.489,8.914c-3.031,2.928-3.736,7.432-4.558,11.566s-2.25,8.658-5.945,10.684"/>
		<path style="fill:none;stroke:#61391B;stroke-width:0.8753;stroke-miterlimit:10;" d="M269.449,52.801
			c-3.615,4.576-10.228,5.144-16.058,5.285c-5.83,0.141-12.414,0.565-16.194,5.006c-2.918,3.427-3.417,8.529-6.651,11.66
			c-3.741,3.622-9.882,3.436-14.032,6.581c-3.836,2.908-5.165,7.965-6.591,12.563c-2.303,7.426-5.471,14.583-9.419,21.281"/>
		<path style="fill:none;stroke:#61391B;stroke-width:0.8753;stroke-miterlimit:10;" d="M275.542,59.349
			c0.987,3.044,4.092,4.914,7.173,5.781c3.081,0.868,6.342,1.012,9.375,2.036c3.032,1.023,5.98,3.262,6.491,6.421
			c0.544,3.358-1.754,7.002-0.248,10.051c2.087,4.226,9.593,3.51,11.165,7.953c0.844,2.385-0.603,4.976-0.455,7.502
			c0.191,3.266,2.905,5.71,5.071,8.162c2.166,2.451,3.972,6.102,2.194,8.848"/>
		<g>
			<path style="fill:#E8A379;" d="M219.72,120.053c-0.045,6.727-4.84,12.149-10.71,12.11c-5.87-0.039-10.591-5.525-10.546-12.253
				c0.045-6.727,4.84-12.149,10.71-12.11C215.043,107.84,219.765,113.325,219.72,120.053z"/>
			<path style="fill:none;stroke:#000000;stroke-width:1.8517;stroke-linecap:round;stroke-miterlimit:10;" d="M212.245,119.352
				c-2.546-1.153-5.029-2.447-7.432-3.873"/>
			<path style="fill:none;stroke:#000000;stroke-width:1.8517;stroke-linecap:round;stroke-miterlimit:10;" d="M207.715,124.384
				c0.081-2.324,0.161-4.649,0.242-6.973"/>
		</g>
		<g>
			<path style="fill:#E8A379;" d="M302.754,119.64c-0.045,6.727,4.676,12.213,10.546,12.252c5.87,0.039,10.664-5.382,10.71-12.11
				c0.045-6.727-4.676-12.213-10.546-12.253C307.594,107.491,302.799,112.912,302.754,119.64z"/>
			<path style="fill:none;stroke:#000000;stroke-width:1.8517;stroke-linecap:round;stroke-miterlimit:10;" d="M310.238,119.039
				c2.561-1.119,5.061-2.379,7.484-3.773"/>
			<path style="fill:none;stroke:#000000;stroke-width:1.8517;stroke-linecap:round;stroke-miterlimit:10;" d="M314.7,124.132
				c-0.049-2.325-0.099-4.65-0.148-6.976"/>
		</g>
		<path style="fill:none;stroke:#61391B;stroke-width:0.8753;stroke-miterlimit:10;" d="M209.051,83.444
			c-0.166-4.024,2.898-7.466,6.208-9.762c3.31-2.295,7.115-3.993,9.811-6.985c3.586-3.978,4.843-9.857,9.075-13.139
			c3.96-3.072,9.415-3.036,14.426-3.041c5.012-0.005,10.568-0.416,14.051-4.019"/>
		<path style="fill:none;stroke:#61391B;stroke-width:0.8753;stroke-miterlimit:10;" d="M205.244,90.3
			c-3.99,3.98-5.468,10.286-3.661,15.625"/>
		<path style="fill:none;stroke:#61391B;stroke-width:0.8753;stroke-miterlimit:10;" d="M195.596,120.974
			c-3.656,0.678-5.952,4.548-6.329,8.247c-0.378,3.699,0.655,7.377,1.151,11.062c0.496,3.685,0.347,7.767-1.993,10.658
			c-2.909,3.593-8.293,4.267-11.459,7.637c-2.182,2.322-3.008,5.661-2.912,8.846c0.096,3.185,1.02,6.279,1.936,9.33"/>
		<path style="fill:none;stroke:#61391B;stroke-width:0.8753;stroke-miterlimit:10;" d="M160.843,191.557
			c-1.242-0.034-2.357,0.893-2.886,2.018c-0.528,1.125-0.575,2.412-0.528,3.653c0.215,5.632,2.223,11.182,5.662,15.647"/>
		<path style="fill:none;stroke:#61391B;stroke-width:0.8753;stroke-miterlimit:10;" d="M280.802,53.548
			c1.626,4.641,6.795,6.828,11.392,8.573c4.597,1.745,9.731,4.178,11.019,8.924c0.832,3.063-0.121,6.68,1.754,9.241
			c2.152,2.94,6.601,2.66,9.813,4.381c3.013,1.614,4.762,4.983,5.278,8.362c0.516,3.379-0.021,6.82-0.557,10.196"/>
		<path style="fill:none;stroke:#61391B;stroke-width:0.8753;stroke-miterlimit:10;" d="M326.812,115.699
			c-0.024,2.783,2.271,5.003,4.556,6.591c2.286,1.588,4.879,3.072,6.043,5.6c2.42,5.259-2.545,12.255,0.883,16.92
			c1.981,2.696,5.828,3.118,8.548,5.066c3.963,2.838,4.85,8.299,5.042,13.17c0.192,4.871,0.151,10.158,3.111,14.032"/>
		<path style="fill:none;stroke:#61391B;stroke-width:0.8753;stroke-miterlimit:10;" d="M324.458,130.497
			c4.196,2.236,4.85,8.088,3.66,12.691c-1.189,4.604-3.669,8.934-3.829,13.686c-0.162,4.801,2.061,9.307,3.588,13.861
			s2.268,9.942-0.51,13.861"/>
	</g>
	<g>
		<defs>
			<rect id="SVGID_1_" y="-0.558" width="500" height="501.116"/>
		</defs>
		<clipPath id="SVGID_00000116200472400182505920000012467693465809246103_">
			<use xlink:href="#SVGID_1_"  style="overflow:visible;"/>
		</clipPath>
		<g style="clip-path:url(#SVGID_00000116200472400182505920000012467693465809246103_);">
			<g>
				<path style="fill:#8E5634;" d="M505.861,53.912c-11.508,9.031-38.347,38.462-51.474,44.919
					c-12.453,6.126-26.689-0.883-40.299-3.601c-9.534-1.904-15.932-11.928-22.588-19.015c-1.517-0.345-3.258,0.915-4.034,2.264
					c-0.776,1.349-0.889,2.977-0.81,4.531c0.303,5.925,3.137,11.494,6.913,16.07c3.776,4.575,8.473,8.286,13.131,11.96
					c0.873,0.688,1.547,2.106,2.169,3.027c-5.229,5.233-9.718,10.41-14.947,15.643c-2.263,2.265-4.659,4.802-4.955,7.989
					c-0.281,3.033,1.625,6.083,4.388,7.366c2.763,1.282,6.188,0.839,8.675-0.92c-2.39,2.689-2.1,7.957,0.455,10.49
					c2.555,2.533,7.118,2.637,9.786,0.223c-1.565,1.315-1.866,5.111-0.946,6.937c0.92,1.826,2.925,2.977,4.964,3.121
					c2.039,0.144,4.077-0.633,5.695-1.882c-0.92,1.665-0.786,4.523,0.744,5.653c1.53,1.13,3.671,1.212,5.443,0.519
					c1.772-0.693,2.77-2.501,4.31-3.618c15.789-11.452,26.091-23.294,36.205-37.054c1.449-1.971,3.387-3.524,5.62-4.522
					c15.097-6.746,34.003-16.744,48.463-22.946"/>
				
					<path style="fill:none;stroke:#7C4124;stroke-width:0.8971;stroke-linecap:round;stroke-linejoin:round;stroke-miterlimit:10;" d="
					M401.985,144.566c6.044-4.962,12.088-9.924,18.133-14.887c1.551-1.273,3.156-2.616,3.961-4.454
					c0.805-1.838,0.524-4.319-1.164-5.405c-1.925-1.238-4.444-0.141-6.448,0.966c-7.482,4.133-14.926,8.334-22.331,12.603"/>
				
					<path style="fill:none;stroke:#7C4124;stroke-width:0.8971;stroke-linecap:round;stroke-linejoin:round;stroke-miterlimit:10;" d="
					M411.707,154.868c7.233-6.348,14.484-12.714,20.941-19.851c0.932-1.03,1.861-2.096,2.437-3.361s0.763-2.774,0.185-4.037
					c-0.848-1.855-3.156-2.696-5.175-2.399c-2.018,0.297-3.785,1.493-5.36,2.791c-1.574,1.298-13.953,9.405-16.605,11.508"/>
				
					<path style="fill:none;stroke:#7C4124;stroke-width:0.8971;stroke-linecap:round;stroke-linejoin:round;stroke-miterlimit:10;" d="
					M422.396,162.572c6.309-6.709,11.815-14.171,16.365-22.178c0.602-1.06,0.905-2.23,0.829-3.446
					c-0.075-1.216-0.641-2.427-1.629-3.141c-0.987-0.715-3.161-0.793-4.456,0.234"/>
				
					<path style="fill:none;stroke:#7C4124;stroke-width:0.8971;stroke-linecap:round;stroke-linejoin:round;stroke-miterlimit:10;" d="
					M432.914,164.583c3.987-6.333,6.618-10.874,9.006-17.967c0.634-2.977,0.303-3.605-0.067-4.327s-0.963-1.365-1.733-1.619
					c-0.77-0.254-1.663,0.365-2.116,1.038"/>
				
					<path style="fill:none;stroke:#7C4124;stroke-width:0.8971;stroke-linecap:round;stroke-linejoin:round;stroke-miterlimit:10;" d="
					M396.389,81.904c-0.389,0.71-1.379,0.901-2.139,0.623c-0.76-0.279-1.333-0.906-1.841-1.536
					c-0.867-1.075-1.642-2.227-2.268-3.458c0.305-0.56,0.872-1.064,1.421-1.39C393.153,78.034,394.799,80.013,396.389,81.904z"/>
				
					<path style="fill:none;stroke:#7C4124;stroke-width:0.8013;stroke-linecap:round;stroke-linejoin:round;stroke-miterlimit:10;" d="
					M431.056,125.355c-0.755,0.975-1.736,1.687-2.585,2.562c-1.324,1.365-2.133,3.217-0.964,4.95
					c0.664,0.985,1.792,1.643,2.979,1.302c1.023-0.294,1.87-1.083,2.576-1.846c0.882-0.953,1.771-1.916,2.556-2.952"/>
				
					<path style="fill:none;stroke:#7C4124;stroke-width:0.8971;stroke-linecap:round;stroke-linejoin:round;stroke-miterlimit:10;" d="
					M421.259,119.433c-1.631,0.618-3.081,1.705-4.131,3.097c-0.426,1.044-0.185,2.193,0.452,3.123
					c0.637,0.93,1.759,1.507,2.885,1.485c1.441-0.027,2.513-1.414,3.585-2.377"/>
				
					<path style="fill:none;stroke:#7C4124;stroke-width:0.8971;stroke-linecap:round;stroke-linejoin:round;stroke-miterlimit:10;" d="
					M435.606,133.283c-0.837,0.677-2.008,1.938-2.531,2.879c-0.523,0.941-0.639,2.192,0.007,3.054c0.746,0.995,2.256,1.13,3.4,0.643
					s2.292-1.973,3.109-2.911"/>
				
					<path style="fill:none;stroke:#7C4124;stroke-width:0.8971;stroke-linecap:round;stroke-linejoin:round;stroke-miterlimit:10;" d="
					M437.037,143.327c-0.508,0.976-1.062,2.257-0.909,3.141s0.968,1.686,1.858,1.579c0.677-0.082,1.197-0.625,1.623-1.157
					c0.988-1.235,1.813-2.601,2.445-4.05"/>
				
					<path style="fill:none;stroke:#7C4124;stroke-width:0.8971;stroke-linecap:round;stroke-linejoin:round;stroke-miterlimit:10;" d="
					M411.465,116.715c-3.168-3.979-7.115-7.251-10.935-10.608c-3.821-3.357-7.59-6.884-10.266-11.208
					c-2.676-4.325-4.179-9.588-3.095-14.556c0.433-1.983,2.061-3.582,3.961-4.295"/>
			</g>
			<g>
				<path style="fill:#DE9E76;" d="M-13.008,496.371c10.813-8.96,52.991-46.655,61.718-57.656c8.28-10.437,4.6-25.218,4.818-38.538
					c0.153-9.331-7.95-17.373-13.245-25.058c-0.015-1.493,1.521-2.87,2.944-3.324c1.423-0.454,2.974-0.229,4.415,0.162
					c5.496,1.489,10.145,5.281,13.669,9.754c3.524,4.473,6.05,9.634,8.549,14.751c0.468,0.959,1.661,1.879,2.399,2.65
					c5.973-3.841,11.743-6.999,17.715-10.841c2.585-1.662,5.452-3.395,8.503-3.023c2.902,0.353,5.377,2.762,6.018,5.614
					c0.641,2.853-0.472,5.976-2.627,7.951c3.009-1.696,7.892-0.352,9.749,2.56c1.856,2.912,1.026,7.214-1.782,9.226
					c1.552-1.201,5.174-0.711,6.7,0.524c1.525,1.235,2.198,3.349,1.918,5.292c-0.28,1.942-1.423,3.696-2.924,4.96
					c1.749-0.524,4.403,0.182,5.152,1.848s0.39,3.69-0.62,5.212c-1.011,1.521-2.91,2.09-4.271,3.307
					c-13.955,12.483-27.16,19.739-42.126,26.428c-2.144,0.958-3.995,2.461-5.385,4.353c-9.399,12.791-26.976,38.235-35.735,50.539"
					/>
				
					<path style="fill:none;stroke:#C9815C;stroke-width:0.8611;stroke-linecap:round;stroke-linejoin:round;stroke-miterlimit:10;" d="
					M102.274,398.856c-5.885,4.661-11.769,9.322-17.654,13.983c-1.51,1.196-3.096,2.428-4.984,2.81
					c-1.888,0.381-4.159-0.387-4.834-2.191c-0.77-2.058,0.772-4.198,2.218-5.853c5.399-6.178,10.854-12.307,16.365-18.386"/>
				
					<path style="fill:none;stroke:#C9815C;stroke-width:0.8611;stroke-linecap:round;stroke-linejoin:round;stroke-miterlimit:10;" d="
					M109.961,410.073c-7.427,5.494-14.874,11.002-22.882,15.608c-1.156,0.665-2.345,1.319-3.649,1.603
					c-1.303,0.284-2.757,0.152-3.825-0.647c-1.568-1.173-1.887-3.51-1.198-5.343c0.689-1.833,2.171-3.247,3.709-4.46
					c1.538-1.213,11.661-11.177,14.174-13.237"/>
				
					<path style="fill:none;stroke:#C9815C;stroke-width:0.8611;stroke-linecap:round;stroke-linejoin:round;stroke-miterlimit:10;" d="
					M115.015,421.667c-7.577,4.554-15.698,8.202-24.134,10.842c-1.116,0.349-2.276,0.395-3.402,0.077
					c-1.126-0.318-2.146-1.095-2.616-2.167c-0.469-1.072-0.101-3.127,1.126-4.133"/>
				
					<path style="fill:none;stroke:#C9815C;stroke-width:0.8611;stroke-linecap:round;stroke-linejoin:round;stroke-miterlimit:10;" d="
					M114.762,431.944c-6.752,2.453-11.548,3.996-18.687,4.794c-2.922-0.01-3.444-0.449-4.046-0.943
					c-0.602-0.494-1.085-1.181-1.166-1.955c-0.082-0.774,0.681-1.485,1.404-1.774"/>
				
					<path style="fill:none;stroke:#C9815C;stroke-width:0.8611;stroke-linecap:round;stroke-linejoin:round;stroke-miterlimit:10;" d="
					M44.627,380.862c0.745-0.221,1.126-1.111,1.019-1.88c-0.107-0.77-0.579-1.435-1.066-2.039c-0.832-1.032-1.755-1.994-2.783-2.831
					c-0.587,0.172-1.176,0.602-1.593,1.05C41.654,377.038,43.177,378.985,44.627,380.862z"/>
				
					<path style="fill:none;stroke:#C9815C;stroke-width:0.7692;stroke-linecap:round;stroke-linejoin:round;stroke-miterlimit:10;" d="
					M78.339,422.222c1.068-0.51,1.936-1.286,2.929-1.904c1.55-0.965,3.451-1.347,4.84,0.103c0.789,0.824,1.177,2.016,0.616,3.06
					c-0.484,0.9-1.397,1.534-2.255,2.041c-1.074,0.634-2.158,1.271-3.289,1.797"/>
				
					<path style="fill:none;stroke:#C9815C;stroke-width:0.8611;stroke-linecap:round;stroke-linejoin:round;stroke-miterlimit:10;" d="
					M74.776,411.826c0.912-1.404,2.226-2.543,3.746-3.246c1.066-0.187,2.095,0.272,2.838,1.059c0.742,0.787,1.056,1.956,0.807,3.009
					c-0.319,1.346-1.838,2.07-2.959,2.88"/>
				
					<path style="fill:none;stroke:#C9815C;stroke-width:0.8611;stroke-linecap:round;stroke-linejoin:round;stroke-miterlimit:10;" d="
					M84.851,428.103c0.806-0.648,2.226-1.49,3.216-1.789c0.989-0.3,2.187-0.153,2.864,0.628c0.782,0.902,0.602,2.346-0.089,3.32
					c-0.69,0.974-2.318,1.749-3.363,2.325"/>
				
					<path style="fill:none;stroke:#C9815C;stroke-width:0.8611;stroke-linecap:round;stroke-linejoin:round;stroke-miterlimit:10;" d="
					M93.983,431.488c1.019-0.278,2.333-0.537,3.131-0.214c0.798,0.323,1.385,1.251,1.103,2.064
					c-0.214,0.619-0.829,0.996-1.416,1.287c-1.36,0.676-2.808,1.172-4.297,1.47"/>
				
					<path style="fill:none;stroke:#C9815C;stroke-width:0.8611;stroke-linecap:round;stroke-linejoin:round;stroke-miterlimit:10;" d="
					M74.218,402.085c-3.088-3.781-5.355-8.149-7.727-12.416c-2.372-4.267-4.914-8.52-8.427-11.911
					c-3.513-3.39-8.144-5.871-13.026-5.864c-1.948,0.003-3.779,1.205-4.835,2.842"/>
			</g>
			<g>
				<path style="fill:#8E5634;" d="M-5.807,302.565c12.501-3.907,18.436-7.078,29.859-13.485
					c10.837-6.078,12.89-20.135,17.791-31.554c3.432-7.999-0.715-17.805-2.566-26.31c0.515-1.294,2.328-1.939,3.717-1.827
					c1.389,0.112,2.647,0.854,3.753,1.701c4.217,3.229,6.887,8.146,8.346,13.253c1.459,5.107,1.813,10.454,2.16,15.754
					c0.065,0.993,0.769,2.21,1.133,3.136c6.513-1.202,12.61-1.887,19.123-3.089c2.818-0.52,5.906-1.001,8.407,0.399
					c2.38,1.332,3.663,4.285,3.207,6.974c-0.456,2.689-2.521,4.99-5.08,5.932c3.196-0.399,6.935,2.488,7.507,5.658
					c0.572,3.17-1.667,6.589-4.801,7.332c1.764-0.487,4.717,1.217,5.597,2.822c0.88,1.605,0.712,3.668-0.217,5.245
					c-0.928,1.577-2.535,2.686-4.278,3.246c1.695,0.166,3.735,1.715,3.792,3.417c0.057,1.702-0.969,3.323-2.379,4.278
					c-1.41,0.955-3.25,0.774-4.856,1.343c-16.458,5.836-30.421,7.427-45.703,7.906c-2.189,0.069-4.318,0.71-6.187,1.852
					c-12.636,7.714-29.604,16.587-41.515,24.107"/>
				
					<path style="fill:none;stroke:#7C4124;stroke-width:0.8032;stroke-linecap:round;stroke-linejoin:round;stroke-miterlimit:10;" d="
					M84.378,273.63c-6.727,1.941-13.454,3.882-20.182,5.823c-1.726,0.498-3.531,1-5.295,0.662c-1.764-0.339-3.452-1.805-3.396-3.601
					c0.063-2.048,2.151-3.35,3.984-4.266c6.845-3.422,13.721-6.782,20.627-10.078"/>
				
					<path style="fill:none;stroke:#7C4124;stroke-width:0.8032;stroke-linecap:round;stroke-linejoin:round;stroke-miterlimit:10;" d="
					M87.044,286.029c-8.353,2.115-16.728,4.233-25.268,5.376c-1.233,0.165-2.491,0.309-3.716,0.093
					c-1.225-0.216-2.433-0.845-3.072-1.912c-0.938-1.567-0.387-3.696,0.856-5.034c1.243-1.338,3.022-2.035,4.778-2.537
					c1.756-0.503,14.017-5.521,16.915-6.41"/>
				
					<path style="fill:none;stroke:#7C4124;stroke-width:0.8032;stroke-linecap:round;stroke-linejoin:round;stroke-miterlimit:10;" d="
					M87.304,297.822c-8.15,1.25-16.448,1.526-24.663,0.819c-1.087-0.094-2.104-0.464-2.963-1.137
					c-0.859-0.673-1.465-1.704-1.491-2.795c-0.026-1.091,1.019-2.734,2.434-3.168"/>
				
					<path style="fill:none;stroke:#7C4124;stroke-width:0.8032;stroke-linecap:round;stroke-linejoin:round;stroke-miterlimit:10;" d="
					M83.45,306.601c-6.695-0.272-11.379-0.636-17.823-2.473c-2.518-1.043-2.813-1.606-3.158-2.245
					c-0.344-0.639-0.518-1.403-0.315-2.1c0.203-0.697,1.113-1.041,1.839-1.035"/>
				
					<path style="fill:none;stroke:#7C4124;stroke-width:0.8032;stroke-linecap:round;stroke-linejoin:round;stroke-miterlimit:10;" d="
					M40.993,237.709c0.721,0.073,1.364-0.56,1.545-1.262c0.18-0.702,0.008-1.443-0.199-2.137c-0.353-1.185-0.81-2.342-1.4-3.428
					c-0.568-0.059-1.228,0.104-1.746,0.343C39.78,233.357,40.405,235.576,40.993,237.709z"/>
				
					<path style="fill:none;stroke:#7C4124;stroke-width:0.7174;stroke-linecap:round;stroke-linejoin:round;stroke-miterlimit:10;" d="
					M55.456,285.328c1.102-0.062,2.126-0.425,3.201-0.607c1.679-0.284,3.455,0.058,4.141,1.801c0.39,0.99,0.303,2.156-0.551,2.858
					c-0.736,0.605-1.748,0.83-2.668,0.964c-1.151,0.167-2.312,0.334-3.474,0.388"/>
				
					<path style="fill:none;stroke:#7C4124;stroke-width:0.8032;stroke-linecap:round;stroke-linejoin:round;stroke-miterlimit:10;" d="
					M56.058,275.096c1.284-0.889,2.821-1.407,4.381-1.476c0.986,0.215,1.712,0.976,2.074,1.918c0.362,0.942,0.219,2.062-0.368,2.882
					c-0.751,1.049-2.318,1.136-3.572,1.439"/>
				
					<path style="fill:none;stroke:#7C4124;stroke-width:0.8032;stroke-linecap:round;stroke-linejoin:round;stroke-miterlimit:10;" d="
					M58.996,292.706c0.924-0.274,2.448-0.498,3.408-0.406c0.96,0.091,1.941,0.641,2.249,1.555c0.356,1.055-0.311,2.237-1.251,2.834
					c-0.94,0.596-2.619,0.69-3.725,0.816"/>
				
					<path style="fill:none;stroke:#7C4124;stroke-width:0.8032;stroke-linecap:round;stroke-linejoin:round;stroke-miterlimit:10;" d="
					M65.679,298.858c0.978,0.12,2.204,0.362,2.778,0.923c0.574,0.561,0.753,1.569,0.222,2.172c-0.404,0.458-1.068,0.566-1.677,0.61
					c-1.412,0.102-2.838,0.018-4.228-0.251"/>
				
					<path style="fill:none;stroke:#7C4124;stroke-width:0.8032;stroke-linecap:round;stroke-linejoin:round;stroke-miterlimit:10;" d="
					M59.023,266.492c-1.328-4.355-1.739-8.927-2.276-13.449c-0.538-4.521-1.227-9.091-3.059-13.26
					c-1.832-4.168-4.952-7.947-9.167-9.669c-1.682-0.687-3.688-0.297-5.178,0.742"/>
			</g>
			<g>
				<path style="fill:#C9855D;" d="M505.861,298.154c-10.348-6.451-14.952-10.7-23.742-19.15c-8.34-8.017-6.895-21.164-8.633-32.601
					c-1.218-8.012,4.818-15.875,8.48-23.104c-0.161-1.287-1.643-2.293-2.92-2.517c-1.277-0.225-2.586,0.149-3.781,0.653
					c-4.556,1.921-8.115,5.725-10.627,9.985c-2.512,4.259-4.085,8.995-5.639,13.689c-0.291,0.88-1.211,1.811-1.756,2.56
					c-5.587-2.61-10.92-4.656-16.506-7.266c-2.418-1.13-5.087-2.286-7.669-1.611c-2.456,0.642-4.305,3.002-4.525,5.532
					c-0.219,2.529,1.102,5.087,3.187,6.536c-2.787-1.109-6.832,0.616-8.091,3.338c-1.258,2.722-0.043,6.327,2.607,7.732
					c-1.475-0.853-4.535-0.01-5.704,1.23c-1.169,1.24-1.501,3.138-1.034,4.777c0.467,1.639,1.655,3.015,3.094,3.928
					c-1.566-0.248-3.768,0.669-4.218,2.19c-0.451,1.52,0.094,3.221,1.141,4.412c1.047,1.191,2.747,1.46,4.06,2.349
					c13.461,9.117,25.669,13.823,39.326,17.837c1.957,0.575,3.724,1.652,5.141,3.119c9.577,9.912,26.497,24.955,35.467,34.522"/>
				
					<path style="fill:none;stroke:#B56B45;stroke-width:0.7478;stroke-linecap:round;stroke-linejoin:round;stroke-miterlimit:10;" d="
					M431.386,250.942c5.606,3.326,11.213,6.652,16.819,9.977c1.439,0.853,2.947,1.729,4.616,1.837
					c1.669,0.108,3.534-0.817,3.904-2.448c0.423-1.861-1.153-3.523-2.59-4.778c-5.365-4.688-10.773-9.327-16.223-13.916"/>
				
					<path style="fill:none;stroke:#B56B45;stroke-width:0.7478;stroke-linecap:round;stroke-linejoin:round;stroke-miterlimit:10;" d="
					M426.077,261.489c7.03,3.863,14.08,7.736,21.507,10.767c1.073,0.438,2.172,0.862,3.326,0.955
					c1.155,0.092,2.39-0.191,3.216-1.003c1.213-1.192,1.215-3.24,0.409-4.737c-0.806-1.497-2.246-2.542-3.711-3.406
					c-1.464-0.865-11.335-8.26-13.738-9.741"/>
				
					<path style="fill:none;stroke:#B56B45;stroke-width:0.7478;stroke-linecap:round;stroke-linejoin:round;stroke-miterlimit:10;" d="
					M423.078,272.054c7.05,3.037,14.463,5.23,22.03,6.52c1.001,0.171,2.004,0.075,2.936-0.329c0.932-0.405,1.719-1.192,1.999-2.169
					c0.279-0.977-0.277-2.702-1.45-3.425"/>
				
					<path style="fill:none;stroke:#B56B45;stroke-width:0.7478;stroke-linecap:round;stroke-linejoin:round;stroke-miterlimit:10;" d="
					M424.492,280.867c6.096,1.324,10.402,2.095,16.638,1.95c2.513-0.349,2.911-0.787,3.372-1.283
					c0.46-0.495,0.796-1.143,0.776-1.818c-0.02-0.676-0.759-1.199-1.415-1.363"/>
				
					<path style="fill:none;stroke:#B56B45;stroke-width:0.7478;stroke-linecap:round;stroke-linejoin:round;stroke-miterlimit:10;" d="
					M478.897,228.746c-0.667-0.103-1.098-0.825-1.096-1.499c0.002-0.675,0.331-1.302,0.68-1.879c0.596-0.985,1.278-1.92,2.065-2.76
					c0.526,0.08,1.082,0.381,1.493,0.718C481.01,225.11,479.926,226.962,478.897,228.746z"/>
				
					<path style="fill:none;stroke:#B56B45;stroke-width:0.6679;stroke-linecap:round;stroke-linejoin:round;stroke-miterlimit:10;" d="
					M454.703,268.262c-0.978-0.314-1.816-0.881-2.742-1.297c-1.446-0.65-3.127-0.758-4.153,0.652
					c-0.583,0.801-0.778,1.871-0.174,2.705c0.521,0.718,1.38,1.158,2.178,1.494c0.998,0.421,2.005,0.843,3.04,1.164"/>
				
					<path style="fill:none;stroke:#B56B45;stroke-width:0.7478;stroke-linecap:round;stroke-linejoin:round;stroke-miterlimit:10;" d="
					M456.559,258.901c-0.948-1.102-2.212-1.929-3.601-2.357c-0.939-0.037-1.771,0.478-2.318,1.242
					c-0.547,0.764-0.681,1.806-0.344,2.683c0.431,1.121,1.823,1.567,2.882,2.134"/>
				
					<path style="fill:none;stroke:#B56B45;stroke-width:0.7478;stroke-linecap:round;stroke-linejoin:round;stroke-miterlimit:10;" d="
					M449.784,274.08c-0.769-0.464-2.089-1.022-2.975-1.165c-0.886-0.143-1.9,0.123-2.391,0.874
					c-0.568,0.867-0.245,2.089,0.463,2.846c0.707,0.758,2.198,1.235,3.165,1.609"/>
				
					<path style="fill:none;stroke:#B56B45;stroke-width:0.7478;stroke-linecap:round;stroke-linejoin:round;stroke-miterlimit:10;" d="
					M442.32,278.056c-0.909-0.121-2.07-0.19-2.719,0.181c-0.649,0.371-1.046,1.238-0.709,1.905c0.256,0.508,0.829,0.76,1.368,0.943
					c1.249,0.423,2.553,0.681,3.869,0.765"/>
				
					<path style="fill:none;stroke:#B56B45;stroke-width:0.7478;stroke-linecap:round;stroke-linejoin:round;stroke-miterlimit:10;" d="
					M455.904,250.454c2.217-3.613,3.659-7.636,5.204-11.584c1.544-3.948,3.237-7.904,5.865-11.23c2.628-3.326,6.325-6,10.526-6.563
					c1.677-0.225,3.392,0.597,4.492,1.883"/>
			</g>
			<g>
				<g>
					<path style="fill:#D28D62;" d="M481.329,456.717c-0.671-3.154-2.818-5.792-5.18-7.987c-2.363-2.194-5.014-4.088-7.156-6.498
						c-3.771-4.241-5.712-9.787-7.103-15.289c-1.391-5.502-2.336-11.155-4.513-16.396c-1.269-3.055,2.341-5.9,4.137-8.678
						c1.657-2.562,3.314-5.125,4.97-7.687c1.487-2.3,1.275-4.663,1.255-7.287c-0.053-6.872-1.478-13.134-2.707-19.466
						c-1.45-0.92-3.644-0.514-4.698,0.842c-1.987,2.558-2.103,6.066-1.973,9.303c0.112,2.803-0.481,5.381-0.131,8.164
						c0.49,3.892-1.947,6.758-5.079,9.863c-0.88-7.127-0.503-13.823-0.239-20.999c0.365-9.893-3.594-19.224-5.534-28.931
						c-1.967-0.302-3.903,1.095-4.966,2.778c-1.064,1.682-1.362,3.738-1.394,5.728c-0.051,3.177,0.583,7.609,1.776,12.907
						c-2.915-9.303-5.81-18.545-8.725-27.848c-2.667,0.12-4.564,2.552-5.348,5.105c-0.784,2.552-0.459,5.301-0.023,7.935
						c1.14,6.89,2.995,13.661,5.526,20.17c2.401,6.175,0.68,13.282,0.227,19.891c-4.467-3.229-8.612-5.18-13.816-6.997
						c-2.405-0.84-4.657,1.107-6.653,2.69c-3.381,2.682-7.344,5.038-9.439,8.811c-2.724,4.905-3.534,6.609-4.223,11.941
						c1.326,1.695,4.229,1.968,6.194,1.091c1.965-0.877,3.391-2.639,4.525-4.468c1.134-1.829,2.065-3.799,3.434-5.459
						c1.37-1.66,3.308-3.019,5.46-3.051c2.704,2.088,6.122,4.19,9.461,4.916c1.006,2.087,1.778,4.951,1.515,7.252
						c-0.557,4.875-4.94,8.658-8.586,11.943c-4.602-0.032-8.489-2.543-11.053-6.364c-3.28-4.888-9.059-6.36-14.759-4.891
						c-2.765-0.064-3.541,4.397-1.837,6.01c7.118,6.744,19.064,15.748,27.186,23.069c4.335,3.907,7.953,8.695,12.927,11.75
						c5.613,3.448,12.748,4.558,17.268,9.35"/>
					<path style="fill:#D28D62;" d="M476.149,448.731c10.544,11.719,21.899,27.043,33.51,36.915
						c11.611,9.873,23.845,19.253,33.294,31.211c9.449,11.958,15.972,27.139,13.977,42.249c-0.933,7.062-4.33,14.508-10.918,17.219
						c-6.991,2.878-14.96-0.507-21.228-4.733c-19.776-13.333-32.425-34.771-43.019-56.14
						c-10.594-21.369-20.042-43.774-35.775-61.699"/>
					<path style="fill:none;stroke:#B26B3F;stroke-width:1.0168;stroke-linecap:round;stroke-miterlimit:10;" d="M443.357,393.109
						c-0.339-9.194-0.391-15.045-0.564-26.025c-0.031-1.976-6.016-17.139-6.572-20.001"/>
					<path style="fill:none;stroke:#B26B3F;stroke-width:1.0168;stroke-linecap:round;stroke-miterlimit:10;" d="M474.987,500.77
						c12.513,21.245,19.134,36.1,33.28,56.295"/>
				</g>
				<path style="fill:none;stroke:#B26B3F;stroke-width:1.0168;stroke-linecap:round;stroke-miterlimit:10;" d="M448.852,354.223
					c-0.6,0.255-1.294,0.51-1.88,0.223c-0.588-0.288-0.811-0.997-0.969-1.632c-0.495-1.981-0.938-3.975-1.327-5.98"/>
				<path style="fill:none;stroke:#B26B3F;stroke-width:1.0168;stroke-linecap:round;stroke-miterlimit:10;" d="M436.22,347.083
					c-0.209,0.497-0.825,0.741-1.353,0.631c-0.528-0.11-0.96-0.507-1.237-0.97c-0.277-0.463-0.42-0.991-0.561-1.512
					c-0.45-1.668-0.904-3.087-1.354-4.756"/>
				<path style="fill:none;stroke:#B26B3F;stroke-width:1.0168;stroke-linecap:round;stroke-miterlimit:10;" d="M466.314,374.294
					c-0.587,0.643-1.699,0.519-2.357-0.051c-0.658-0.57-0.956-1.445-1.155-2.292c-0.385-1.635-0.517-2.732-0.638-4.408"/>
				<path style="fill:none;stroke:#B26B3F;stroke-width:1.0168;stroke-linecap:round;stroke-miterlimit:10;" d="M402.318,401.67
					c0.823-0.116,1.592,0.576,1.836,1.371c0.243,0.795,0.085,1.654-0.122,2.459c-0.406,1.582-0.994,3.118-1.748,4.567"/>
			</g>
			<g>
				<g>
					<path style="fill:#BE764B;" d="M30.205,148.402c1.701-2.739,4.615-4.493,7.582-5.756s6.103-2.146,8.936-3.686
						c4.986-2.711,8.693-7.27,11.868-11.974c3.175-4.704,5.981-9.702,9.807-13.894c2.23-2.443-0.201-6.344-0.949-9.566
						c-0.689-2.972-1.379-5.945-2.069-8.917c-0.619-2.668,0.382-4.819,1.291-7.28c2.381-6.447,5.845-11.854,9.149-17.394
						c1.676-0.374,3.603,0.752,4.134,2.385c1.002,3.08-0.079,6.42-1.299,9.421c-1.056,2.599-1.372,5.225-2.646,7.725
						c-1.781,3.495-0.461,7.017,1.433,11.001c3.245-6.406,5.162-12.833,7.346-19.673c3.012-9.43,9.9-16.866,15.018-25.34
						c1.953,0.383,3.3,2.354,3.73,4.297c0.43,1.943,0.013,3.978-0.632,5.861c-1.03,3.006-3.129,6.961-6.048,11.54
						c5.897-7.763,11.755-15.476,17.652-23.239c2.468,1.018,3.428,3.949,3.3,6.616c-0.128,2.667-1.366,5.143-2.669,7.473
						c-3.409,6.095-7.451,11.835-12.039,17.1c-4.353,4.994-5.145,12.264-6.96,18.636c5.297-1.523,9.858-1.952,15.37-1.896
						c2.548,0.026,4.006,2.62,5.346,4.787c2.271,3.669,5.2,7.23,5.891,11.49c0.899,5.538,1.083,7.416-0.077,12.665
						c-1.822,1.145-4.645,0.418-6.197-1.074c-1.551-1.492-2.295-3.632-2.742-5.738c-0.447-2.105-0.654-4.274-1.38-6.3
						s-2.088-3.962-4.102-4.722c-3.252,1.047-7.18,1.866-10.567,1.416c-1.654,1.622-3.351,4.054-3.884,6.309
						c-1.129,4.775,1.711,9.821,4.027,14.147c4.34,1.531,8.848,0.487,12.556-2.239c4.743-3.486,10.679-2.911,15.543,0.404
						c2.623,0.877,1.84,5.337-0.31,6.277c-8.983,3.931-23.275,8.349-33.399,12.481c-5.404,2.205-10.431,5.482-16.146,6.669
						c-6.45,1.34-13.538-0.036-19.415,2.94"/>
					<path style="fill:#BE764B;" d="M37.788,142.645c-13.894,7.448-29.773,18.013-44.044,23.362
						c-14.271,5.35-28.962,10.025-41.906,18.069c-12.945,8.044-24.23,20.114-27.478,35.004c-1.518,6.96-0.847,15.116,4.431,19.902
						c5.601,5.079,14.245,4.597,21.575,2.747c23.126-5.836,42.296-21.714,59.51-38.223s33.7-34.382,54.581-45.909"/>
					<path style="fill:none;stroke:#9F582D;stroke-width:1.0168;stroke-linecap:round;stroke-miterlimit:10;" d="M87.501,101.442
						c3.437-8.534,5.47-14.021,9.357-24.291c0.699-1.848,11.472-14.083,12.966-16.586"/>
					<path style="fill:none;stroke:#9F582D;stroke-width:1.0168;stroke-linecap:round;stroke-miterlimit:10;" d="M21.231,191.995
						c-18.977,15.742-30.244,27.47-50.4,41.671"/>
				</g>
				<path style="fill:none;stroke:#9F582D;stroke-width:1.0168;stroke-linecap:round;stroke-miterlimit:10;" d="M95.52,62.997
					c0.478,0.444,1.045,0.919,1.693,0.847c0.65-0.072,1.101-0.663,1.465-1.207c1.138-1.696,2.231-3.422,3.277-5.175"/>
				<path style="fill:none;stroke:#9F582D;stroke-width:1.0168;stroke-linecap:round;stroke-miterlimit:10;" d="M109.824,60.565
					c0.028,0.539,0.525,0.977,1.059,1.052c0.534,0.076,1.075-0.151,1.493-0.493c0.417-0.342,0.732-0.79,1.04-1.232
					c0.989-1.417,1.897-2.598,2.886-4.015"/>
				<path style="fill:none;stroke:#9F582D;stroke-width:1.0168;stroke-linecap:round;stroke-miterlimit:10;" d="M72.285,75.956
					c0.334,0.804,1.422,1.065,2.234,0.752c0.812-0.313,1.389-1.035,1.864-1.764c0.917-1.407,1.413-2.395,2.095-3.93"/>
				<path style="fill:none;stroke:#9F582D;stroke-width:1.0168;stroke-linecap:round;stroke-miterlimit:10;" d="M123.203,123.414
					c-0.735-0.388-1.693,0.002-2.192,0.667c-0.499,0.665-0.641,1.527-0.72,2.354c-0.155,1.626-0.122,3.27,0.095,4.889"/>
			</g>
		</g>
	</g>
</g>
</svg>
