<?xml version="1.0" encoding="utf-8"?>
<!-- Generator: Adobe Illustrator 27.5.0, SVG Export Plug-In . SVG Version: 6.00 Build 0)  -->
<svg version="1.1" xmlns="http://www.w3.org/2000/svg" xmlns:xlink="http://www.w3.org/1999/xlink" x="0px" y="0px"
	 viewBox="0 0 500 500" style="enable-background:new 0 0 500 500;" xml:space="preserve">
<g id="BACKGROUND">
	<rect style="fill:#F3D6D4;" width="500" height="500"/>
</g>
<g id="OBJECTS">
	<circle style="fill:#F0C7C6;" cx="252.127" cy="248.204" r="183.963"/>
	<g>
		<path style="fill:#E799D5;" d="M357.752,122.631c-1.638-2.637,0.481-5.952,3.574-5.684c24.54,2.13,37.049-21.07,44.707-24.674
			c8.394-3.95,16.613-0.52,20.893,5.089l-0.658,31.199c0,0-7.401-13.167-18.588,0C383.892,156.556,365.403,134.944,357.752,122.631z
			"/>
		<path style="fill:#4A15A8;" d="M429.362,226.824L429.362,226.824c-1.669,0-3.022-1.353-3.022-3.022V91.784
			c0-1.669,1.353-3.022,3.022-3.022l0,0c1.669,0,3.022,1.353,3.022,3.022v132.019C432.384,225.471,431.031,226.824,429.362,226.824z
			"/>
		
			<line style="fill:none;stroke:#26252F;stroke-linecap:round;stroke-linejoin:round;stroke-miterlimit:10;" x1="406.565" y1="226.824" x2="452.402" y2="226.824"/>
		<path style="fill:none;stroke:#26252F;stroke-linecap:round;stroke-linejoin:round;stroke-miterlimit:10;" d="M364.011,274.405
			h-24.767c-1.466,0-2.655,1.189-2.655,2.655v51.175c0,1.466-1.188,2.655-2.655,2.655h-65.244c-1.466,0-2.655,1.189-2.655,2.655
			v44.55c0,1.466-1.188,2.655-2.655,2.655h-61.003c-1.466,0-2.655,1.189-2.655,2.655v33.581c0,1.466-1.189,2.655-2.655,2.655H127.59
			c-1.466,0-2.655,1.189-2.655,2.655v37.071c0,1.466-1.188,2.655-2.655,2.655H57.626"/>
	</g>
	<g>
		<path style="fill:none;stroke:#FFFFFF;stroke-miterlimit:10;" d="M133.5,267.015H73.566c-2.418,0-4.379-1.96-4.379-4.378v-4.29
			c0-2.418,1.96-4.379,4.379-4.379H133.5c2.418,0,4.378,1.96,4.378,4.379v4.29C137.879,265.055,135.918,267.015,133.5,267.015z"/>
		<path style="fill:none;stroke:#FFFFFF;stroke-miterlimit:10;" d="M265.932,112.669h-59.934c-2.418,0-4.378-1.96-4.378-4.378v-4.29
			c0-2.418,1.96-4.378,4.378-4.378h59.934c2.418,0,4.378,1.96,4.378,4.378v4.29C270.31,110.709,268.35,112.669,265.932,112.669z"/>
		<path style="fill:none;stroke:#FFFFFF;stroke-miterlimit:10;" d="M356.877,197.99h-59.934c-2.418,0-4.379-1.96-4.379-4.378v-4.29
			c0-2.418,1.96-4.379,4.379-4.379h59.934c2.418,0,4.378,1.96,4.378,4.379v4.29C361.256,196.029,359.295,197.99,356.877,197.99z"/>
		<path style="fill:none;stroke:#FFFFFF;stroke-miterlimit:10;" d="M350.446,386.188h-49.317c-1.931,0-3.497-1.565-3.497-3.496
			v-3.157c0-1.931,1.565-3.497,3.497-3.497h49.317c1.931,0,3.497,1.566,3.497,3.497v3.157
			C353.942,384.622,352.377,386.188,350.446,386.188z"/>
	</g>
	<g>
		<path style="fill:#D0CFCF;" d="M273.935,239.901c-2.19,1.065-6.147-2.558-8.838-8.092c-2.691-5.534-3.097-10.884-0.906-11.949
			c2.19-1.065,6.147,2.558,8.838,8.092C275.719,233.486,276.125,238.836,273.935,239.901z"/>
		<path style="fill:#362C37;" d="M200.774,87.42c-0.023-0.156-0.069-0.298-0.144-0.436c-0.662-1.218-4.32-7.17-12.116-6.117
			c-8.676,1.172-10.331,8.573-13.826,13.509c-3.299,4.66-14.93,15.115-17.503,21.071c-0.247,0.573-0.049,1.236,0.457,1.601
			l8.864,6.398c0.492,0.355,1.161,0.334,1.629-0.051l1.802-1.479c3.283-2.874,2.638,0.286,2.069,1.573l0,0
			c-0.332,0.75,0.085,1.62,0.878,1.831l1.885,0.502c0.534,0.142,1.095-0.052,1.42-0.499c2.027-2.793,9.261-12.88,12.237-18.606
			c3.478-6.692,12.511-18.219,12.511-18.219L200.774,87.42z"/>
		<g>
			<g>
				<g>
					<g>
						<path style="fill:#362C37;" d="M195.142,87.494c7.26-2.839,14.741-2.617,21.597,1.091c3.868,2.092,5.007,3.781,7.348,6.078
							c2.341,2.297,3.999,5.178,4.331,8.442c0.395,3.876,0.289,7.908-1.239,11.492c-1.57,3.681-3.153,7.386-5.371,10.716
							c-2.218,3.331-5.132,6.303-8.768,7.974l-9.715-3.44c-4.981-2.582-16.034,4.592-20.169,0.799
							c-4.135-3.793-2.663-17.036-2.866-22.643C180.008,100.212,187.882,90.333,195.142,87.494z"/>
					</g>
				</g>
			</g>
		</g>
		<path style="fill:#DF6942;" d="M196.001,147.788c0,0-5.727,7.772-11.733,5.845c-9.805-3.144-10.931-20.819-10.931-20.819
			c6.904-11.271,10.211-20.038,10.211-20.038c2.235-8.194,22.382-9.972,17.317,14.847l-0.788,3.253l-2.747,11.389L196.001,147.788z"
			/>
		<path style="fill:#80493C;" d="M197.226,142.651c-6.244-2.221-12.128-8.993-12.503-18.304l15.354,6.528L197.226,142.651z"/>
		<g>
			<path style="fill:#DF6942;" d="M195.429,139.259c-8.141-3.548-15.444-4.99-13.845-17.805
				c1.784-14.296,10.321-17.569,15.228-19.35c6.725-2.441,14.447-3.491,19.388-1.172c5.941,2.789,9.189,3.895,2.606,21.069
				c-0.683,1.783-4.137,9.803-6.973,12.848C206.811,140.242,201.46,141.887,195.429,139.259z"/>
		</g>
		<path style="fill:#DF6942;" d="M188.211,110.497c2.221-4.283-1.816-11.173-6.975-6.904c-4.465,3.696-0.768,8.424,3.526,10.448
			L188.211,110.497z"/>
		<path d="M203.425,113.009c0.528,0.052,0.832,0.697,0.678,1.438c-0.154,0.742-0.706,1.301-1.235,1.248
			c-0.528-0.052-0.832-0.697-0.679-1.439C202.343,113.515,202.896,112.956,203.425,113.009z"/>
		<g>
			<path style="fill:#2C2E38;" d="M206.056,112.285c-0.296,0.348-1.488-0.431-2.925-1.027c-1.536-0.479-2.931-0.708-2.923-1.133
				c-0.093-0.203,0.394-0.465,1.024-0.582c0.629-0.117,1.545-0.052,2.457,0.226c0.959,0.326,1.672,0.942,2.002,1.386
				C206.065,111.754,206.203,112.111,206.056,112.285z"/>
		</g>
		<path style="fill:none;stroke:#000000;stroke-linecap:round;stroke-miterlimit:10;" d="M208.578,118.65
			c0,0,0.972,5.901,0.434,6.556c-0.23,0.375-1.26,0.266-2.024,0.098"/>
		<path d="M216.035,118.147c-0.388-0.362-1.072-0.165-1.528,0.441c-0.456,0.605-0.51,1.39-0.122,1.752
			c0.389,0.362,1.073,0.165,1.528-0.441C216.369,119.293,216.423,118.509,216.035,118.147z"/>
		<g>
			<path style="fill:#2C2E38;" d="M212.488,114.634c-0.043,0.453,1.357,0.742,2.796,1.332c1.425,0.741,2.571,1.56,2.871,1.256
				c0.211-0.077,0.057-0.604-0.301-1.128c-0.358-0.524-1.05-1.121-1.891-1.566c-0.91-0.444-1.854-0.511-2.406-0.431
				C212.864,114.254,212.51,114.408,212.488,114.634z"/>
		</g>
		<path style="fill:none;stroke:#000000;stroke-linecap:round;stroke-miterlimit:10;" d="M201.37,111.388"/>
		<path style="fill:#FFFFFF;" d="M205.666,129.35c-1.766-0.666-2.903-1.889-3.476-2.65c-0.21-0.28-0.645-0.213-0.763,0.117
			c-0.399,1.112-0.898,2.612,0.292,3.79c1.206,1.194,2.809,0.241,4.021-0.469C206.058,129.95,206.012,129.48,205.666,129.35z"/>
		<path style="fill:#DF6942;" d="M140.819,387.332l-1.312,14.487l24.523-0.787l-2.304-21.828
			C161.726,379.203,146.994,379.091,140.819,387.332z"/>
		<path style="fill:#FFFFFF;" d="M139.833,398.766c-0.853,0.001-1.536,0.616-1.556,1.386c-0.207,8.109-2.011,19.067,2.847,19.063
			c4.226-0.004,46.675-0.043,48.548-0.044c1.873-0.002,1.355-5.565-3.797-6.829c-4.834-1.186-16.78-9.262-19.272-12.934
			c-0.283-0.418-0.774-0.665-1.316-0.664L139.833,398.766z"/>
		<path style="fill:#4A15A8;" d="M163.862,204.938c0.678,0.19-14.843,28.985-14.504,29.601c4.261,7.754,17.519,60.658,19.583,67.199
			c1.986,6.294,2.347,72.213,2.403,86.868c0.006,1.523-1.284,2.724-2.803,2.616l-33.26,0.04c-1.337-0.095-2.387-1.185-2.431-2.525
			l-2.622-80.43c-0.008-0.232-0.046-0.462-0.114-0.684l-24.387-62.947c-5.073-12.268,2.962-43.273,4.956-42.715L163.862,204.938z"/>
		<polyline style="fill:none;stroke:#ECE7FD;stroke-linecap:round;stroke-linejoin:round;stroke-miterlimit:10;" points="
			140.181,366.057 139.271,308.828 117.223,249.147 		"/>
		
			<line style="fill:none;stroke:#ECE7FD;stroke-linecap:round;stroke-linejoin:round;stroke-miterlimit:10;" x1="165.714" y1="384.291" x2="138.031" y2="384.267"/>
		<path style="fill:#DF6942;" d="M203.159,349.856l1.446,14.486l24.522-0.814l-3.699-21.824
			C225.428,341.704,209.325,341.609,203.159,349.856z"/>
		<path style="fill:#FFFFFF;" d="M203.541,359.925c-0.853,0.002-1.536,0.618-1.555,1.388c-0.198,8.109-1.991,19.069,2.867,19.059
			c4.226-0.008,46.674-0.093,48.548-0.096c1.873-0.004,1.349-5.566-3.805-6.825c-4.835-1.181-16.79-9.244-19.286-12.913
			c-0.284-0.417-0.774-0.664-1.317-0.663L203.541,359.925z"/>
		<path style="fill:#4A15A8;" d="M126.301,244.02c-0.988,0.454-1.596,1.472-1.519,2.557c0.407,5.72,4.3,15.479,13.097,20.438
			c8.602,4.849,37.313,9.108,49.4,11.48c2.732,0.536,2.278,1.599,2.444,3.801l5.605,71.793c0.58,1.55,1.926,1.67,3.838,1.304
			l32.874-3.986c1.057-0.659,1.114-1.892,1.067-3.137c-0.615-16.445-6.337-98.463-16.467-104.842
			c-10.304-6.488-49.548-24.689-57.24-27.334c-0.636-0.219-9.917,4.956-10.528,5.237L126.301,244.02z"/>
		<path style="fill:none;stroke:#ECE7FD;stroke-linecap:round;stroke-linejoin:round;stroke-miterlimit:10;" d="M157.624,260.498
			c0,0,8.068,1.111,16.671,2.777c8.604,1.666,17.743,3.888,19.887,6.11c4.288,4.444,9.114,71.752,9.114,71.752"/>
		
			<line style="fill:none;stroke:#ECE7FD;stroke-linecap:round;stroke-linejoin:round;stroke-miterlimit:10;" x1="228.027" y1="345.651" x2="203.976" y2="348.608"/>
		<path style="fill:#FFFFFF;" d="M223.843,192.394l-2.93,25.309c-0.645,8.325-0.312,14.96-0.646,19.912
			c-0.457,6.865-2.185,10.517-9.553,10.981l-0.011,0.001c-0.011,0.001-0.011,0.001-0.023,0.003c-0.105-0.011-0.21-0.022-0.304-0.045
			c-0.363-0.05-0.725-0.1-1.077-0.163c-0.246-0.04-0.481-0.082-0.716-0.124c-0.318-0.067-0.637-0.133-0.944-0.201
			c-0.414-0.101-0.818-0.204-1.211-0.32c-0.713-0.193-1.395-0.425-2.034-0.673c-0.253-0.097-0.494-0.196-0.725-0.296
			c-1.137-0.478-2.156-1.027-3.078-1.633c-0.186-0.117-0.372-0.233-0.55-0.374c-1.564-1.084-2.824-2.319-3.812-3.596
			c-0.31-0.39-0.584-0.772-0.837-1.169c-0.739-1.111-1.282-2.221-1.691-3.267c-0.08-0.198-0.148-0.385-0.216-0.573
			c-0.083-0.221-0.155-0.442-0.214-0.654c-0.058-0.2-0.113-0.378-0.169-0.567c-0.323-1.194-0.455-2.237-0.474-2.994
			c-0.096-4.2,0.07-47.667,0.07-47.667l1.344-4.874l6.496-18.358L223.843,192.394z"/>
		<path style="fill:#FFFFFF;" d="M204.768,174.834c-1.379,1.346-2.747,2.797-4.092,4.341
			c-12.956,14.837-23.684,37.285-27.145,39.943c-4.967,3.828-17.722,3.434-30.104,1.779c-12.059-1.608-23.757-4.401-27.537-5.668
			c-7.667-2.552-9.668-4.459-8.812-7.301c0.857-2.832,6.17-20.563,6.17-20.563l-1.991-1.548l-21.976-17.158
			c10.66-10.165,24.816-21.785,38.226-28.88c9.09-4.804,26.444-7.636,33.523-6.414L204.768,174.834z"/>
		<path style="fill:#FFFFFF;" d="M273.378,240.113c0,0-12.972,3.476-26.177,5.657c-10.903,1.812-23.162,3.546-31.528,3.885
			c-0.645,0.025-1.268,0.036-1.885,0.022c-0.276,0.011-0.556-0.001-0.825-0.014c-0.231,0.003-0.464-0.005-0.699-0.024
			c-0.408-0.014-0.808-0.052-1.195-0.081c-0.423-0.034-0.836-0.082-1.238-0.132c-0.096-0.019-0.178-0.029-0.272-0.036
			c-0.344-0.048-0.678-0.108-1.012-0.169c-0.058-0.002-0.118-0.015-0.178-0.029c-0.395-0.074-0.791-0.159-1.165-0.248
			c-0.036-0.006-0.083-0.009-0.122-0.038c-14.132-6.031-15.992-14.91-9.924-21.588c4.261-4.712,12.459-8.313,23.071-9.08
			l40.97,3.517c0,0,1.761,8.057,3.171,10.235C267.984,237.573,273.378,240.113,273.378,240.113z"/>
		<g id="pencil_00000080195146109781948520000018404406516878838957_">
			<g>
				<g>
					<path style="fill:#8C78FA;" d="M342.911,270.848c0.404,0.862-0.401,1.797-1.314,1.524l-11.419-3.413l-20.844-6.249
						c0,0-110.792-92.684-163.873-137.213c-14.61-12.26-24.846-20.862-27.201-22.893c-7.841-6.747,7.648-27.515,17.45-20.233
						c0.769,0.571,11.02,8.978,26.451,21.653C215.15,147.56,329.17,241.523,329.17,241.523l8.665,18.495L342.911,270.848z"/>
					<g>
						
							<line style="fill:none;stroke:#EBEBEB;stroke-linecap:round;stroke-linejoin:round;stroke-miterlimit:10;" x1="172.339" y1="124.353" x2="314.519" y2="240.544"/>
						
							<line style="fill:none;stroke:#EBEBEB;stroke-linecap:round;stroke-linejoin:round;stroke-miterlimit:10;" x1="167.452" y1="133.425" x2="308.387" y2="248.599"/>
					</g>
					<path style="fill:#FFFFFF;" d="M337.835,260.018c-3.498,1.918-6.163,5.177-7.656,8.94l-20.078-6.019
						c-0.468-0.14-0.761-0.599-0.684-1.081c0.265-1.661,1.387-5.2,6.133-5.503c0.621-0.04,1.027-0.631,0.877-1.235
						c-0.877-3.543,1.329-7.148,5.647-5.723c0.613,0.202,1.257-0.287,1.24-0.932c-0.054-2.03,0.557-5.477,5.016-6.74
						c0.469-0.133,0.969,0.075,1.176,0.517L337.835,260.018z"/>
					<path style="fill:#362C37;" d="M341.613,272.376l-11.434-3.418c1.492-3.763,4.157-7.021,7.656-8.94l5.083,10.844
						C343.32,271.719,342.52,272.647,341.613,272.376z"/>
					<path style="fill:#4A15A8;" d="M162.163,104.024c-5.568,7.14-11.67,14.981-16.7,21.473
						c-14.61-12.26-24.846-20.862-27.201-22.893c-7.841-6.747,7.648-27.515,17.45-20.233
						C136.481,82.941,146.732,91.348,162.163,104.024z"/>
					
						<line style="fill:none;stroke:#FFFFFF;stroke-linecap:round;stroke-linejoin:round;stroke-miterlimit:10;" x1="154.905" y1="98.067" x2="137.73" y2="119.009"/>
				</g>
				<g>
					<path style="fill:#DF6942;" d="M260.18,223.721c9.425-9.358,11.726-9.444,12.763-8.409c1.037,1.036-2.755,6.275-4.018,7.676
						c0,0,8.034-7.149,10.65-5.814c2.616,1.335-0.362,4.951-0.362,4.951s4.778-0.487,2.131,4.915c0,0,2.486-0.208,1.248,2.485
						c-1.238,2.694-9.64,9.556-13.029,8.272C266.174,236.514,255.62,228.249,260.18,223.721z"/>
					<path style="fill:none;stroke:#BF4729;stroke-linecap:round;stroke-linejoin:round;stroke-miterlimit:10;" d="M264.282,219.816
						c6.046-5.451,7.795-5.369,8.661-4.504c1.037,1.036-2.755,6.275-4.018,7.676c0,0,8.034-7.149,10.65-5.814
						c2.616,1.335-0.362,4.951-0.362,4.951s4.778-0.487,2.131,4.915c0,0,2.486-0.208,1.248,2.485"/>
					
						<line style="fill:none;stroke:#BF4729;stroke-linecap:round;stroke-linejoin:round;stroke-miterlimit:10;" x1="279.212" y1="222.124" x2="270.643" y2="228.736"/>
					
						<line style="fill:none;stroke:#BF4729;stroke-linecap:round;stroke-linejoin:round;stroke-miterlimit:10;" x1="273.417" y1="232.95" x2="281.343" y2="227.04"/>
				</g>
			</g>
			
				<line style="fill:none;stroke:#BF4729;stroke-linecap:round;stroke-linejoin:round;stroke-miterlimit:10;" x1="268.925" y1="222.987" x2="266.475" y2="225.349"/>
		</g>
		<g>
			<g>
				<g>
					<g>
						<g>
							<g>
								<path style="fill:#362C37;" d="M187.586,102.082l1.343,4c21.447,3.308,33.932-5.991,32.53-5.708
									c0,0-2.483-5.218-7.498-8.314c-5.015-3.097-15.234-8.187-19.811-2.87C189.572,94.507,187.586,102.082,187.586,102.082z"/>
							</g>
						</g>
					</g>
				</g>
			</g>
		</g>
		<path style="fill:#362C37;" d="M215.958,96.518c0,0,1.369,13.612,7.661,20.713C223.619,117.231,230.041,105.897,215.958,96.518z"
			/>
		<path style="fill:#D0CFCF;" d="M157.235,167.354c-2.19,1.065-6.425-3.129-9.458-9.368c-3.033-6.239-3.717-12.16-1.527-13.225
			c2.19-1.065,6.425,3.13,9.458,9.368C158.742,160.368,159.426,166.289,157.235,167.354z"/>
		<path style="fill:#DF6942;" d="M144.044,148.739c3.228-0.792,8.025-2.057,8.612-2.477c0.587-0.42,4.711-4.589,6.57-6.138
			c1.86-1.549,9.336-7.726,10.16-7.321c0.824,0.404,1.378,2.742,0.116,4.654c0,0,8.414-4.791,12.194-5.689
			c3.072-0.73,2.807,2.28,0.873,3.868c3.173-1.868,7.32-0.851,3.162,2.903c3.005-0.885,4.866,1.285,0.475,5.306
			c2.479-1.764,4.513,0.014,2.37,2.769c-3.503,4.503-11.292,8.585-13.758,9.86c-2.465,1.275-18.421,6.8-24.351,11.09
			C150.467,167.564,143.897,158.425,144.044,148.739z"/>
		<path style="fill:none;stroke:#BF4729;stroke-linecap:round;stroke-linejoin:round;stroke-miterlimit:10;" d="M159.227,140.124
			c1.86-1.549,9.336-7.726,10.16-7.321c0.824,0.404,1.378,2.742,0.116,4.654c0,0,8.414-4.791,12.194-5.689
			c3.072-0.73,2.807,2.28,0.873,3.868c3.173-1.868,7.32-0.851,3.162,2.903c3.005-0.885,4.866,1.285,0.475,5.306
			c2.479-1.764,4.513,0.014,2.37,2.769"/>
		
			<line style="fill:none;stroke:#BF4729;stroke-linecap:round;stroke-linejoin:round;stroke-miterlimit:10;" x1="169.503" y1="137.456" x2="165.189" y2="140.237"/>
		
			<line style="fill:none;stroke:#BF4729;stroke-linecap:round;stroke-linejoin:round;stroke-miterlimit:10;" x1="182.569" y1="135.635" x2="173.701" y2="141.073"/>
		
			<line style="fill:none;stroke:#BF4729;stroke-linecap:round;stroke-linejoin:round;stroke-miterlimit:10;" x1="185.731" y1="138.539" x2="176.184" y2="145.008"/>
		
			<line style="fill:none;stroke:#BF4729;stroke-linecap:round;stroke-linejoin:round;stroke-miterlimit:10;" x1="186.206" y1="143.844" x2="178.758" y2="149.298"/>
		<path style="fill:#FFFFFF;" d="M146.37,145.304c-15.363,3.384-42.996,7.342-62.261,24.993c-7.454,6.83-4.457,31.593,17.53,26.948
			c21.987-4.645,54.615-29.611,54.615-29.611S148.142,161.392,146.37,145.304z"/>
		<path style="fill:none;stroke:#D0CFCF;stroke-miterlimit:10;" d="M146.37,145.304c-15.363,3.384-42.996,7.342-62.261,24.993
			c-7.454,6.83-4.457,31.593,17.53,26.948c21.987-4.645,54.615-29.611,54.615-29.611"/>
		
			<line style="fill:none;stroke:#ECE7FD;stroke-linecap:round;stroke-linejoin:round;stroke-miterlimit:10;" x1="150.329" y1="241.292" x2="161.83" y2="273.206"/>
	</g>
</g>
</svg>
